M48
; DRILL file {KiCad 9.0.7} date 2026-04-07T20:56:27+0900
; FORMAT={-:-/ absolute / inch / decimal}
; #@! TF.CreationDate,2026-04-07T20:56:27+09:00
; #@! TF.GenerationSoftware,Kicad,Pcbnew,9.0.7
; #@! TF.FileFunction,Plated,1,2,PTH
FMAT,2
INCH
; #@! TA.AperFunction,Plated,PTH,ViaDrill
T1C0.0118
; #@! TA.AperFunction,Plated,PTH,ViaDrill
T2C0.0197
; #@! TA.AperFunction,Plated,PTH,ComponentDrill
T3C0.0315
; #@! TA.AperFunction,Plated,PTH,ComponentDrill
T4C0.0394
%
G90
G05
T1
X6.011Y-3.839
X6.0169Y-3.628
X6.0197Y-4.0331
X6.024Y-4.4146
X6.028Y-4.2154
X6.0772Y-4.7157
X6.0783Y-3.1323
X6.1024Y-4.7783
X6.1197Y-3.0654
X6.1331Y-4.8811
X6.1354Y-3.6386
X6.1657Y-4.4488
X6.1669Y-4.5209
X6.1673Y-4.1724
X6.1681Y-4.2626
X6.1764Y-4.8209
X6.1921Y-2.7331
X6.2075Y-3.4098
X6.2197Y-5.1106
X6.2571Y-4.6382
X6.2929Y-3.5346
X6.2929Y-3.572
X6.2972Y-4.3701
X6.2992Y-4.3217
X6.3012Y-4.5492
X6.3035Y-3.2917
X6.3169Y-4.9075
X6.3201Y-3.2126
X6.3217Y-4.6646
X6.3453Y-5.0138
X6.3461Y-4.5965
X6.3492Y-3.248
X6.3531Y-4.4571
X6.3547Y-4.2217
X6.3717Y-2.7843
X6.3728Y-5.1197
X6.4504Y-3.3256
X6.4528Y-3.5314
X6.4543Y-4.3188
X6.4757Y-4.5682
X6.4819Y-3.5547
X6.4863Y-4.3426
X6.4894Y-5.1209
X6.4913Y-4.6925
X6.4945Y-2.7484
X6.4957Y-4.639
X6.5217Y-3.2024
X6.5862Y-5.0626
X6.6398Y-2.7772
X6.7134Y-4.6386
X6.7185Y-5.1528
X6.7638Y-4.6764
X6.7744Y-2.7886
X6.8236Y-5.0559
X6.8354Y-4.6402
X6.8646Y-4.6748
X6.8913Y-3.316
X6.8917Y-3.4016
X6.8955Y-4.086
X6.8961Y-3.1473
X6.8996Y-3.0307
X6.9146Y-3.5602
X6.9469Y-3.5346
X6.952Y-4.3295
X6.9724Y-4.5346
X6.9866Y-2.9819
X7.0146Y-4.3063
X7.0287Y-3.2126
X7.0321Y-3.7423
X7.0327Y-4.9035
X7.0346Y-4.0106
X7.0354Y-5.0303
X7.0378Y-4.8268
X7.0488Y-4.2272
X7.0567Y-3.5299
X7.0571Y-3.148
X7.0587Y-3.5803
X7.0591Y-3.4843
X7.0685Y-4.1461
X7.0689Y-4.2648
X7.0736Y-4.6748
X7.0764Y-4.3319
X7.0791Y-3.3709
X7.0929Y-4.378
X7.098Y-2.7465
X7.1043Y-4.878
X7.1118Y-5.1272
X7.1417Y-4.8524
X7.1689Y-5.0669
X7.1819Y-3.6984
X7.1933Y-4.0602
X7.1941Y-4.5
X7.2161Y-3.0764
X7.252Y-4.813
X7.2551Y-2.8323
X7.2559Y-4.2726
X7.2598Y-3.5059
X7.2878Y-5.0272
X7.2906Y-3.3709
X7.2908Y-4.976
X7.2917Y-4.9362
X7.2925Y-3.4508
X7.2965Y-3.3028
X7.3035Y-5.1626
X7.3142Y-5.0016
X7.3409Y-3.937
X7.389Y-4.0157
X7.411Y-2.7476
X7.4358Y-5.0921
X7.5126Y-2.9898
X7.5559Y-3.3043
X7.5823Y-4.5209
X7.5866Y-4.602
X7.5937Y-3.3736
X7.6039Y-5.0705
X7.6063Y-3.0583
X7.689Y-3.1547
X7.6917Y-4.6555
X7.7146Y-4.5311
X7.8724Y-4.9142
X7.9228Y-3.7441
X7.9264Y-3.5386
X7.9331Y-3.3315
X7.9362Y-4.8295
X7.9398Y-3.172
X7.9886Y-4.0413
X7.9894Y-3.239
X7.9953Y-4.4248
X7.9969Y-4.7256
X8.0016Y-3.4307
X8.0024Y-4.1429
X8.0083Y-4.5819
X8.0091Y-4.2799
X8.0256Y-3.6224
T2
X6.1602Y-3.3614
X6.1713Y-3.5935
X6.172Y-3.4811
X6.1846Y-3.7039
X6.2783Y-3.4429
X6.2907Y-3.6388
X6.2976Y-4.4953
X6.302Y-3.6847
X6.3031Y-3.7319
X6.3031Y-4.1783
X6.3063Y-4.2547
X6.3102Y-3.3965
X6.3134Y-4.4303
X6.3161Y-3.8472
X6.4594Y-3.3969
X6.4614Y-4.1929
X6.4654Y-3.6677
X6.4654Y-4.4783
X6.4681Y-4.2543
X6.47Y-3.4429
X6.478Y-3.6143
X6.4795Y-4.4017
X6.5134Y-4.0075
X6.8817Y-3.885
X6.9524Y-4.9606
X7.0311Y-3.8783
X7.1453Y-3.2988
X7.1799Y-3.1894
X7.2197Y-3.2807
X7.2555Y-3.1461
X7.3083Y-2.9165
X7.4799Y-3.0882
T3
X7.2638Y-3.6722
X7.2638Y-3.7707
X7.2638Y-4.4596
X7.2638Y-4.5581
T4
X6.063Y-3.5433
X6.063Y-3.7402
X6.063Y-3.937
X6.063Y-4.1339
X6.063Y-4.3307
X6.2205Y-2.9134
X6.2205Y-4.9606
X6.4173Y-2.9134
X6.4173Y-4.9606
X7.5Y-2.9134
X7.5Y-4.9606
X7.5772Y-3.487
X7.5772Y-3.587
X7.5772Y-3.687
X7.5772Y-3.787
X7.5772Y-3.887
X7.5772Y-3.987
X7.5772Y-4.087
X7.5772Y-4.187
X7.5772Y-4.287
X7.5772Y-4.387
X7.6772Y-3.487
X7.6772Y-3.587
X7.6772Y-3.687
X7.6772Y-3.787
X7.6772Y-3.887
X7.6772Y-3.987
X7.6772Y-4.087
X7.6772Y-4.187
X7.6772Y-4.287
X7.6772Y-4.387
X7.6969Y-2.9134
X7.6969Y-4.9606
M30
