%TF.GenerationSoftware,KiCad,Pcbnew,9.0.7*%
%TF.CreationDate,2026-02-25T21:46:23+09:00*%
%TF.ProjectId,power board_1.0,706f7765-7220-4626-9f61-72645f312e30,rev?*%
%TF.SameCoordinates,Original*%
%TF.FileFunction,Soldermask,Top*%
%TF.FilePolarity,Negative*%
%FSLAX46Y46*%
G04 Gerber Fmt 4.6, Leading zero omitted, Abs format (unit mm)*
G04 Created by KiCad (PCBNEW 9.0.7) date 2026-02-25 21:46:23*
%MOMM*%
%LPD*%
G01*
G04 APERTURE LIST*
G04 Aperture macros list*
%AMRoundRect*
0 Rectangle with rounded corners*
0 $1 Rounding radius*
0 $2 $3 $4 $5 $6 $7 $8 $9 X,Y pos of 4 corners*
0 Add a 4 corners polygon primitive as box body*
4,1,4,$2,$3,$4,$5,$6,$7,$8,$9,$2,$3,0*
0 Add four circle primitives for the rounded corners*
1,1,$1+$1,$2,$3*
1,1,$1+$1,$4,$5*
1,1,$1+$1,$6,$7*
1,1,$1+$1,$8,$9*
0 Add four rect primitives between the rounded corners*
20,1,$1+$1,$2,$3,$4,$5,0*
20,1,$1+$1,$4,$5,$6,$7,0*
20,1,$1+$1,$6,$7,$8,$9,0*
20,1,$1+$1,$8,$9,$2,$3,0*%
G04 Aperture macros list end*
%ADD10RoundRect,0.200000X0.200000X0.275000X-0.200000X0.275000X-0.200000X-0.275000X0.200000X-0.275000X0*%
%ADD11RoundRect,0.225000X0.225000X0.250000X-0.225000X0.250000X-0.225000X-0.250000X0.225000X-0.250000X0*%
%ADD12C,2.400000*%
%ADD13R,2.400000X2.400000*%
%ADD14C,2.775000*%
%ADD15R,1.145000X3.400000*%
%ADD16R,3.400000X3.310000*%
%ADD17R,4.049000X3.342000*%
%ADD18R,3.400000X1.145000*%
%ADD19R,1.145000X1.145000*%
%ADD20RoundRect,0.218750X0.256250X-0.218750X0.256250X0.218750X-0.256250X0.218750X-0.256250X-0.218750X0*%
%ADD21RoundRect,0.200000X0.275000X-0.200000X0.275000X0.200000X-0.275000X0.200000X-0.275000X-0.200000X0*%
%ADD22RoundRect,1.500000X-1.500000X-1.500000X1.500000X-1.500000X1.500000X1.500000X-1.500000X1.500000X0*%
%ADD23C,6.000000*%
%ADD24RoundRect,0.200000X-0.200000X-0.275000X0.200000X-0.275000X0.200000X0.275000X-0.200000X0.275000X0*%
%ADD25RoundRect,0.250000X-0.600000X-0.600000X0.600000X-0.600000X0.600000X0.600000X-0.600000X0.600000X0*%
%ADD26C,1.700000*%
%ADD27RoundRect,0.250000X0.475000X-0.250000X0.475000X0.250000X-0.475000X0.250000X-0.475000X-0.250000X0*%
%ADD28RoundRect,0.250000X0.600000X0.750000X-0.600000X0.750000X-0.600000X-0.750000X0.600000X-0.750000X0*%
%ADD29O,1.700000X2.000000*%
G04 APERTURE END LIST*
D10*
%TO.C,R5*%
X160825000Y-130000000D03*
X159175000Y-130000000D03*
%TD*%
D11*
%TO.C,C2*%
X170775000Y-130000000D03*
X169225000Y-130000000D03*
%TD*%
D10*
%TO.C,R9*%
X163825000Y-109250000D03*
X162175000Y-109250000D03*
%TD*%
D12*
%TO.C,F1*%
X168500000Y-84900000D03*
D13*
X168500000Y-81500000D03*
D12*
X155030000Y-84900000D03*
X155030000Y-81500000D03*
%TD*%
D14*
%TO.C,SW1*%
X140085000Y-89450000D03*
X140085000Y-84750000D03*
X140085000Y-80050000D03*
X144915000Y-89450000D03*
X144915000Y-84750000D03*
X144915000Y-80050000D03*
%TD*%
D15*
%TO.C,PS2*%
X166500000Y-92302250D03*
D16*
X171817750Y-94570000D03*
X171817750Y-99140000D03*
D17*
X169935500Y-103726000D03*
D15*
X166500000Y-103697750D03*
X161930000Y-103697750D03*
D18*
X160802250Y-98000000D03*
D19*
X161930000Y-95710000D03*
X161930000Y-93430000D03*
X164210000Y-93430000D03*
X164210000Y-102570000D03*
X161930000Y-100290000D03*
%TD*%
D10*
%TO.C,R7*%
X171325000Y-89500000D03*
X169675000Y-89500000D03*
%TD*%
%TO.C,R4*%
X170790000Y-111300000D03*
X169140000Y-111300000D03*
%TD*%
D20*
%TO.C,5V*%
X187000000Y-114287500D03*
X187000000Y-112712500D03*
%TD*%
D21*
%TO.C,R1*%
X184000000Y-117825000D03*
X184000000Y-116175000D03*
%TD*%
D11*
%TO.C,C4*%
X170775000Y-108000000D03*
X169225000Y-108000000D03*
%TD*%
D22*
%TO.C,J1*%
X161500000Y-73250000D03*
D23*
X168700000Y-73250000D03*
%TD*%
D21*
%TO.C,R3*%
X190000000Y-117825000D03*
X190000000Y-116175000D03*
%TD*%
D10*
%TO.C,R6*%
X157325000Y-130000000D03*
X155675000Y-130000000D03*
%TD*%
D24*
%TO.C,R8*%
X162175000Y-107000000D03*
X163825000Y-107000000D03*
%TD*%
D21*
%TO.C,R2*%
X187000000Y-117825000D03*
X187000000Y-116175000D03*
%TD*%
D25*
%TO.C,J4*%
X193750000Y-94920000D03*
D26*
X196290000Y-94920000D03*
X193750000Y-97460000D03*
X196290000Y-97460000D03*
X193750000Y-100000000D03*
X196290000Y-100000000D03*
X193750000Y-102540000D03*
X196290000Y-102540000D03*
X193750000Y-105080000D03*
X196290000Y-105080000D03*
%TD*%
D15*
%TO.C,PS1*%
X166500000Y-114302250D03*
D16*
X171817750Y-116570000D03*
X171817750Y-121140000D03*
D17*
X169935500Y-125726000D03*
D15*
X166500000Y-125697750D03*
X161930000Y-125697750D03*
D18*
X160802250Y-120000000D03*
D19*
X161930000Y-117710000D03*
X161930000Y-115430000D03*
X164210000Y-115430000D03*
X164210000Y-124570000D03*
X161930000Y-122290000D03*
%TD*%
D20*
%TO.C,12V*%
X184000000Y-114287500D03*
X184000000Y-112712500D03*
%TD*%
%TO.C,3.3V*%
X190000000Y-114287500D03*
X190000000Y-112712500D03*
%TD*%
D27*
%TO.C,C1*%
X175000000Y-117950000D03*
X175000000Y-116050000D03*
%TD*%
%TO.C,C3*%
X176000000Y-94450000D03*
X176000000Y-92550000D03*
%TD*%
D28*
%TO.C,J2*%
X142500000Y-95000000D03*
D29*
X140000000Y-95000000D03*
%TD*%
M02*
