M48
; DRILL file {KiCad 9.0.7} date 2026-02-25T21:46:23+0900
; FORMAT={-:-/ absolute / inch / decimal}
; #@! TF.CreationDate,2026-02-25T21:46:23+09:00
; #@! TF.GenerationSoftware,Kicad,Pcbnew,9.0.7
; #@! TF.FileFunction,Plated,1,2,PTH
FMAT,2
INCH
; #@! TA.AperFunction,Plated,PTH,ViaDrill
T1C0.0118
; #@! TA.AperFunction,Plated,PTH,ViaDrill
T2C0.0197
; #@! TA.AperFunction,Plated,PTH,ComponentDrill
T3C0.0394
; #@! TA.AperFunction,Plated,PTH,ComponentDrill
T4C0.0630
; #@! TA.AperFunction,Plated,PTH,ComponentDrill
T5C0.0728
; #@! TA.AperFunction,Plated,PTH,ComponentDrill
T6C0.1772
%
G90
G05
T1
X5.3551Y-3.6622
X5.363Y-4.1035
X5.372Y-3.9236
X5.3748Y-4.3728
X5.3807Y-3.3417
X5.3823Y-3.7559
X5.387Y-4.5957
X5.4787Y-4.9496
X5.4803Y-2.9709
X5.4945Y-3.9976
X5.4988Y-2.7441
X5.5291Y-4.1807
X5.5299Y-5.1228
X5.5638Y-4.7421
X5.5673Y-4.422
X5.5709Y-5.0142
X5.611Y-2.935
X5.6181Y-3.8996
X5.665Y-4.952
X5.6902Y-2.7646
X5.702Y-3.0378
X5.7272Y-5.1154
X5.7791Y-2.9307
X5.8417Y-3.6323
X5.8551Y-3.7992
X5.8744Y-3.0303
X5.8815Y-3.4441
X5.8898Y-3.2087
X5.8988Y-3.1406
X5.9157Y-4.961
X5.9366Y-2.9185
X5.9402Y-3.7378
X5.9469Y-3.874
X6.0043Y-2.7402
X6.0118Y-2.824
X6.0276Y-5.1193
X6.0421Y-3.789
X6.0492Y-3.6358
X6.0681Y-3.0575
X6.0996Y-2.9094
X6.1205Y-3.8776
X6.1354Y-4.9886
X6.1724Y-2.7476
X6.1953Y-3.6972
X6.1992Y-4.8039
X6.2075Y-4.3539
X6.2091Y-3.9693
X6.2091Y-4.1768
X6.2157Y-4.0815
X6.2256Y-4.5335
X6.2677Y-3.2315
X6.3157Y-3.4335
X6.3236Y-3.1362
X6.3886Y-2.7232
X6.4126Y-3.3205
X6.4575Y-3.9217
X6.465Y-5.0283
X6.465Y-5.1189
X6.4776Y-3.8197
X6.4839Y-3.2102
X6.4894Y-4.778
X6.5201Y-2.7657
X6.5378Y-5.0752
X6.5449Y-4.7008
X6.5764Y-3.8228
X6.5866Y-2.7205
X6.5902Y-3.8807
X6.765Y-2.7323
X6.8354Y-3.4059
X6.85Y-5.0409
X6.8571Y-4.1634
X6.8783Y-4.3917
X6.8878Y-3.8217
X6.9008Y-3.2531
X6.9142Y-3.0657
X6.915Y-3.9421
X6.9244Y-2.8244
X6.9429Y-5.1228
X6.9783Y-4.2831
X6.9827Y-4.5098
X7.0146Y-3.8217
X7.0264Y-2.9161
X7.0685Y-4.9059
X7.0728Y-4.9917
X7.0843Y-3.1236
X7.1252Y-3.3382
X7.2272Y-3.1882
X7.2437Y-4.7362
X7.2665Y-4.1724
X7.2783Y-3.4161
X7.2815Y-4.2677
X7.3362Y-3.2291
X7.3394Y-3.6134
X7.4146Y-4.0303
X7.4311Y-4.7197
X7.4402Y-4.1815
X7.4484Y-3.4945
X7.5232Y-3.3311
X7.528Y-4.1843
X7.5402Y-4.0453
X7.5504Y-3.6272
X7.5799Y-4.4268
X7.5839Y-4.572
X7.622Y-3.5252
X7.663Y-4.2228
X7.7409Y-4.4146
X7.7646Y-3.5862
X7.8358Y-3.6882
T2
X7.0132Y-4.6368
X7.1343Y-3.639
X7.1587Y-4.3197
X7.6035Y-4.3327
T3
X5.5118Y-3.7402
X5.6102Y-3.7402
X7.628Y-3.737
X7.628Y-3.837
X7.628Y-3.937
X7.628Y-4.037
X7.628Y-4.137
X7.728Y-3.737
X7.728Y-3.837
X7.728Y-3.937
X7.728Y-4.037
X7.728Y-4.137
T4
X6.1035Y-3.2087
X6.1035Y-3.3425
X6.6339Y-3.2087
X6.6339Y-3.3425
T5
X5.5152Y-3.1516
X5.5152Y-3.3366
X5.5152Y-3.5217
X5.7053Y-3.1516
X5.7053Y-3.3366
X5.7053Y-3.5217
T6
X6.3583Y-2.8839
X6.6417Y-2.8839
M30
