%TF.GenerationSoftware,KiCad,Pcbnew,9.0.7*%
%TF.CreationDate,2026-02-25T21:45:50+09:00*%
%TF.ProjectId,power board_1.0,706f7765-7220-4626-9f61-72645f312e30,rev?*%
%TF.SameCoordinates,Original*%
%TF.FileFunction,Legend,Top*%
%TF.FilePolarity,Positive*%
%FSLAX46Y46*%
G04 Gerber Fmt 4.6, Leading zero omitted, Abs format (unit mm)*
G04 Created by KiCad (PCBNEW 9.0.7) date 2026-02-25 21:45:50*
%MOMM*%
%LPD*%
G01*
G04 APERTURE LIST*
%ADD10C,0.158750*%
%ADD11C,0.150000*%
%ADD12C,0.120000*%
%ADD13C,0.200000*%
%ADD14C,0.100000*%
G04 APERTURE END LIST*
D10*
X150914033Y-83606332D02*
X150914033Y-84029666D01*
X151579271Y-84029666D02*
X150309271Y-84029666D01*
X150309271Y-84029666D02*
X150309271Y-83424904D01*
X151579271Y-82275856D02*
X151579271Y-83001571D01*
X151579271Y-82638714D02*
X150309271Y-82638714D01*
X150309271Y-82638714D02*
X150490699Y-82759666D01*
X150490699Y-82759666D02*
X150611652Y-82880618D01*
X150611652Y-82880618D02*
X150672128Y-83001571D01*
D11*
X149407200Y-80833332D02*
X149454819Y-80690475D01*
X149454819Y-80690475D02*
X149454819Y-80452380D01*
X149454819Y-80452380D02*
X149407200Y-80357142D01*
X149407200Y-80357142D02*
X149359580Y-80309523D01*
X149359580Y-80309523D02*
X149264342Y-80261904D01*
X149264342Y-80261904D02*
X149169104Y-80261904D01*
X149169104Y-80261904D02*
X149073866Y-80309523D01*
X149073866Y-80309523D02*
X149026247Y-80357142D01*
X149026247Y-80357142D02*
X148978628Y-80452380D01*
X148978628Y-80452380D02*
X148931009Y-80642856D01*
X148931009Y-80642856D02*
X148883390Y-80738094D01*
X148883390Y-80738094D02*
X148835771Y-80785713D01*
X148835771Y-80785713D02*
X148740533Y-80833332D01*
X148740533Y-80833332D02*
X148645295Y-80833332D01*
X148645295Y-80833332D02*
X148550057Y-80785713D01*
X148550057Y-80785713D02*
X148502438Y-80738094D01*
X148502438Y-80738094D02*
X148454819Y-80642856D01*
X148454819Y-80642856D02*
X148454819Y-80404761D01*
X148454819Y-80404761D02*
X148502438Y-80261904D01*
X148454819Y-79928570D02*
X149454819Y-79690475D01*
X149454819Y-79690475D02*
X148740533Y-79499999D01*
X148740533Y-79499999D02*
X149454819Y-79309523D01*
X149454819Y-79309523D02*
X148454819Y-79071428D01*
X149454819Y-78166666D02*
X149454819Y-78738094D01*
X149454819Y-78452380D02*
X148454819Y-78452380D01*
X148454819Y-78452380D02*
X148597676Y-78547618D01*
X148597676Y-78547618D02*
X148692914Y-78642856D01*
X148692914Y-78642856D02*
X148740533Y-78738094D01*
D10*
X160079271Y-104042143D02*
X158809271Y-104042143D01*
X158809271Y-104042143D02*
X158809271Y-103558333D01*
X158809271Y-103558333D02*
X158869747Y-103437381D01*
X158869747Y-103437381D02*
X158930223Y-103376904D01*
X158930223Y-103376904D02*
X159051175Y-103316428D01*
X159051175Y-103316428D02*
X159232604Y-103316428D01*
X159232604Y-103316428D02*
X159353556Y-103376904D01*
X159353556Y-103376904D02*
X159414033Y-103437381D01*
X159414033Y-103437381D02*
X159474509Y-103558333D01*
X159474509Y-103558333D02*
X159474509Y-104042143D01*
X160018795Y-102832619D02*
X160079271Y-102651190D01*
X160079271Y-102651190D02*
X160079271Y-102348809D01*
X160079271Y-102348809D02*
X160018795Y-102227857D01*
X160018795Y-102227857D02*
X159958318Y-102167381D01*
X159958318Y-102167381D02*
X159837366Y-102106904D01*
X159837366Y-102106904D02*
X159716414Y-102106904D01*
X159716414Y-102106904D02*
X159595461Y-102167381D01*
X159595461Y-102167381D02*
X159534985Y-102227857D01*
X159534985Y-102227857D02*
X159474509Y-102348809D01*
X159474509Y-102348809D02*
X159414033Y-102590714D01*
X159414033Y-102590714D02*
X159353556Y-102711666D01*
X159353556Y-102711666D02*
X159293080Y-102772143D01*
X159293080Y-102772143D02*
X159172128Y-102832619D01*
X159172128Y-102832619D02*
X159051175Y-102832619D01*
X159051175Y-102832619D02*
X158930223Y-102772143D01*
X158930223Y-102772143D02*
X158869747Y-102711666D01*
X158869747Y-102711666D02*
X158809271Y-102590714D01*
X158809271Y-102590714D02*
X158809271Y-102288333D01*
X158809271Y-102288333D02*
X158869747Y-102106904D01*
X158930223Y-101623095D02*
X158869747Y-101562619D01*
X158869747Y-101562619D02*
X158809271Y-101441666D01*
X158809271Y-101441666D02*
X158809271Y-101139285D01*
X158809271Y-101139285D02*
X158869747Y-101018333D01*
X158869747Y-101018333D02*
X158930223Y-100957857D01*
X158930223Y-100957857D02*
X159051175Y-100897380D01*
X159051175Y-100897380D02*
X159172128Y-100897380D01*
X159172128Y-100897380D02*
X159353556Y-100957857D01*
X159353556Y-100957857D02*
X160079271Y-101683571D01*
X160079271Y-101683571D02*
X160079271Y-100897380D01*
D11*
X185024819Y-113690476D02*
X185024819Y-114166666D01*
X185024819Y-114166666D02*
X185501009Y-114214285D01*
X185501009Y-114214285D02*
X185453390Y-114166666D01*
X185453390Y-114166666D02*
X185405771Y-114071428D01*
X185405771Y-114071428D02*
X185405771Y-113833333D01*
X185405771Y-113833333D02*
X185453390Y-113738095D01*
X185453390Y-113738095D02*
X185501009Y-113690476D01*
X185501009Y-113690476D02*
X185596247Y-113642857D01*
X185596247Y-113642857D02*
X185834342Y-113642857D01*
X185834342Y-113642857D02*
X185929580Y-113690476D01*
X185929580Y-113690476D02*
X185977200Y-113738095D01*
X185977200Y-113738095D02*
X186024819Y-113833333D01*
X186024819Y-113833333D02*
X186024819Y-114071428D01*
X186024819Y-114071428D02*
X185977200Y-114166666D01*
X185977200Y-114166666D02*
X185929580Y-114214285D01*
X185024819Y-113357142D02*
X186024819Y-113023809D01*
X186024819Y-113023809D02*
X185024819Y-112690476D01*
X155454819Y-73583333D02*
X156169104Y-73583333D01*
X156169104Y-73583333D02*
X156311961Y-73630952D01*
X156311961Y-73630952D02*
X156407200Y-73726190D01*
X156407200Y-73726190D02*
X156454819Y-73869047D01*
X156454819Y-73869047D02*
X156454819Y-73964285D01*
X156454819Y-72583333D02*
X156454819Y-73154761D01*
X156454819Y-72869047D02*
X155454819Y-72869047D01*
X155454819Y-72869047D02*
X155597676Y-72964285D01*
X155597676Y-72964285D02*
X155692914Y-73059523D01*
X155692914Y-73059523D02*
X155740533Y-73154761D01*
X189204819Y-100333333D02*
X189919104Y-100333333D01*
X189919104Y-100333333D02*
X190061961Y-100380952D01*
X190061961Y-100380952D02*
X190157200Y-100476190D01*
X190157200Y-100476190D02*
X190204819Y-100619047D01*
X190204819Y-100619047D02*
X190204819Y-100714285D01*
X189538152Y-99428571D02*
X190204819Y-99428571D01*
X189157200Y-99666666D02*
X189871485Y-99904761D01*
X189871485Y-99904761D02*
X189871485Y-99285714D01*
D10*
X160079271Y-126042143D02*
X158809271Y-126042143D01*
X158809271Y-126042143D02*
X158809271Y-125558333D01*
X158809271Y-125558333D02*
X158869747Y-125437381D01*
X158869747Y-125437381D02*
X158930223Y-125376904D01*
X158930223Y-125376904D02*
X159051175Y-125316428D01*
X159051175Y-125316428D02*
X159232604Y-125316428D01*
X159232604Y-125316428D02*
X159353556Y-125376904D01*
X159353556Y-125376904D02*
X159414033Y-125437381D01*
X159414033Y-125437381D02*
X159474509Y-125558333D01*
X159474509Y-125558333D02*
X159474509Y-126042143D01*
X160018795Y-124832619D02*
X160079271Y-124651190D01*
X160079271Y-124651190D02*
X160079271Y-124348809D01*
X160079271Y-124348809D02*
X160018795Y-124227857D01*
X160018795Y-124227857D02*
X159958318Y-124167381D01*
X159958318Y-124167381D02*
X159837366Y-124106904D01*
X159837366Y-124106904D02*
X159716414Y-124106904D01*
X159716414Y-124106904D02*
X159595461Y-124167381D01*
X159595461Y-124167381D02*
X159534985Y-124227857D01*
X159534985Y-124227857D02*
X159474509Y-124348809D01*
X159474509Y-124348809D02*
X159414033Y-124590714D01*
X159414033Y-124590714D02*
X159353556Y-124711666D01*
X159353556Y-124711666D02*
X159293080Y-124772143D01*
X159293080Y-124772143D02*
X159172128Y-124832619D01*
X159172128Y-124832619D02*
X159051175Y-124832619D01*
X159051175Y-124832619D02*
X158930223Y-124772143D01*
X158930223Y-124772143D02*
X158869747Y-124711666D01*
X158869747Y-124711666D02*
X158809271Y-124590714D01*
X158809271Y-124590714D02*
X158809271Y-124288333D01*
X158809271Y-124288333D02*
X158869747Y-124106904D01*
X160079271Y-122897380D02*
X160079271Y-123623095D01*
X160079271Y-123260238D02*
X158809271Y-123260238D01*
X158809271Y-123260238D02*
X158990699Y-123381190D01*
X158990699Y-123381190D02*
X159111652Y-123502142D01*
X159111652Y-123502142D02*
X159172128Y-123623095D01*
D11*
X183024819Y-114119047D02*
X183024819Y-114690475D01*
X183024819Y-114404761D02*
X182024819Y-114404761D01*
X182024819Y-114404761D02*
X182167676Y-114499999D01*
X182167676Y-114499999D02*
X182262914Y-114595237D01*
X182262914Y-114595237D02*
X182310533Y-114690475D01*
X182120057Y-113738094D02*
X182072438Y-113690475D01*
X182072438Y-113690475D02*
X182024819Y-113595237D01*
X182024819Y-113595237D02*
X182024819Y-113357142D01*
X182024819Y-113357142D02*
X182072438Y-113261904D01*
X182072438Y-113261904D02*
X182120057Y-113214285D01*
X182120057Y-113214285D02*
X182215295Y-113166666D01*
X182215295Y-113166666D02*
X182310533Y-113166666D01*
X182310533Y-113166666D02*
X182453390Y-113214285D01*
X182453390Y-113214285D02*
X183024819Y-113785713D01*
X183024819Y-113785713D02*
X183024819Y-113166666D01*
X182024819Y-112880951D02*
X183024819Y-112547618D01*
X183024819Y-112547618D02*
X182024819Y-112214285D01*
X188024819Y-114976189D02*
X188024819Y-114357142D01*
X188024819Y-114357142D02*
X188405771Y-114690475D01*
X188405771Y-114690475D02*
X188405771Y-114547618D01*
X188405771Y-114547618D02*
X188453390Y-114452380D01*
X188453390Y-114452380D02*
X188501009Y-114404761D01*
X188501009Y-114404761D02*
X188596247Y-114357142D01*
X188596247Y-114357142D02*
X188834342Y-114357142D01*
X188834342Y-114357142D02*
X188929580Y-114404761D01*
X188929580Y-114404761D02*
X188977200Y-114452380D01*
X188977200Y-114452380D02*
X189024819Y-114547618D01*
X189024819Y-114547618D02*
X189024819Y-114833332D01*
X189024819Y-114833332D02*
X188977200Y-114928570D01*
X188977200Y-114928570D02*
X188929580Y-114976189D01*
X188929580Y-113928570D02*
X188977200Y-113880951D01*
X188977200Y-113880951D02*
X189024819Y-113928570D01*
X189024819Y-113928570D02*
X188977200Y-113976189D01*
X188977200Y-113976189D02*
X188929580Y-113928570D01*
X188929580Y-113928570D02*
X189024819Y-113928570D01*
X188024819Y-113547618D02*
X188024819Y-112928571D01*
X188024819Y-112928571D02*
X188405771Y-113261904D01*
X188405771Y-113261904D02*
X188405771Y-113119047D01*
X188405771Y-113119047D02*
X188453390Y-113023809D01*
X188453390Y-113023809D02*
X188501009Y-112976190D01*
X188501009Y-112976190D02*
X188596247Y-112928571D01*
X188596247Y-112928571D02*
X188834342Y-112928571D01*
X188834342Y-112928571D02*
X188929580Y-112976190D01*
X188929580Y-112976190D02*
X188977200Y-113023809D01*
X188977200Y-113023809D02*
X189024819Y-113119047D01*
X189024819Y-113119047D02*
X189024819Y-113404761D01*
X189024819Y-113404761D02*
X188977200Y-113499999D01*
X188977200Y-113499999D02*
X188929580Y-113547618D01*
X188024819Y-112642856D02*
X189024819Y-112309523D01*
X189024819Y-112309523D02*
X188024819Y-111976190D01*
D12*
%TO.C,R5*%
X160237258Y-129477500D02*
X159762742Y-129477500D01*
X160237258Y-130522500D02*
X159762742Y-130522500D01*
%TO.C,C2*%
X170140580Y-129490000D02*
X169859420Y-129490000D01*
X170140580Y-130510000D02*
X169859420Y-130510000D01*
%TO.C,R9*%
X163237258Y-108727500D02*
X162762742Y-108727500D01*
X163237258Y-109772500D02*
X162762742Y-109772500D01*
D13*
%TO.C,F1*%
X151860000Y-79800000D02*
X171670000Y-79800000D01*
X151860000Y-86565000D02*
X151860000Y-79800000D01*
D14*
X168500000Y-79200000D02*
X168500000Y-79200000D01*
X168500000Y-79300000D02*
X168500000Y-79300000D01*
D13*
X171670000Y-79800000D02*
X171670000Y-86565000D01*
X171670000Y-86565000D02*
X151860000Y-86565000D01*
D14*
X168500000Y-79200000D02*
G75*
G02*
X168500000Y-79300000I0J-50000D01*
G01*
X168500000Y-79300000D02*
G75*
G02*
X168500000Y-79200000I0J50000D01*
G01*
%TO.C,SW1*%
X136784735Y-91100000D02*
X148215000Y-91100000D01*
X148215000Y-78399713D01*
X136784735Y-78399713D01*
X136784735Y-91100000D01*
D13*
%TO.C,PS2*%
X160405000Y-91905000D02*
X172595000Y-91905000D01*
X160405000Y-104095000D02*
X160405000Y-91905000D01*
X172595000Y-91905000D02*
X172595000Y-104095000D01*
X172595000Y-104095000D02*
X160405000Y-104095000D01*
D12*
%TO.C,R7*%
X170737258Y-88977500D02*
X170262742Y-88977500D01*
X170737258Y-90022500D02*
X170262742Y-90022500D01*
%TO.C,R4*%
X170202258Y-110777500D02*
X169727742Y-110777500D01*
X170202258Y-111822500D02*
X169727742Y-111822500D01*
%TO.C,5V*%
X186265000Y-112700000D02*
X186265000Y-114985000D01*
X186265000Y-114985000D02*
X187735000Y-114985000D01*
X187735000Y-114985000D02*
X187735000Y-112700000D01*
%TO.C,R1*%
X183477500Y-117237258D02*
X183477500Y-116762742D01*
X184522500Y-117237258D02*
X184522500Y-116762742D01*
%TO.C,C4*%
X170140580Y-107490000D02*
X169859420Y-107490000D01*
X170140580Y-108510000D02*
X169859420Y-108510000D01*
%TO.C,J1*%
X157250000Y-71650000D02*
X157250000Y-74800000D01*
X157250000Y-74800000D02*
X160100000Y-77400000D01*
X160100000Y-69100000D02*
X157250000Y-71650000D01*
X160100000Y-77400000D02*
X172950000Y-77400000D01*
X172950000Y-69100000D02*
X160100000Y-69100000D01*
X172950000Y-77400000D02*
X172950000Y-69100000D01*
%TO.C,R3*%
X189477500Y-117237258D02*
X189477500Y-116762742D01*
X190522500Y-117237258D02*
X190522500Y-116762742D01*
%TO.C,R6*%
X156737258Y-129477500D02*
X156262742Y-129477500D01*
X156737258Y-130522500D02*
X156262742Y-130522500D01*
%TO.C,R8*%
X162762742Y-106477500D02*
X163237258Y-106477500D01*
X162762742Y-107522500D02*
X163237258Y-107522500D01*
%TO.C,R2*%
X186477500Y-117237258D02*
X186477500Y-116762742D01*
X187522500Y-117237258D02*
X187522500Y-116762742D01*
%TO.C,J4*%
X189070000Y-94420000D02*
X189070000Y-95420000D01*
X189070000Y-95420000D02*
X190070000Y-94920000D01*
X190070000Y-94920000D02*
X189070000Y-94420000D01*
X190460000Y-89710000D02*
X199580000Y-89710000D01*
X190460000Y-97950000D02*
X191770000Y-97950000D01*
X190460000Y-110290000D02*
X190460000Y-89710000D01*
X191770000Y-91010000D02*
X198270000Y-91010000D01*
X191770000Y-97950000D02*
X191770000Y-91010000D01*
X191770000Y-102050000D02*
X190460000Y-102050000D01*
X191770000Y-102050000D02*
X191770000Y-102050000D01*
X191770000Y-108990000D02*
X191770000Y-102050000D01*
X198270000Y-91010000D02*
X198270000Y-108990000D01*
X198270000Y-108990000D02*
X191770000Y-108990000D01*
X199580000Y-89710000D02*
X199580000Y-110290000D01*
X199580000Y-110290000D02*
X190460000Y-110290000D01*
D13*
%TO.C,PS1*%
X160405000Y-113905000D02*
X172595000Y-113905000D01*
X160405000Y-126095000D02*
X160405000Y-113905000D01*
X172595000Y-113905000D02*
X172595000Y-126095000D01*
X172595000Y-126095000D02*
X160405000Y-126095000D01*
D12*
%TO.C,12V*%
X183265000Y-112700000D02*
X183265000Y-114985000D01*
X183265000Y-114985000D02*
X184735000Y-114985000D01*
X184735000Y-114985000D02*
X184735000Y-112700000D01*
%TO.C,3.3V*%
X189265000Y-112700000D02*
X189265000Y-114985000D01*
X189265000Y-114985000D02*
X190735000Y-114985000D01*
X190735000Y-114985000D02*
X190735000Y-112700000D01*
%TO.C,C1*%
X174265000Y-117261252D02*
X174265000Y-116738748D01*
X175735000Y-117261252D02*
X175735000Y-116738748D01*
%TO.C,C3*%
X175265000Y-93761252D02*
X175265000Y-93238748D01*
X176735000Y-93761252D02*
X176735000Y-93238748D01*
%TD*%
M02*
