M48
; DRILL file {KiCad 9.0.7} date 2026-02-25T21:45:53+0900
; FORMAT={-:-/ absolute / metric / decimal}
; #@! TF.CreationDate,2026-02-25T21:45:53+09:00
; #@! TF.GenerationSoftware,Kicad,Pcbnew,9.0.7
; #@! TF.FileFunction,Plated,1,2,PTH
FMAT,2
METRIC
; #@! TA.AperFunction,Plated,PTH,ViaDrill
T1C0.300
; #@! TA.AperFunction,Plated,PTH,ViaDrill
T2C0.500
; #@! TA.AperFunction,Plated,PTH,ComponentDrill
T3C1.000
; #@! TA.AperFunction,Plated,PTH,ComponentDrill
T4C1.600
; #@! TA.AperFunction,Plated,PTH,ComponentDrill
T5C1.850
; #@! TA.AperFunction,Plated,PTH,ComponentDrill
T6C4.500
%
G90
G05
T1
X136.02Y-93.02
X136.22Y-104.23
X136.45Y-99.66
X136.52Y-111.07
X136.67Y-84.88
X136.71Y-95.4
X136.83Y-116.73
X139.16Y-125.72
X139.2Y-75.46
X139.56Y-101.54
X139.67Y-69.7
X140.44Y-106.19
X140.46Y-130.12
X141.32Y-120.45
X141.41Y-112.32
X141.5Y-127.36
X142.52Y-74.55
X142.7Y-99.05
X143.89Y-125.78
X144.53Y-70.22
X144.83Y-77.16
X145.47Y-129.93
X146.79Y-74.44
X148.38Y-92.26
X148.72Y-96.5
X149.21Y-76.97
X149.39Y-87.48
X149.6Y-81.5
X149.83Y-79.77
X150.26Y-126.01
X150.79Y-74.13
X150.88Y-94.94
X151.05Y-98.4
X152.51Y-69.6
X152.7Y-71.73
X153.1Y-130.03
X153.47Y-96.24
X153.65Y-92.35
X154.13Y-77.66
X154.93Y-73.9
X155.46Y-98.49
X155.84Y-126.71
X156.78Y-69.79
X157.36Y-93.91
X157.46Y-122.02
X157.67Y-110.59
X157.71Y-100.82
X157.71Y-106.09
X157.88Y-103.67
X158.13Y-115.15
X159.2Y-82.08
X160.42Y-87.21
X160.62Y-79.66
X162.27Y-69.17
X162.88Y-84.34
X164.02Y-99.61
X164.21Y-127.72
X164.21Y-130.02
X164.53Y-97.02
X164.69Y-81.54
X164.83Y-121.36
X165.61Y-70.25
X166.06Y-128.91
X166.24Y-119.4
X167.04Y-97.1
X167.3Y-69.1
X167.39Y-98.57
X171.83Y-69.4
X173.62Y-86.51
X173.99Y-128.04
X174.17Y-105.75
X174.71Y-111.55
X174.95Y-97.07
X175.28Y-82.63
X175.62Y-77.87
X175.64Y-100.13
X175.88Y-71.74
X176.35Y-130.12
X177.25Y-108.79
X177.36Y-114.55
X178.17Y-97.07
X178.47Y-74.07
X179.54Y-124.61
X179.65Y-126.79
X179.94Y-79.34
X180.98Y-84.79
X183.57Y-80.98
X183.99Y-120.3
X184.57Y-105.98
X184.87Y-86.77
X184.95Y-108.4
X186.34Y-82.02
X186.42Y-91.78
X188.33Y-102.37
X188.75Y-119.88
X188.98Y-106.21
X189.19Y-88.76
X191.09Y-84.61
X191.21Y-106.28
X191.52Y-102.75
X191.78Y-92.13
X192.53Y-112.44
X192.63Y-116.13
X193.6Y-89.54
X194.64Y-107.26
X196.62Y-112.13
X197.22Y-91.09
X199.03Y-93.68
T2
X178.135Y-117.775
X181.21Y-92.43
X181.83Y-109.72
X193.13Y-110.05
T3
X140.0Y-95.0
X142.5Y-95.0
X193.75Y-94.92
X193.75Y-97.46
X193.75Y-100.0
X193.75Y-102.54
X193.75Y-105.08
X196.29Y-94.92
X196.29Y-97.46
X196.29Y-100.0
X196.29Y-102.54
X196.29Y-105.08
T4
X155.03Y-81.5
X155.03Y-84.9
X168.5Y-81.5
X168.5Y-84.9
T5
X140.085Y-80.05
X140.085Y-84.75
X140.085Y-89.45
X144.915Y-80.05
X144.915Y-84.75
X144.915Y-89.45
T6
X161.5Y-73.25
X168.7Y-73.25
M30
