M48
; DRILL file {KiCad 9.0.7} date 2026-04-07T20:50:25+0900
; FORMAT={-:-/ absolute / metric / decimal}
; #@! TF.CreationDate,2026-04-07T20:50:25+09:00
; #@! TF.GenerationSoftware,Kicad,Pcbnew,9.0.7
; #@! TF.FileFunction,Plated,1,2,PTH
FMAT,2
METRIC
; #@! TA.AperFunction,Plated,PTH,ViaDrill
T1C0.300
; #@! TA.AperFunction,Plated,PTH,ViaDrill
T2C0.500
; #@! TA.AperFunction,Plated,PTH,ComponentDrill
T3C0.800
; #@! TA.AperFunction,Plated,PTH,ComponentDrill
T4C1.000
%
G90
G05
T1
X152.68Y-97.51
X152.83Y-92.15
X152.9Y-102.44
X153.01Y-112.13
X153.11Y-107.07
X154.36Y-119.78
X154.39Y-79.56
X155.0Y-121.37
X155.44Y-77.86
X155.78Y-123.98
X155.84Y-92.42
X156.61Y-113.0
X156.64Y-114.83
X156.65Y-105.98
X156.67Y-108.27
X156.88Y-122.45
X157.28Y-69.42
X157.67Y-86.61
X157.98Y-129.81
X158.93Y-117.81
X159.84Y-89.78
X159.84Y-90.73
X159.95Y-111.0
X160.0Y-109.77
X160.05Y-115.55
X160.11Y-83.61
X160.45Y-124.65
X160.53Y-81.6
X160.57Y-118.48
X161.17Y-127.35
X161.19Y-116.75
X161.27Y-82.5
X161.37Y-113.21
X161.41Y-107.23
X161.84Y-70.72
X161.87Y-130.04
X163.84Y-84.47
X163.9Y-89.697
X163.94Y-109.697
X164.482Y-116.032
X164.64Y-90.29
X164.751Y-110.302
X164.83Y-130.07
X164.88Y-119.19
X164.96Y-69.81
X164.99Y-117.83
X165.65Y-81.34
X167.29Y-128.59
X168.65Y-70.54
X170.52Y-117.82
X170.65Y-130.88
X171.8Y-118.78
X172.07Y-70.83
X173.32Y-128.42
X173.62Y-117.86
X174.36Y-118.74
X175.04Y-84.226
X175.05Y-86.4
X175.145Y-103.785
X175.16Y-79.941
X175.25Y-76.98
X175.63Y-90.43
X176.45Y-89.78
X176.58Y-109.97
X177.1Y-115.18
X177.46Y-75.74
X178.171Y-109.381
X178.53Y-81.6
X178.615Y-95.055
X178.63Y-124.55
X178.68Y-101.87
X178.7Y-127.77
X178.76Y-122.601
X179.04Y-107.37
X179.24Y-89.66
X179.25Y-79.96
X179.29Y-90.94
X179.3Y-88.5
X179.54Y-105.31
X179.55Y-108.325
X179.67Y-118.74
X179.74Y-110.031
X179.81Y-85.62
X180.16Y-111.2
X180.29Y-69.76
X180.45Y-123.9
X180.64Y-130.23
X181.4Y-123.251
X182.09Y-128.7
X182.42Y-93.94
X182.71Y-103.13
X182.73Y-114.3
X183.29Y-78.14
X184.2Y-122.25
X184.28Y-71.94
X184.3Y-108.525
X184.4Y-89.05
X185.11Y-127.691
X185.18Y-85.62
X185.186Y-126.39
X185.21Y-125.38
X185.23Y-87.65
X185.33Y-83.89
X185.51Y-131.13
X185.78Y-127.04
X186.46Y-100.0
X187.68Y-102.0
X188.24Y-69.79
X188.87Y-129.34
X190.82Y-75.94
X191.92Y-83.93
X192.59Y-114.83
X192.7Y-116.89
X192.88Y-85.69
X193.14Y-128.79
X193.2Y-77.68
X195.3Y-80.13
X195.37Y-118.25
X195.95Y-115.09
X199.96Y-124.82
X201.24Y-95.1
X201.33Y-89.88
X201.5Y-84.62
X201.58Y-122.67
X201.67Y-80.57
X202.91Y-102.65
X202.93Y-82.27
X203.08Y-112.39
X203.12Y-120.03
X203.24Y-87.14
X203.26Y-105.23
X203.41Y-116.38
X203.43Y-108.71
X203.85Y-92.01
T2
X156.47Y-85.38
X156.75Y-91.275
X156.77Y-88.42
X157.09Y-94.08
X159.47Y-87.45
X159.784Y-92.425
X159.96Y-114.18
X160.072Y-93.59
X160.1Y-94.79
X160.1Y-106.13
X160.18Y-108.07
X160.28Y-86.27
X160.36Y-112.53
X160.43Y-97.72
X164.07Y-86.28
X164.12Y-106.5
X164.22Y-93.16
X164.22Y-113.75
X164.29Y-108.06
X164.338Y-87.45
X164.54Y-91.802
X164.58Y-111.802
X165.44Y-101.79
X174.795Y-98.68
X176.59Y-126.0
X178.59Y-98.51
X181.49Y-83.79
X182.37Y-81.01
X183.38Y-83.33
X184.29Y-79.91
X185.63Y-74.08
X189.99Y-78.44
T3
X184.5Y-93.275
X184.5Y-95.775
X184.5Y-113.275
X184.5Y-115.775
T4
X154.0Y-90.0
X154.0Y-95.0
X154.0Y-100.0
X154.0Y-105.0
X154.0Y-110.0
X158.0Y-74.0
X158.0Y-126.0
X163.0Y-74.0
X163.0Y-126.0
X190.5Y-74.0
X190.5Y-126.0
X192.46Y-88.57
X192.46Y-91.11
X192.46Y-93.65
X192.46Y-96.19
X192.46Y-98.73
X192.46Y-101.27
X192.46Y-103.81
X192.46Y-106.35
X192.46Y-108.89
X192.46Y-111.43
X195.0Y-88.57
X195.0Y-91.11
X195.0Y-93.65
X195.0Y-96.19
X195.0Y-98.73
X195.0Y-101.27
X195.0Y-103.81
X195.0Y-106.35
X195.0Y-108.89
X195.0Y-111.43
X195.5Y-74.0
X195.5Y-126.0
M30
