%TF.GenerationSoftware,KiCad,Pcbnew,9.0.7*%
%TF.CreationDate,2026-04-07T20:50:22+09:00*%
%TF.ProjectId,Motor driver board_1.0,4d6f746f-7220-4647-9269-76657220626f,rev?*%
%TF.SameCoordinates,Original*%
%TF.FileFunction,Copper,L2,Bot*%
%TF.FilePolarity,Positive*%
%FSLAX46Y46*%
G04 Gerber Fmt 4.6, Leading zero omitted, Abs format (unit mm)*
G04 Created by KiCad (PCBNEW 9.0.7) date 2026-04-07 20:50:22*
%MOMM*%
%LPD*%
G01*
G04 APERTURE LIST*
G04 Aperture macros list*
%AMRoundRect*
0 Rectangle with rounded corners*
0 $1 Rounding radius*
0 $2 $3 $4 $5 $6 $7 $8 $9 X,Y pos of 4 corners*
0 Add a 4 corners polygon primitive as box body*
4,1,4,$2,$3,$4,$5,$6,$7,$8,$9,$2,$3,0*
0 Add four circle primitives for the rounded corners*
1,1,$1+$1,$2,$3*
1,1,$1+$1,$4,$5*
1,1,$1+$1,$6,$7*
1,1,$1+$1,$8,$9*
0 Add four rect primitives between the rounded corners*
20,1,$1+$1,$2,$3,$4,$5,0*
20,1,$1+$1,$4,$5,$6,$7,0*
20,1,$1+$1,$6,$7,$8,$9,0*
20,1,$1+$1,$8,$9,$2,$3,0*%
G04 Aperture macros list end*
%TA.AperFunction,ComponentPad*%
%ADD10C,2.000000*%
%TD*%
%TA.AperFunction,ComponentPad*%
%ADD11RoundRect,0.250000X-0.750000X-0.750000X0.750000X-0.750000X0.750000X0.750000X-0.750000X0.750000X0*%
%TD*%
%TA.AperFunction,ComponentPad*%
%ADD12RoundRect,0.250000X0.750000X0.750000X-0.750000X0.750000X-0.750000X-0.750000X0.750000X-0.750000X0*%
%TD*%
%TA.AperFunction,ComponentPad*%
%ADD13RoundRect,0.250000X0.550000X-0.550000X0.550000X0.550000X-0.550000X0.550000X-0.550000X-0.550000X0*%
%TD*%
%TA.AperFunction,ComponentPad*%
%ADD14C,1.600000*%
%TD*%
%TA.AperFunction,ComponentPad*%
%ADD15R,1.700000X1.700000*%
%TD*%
%TA.AperFunction,ComponentPad*%
%ADD16O,1.700000X1.700000*%
%TD*%
%TA.AperFunction,ViaPad*%
%ADD17C,1.000000*%
%TD*%
%TA.AperFunction,ViaPad*%
%ADD18C,0.600000*%
%TD*%
%TA.AperFunction,Conductor*%
%ADD19C,0.300000*%
%TD*%
%TA.AperFunction,Conductor*%
%ADD20C,1.000000*%
%TD*%
G04 APERTURE END LIST*
D10*
%TO.P,3.3V,1,Pin_1*%
%TO.N,VDD*%
X154000000Y-95000000D03*
%TD*%
%TO.P,GND,1,Pin_1*%
%TO.N,GND*%
X154000000Y-110000000D03*
%TD*%
D11*
%TO.P,C19,1*%
%TO.N,VDD*%
X190500000Y-126000000D03*
D10*
%TO.P,C19,2*%
%TO.N,GND*%
X195500000Y-126000000D03*
%TD*%
%TO.P,FAULT2,1,Pin_1*%
%TO.N,FAULT2*%
X154000000Y-105000000D03*
%TD*%
D12*
%TO.P,C18,1*%
%TO.N,+12V*%
X163000000Y-74000000D03*
D10*
%TO.P,C18,2*%
%TO.N,GND*%
X158000000Y-74000000D03*
%TD*%
%TO.P,FAULT1,1,Pin_1*%
%TO.N,FAULT1*%
X154000000Y-100000000D03*
%TD*%
D13*
%TO.P,C20,1*%
%TO.N,VDD*%
X184500000Y-115775000D03*
D14*
%TO.P,C20,2*%
%TO.N,GND*%
X184500000Y-113275000D03*
%TD*%
D11*
%TO.P,C1,1*%
%TO.N,VDD*%
X190500000Y-74000000D03*
D10*
%TO.P,C1,2*%
%TO.N,GND*%
X195500000Y-74000000D03*
%TD*%
D12*
%TO.P,C36,1*%
%TO.N,+12V*%
X163000000Y-126000000D03*
D10*
%TO.P,C36,2*%
%TO.N,GND*%
X158000000Y-126000000D03*
%TD*%
%TO.P,12V,1,Pin_1*%
%TO.N,+12V*%
X154000000Y-90000000D03*
%TD*%
D15*
%TO.P,J6,1,Pin_1*%
%TO.N,Motor1_A*%
X195000000Y-88570000D03*
D16*
%TO.P,J6,2,Pin_2*%
%TO.N,PWM1_A*%
X192460000Y-88570000D03*
%TO.P,J6,3,Pin_3*%
%TO.N,Motor1_B*%
X195000000Y-91110000D03*
%TO.P,J6,4,Pin_4*%
%TO.N,PWM1_B*%
X192460000Y-91110000D03*
%TO.P,J6,5,Pin_5*%
%TO.N,Motor2_A*%
X195000000Y-93650000D03*
%TO.P,J6,6,Pin_6*%
%TO.N,PWM2_A*%
X192460000Y-93650000D03*
%TO.P,J6,7,Pin_7*%
%TO.N,Motor2_B*%
X195000000Y-96190000D03*
%TO.P,J6,8,Pin_8*%
%TO.N,PWM2_B*%
X192460000Y-96190000D03*
%TO.P,J6,9,Pin_9*%
%TO.N,Motor3_A*%
X195000000Y-98730000D03*
%TO.P,J6,10,Pin_10*%
%TO.N,PWM3_A*%
X192460000Y-98730000D03*
%TO.P,J6,11,Pin_11*%
%TO.N,Motor3_B*%
X195000000Y-101270000D03*
%TO.P,J6,12,Pin_12*%
%TO.N,PWM3_B*%
X192460000Y-101270000D03*
%TO.P,J6,13,Pin_13*%
%TO.N,Motor4_A*%
X195000000Y-103810000D03*
%TO.P,J6,14,Pin_14*%
%TO.N,PWM4_A*%
X192460000Y-103810000D03*
%TO.P,J6,15,Pin_15*%
%TO.N,Motor4_B*%
X195000000Y-106350000D03*
%TO.P,J6,16,Pin_16*%
%TO.N,PWM4_B*%
X192460000Y-106350000D03*
%TO.P,J6,17,Pin_17*%
%TO.N,VDD*%
X195000000Y-108890000D03*
%TO.P,J6,18,Pin_18*%
%TO.N,+12V*%
X192460000Y-108890000D03*
%TO.P,J6,19,Pin_19*%
%TO.N,GND*%
X195000000Y-111430000D03*
%TO.P,J6,20,Pin_20*%
X192460000Y-111430000D03*
%TD*%
D13*
%TO.P,C2,1*%
%TO.N,VDD*%
X184500000Y-95775000D03*
D14*
%TO.P,C2,2*%
%TO.N,GND*%
X184500000Y-93275000D03*
%TD*%
D17*
%TO.N,Motor1_A*%
X156470000Y-85380000D03*
X160280000Y-86270000D03*
X164070000Y-86280000D03*
%TO.N,Motor1_B*%
X164338264Y-87449632D03*
X156770000Y-88420000D03*
X159470000Y-87450000D03*
%TO.N,Motor2_A*%
X182370000Y-81010000D03*
X159784155Y-92425303D03*
X164540000Y-91802500D03*
X181490000Y-83790000D03*
X156749835Y-91274835D03*
%TO.N,Motor2_B*%
X157090000Y-94080000D03*
X160071750Y-93590333D03*
X184290000Y-79910000D03*
X183380000Y-83330000D03*
X164220000Y-93160000D03*
%TO.N,VDD*%
X174795000Y-98680000D03*
X160430000Y-97720000D03*
%TO.N,+12V*%
X176590000Y-126000000D03*
X189990000Y-78440000D03*
X185630000Y-74080000D03*
D18*
%TO.N,Motor4_B*%
X178760000Y-122601000D03*
X156640000Y-114830000D03*
D17*
X164220000Y-113750000D03*
D18*
X185210000Y-125380000D03*
D17*
X159960000Y-114180000D03*
%TO.N,Motor4_A*%
X164580000Y-111802500D03*
X160360000Y-112530000D03*
D18*
X156610000Y-113000000D03*
X181400000Y-123251000D03*
X185186450Y-126390000D03*
%TO.N,Motor3_A*%
X178630000Y-124550000D03*
D17*
X160100000Y-106130000D03*
D18*
X156650000Y-105980000D03*
X185110000Y-127691000D03*
D17*
X164120000Y-106500000D03*
%TO.N,Motor3_B*%
X164290000Y-108060000D03*
D18*
X185780000Y-127040000D03*
X156670000Y-108270000D03*
X180450000Y-123900000D03*
D17*
X160180000Y-108070000D03*
D18*
%TO.N,PWM1_A*%
X179810000Y-85620000D03*
X185180000Y-85620000D03*
X175050000Y-86400000D03*
%TO.N,PWM2_B*%
X178615000Y-95055000D03*
%TO.N,PWM2_A*%
X179290000Y-90940000D03*
%TO.N,PWM1_B*%
X185230000Y-87650000D03*
%TO.N,PWM3_B*%
X179040000Y-107370000D03*
%TO.N,PWM3_A*%
X179540000Y-105310000D03*
%TO.N,PWM4_B*%
X177100000Y-115180000D03*
%TO.N,PWM4_A*%
X180160000Y-111200000D03*
%TO.N,GND*%
X161870000Y-130040000D03*
X184400000Y-89050000D03*
X202910000Y-102650000D03*
X195300000Y-80130000D03*
X203240000Y-87140000D03*
X161410000Y-107230000D03*
X182710000Y-103130000D03*
X184200000Y-122250000D03*
X184300000Y-108525000D03*
D17*
X178590000Y-98510000D03*
D18*
X160570000Y-118480000D03*
X203080000Y-112390000D03*
X193140000Y-128790000D03*
X201580000Y-122670000D03*
X201330000Y-89880000D03*
X190820000Y-75940000D03*
X157280000Y-69420000D03*
X160050000Y-115550000D03*
X154360000Y-119780000D03*
X179670000Y-118740000D03*
X155780000Y-123980000D03*
X193200000Y-77680000D03*
X154390000Y-79560000D03*
X171800000Y-118780000D03*
D17*
X160100000Y-94790000D03*
D18*
X182420000Y-93940000D03*
X201240000Y-95100000D03*
X201670000Y-80570000D03*
X187680000Y-102000000D03*
X184280000Y-71940000D03*
X153110000Y-107070000D03*
X160450000Y-124650000D03*
X199960000Y-124820000D03*
X192590000Y-114830000D03*
X195950000Y-115090000D03*
X152830000Y-92150000D03*
X156880000Y-122450000D03*
X164960000Y-69810000D03*
X157670000Y-86610000D03*
X182090000Y-128700000D03*
X161840000Y-70720000D03*
X179300000Y-88500000D03*
X202930000Y-82270000D03*
X158930000Y-117810000D03*
X164830000Y-130070000D03*
X173320000Y-128420000D03*
X188240000Y-69790000D03*
X176450000Y-89780000D03*
X177460000Y-75740000D03*
X170520000Y-117820000D03*
X203850000Y-92010000D03*
X203120000Y-120030000D03*
X183290000Y-78140000D03*
X179250000Y-79960000D03*
X201500000Y-84620000D03*
X155000000Y-121370000D03*
X203260000Y-105230000D03*
X153010000Y-112130000D03*
X178700000Y-127770000D03*
X157980000Y-129810000D03*
X188870000Y-129340000D03*
X203430000Y-108710000D03*
X152900000Y-102440000D03*
X180640000Y-130230000D03*
X178530000Y-81600000D03*
X152680000Y-97510000D03*
X186460000Y-100000000D03*
X167290000Y-128590000D03*
X174360000Y-118740000D03*
X178170762Y-109381001D03*
X164880000Y-119190000D03*
X168650000Y-70540000D03*
X172070000Y-70830000D03*
X161270000Y-82500000D03*
X185510000Y-131130000D03*
X185330000Y-83890000D03*
X192700000Y-116890000D03*
X173620000Y-117860000D03*
X175250000Y-76980000D03*
X192880000Y-85690000D03*
X203410000Y-116380000D03*
X180290000Y-69760000D03*
X182730000Y-114300000D03*
X178680000Y-101870000D03*
X164990000Y-117830000D03*
X155440000Y-77860000D03*
D17*
X165440000Y-101790000D03*
D18*
X191920000Y-83930000D03*
X161370000Y-113210000D03*
X170650000Y-130880000D03*
X161170000Y-127350000D03*
X195370000Y-118250000D03*
X165650000Y-81340000D03*
X175160000Y-79941000D03*
X179550000Y-108325380D03*
%TO.N,Net-(IC1-AGND)*%
X179240000Y-89660000D03*
X175630000Y-90430000D03*
%TO.N,Net-(IC1-BST_A)*%
X160110000Y-83610000D03*
X163840000Y-84470000D03*
%TO.N,Net-(IC1-BST_B)*%
X163900000Y-89697500D03*
X159840000Y-89780000D03*
%TO.N,Net-(IC1-BST_C)*%
X159840000Y-90730000D03*
X164640000Y-90290000D03*
%TO.N,Net-(IC2-AGND)*%
X179740000Y-110031000D03*
X176580000Y-109970000D03*
%TO.N,Net-(IC2-BST_B)*%
X163940000Y-109697500D03*
X160000000Y-109770000D03*
%TO.N,Net-(IC2-BST_C)*%
X159950000Y-111000000D03*
X164751250Y-110302500D03*
%TO.N,Net-(IC2-BST_D)*%
X161190000Y-116750000D03*
X164482500Y-116032500D03*
%TO.N,FAULT1*%
X155840000Y-92420000D03*
X175040000Y-84225766D03*
X160530000Y-81600000D03*
%TO.N,FAULT2*%
X175144620Y-103784620D03*
%TD*%
D19*
%TO.N,Motor1_A*%
X177660346Y-79291000D02*
X180829346Y-82460000D01*
X156470000Y-83850000D02*
X161029000Y-79291000D01*
X180829346Y-82460000D02*
X192750000Y-82460000D01*
X161029000Y-79291000D02*
X177660346Y-79291000D01*
X160290000Y-86280000D02*
X160280000Y-86270000D01*
X192750000Y-82460000D02*
X195000000Y-84710000D01*
X195000000Y-84710000D02*
X195000000Y-88570000D01*
X164070000Y-86280000D02*
X160290000Y-86280000D01*
X156470000Y-85380000D02*
X156470000Y-83850000D01*
%TO.N,Motor1_B*%
X179570000Y-78790000D02*
X181320000Y-80540000D01*
X160821479Y-78790000D02*
X179570000Y-78790000D01*
X196960000Y-85961479D02*
X196960000Y-89800000D01*
X195650000Y-91110000D02*
X195000000Y-91110000D01*
X192957521Y-81959000D02*
X196960000Y-85961479D01*
X164337896Y-87450000D02*
X159470000Y-87450000D01*
X181839000Y-81959000D02*
X192957521Y-81959000D01*
X196960000Y-89800000D02*
X195650000Y-91110000D01*
X155570000Y-87220000D02*
X155570000Y-84041479D01*
X155570000Y-84041479D02*
X160821479Y-78790000D01*
X181320000Y-81440000D02*
X181839000Y-81959000D01*
X181320000Y-80540000D02*
X181320000Y-81440000D01*
X156770000Y-88420000D02*
X155570000Y-87220000D01*
X164338264Y-87449632D02*
X164337896Y-87450000D01*
%TO.N,Motor2_A*%
X156749835Y-91274835D02*
X156749835Y-90400165D01*
X197461000Y-85753959D02*
X197461000Y-91189000D01*
X178942480Y-87029000D02*
X180822480Y-87029000D01*
X197461000Y-91189000D02*
X195000000Y-93650000D01*
X161080000Y-93020000D02*
X163156504Y-93020000D01*
X158849368Y-88300632D02*
X177670848Y-88300632D01*
X192717041Y-81010000D02*
X197461000Y-85753959D01*
X181490000Y-86361480D02*
X181490000Y-83790000D01*
X180822480Y-87029000D02*
X181490000Y-86361480D01*
X160485303Y-92425303D02*
X161080000Y-93020000D01*
X156749835Y-90400165D02*
X158849368Y-88300632D01*
X159784155Y-92425303D02*
X160485303Y-92425303D01*
X182370000Y-81010000D02*
X192717041Y-81010000D01*
X163156504Y-93020000D02*
X164374004Y-91802500D01*
X177670848Y-88300632D02*
X178942480Y-87029000D01*
X164374004Y-91802500D02*
X164540000Y-91802500D01*
%TO.N,Motor2_B*%
X197962000Y-93228000D02*
X195000000Y-96190000D01*
X157850000Y-92130000D02*
X157850000Y-90150000D01*
X158953500Y-89046500D02*
X177633500Y-89046500D01*
X157090000Y-92890000D02*
X157850000Y-92130000D01*
X183380000Y-85180000D02*
X183380000Y-83330000D01*
X192325561Y-79910000D02*
X197962000Y-85546439D01*
X160071750Y-93590333D02*
X163789667Y-93590333D01*
X181030000Y-87530000D02*
X183380000Y-85180000D01*
X163789667Y-93590333D02*
X164220000Y-93160000D01*
X184290000Y-79910000D02*
X192325561Y-79910000D01*
X157090000Y-94080000D02*
X157090000Y-92890000D01*
X197962000Y-85546439D02*
X197962000Y-93228000D01*
X157850000Y-90150000D02*
X158953500Y-89046500D01*
X177633500Y-89046500D02*
X179150000Y-87530000D01*
X179150000Y-87530000D02*
X181030000Y-87530000D01*
%TO.N,VDD*%
X160890000Y-98680000D02*
X160430000Y-98220000D01*
X174795000Y-98680000D02*
X160890000Y-98680000D01*
X160430000Y-98220000D02*
X160430000Y-97720000D01*
D20*
%TO.N,+12V*%
X185630000Y-74080000D02*
X189990000Y-78440000D01*
X176590000Y-126000000D02*
X163000000Y-126000000D01*
X192460000Y-108890000D02*
X190750000Y-108890000D01*
X189480000Y-110160000D02*
X189480000Y-119280000D01*
X190750000Y-108890000D02*
X189480000Y-110160000D01*
X182760000Y-126000000D02*
X176590000Y-126000000D01*
X189480000Y-119280000D02*
X182760000Y-126000000D01*
D19*
%TO.N,Motor4_B*%
X185210000Y-125380000D02*
X185950000Y-125380000D01*
X163790000Y-114180000D02*
X159960000Y-114180000D01*
X156640000Y-117670000D02*
X156640000Y-114830000D01*
X164220000Y-113750000D02*
X163790000Y-114180000D01*
X198280000Y-106350000D02*
X195000000Y-106350000D01*
X166440000Y-121180000D02*
X160150000Y-121180000D01*
X185950000Y-125380000D02*
X190682000Y-120648000D01*
X200018000Y-119242000D02*
X200018000Y-108088000D01*
X200018000Y-108088000D02*
X198280000Y-106350000D01*
X167861000Y-122601000D02*
X166440000Y-121180000D01*
X160150000Y-121180000D02*
X156640000Y-117670000D01*
X178760000Y-122601000D02*
X167861000Y-122601000D01*
X198612000Y-120648000D02*
X200018000Y-119242000D01*
X190682000Y-120648000D02*
X198612000Y-120648000D01*
%TO.N,Motor4_A*%
X155900000Y-117638521D02*
X155900000Y-113710000D01*
X159942479Y-121681000D02*
X155900000Y-117638521D01*
X179079000Y-123251000D02*
X167661000Y-123251000D01*
X198510000Y-103810000D02*
X195000000Y-103810000D01*
X200519000Y-105819000D02*
X198510000Y-103810000D01*
X200519000Y-119472480D02*
X200519000Y-105819000D01*
X190889520Y-121149000D02*
X198842480Y-121149000D01*
X181131000Y-123251000D02*
X181130000Y-123250000D01*
X167661000Y-123251000D02*
X166091000Y-121681000D01*
X155900000Y-113710000D02*
X156610000Y-113000000D01*
X166091000Y-121681000D02*
X159942479Y-121681000D01*
X185648520Y-126390000D02*
X190889520Y-121149000D01*
X198842480Y-121149000D02*
X200519000Y-119472480D01*
X161087500Y-111802500D02*
X160360000Y-112530000D01*
X185186450Y-126390000D02*
X185648520Y-126390000D01*
X181130000Y-123250000D02*
X179080000Y-123250000D01*
X181400000Y-123251000D02*
X181131000Y-123251000D01*
X164580000Y-111802500D02*
X161087500Y-111802500D01*
X179080000Y-123250000D02*
X179079000Y-123251000D01*
%TO.N,Motor3_A*%
X201521000Y-119887520D02*
X201521000Y-103972480D01*
X155950000Y-106680000D02*
X156650000Y-105980000D01*
X199257520Y-122151000D02*
X201319260Y-120089261D01*
X154889000Y-118044565D02*
X154889000Y-112612480D01*
X186049654Y-127691000D02*
X191589654Y-122151000D01*
X191589654Y-122151000D02*
X199257520Y-122151000D01*
X155950000Y-111551479D02*
X155950000Y-106680000D01*
X201319260Y-120089261D02*
X201521000Y-119887520D01*
X178630000Y-124550000D02*
X167542960Y-124550000D01*
X160470000Y-106500000D02*
X160100000Y-106130000D01*
X185110000Y-127691000D02*
X186049654Y-127691000D01*
X164120000Y-106500000D02*
X160470000Y-106500000D01*
X154889000Y-112612480D02*
X155950000Y-111551479D01*
X165675960Y-122683000D02*
X159527438Y-122683000D01*
X159527438Y-122683000D02*
X154889000Y-118044565D01*
X196278520Y-98730000D02*
X195000000Y-98730000D01*
X201521000Y-103972480D02*
X196278520Y-98730000D01*
X167542960Y-124550000D02*
X165675960Y-122683000D01*
%TO.N,Motor3_B*%
X167601480Y-123900000D02*
X165883480Y-122182000D01*
X201020000Y-104180000D02*
X198110000Y-101270000D01*
X201020000Y-119680000D02*
X201020000Y-104180000D01*
X164290000Y-108060000D02*
X160190000Y-108060000D01*
X165883480Y-122182000D02*
X159734958Y-122182000D01*
X198110000Y-101270000D02*
X195000000Y-101270000D01*
X155390000Y-117837043D02*
X155390000Y-112820000D01*
X156670000Y-111540000D02*
X156670000Y-108270000D01*
X160190000Y-108060000D02*
X160180000Y-108070000D01*
X159734958Y-122182000D02*
X155390000Y-117837043D01*
X199050000Y-121650000D02*
X201020000Y-119680000D01*
X180450000Y-123900000D02*
X167601480Y-123900000D01*
X155390000Y-112820000D02*
X156670000Y-111540000D01*
X185780000Y-127040000D02*
X191170000Y-121650000D01*
X191170000Y-121650000D02*
X199050000Y-121650000D01*
%TO.N,PWM1_A*%
X178670000Y-85620000D02*
X179810000Y-85620000D01*
X175050000Y-86400000D02*
X175830000Y-85620000D01*
X185180000Y-85620000D02*
X189510000Y-85620000D01*
X175830000Y-85620000D02*
X178670000Y-85620000D01*
X189510000Y-85620000D02*
X192460000Y-88570000D01*
%TO.N,PWM2_B*%
X178615000Y-95055000D02*
X182200000Y-91470000D01*
X182200000Y-91470000D02*
X187740000Y-91470000D01*
X187740000Y-91470000D02*
X192460000Y-96190000D01*
%TO.N,PWM2_A*%
X179290000Y-90940000D02*
X189750000Y-90940000D01*
X189750000Y-90940000D02*
X192460000Y-93650000D01*
%TO.N,PWM1_B*%
X185230000Y-87650000D02*
X189000000Y-87650000D01*
X189000000Y-87650000D02*
X192460000Y-91110000D01*
%TO.N,PWM3_B*%
X186772960Y-107370000D02*
X190833960Y-103309000D01*
X179040000Y-107370000D02*
X186772960Y-107370000D01*
X190833960Y-103309000D02*
X190833960Y-102896040D01*
X190833960Y-102896040D02*
X192460000Y-101270000D01*
%TO.N,PWM3_A*%
X188274440Y-105160000D02*
X190332960Y-103101480D01*
X179540000Y-105310000D02*
X179690000Y-105160000D01*
X179690000Y-105160000D02*
X188274440Y-105160000D01*
X190332960Y-103101480D02*
X190332960Y-100857040D01*
X190332960Y-100857040D02*
X192460000Y-98730000D01*
%TO.N,PWM4_B*%
X180380000Y-115180000D02*
X189210000Y-106350000D01*
X189210000Y-106350000D02*
X192460000Y-106350000D01*
X177100000Y-115180000D02*
X180380000Y-115180000D01*
%TO.N,PWM4_A*%
X183651480Y-111200000D02*
X191041480Y-103810000D01*
X180160000Y-111200000D02*
X183651480Y-111200000D01*
X191041480Y-103810000D02*
X192460000Y-103810000D01*
%TO.N,GND*%
X178020000Y-89780000D02*
X176450000Y-89780000D01*
X179300000Y-88500000D02*
X183850000Y-88500000D01*
X179226383Y-108325380D02*
X178170762Y-109381001D01*
X183850000Y-88500000D02*
X184400000Y-89050000D01*
X179550000Y-108325380D02*
X179226383Y-108325380D01*
X179300000Y-88500000D02*
X178020000Y-89780000D01*
X184100380Y-108325380D02*
X184300000Y-108525000D01*
X179550000Y-108325380D02*
X184100380Y-108325380D01*
%TO.N,Net-(IC1-AGND)*%
X175630000Y-90430000D02*
X178470000Y-90430000D01*
X178470000Y-90430000D02*
X179240000Y-89660000D01*
%TO.N,Net-(IC1-BST_A)*%
X162980000Y-83610000D02*
X160110000Y-83610000D01*
X163840000Y-84470000D02*
X162980000Y-83610000D01*
%TO.N,Net-(IC1-BST_B)*%
X163900000Y-89697500D02*
X159922500Y-89697500D01*
X159922500Y-89697500D02*
X159840000Y-89780000D01*
%TO.N,Net-(IC1-BST_C)*%
X164200000Y-90730000D02*
X159840000Y-90730000D01*
X164640000Y-90290000D02*
X164200000Y-90730000D01*
%TO.N,Net-(IC2-AGND)*%
X179740000Y-110031000D02*
X176641000Y-110031000D01*
X176641000Y-110031000D02*
X176580000Y-109970000D01*
%TO.N,Net-(IC2-BST_B)*%
X163940000Y-109697500D02*
X160072500Y-109697500D01*
X160072500Y-109697500D02*
X160000000Y-109770000D01*
%TO.N,Net-(IC2-BST_C)*%
X164192500Y-111000000D02*
X159950000Y-111000000D01*
X164751250Y-110302500D02*
X164751250Y-110441250D01*
X164751250Y-110441250D02*
X164192500Y-111000000D01*
%TO.N,Net-(IC2-BST_D)*%
X163765000Y-116750000D02*
X164482500Y-116032500D01*
X161190000Y-116750000D02*
X163765000Y-116750000D01*
%TO.N,FAULT1*%
X162120000Y-80010000D02*
X160530000Y-81600000D01*
X175040000Y-84225766D02*
X175040000Y-83100000D01*
X173540000Y-80010000D02*
X162120000Y-80010000D01*
X175040000Y-83100000D02*
X173960000Y-82020000D01*
X155840000Y-98160000D02*
X154000000Y-100000000D01*
X173960000Y-82020000D02*
X173960000Y-80430000D01*
X173960000Y-80430000D02*
X173540000Y-80010000D01*
X155840000Y-92420000D02*
X155840000Y-98160000D01*
%TO.N,FAULT2*%
X172060000Y-100700000D02*
X158300000Y-100700000D01*
X158300000Y-100700000D02*
X154000000Y-105000000D01*
X175144620Y-103784620D02*
X172060000Y-100700000D01*
%TD*%
%TA.AperFunction,Conductor*%
%TO.N,GND*%
G36*
X198026231Y-107020185D02*
G01*
X198046873Y-107036819D01*
X199331181Y-108321126D01*
X199364666Y-108382449D01*
X199367500Y-108408807D01*
X199367500Y-118921192D01*
X199347815Y-118988231D01*
X199331181Y-119008873D01*
X198378873Y-119961181D01*
X198317550Y-119994666D01*
X198291192Y-119997500D01*
X190617929Y-119997500D01*
X190492261Y-120022497D01*
X190492260Y-120022498D01*
X190492259Y-120022498D01*
X190492256Y-120022499D01*
X190448074Y-120040800D01*
X190378604Y-120048268D01*
X190316125Y-120016992D01*
X190280473Y-119956903D01*
X190282968Y-119887078D01*
X190297520Y-119857347D01*
X190366632Y-119753914D01*
X190442051Y-119571835D01*
X190480500Y-119378541D01*
X190480500Y-110625782D01*
X190500185Y-110558743D01*
X190516819Y-110538101D01*
X191128101Y-109926819D01*
X191189424Y-109893334D01*
X191215782Y-109890500D01*
X191499800Y-109890500D01*
X191566839Y-109910185D01*
X191579365Y-109919493D01*
X191752179Y-110045048D01*
X191752181Y-110045049D01*
X191752184Y-110045051D01*
X191761493Y-110049794D01*
X191812290Y-110097766D01*
X191829087Y-110165587D01*
X191806552Y-110231722D01*
X191761502Y-110270762D01*
X191752443Y-110275378D01*
X191580540Y-110400272D01*
X191580535Y-110400276D01*
X191430276Y-110550535D01*
X191430272Y-110550540D01*
X191305379Y-110722442D01*
X191208904Y-110911782D01*
X191143242Y-111113870D01*
X191143242Y-111113873D01*
X191132769Y-111180000D01*
X192026988Y-111180000D01*
X191994075Y-111237007D01*
X191960000Y-111364174D01*
X191960000Y-111495826D01*
X191994075Y-111622993D01*
X192026988Y-111680000D01*
X191132769Y-111680000D01*
X191143242Y-111746126D01*
X191143242Y-111746129D01*
X191208904Y-111948217D01*
X191305379Y-112137557D01*
X191430272Y-112309459D01*
X191430276Y-112309464D01*
X191580535Y-112459723D01*
X191580540Y-112459727D01*
X191752442Y-112584620D01*
X191941782Y-112681095D01*
X192143871Y-112746757D01*
X192210000Y-112757231D01*
X192210000Y-111863012D01*
X192267007Y-111895925D01*
X192394174Y-111930000D01*
X192525826Y-111930000D01*
X192652993Y-111895925D01*
X192710000Y-111863012D01*
X192710000Y-112757230D01*
X192776126Y-112746757D01*
X192776129Y-112746757D01*
X192978217Y-112681095D01*
X193167557Y-112584620D01*
X193339459Y-112459727D01*
X193339464Y-112459723D01*
X193489723Y-112309464D01*
X193489727Y-112309459D01*
X193614620Y-112137558D01*
X193619514Y-112127954D01*
X193667488Y-112077157D01*
X193735308Y-112060361D01*
X193801444Y-112082897D01*
X193840486Y-112127954D01*
X193845379Y-112137558D01*
X193970272Y-112309459D01*
X193970276Y-112309464D01*
X194120535Y-112459723D01*
X194120540Y-112459727D01*
X194292442Y-112584620D01*
X194481782Y-112681095D01*
X194683871Y-112746757D01*
X194750000Y-112757231D01*
X194750000Y-111863012D01*
X194807007Y-111895925D01*
X194934174Y-111930000D01*
X195065826Y-111930000D01*
X195192993Y-111895925D01*
X195250000Y-111863012D01*
X195250000Y-112757230D01*
X195316126Y-112746757D01*
X195316129Y-112746757D01*
X195518217Y-112681095D01*
X195707557Y-112584620D01*
X195879459Y-112459727D01*
X195879464Y-112459723D01*
X196029723Y-112309464D01*
X196029727Y-112309459D01*
X196154620Y-112137557D01*
X196251095Y-111948217D01*
X196316757Y-111746129D01*
X196316757Y-111746126D01*
X196327231Y-111680000D01*
X195433012Y-111680000D01*
X195465925Y-111622993D01*
X195500000Y-111495826D01*
X195500000Y-111364174D01*
X195465925Y-111237007D01*
X195433012Y-111180000D01*
X196327231Y-111180000D01*
X196316757Y-111113873D01*
X196316757Y-111113870D01*
X196251095Y-110911782D01*
X196154620Y-110722442D01*
X196029727Y-110550540D01*
X196029723Y-110550535D01*
X195879464Y-110400276D01*
X195879459Y-110400272D01*
X195707555Y-110275377D01*
X195698500Y-110270763D01*
X195647706Y-110222788D01*
X195630912Y-110154966D01*
X195653451Y-110088832D01*
X195698508Y-110049793D01*
X195707816Y-110045051D01*
X195787007Y-109987515D01*
X195879786Y-109920109D01*
X195879788Y-109920106D01*
X195879792Y-109920104D01*
X196030104Y-109769792D01*
X196030106Y-109769788D01*
X196030109Y-109769786D01*
X196155048Y-109597820D01*
X196155047Y-109597820D01*
X196155051Y-109597816D01*
X196251557Y-109408412D01*
X196317246Y-109206243D01*
X196350500Y-108996287D01*
X196350500Y-108783713D01*
X196317246Y-108573757D01*
X196251557Y-108371588D01*
X196155051Y-108182184D01*
X196155049Y-108182181D01*
X196155048Y-108182179D01*
X196030109Y-108010213D01*
X195879786Y-107859890D01*
X195707820Y-107734951D01*
X195707115Y-107734591D01*
X195699054Y-107730485D01*
X195648259Y-107682512D01*
X195631463Y-107614692D01*
X195653999Y-107548556D01*
X195699054Y-107509515D01*
X195707816Y-107505051D01*
X195756748Y-107469500D01*
X195879786Y-107380109D01*
X195879788Y-107380106D01*
X195879792Y-107380104D01*
X196030104Y-107229792D01*
X196030106Y-107229788D01*
X196030109Y-107229786D01*
X196157915Y-107053875D01*
X196159259Y-107054851D01*
X196205705Y-107012834D01*
X196259618Y-107000500D01*
X197959192Y-107000500D01*
X198026231Y-107020185D01*
G37*
%TD.AperFunction*%
%TA.AperFunction,Conductor*%
G36*
X194534075Y-111237007D02*
G01*
X194500000Y-111364174D01*
X194500000Y-111495826D01*
X194534075Y-111622993D01*
X194566988Y-111680000D01*
X192893012Y-111680000D01*
X192925925Y-111622993D01*
X192960000Y-111495826D01*
X192960000Y-111364174D01*
X192925925Y-111237007D01*
X192893012Y-111180000D01*
X194566988Y-111180000D01*
X194534075Y-111237007D01*
G37*
%TD.AperFunction*%
%TA.AperFunction,Conductor*%
G36*
X192496231Y-83130185D02*
G01*
X192516873Y-83146819D01*
X194313181Y-84943127D01*
X194346666Y-85004450D01*
X194349500Y-85030808D01*
X194349500Y-87095500D01*
X194329815Y-87162539D01*
X194277011Y-87208294D01*
X194225501Y-87219500D01*
X194102130Y-87219500D01*
X194102123Y-87219501D01*
X194042516Y-87225908D01*
X193907671Y-87276202D01*
X193907664Y-87276206D01*
X193792455Y-87362452D01*
X193792452Y-87362455D01*
X193706206Y-87477664D01*
X193706203Y-87477669D01*
X193657189Y-87609083D01*
X193615317Y-87665016D01*
X193549853Y-87689433D01*
X193481580Y-87674581D01*
X193453326Y-87653430D01*
X193339786Y-87539890D01*
X193167820Y-87414951D01*
X192978414Y-87318444D01*
X192978413Y-87318443D01*
X192978412Y-87318443D01*
X192776243Y-87252754D01*
X192776241Y-87252753D01*
X192776240Y-87252753D01*
X192614957Y-87227208D01*
X192566287Y-87219500D01*
X192353713Y-87219500D01*
X192243888Y-87236894D01*
X192138945Y-87253516D01*
X192138686Y-87251882D01*
X192076094Y-87248730D01*
X192029288Y-87219342D01*
X189924674Y-85114727D01*
X189924673Y-85114726D01*
X189924669Y-85114723D01*
X189818127Y-85043535D01*
X189787401Y-85030808D01*
X189699744Y-84994499D01*
X189699738Y-84994497D01*
X189574071Y-84969500D01*
X189574069Y-84969500D01*
X185684935Y-84969500D01*
X185617896Y-84949815D01*
X185616090Y-84948633D01*
X185559179Y-84910606D01*
X185559172Y-84910602D01*
X185413501Y-84850264D01*
X185413489Y-84850261D01*
X185258845Y-84819500D01*
X185258842Y-84819500D01*
X185101158Y-84819500D01*
X185101155Y-84819500D01*
X184946510Y-84850261D01*
X184946498Y-84850264D01*
X184800827Y-84910602D01*
X184800814Y-84910609D01*
X184669711Y-84998210D01*
X184669707Y-84998213D01*
X184558213Y-85109707D01*
X184558210Y-85109711D01*
X184470609Y-85240814D01*
X184470602Y-85240827D01*
X184410264Y-85386498D01*
X184410261Y-85386510D01*
X184379500Y-85541153D01*
X184379500Y-85698846D01*
X184410261Y-85853489D01*
X184410264Y-85853501D01*
X184470602Y-85999172D01*
X184470609Y-85999185D01*
X184558210Y-86130288D01*
X184558213Y-86130292D01*
X184669707Y-86241786D01*
X184669711Y-86241789D01*
X184800814Y-86329390D01*
X184800827Y-86329397D01*
X184946498Y-86389735D01*
X184946503Y-86389737D01*
X185059165Y-86412147D01*
X185101153Y-86420499D01*
X185101156Y-86420500D01*
X185101158Y-86420500D01*
X185258844Y-86420500D01*
X185258845Y-86420499D01*
X185413497Y-86389737D01*
X185559179Y-86329394D01*
X185616044Y-86291397D01*
X185682721Y-86270520D01*
X185684935Y-86270500D01*
X189189192Y-86270500D01*
X189256231Y-86290185D01*
X189276873Y-86306819D01*
X191109342Y-88139288D01*
X191142827Y-88200611D01*
X191142319Y-88248755D01*
X191143516Y-88248945D01*
X191109500Y-88463713D01*
X191109500Y-88540191D01*
X191089815Y-88607230D01*
X191037011Y-88652985D01*
X190967853Y-88662929D01*
X190904297Y-88633904D01*
X190897819Y-88627872D01*
X189414673Y-87144726D01*
X189414669Y-87144723D01*
X189308127Y-87073535D01*
X189189744Y-87024499D01*
X189189741Y-87024498D01*
X189182932Y-87023144D01*
X189176122Y-87021789D01*
X189176120Y-87021788D01*
X189176120Y-87021789D01*
X189064071Y-86999500D01*
X189064069Y-86999500D01*
X185734935Y-86999500D01*
X185667896Y-86979815D01*
X185666090Y-86978633D01*
X185609179Y-86940606D01*
X185609172Y-86940602D01*
X185463501Y-86880264D01*
X185463489Y-86880261D01*
X185308845Y-86849500D01*
X185308842Y-86849500D01*
X185151158Y-86849500D01*
X185151155Y-86849500D01*
X184996510Y-86880261D01*
X184996498Y-86880264D01*
X184850827Y-86940602D01*
X184850814Y-86940609D01*
X184719711Y-87028210D01*
X184719707Y-87028213D01*
X184608213Y-87139707D01*
X184608210Y-87139711D01*
X184520609Y-87270814D01*
X184520602Y-87270827D01*
X184460264Y-87416498D01*
X184460261Y-87416510D01*
X184429500Y-87571153D01*
X184429500Y-87728846D01*
X184460261Y-87883489D01*
X184460264Y-87883501D01*
X184520602Y-88029172D01*
X184520609Y-88029185D01*
X184608210Y-88160288D01*
X184608213Y-88160292D01*
X184719707Y-88271786D01*
X184719711Y-88271789D01*
X184850814Y-88359390D01*
X184850827Y-88359397D01*
X184996498Y-88419735D01*
X184996503Y-88419737D01*
X185151153Y-88450499D01*
X185151156Y-88450500D01*
X185151158Y-88450500D01*
X185308844Y-88450500D01*
X185308845Y-88450499D01*
X185463497Y-88419737D01*
X185609179Y-88359394D01*
X185666044Y-88321397D01*
X185732721Y-88300520D01*
X185734935Y-88300500D01*
X188679192Y-88300500D01*
X188746231Y-88320185D01*
X188766873Y-88336819D01*
X191109342Y-90679288D01*
X191142827Y-90740611D01*
X191142319Y-90788755D01*
X191143516Y-90788945D01*
X191109500Y-91003713D01*
X191109500Y-91080191D01*
X191089815Y-91147230D01*
X191037011Y-91192985D01*
X190967853Y-91202929D01*
X190904297Y-91173904D01*
X190897819Y-91167872D01*
X190164673Y-90434726D01*
X190141805Y-90419446D01*
X190058127Y-90363535D01*
X190028753Y-90351368D01*
X189939744Y-90314499D01*
X189939740Y-90314498D01*
X189935433Y-90313641D01*
X189931125Y-90312784D01*
X189931122Y-90312783D01*
X189931122Y-90312784D01*
X189814071Y-90289500D01*
X189814069Y-90289500D01*
X180014123Y-90289500D01*
X179947084Y-90269815D01*
X179901329Y-90217011D01*
X179891385Y-90147853D01*
X179911021Y-90096609D01*
X179949390Y-90039185D01*
X179949390Y-90039184D01*
X179949394Y-90039179D01*
X179951780Y-90033420D01*
X179971632Y-89985491D01*
X180009737Y-89893497D01*
X180040500Y-89738842D01*
X180040500Y-89581158D01*
X180040500Y-89581155D01*
X180040499Y-89581153D01*
X180017966Y-89467872D01*
X180009737Y-89426503D01*
X180008704Y-89424008D01*
X179949397Y-89280827D01*
X179949390Y-89280814D01*
X179861789Y-89149711D01*
X179861786Y-89149707D01*
X179750292Y-89038213D01*
X179750288Y-89038210D01*
X179619185Y-88950609D01*
X179619172Y-88950602D01*
X179473501Y-88890264D01*
X179473489Y-88890261D01*
X179318845Y-88859500D01*
X179318842Y-88859500D01*
X179161158Y-88859500D01*
X179130973Y-88865504D01*
X179036900Y-88884216D01*
X178967308Y-88877988D01*
X178912131Y-88835124D01*
X178888887Y-88769234D01*
X178904955Y-88701237D01*
X178925024Y-88674921D01*
X179383127Y-88216819D01*
X179444450Y-88183334D01*
X179470808Y-88180500D01*
X181094071Y-88180500D01*
X181178615Y-88163682D01*
X181219744Y-88155501D01*
X181338127Y-88106465D01*
X181344796Y-88102008D01*
X181347058Y-88100498D01*
X181379889Y-88078561D01*
X181444669Y-88035277D01*
X183885277Y-85594669D01*
X183956465Y-85488127D01*
X184005501Y-85369744D01*
X184011559Y-85339290D01*
X184023452Y-85279500D01*
X184030500Y-85244071D01*
X184030500Y-84145783D01*
X184050185Y-84078744D01*
X184066814Y-84058106D01*
X184157139Y-83967782D01*
X184266632Y-83803914D01*
X184342051Y-83621835D01*
X184380500Y-83428541D01*
X184380500Y-83234500D01*
X184400185Y-83167461D01*
X184452989Y-83121706D01*
X184504500Y-83110500D01*
X192429192Y-83110500D01*
X192496231Y-83130185D01*
G37*
%TD.AperFunction*%
%TA.AperFunction,Conductor*%
G36*
X173252539Y-80680185D02*
G01*
X173298294Y-80732989D01*
X173309500Y-80784500D01*
X173309500Y-82084069D01*
X173309500Y-82084071D01*
X173309499Y-82084071D01*
X173327879Y-82176465D01*
X173327879Y-82176466D01*
X173334496Y-82209737D01*
X173334498Y-82209742D01*
X173375776Y-82309394D01*
X173383535Y-82328127D01*
X173454723Y-82434669D01*
X173454726Y-82434673D01*
X173454727Y-82434674D01*
X174353181Y-83333127D01*
X174386666Y-83394450D01*
X174389500Y-83420808D01*
X174389500Y-83720830D01*
X174369815Y-83787869D01*
X174368603Y-83789720D01*
X174330608Y-83846583D01*
X174330602Y-83846594D01*
X174270264Y-83992264D01*
X174270261Y-83992276D01*
X174239500Y-84146919D01*
X174239500Y-84304612D01*
X174270261Y-84459255D01*
X174270264Y-84459267D01*
X174330602Y-84604938D01*
X174330609Y-84604951D01*
X174418210Y-84736054D01*
X174418213Y-84736058D01*
X174529707Y-84847552D01*
X174529711Y-84847555D01*
X174660814Y-84935156D01*
X174660827Y-84935163D01*
X174769780Y-84980292D01*
X174806503Y-84995503D01*
X174912856Y-85016658D01*
X174961153Y-85026265D01*
X174961156Y-85026266D01*
X174961158Y-85026266D01*
X175118844Y-85026266D01*
X175198450Y-85010431D01*
X175268042Y-85016658D01*
X175323219Y-85059521D01*
X175346464Y-85125410D01*
X175330396Y-85193407D01*
X175310323Y-85219729D01*
X174947068Y-85582984D01*
X174885745Y-85616469D01*
X174883579Y-85616920D01*
X174816508Y-85630261D01*
X174816498Y-85630264D01*
X174670827Y-85690602D01*
X174670814Y-85690609D01*
X174539711Y-85778210D01*
X174539707Y-85778213D01*
X174428213Y-85889707D01*
X174428210Y-85889711D01*
X174340609Y-86020814D01*
X174340602Y-86020827D01*
X174280264Y-86166498D01*
X174280261Y-86166510D01*
X174249500Y-86321153D01*
X174249500Y-86478846D01*
X174280261Y-86633489D01*
X174280264Y-86633501D01*
X174340602Y-86779172D01*
X174340609Y-86779185D01*
X174428210Y-86910288D01*
X174428213Y-86910292D01*
X174539707Y-87021786D01*
X174539711Y-87021789D01*
X174670814Y-87109390D01*
X174670827Y-87109397D01*
X174799125Y-87162539D01*
X174816503Y-87169737D01*
X174967714Y-87199815D01*
X174971153Y-87200499D01*
X174971156Y-87200500D01*
X174971158Y-87200500D01*
X175128844Y-87200500D01*
X175128845Y-87200499D01*
X175283497Y-87169737D01*
X175429179Y-87109394D01*
X175560289Y-87021789D01*
X175671789Y-86910289D01*
X175759394Y-86779179D01*
X175819737Y-86633497D01*
X175833079Y-86566416D01*
X175865463Y-86504509D01*
X175866902Y-86503042D01*
X176063128Y-86306816D01*
X176124451Y-86273334D01*
X176150808Y-86270500D01*
X178498014Y-86270500D01*
X178565053Y-86290185D01*
X178610808Y-86342989D01*
X178620752Y-86412147D01*
X178591727Y-86475703D01*
X178566905Y-86497602D01*
X178527810Y-86523723D01*
X178527807Y-86523726D01*
X177437721Y-87613813D01*
X177376398Y-87647298D01*
X177350040Y-87650132D01*
X165462764Y-87650132D01*
X165395725Y-87630447D01*
X165349970Y-87577643D01*
X165338764Y-87526132D01*
X165338764Y-87351088D01*
X165300316Y-87157802D01*
X165300315Y-87157801D01*
X165300315Y-87157797D01*
X165280266Y-87109394D01*
X165224899Y-86975724D01*
X165224892Y-86975711D01*
X165115403Y-86811850D01*
X165115400Y-86811846D01*
X165044752Y-86741198D01*
X165011267Y-86679875D01*
X165016251Y-86610183D01*
X165017873Y-86606063D01*
X165032049Y-86571839D01*
X165032051Y-86571835D01*
X165055782Y-86452535D01*
X165070500Y-86378543D01*
X165070500Y-86181456D01*
X165032052Y-85988170D01*
X165032051Y-85988169D01*
X165032051Y-85988165D01*
X164996581Y-85902531D01*
X164956635Y-85806092D01*
X164956628Y-85806079D01*
X164847139Y-85642218D01*
X164847136Y-85642214D01*
X164707785Y-85502863D01*
X164707781Y-85502860D01*
X164543920Y-85393371D01*
X164543911Y-85393366D01*
X164360091Y-85317226D01*
X164305688Y-85273385D01*
X164283623Y-85207091D01*
X164300902Y-85139392D01*
X164338656Y-85099561D01*
X164350289Y-85091789D01*
X164461789Y-84980289D01*
X164549394Y-84849179D01*
X164609737Y-84703497D01*
X164640500Y-84548842D01*
X164640500Y-84391158D01*
X164640500Y-84391155D01*
X164640499Y-84391153D01*
X164623284Y-84304608D01*
X164609737Y-84236503D01*
X164582525Y-84170807D01*
X164549397Y-84090827D01*
X164549390Y-84090814D01*
X164461789Y-83959711D01*
X164461786Y-83959707D01*
X164350292Y-83848213D01*
X164350288Y-83848210D01*
X164219185Y-83760609D01*
X164219172Y-83760602D01*
X164073501Y-83700264D01*
X164073489Y-83700261D01*
X164006420Y-83686920D01*
X163944509Y-83654535D01*
X163942930Y-83652984D01*
X163394674Y-83104727D01*
X163394673Y-83104726D01*
X163394669Y-83104723D01*
X163288127Y-83033535D01*
X163169744Y-82984499D01*
X163169738Y-82984497D01*
X163044071Y-82959500D01*
X163044069Y-82959500D01*
X160614935Y-82959500D01*
X160547896Y-82939815D01*
X160546090Y-82938633D01*
X160489179Y-82900606D01*
X160489172Y-82900602D01*
X160343501Y-82840264D01*
X160343489Y-82840261D01*
X160188845Y-82809500D01*
X160188842Y-82809500D01*
X160031158Y-82809500D01*
X160031155Y-82809500D01*
X159876510Y-82840261D01*
X159876498Y-82840264D01*
X159730827Y-82900602D01*
X159730814Y-82900609D01*
X159599711Y-82988210D01*
X159599707Y-82988213D01*
X159488213Y-83099707D01*
X159488210Y-83099711D01*
X159400609Y-83230814D01*
X159400602Y-83230827D01*
X159340264Y-83376498D01*
X159340261Y-83376510D01*
X159309500Y-83531153D01*
X159309500Y-83688846D01*
X159340261Y-83843489D01*
X159340264Y-83843501D01*
X159400602Y-83989172D01*
X159400609Y-83989185D01*
X159488210Y-84120288D01*
X159488213Y-84120292D01*
X159599707Y-84231786D01*
X159599711Y-84231789D01*
X159730814Y-84319390D01*
X159730827Y-84319397D01*
X159876498Y-84379735D01*
X159876503Y-84379737D01*
X160031153Y-84410499D01*
X160031156Y-84410500D01*
X160031158Y-84410500D01*
X160188844Y-84410500D01*
X160188845Y-84410499D01*
X160343497Y-84379737D01*
X160489179Y-84319394D01*
X160546044Y-84281397D01*
X160612721Y-84260520D01*
X160614935Y-84260500D01*
X162659192Y-84260500D01*
X162726231Y-84280185D01*
X162746873Y-84296819D01*
X163022984Y-84572930D01*
X163056469Y-84634253D01*
X163056920Y-84636420D01*
X163070261Y-84703489D01*
X163070264Y-84703501D01*
X163130602Y-84849172D01*
X163130609Y-84849185D01*
X163218210Y-84980288D01*
X163218213Y-84980292D01*
X163329707Y-85091786D01*
X163329711Y-85091789D01*
X163460814Y-85179390D01*
X163460826Y-85179397D01*
X163527678Y-85207087D01*
X163582082Y-85250927D01*
X163604147Y-85317221D01*
X163586868Y-85384921D01*
X163549117Y-85424750D01*
X163432219Y-85502859D01*
X163407941Y-85527138D01*
X163341896Y-85593182D01*
X163280576Y-85626666D01*
X163254217Y-85629500D01*
X161105783Y-85629500D01*
X161038744Y-85609815D01*
X161018106Y-85593185D01*
X160917782Y-85492861D01*
X160917781Y-85492860D01*
X160917780Y-85492859D01*
X160753920Y-85383371D01*
X160753907Y-85383364D01*
X160571839Y-85307950D01*
X160571829Y-85307947D01*
X160378543Y-85269500D01*
X160378541Y-85269500D01*
X160181459Y-85269500D01*
X160181457Y-85269500D01*
X159988170Y-85307947D01*
X159988160Y-85307950D01*
X159806092Y-85383364D01*
X159806079Y-85383371D01*
X159642218Y-85492860D01*
X159642214Y-85492863D01*
X159502863Y-85632214D01*
X159502860Y-85632218D01*
X159393371Y-85796079D01*
X159393364Y-85796092D01*
X159317950Y-85978160D01*
X159317947Y-85978170D01*
X159279500Y-86171456D01*
X159279500Y-86366027D01*
X159259815Y-86433066D01*
X159207011Y-86478821D01*
X159179706Y-86487641D01*
X159178179Y-86487944D01*
X159178160Y-86487950D01*
X158996092Y-86563364D01*
X158996079Y-86563371D01*
X158832218Y-86672860D01*
X158832214Y-86672863D01*
X158692863Y-86812214D01*
X158692860Y-86812218D01*
X158583371Y-86976079D01*
X158583364Y-86976092D01*
X158507950Y-87158160D01*
X158507947Y-87158170D01*
X158469500Y-87351456D01*
X158469500Y-87548545D01*
X158492587Y-87664612D01*
X158486360Y-87734204D01*
X158443497Y-87789381D01*
X158439864Y-87791903D01*
X158434700Y-87795353D01*
X158434695Y-87795357D01*
X157957451Y-88272602D01*
X157896128Y-88306087D01*
X157826436Y-88301103D01*
X157770503Y-88259231D01*
X157748153Y-88209112D01*
X157739469Y-88165462D01*
X157732051Y-88128165D01*
X157723061Y-88106460D01*
X157656635Y-87946092D01*
X157656628Y-87946079D01*
X157547139Y-87782218D01*
X157547136Y-87782214D01*
X157407785Y-87642863D01*
X157407781Y-87642860D01*
X157243920Y-87533371D01*
X157243907Y-87533364D01*
X157061839Y-87457950D01*
X157061829Y-87457947D01*
X156868543Y-87419500D01*
X156868541Y-87419500D01*
X156740808Y-87419500D01*
X156673769Y-87399815D01*
X156653127Y-87383181D01*
X156256819Y-86986873D01*
X156223334Y-86925550D01*
X156220500Y-86899192D01*
X156220500Y-86501567D01*
X156240185Y-86434528D01*
X156292989Y-86388773D01*
X156362147Y-86378829D01*
X156368693Y-86379950D01*
X156371458Y-86380500D01*
X156371459Y-86380500D01*
X156568543Y-86380500D01*
X156757119Y-86342989D01*
X156761835Y-86342051D01*
X156927734Y-86273334D01*
X156943907Y-86266635D01*
X156943907Y-86266634D01*
X156943914Y-86266632D01*
X157107782Y-86157139D01*
X157247139Y-86017782D01*
X157356632Y-85853914D01*
X157432051Y-85671835D01*
X157458046Y-85541153D01*
X157470500Y-85478543D01*
X157470500Y-85281456D01*
X157432052Y-85088170D01*
X157432051Y-85088169D01*
X157432051Y-85088165D01*
X157432049Y-85088160D01*
X157356635Y-84906092D01*
X157356628Y-84906079D01*
X157247139Y-84742218D01*
X157247136Y-84742214D01*
X157156819Y-84651897D01*
X157123334Y-84590574D01*
X157120500Y-84564216D01*
X157120500Y-84170807D01*
X157140185Y-84103768D01*
X157156814Y-84083131D01*
X159537523Y-81702421D01*
X159598844Y-81668938D01*
X159668536Y-81673922D01*
X159724469Y-81715794D01*
X159746819Y-81765912D01*
X159760261Y-81833491D01*
X159760264Y-81833501D01*
X159820602Y-81979172D01*
X159820609Y-81979185D01*
X159908210Y-82110288D01*
X159908213Y-82110292D01*
X160019707Y-82221786D01*
X160019711Y-82221789D01*
X160150814Y-82309390D01*
X160150827Y-82309397D01*
X160296498Y-82369735D01*
X160296503Y-82369737D01*
X160451153Y-82400499D01*
X160451156Y-82400500D01*
X160451158Y-82400500D01*
X160608844Y-82400500D01*
X160608845Y-82400499D01*
X160763497Y-82369737D01*
X160909179Y-82309394D01*
X161040289Y-82221789D01*
X161151789Y-82110289D01*
X161239394Y-81979179D01*
X161299737Y-81833497D01*
X161313079Y-81766416D01*
X161345463Y-81704509D01*
X161346958Y-81702986D01*
X162353127Y-80696819D01*
X162414450Y-80663334D01*
X162440808Y-80660500D01*
X173185500Y-80660500D01*
X173252539Y-80680185D01*
G37*
%TD.AperFunction*%
%TA.AperFunction,Conductor*%
G36*
X177406577Y-79961185D02*
G01*
X177427219Y-79977819D01*
X180407426Y-82958027D01*
X180407428Y-82958028D01*
X180414677Y-82965277D01*
X180516834Y-83033535D01*
X180521219Y-83036465D01*
X180599795Y-83069012D01*
X180606816Y-83073063D01*
X180625559Y-83092708D01*
X180646705Y-83109748D01*
X180649323Y-83117616D01*
X180655047Y-83123615D01*
X180660193Y-83150274D01*
X180668770Y-83176042D01*
X180666719Y-83184076D01*
X180668291Y-83192218D01*
X180658206Y-83217430D01*
X180651491Y-83243742D01*
X180647952Y-83249359D01*
X180603370Y-83316081D01*
X180603364Y-83316092D01*
X180527950Y-83498160D01*
X180527947Y-83498170D01*
X180489500Y-83691456D01*
X180489500Y-83691459D01*
X180489500Y-83888541D01*
X180489500Y-83888543D01*
X180489499Y-83888543D01*
X180527947Y-84081829D01*
X180527950Y-84081839D01*
X180603364Y-84263907D01*
X180603371Y-84263920D01*
X180712859Y-84427780D01*
X180712860Y-84427781D01*
X180712861Y-84427782D01*
X180803182Y-84518103D01*
X180836666Y-84579424D01*
X180839500Y-84605783D01*
X180839500Y-85433425D01*
X180819815Y-85500464D01*
X180767011Y-85546219D01*
X180697853Y-85556163D01*
X180634297Y-85527138D01*
X180596523Y-85468360D01*
X180593883Y-85457617D01*
X180579738Y-85386508D01*
X180579737Y-85386507D01*
X180579737Y-85386503D01*
X180578440Y-85383371D01*
X180519397Y-85240827D01*
X180519390Y-85240814D01*
X180431789Y-85109711D01*
X180431786Y-85109707D01*
X180320292Y-84998213D01*
X180320288Y-84998210D01*
X180189185Y-84910609D01*
X180189172Y-84910602D01*
X180043501Y-84850264D01*
X180043489Y-84850261D01*
X179888845Y-84819500D01*
X179888842Y-84819500D01*
X179731158Y-84819500D01*
X179731155Y-84819500D01*
X179576510Y-84850261D01*
X179576498Y-84850264D01*
X179430827Y-84910602D01*
X179430820Y-84910606D01*
X179401928Y-84929911D01*
X179373955Y-84948602D01*
X179307279Y-84969480D01*
X179305065Y-84969500D01*
X175765930Y-84969500D01*
X175745437Y-84973576D01*
X175675846Y-84967347D01*
X175620669Y-84924483D01*
X175597426Y-84858593D01*
X175613495Y-84790596D01*
X175633564Y-84764279D01*
X175661789Y-84736055D01*
X175749394Y-84604945D01*
X175809737Y-84459263D01*
X175840500Y-84304608D01*
X175840500Y-84146924D01*
X175840500Y-84146921D01*
X175840499Y-84146919D01*
X175840273Y-84145783D01*
X175809737Y-83992269D01*
X175796251Y-83959711D01*
X175749397Y-83846594D01*
X175749396Y-83846593D01*
X175749394Y-83846587D01*
X175711396Y-83789719D01*
X175690520Y-83723042D01*
X175690500Y-83720830D01*
X175690500Y-83035928D01*
X175665502Y-82910261D01*
X175665501Y-82910260D01*
X175665501Y-82910256D01*
X175631408Y-82827949D01*
X175616466Y-82791874D01*
X175545277Y-82685331D01*
X175545272Y-82685325D01*
X174646819Y-81786872D01*
X174613334Y-81725549D01*
X174610500Y-81699191D01*
X174610500Y-80365928D01*
X174585502Y-80240261D01*
X174585501Y-80240260D01*
X174585501Y-80240256D01*
X174537897Y-80125331D01*
X174534134Y-80116245D01*
X174535828Y-80115543D01*
X174523334Y-80055562D01*
X174548328Y-79990316D01*
X174604629Y-79948940D01*
X174646935Y-79941500D01*
X177339538Y-79941500D01*
X177406577Y-79961185D01*
G37*
%TD.AperFunction*%
%TA.AperFunction,Conductor*%
G36*
X179316231Y-79460185D02*
G01*
X179336873Y-79476819D01*
X180633181Y-80773127D01*
X180647884Y-80800054D01*
X180664477Y-80825873D01*
X180665368Y-80832073D01*
X180666666Y-80834450D01*
X180669500Y-80860808D01*
X180669500Y-81080846D01*
X180649815Y-81147885D01*
X180597011Y-81193640D01*
X180527853Y-81203584D01*
X180464297Y-81174559D01*
X180457819Y-81168527D01*
X178941473Y-79652181D01*
X178907988Y-79590858D01*
X178912972Y-79521166D01*
X178954844Y-79465233D01*
X179020308Y-79440816D01*
X179029154Y-79440500D01*
X179249192Y-79440500D01*
X179316231Y-79460185D01*
G37*
%TD.AperFunction*%
%TA.AperFunction,Conductor*%
G36*
X163793216Y-112461515D02*
G01*
X163822809Y-112467716D01*
X163828425Y-112471853D01*
X163831256Y-112472685D01*
X163849416Y-112487318D01*
X163851225Y-112488651D01*
X163851554Y-112488975D01*
X163942218Y-112579639D01*
X163946566Y-112582544D01*
X163954612Y-112590468D01*
X163968967Y-112616286D01*
X163985603Y-112640708D01*
X163985757Y-112646484D01*
X163988565Y-112651533D01*
X163986682Y-112681018D01*
X163987474Y-112710553D01*
X163984482Y-112715494D01*
X163984114Y-112721260D01*
X163966588Y-112745048D01*
X163951287Y-112770322D01*
X163946098Y-112772861D01*
X163942672Y-112777513D01*
X163915057Y-112793378D01*
X163746088Y-112863366D01*
X163746079Y-112863371D01*
X163582218Y-112972860D01*
X163582214Y-112972863D01*
X163442863Y-113112214D01*
X163442860Y-113112218D01*
X163333371Y-113276079D01*
X163333364Y-113276092D01*
X163260108Y-113452952D01*
X163216267Y-113507356D01*
X163149973Y-113529421D01*
X163145547Y-113529500D01*
X161073392Y-113529500D01*
X161006353Y-113509815D01*
X160960598Y-113457011D01*
X160950654Y-113387853D01*
X160979679Y-113324297D01*
X160994725Y-113309648D01*
X160997776Y-113307142D01*
X160997782Y-113307139D01*
X161137139Y-113167782D01*
X161246632Y-113003914D01*
X161322051Y-112821835D01*
X161334902Y-112757230D01*
X161360500Y-112628543D01*
X161360500Y-112577000D01*
X161380185Y-112509961D01*
X161432989Y-112464206D01*
X161484500Y-112453000D01*
X163764217Y-112453000D01*
X163793216Y-112461515D01*
G37*
%TD.AperFunction*%
%TA.AperFunction,Conductor*%
G36*
X163371256Y-107170185D02*
G01*
X163391898Y-107186819D01*
X163402898Y-107197819D01*
X163436383Y-107259142D01*
X163431399Y-107328834D01*
X163389527Y-107384767D01*
X163324063Y-107409184D01*
X163315217Y-107409500D01*
X160985783Y-107409500D01*
X160956342Y-107400855D01*
X160926356Y-107394332D01*
X160921340Y-107390577D01*
X160918744Y-107389815D01*
X160898102Y-107373181D01*
X160887102Y-107362181D01*
X160853617Y-107300858D01*
X160858601Y-107231166D01*
X160900473Y-107175233D01*
X160965937Y-107150816D01*
X160974783Y-107150500D01*
X163304217Y-107150500D01*
X163371256Y-107170185D01*
G37*
%TD.AperFunction*%
%TA.AperFunction,Conductor*%
G36*
X194865160Y-68861133D02*
G01*
X194885802Y-68877767D01*
X204519978Y-78511943D01*
X204553463Y-78573266D01*
X204556297Y-78599624D01*
X204556297Y-121939192D01*
X204536612Y-122006231D01*
X204519978Y-122026873D01*
X194885802Y-131661049D01*
X194824479Y-131694534D01*
X194798121Y-131697368D01*
X157005752Y-131697368D01*
X156938713Y-131677683D01*
X156892958Y-131624879D01*
X156888525Y-131613790D01*
X156675468Y-130995911D01*
X156411541Y-130230503D01*
X156410798Y-130228275D01*
X155826701Y-128417980D01*
X155825976Y-128415654D01*
X155278093Y-126594059D01*
X155277449Y-126591838D01*
X155079284Y-125881947D01*
X156500000Y-125881947D01*
X156500000Y-126118052D01*
X156536934Y-126351247D01*
X156609897Y-126575802D01*
X156717087Y-126786174D01*
X156777338Y-126869104D01*
X156777340Y-126869105D01*
X157517037Y-126129408D01*
X157534075Y-126192993D01*
X157599901Y-126307007D01*
X157692993Y-126400099D01*
X157807007Y-126465925D01*
X157870590Y-126482962D01*
X157130893Y-127222658D01*
X157213828Y-127282914D01*
X157424197Y-127390102D01*
X157648752Y-127463065D01*
X157648751Y-127463065D01*
X157881948Y-127500000D01*
X158118052Y-127500000D01*
X158351247Y-127463065D01*
X158575802Y-127390102D01*
X158786163Y-127282918D01*
X158786169Y-127282914D01*
X158869104Y-127222658D01*
X158869105Y-127222658D01*
X158129408Y-126482962D01*
X158192993Y-126465925D01*
X158307007Y-126400099D01*
X158400099Y-126307007D01*
X158465925Y-126192993D01*
X158482962Y-126129409D01*
X159222658Y-126869105D01*
X159222658Y-126869104D01*
X159282914Y-126786169D01*
X159282918Y-126786163D01*
X159390102Y-126575802D01*
X159463065Y-126351247D01*
X159500000Y-126118052D01*
X159500000Y-125881947D01*
X159463065Y-125648752D01*
X159390102Y-125424197D01*
X159282914Y-125213828D01*
X159222658Y-125130894D01*
X159222658Y-125130893D01*
X158482962Y-125870590D01*
X158465925Y-125807007D01*
X158400099Y-125692993D01*
X158307007Y-125599901D01*
X158192993Y-125534075D01*
X158129409Y-125517037D01*
X158869105Y-124777340D01*
X158869104Y-124777338D01*
X158786174Y-124717087D01*
X158575802Y-124609897D01*
X158351247Y-124536934D01*
X158351248Y-124536934D01*
X158118052Y-124500000D01*
X157881948Y-124500000D01*
X157648752Y-124536934D01*
X157424197Y-124609897D01*
X157213830Y-124717084D01*
X157130894Y-124777340D01*
X157870591Y-125517037D01*
X157807007Y-125534075D01*
X157692993Y-125599901D01*
X157599901Y-125692993D01*
X157534075Y-125807007D01*
X157517037Y-125870591D01*
X156777340Y-125130894D01*
X156717084Y-125213830D01*
X156609897Y-125424197D01*
X156536934Y-125648752D01*
X156500000Y-125881947D01*
X155079284Y-125881947D01*
X154765976Y-124759581D01*
X154765370Y-124757325D01*
X154290555Y-122915299D01*
X154289968Y-122912921D01*
X154263605Y-122801500D01*
X153852015Y-121061928D01*
X153851469Y-121059516D01*
X153742567Y-120554499D01*
X153450480Y-119199988D01*
X153450019Y-119197740D01*
X153086194Y-117330583D01*
X153085770Y-117328287D01*
X152759256Y-115454261D01*
X152758862Y-115451855D01*
X152752965Y-115413501D01*
X152469791Y-113571728D01*
X152469459Y-113569409D01*
X152217947Y-111683939D01*
X152217645Y-111681492D01*
X152161960Y-111189340D01*
X152015059Y-109891017D01*
X152003784Y-109791370D01*
X152003531Y-109788909D01*
X151914927Y-108836080D01*
X151877012Y-108428349D01*
X151827411Y-107894962D01*
X151827210Y-107892535D01*
X151827085Y-107890827D01*
X151688891Y-105995380D01*
X151688737Y-105992922D01*
X151681825Y-105862218D01*
X151629980Y-104881902D01*
X152499500Y-104881902D01*
X152499500Y-105118097D01*
X152536446Y-105351368D01*
X152609433Y-105575996D01*
X152696314Y-105746508D01*
X152716657Y-105786433D01*
X152855483Y-105977510D01*
X153022490Y-106144517D01*
X153213567Y-106283343D01*
X153312991Y-106334002D01*
X153424003Y-106390566D01*
X153424005Y-106390566D01*
X153424008Y-106390568D01*
X153520219Y-106421829D01*
X153648631Y-106463553D01*
X153881903Y-106500500D01*
X153881908Y-106500500D01*
X154118097Y-106500500D01*
X154351368Y-106463553D01*
X154575992Y-106390568D01*
X154786433Y-106283343D01*
X154977510Y-106144517D01*
X155144517Y-105977510D01*
X155283343Y-105786433D01*
X155390568Y-105575992D01*
X155463553Y-105351368D01*
X155476344Y-105270609D01*
X155500500Y-105118097D01*
X155500500Y-104881902D01*
X155470071Y-104689786D01*
X155463553Y-104648632D01*
X155439888Y-104575802D01*
X155437894Y-104505963D01*
X155470137Y-104449807D01*
X158533127Y-101386819D01*
X158594450Y-101353334D01*
X158620808Y-101350500D01*
X171739192Y-101350500D01*
X171806231Y-101370185D01*
X171826873Y-101386819D01*
X174327604Y-103887550D01*
X174361089Y-103948873D01*
X174361540Y-103951040D01*
X174374881Y-104018109D01*
X174374884Y-104018121D01*
X174435222Y-104163792D01*
X174435229Y-104163805D01*
X174522830Y-104294908D01*
X174522833Y-104294912D01*
X174634327Y-104406406D01*
X174634331Y-104406409D01*
X174765434Y-104494010D01*
X174765447Y-104494017D01*
X174877099Y-104540264D01*
X174911123Y-104554357D01*
X175018949Y-104575805D01*
X175065773Y-104585119D01*
X175065776Y-104585120D01*
X175065778Y-104585120D01*
X175223464Y-104585120D01*
X175223465Y-104585119D01*
X175378117Y-104554357D01*
X175523799Y-104494014D01*
X175654909Y-104406409D01*
X175766409Y-104294909D01*
X175854014Y-104163799D01*
X175914357Y-104018117D01*
X175945120Y-103863462D01*
X175945120Y-103705778D01*
X175945120Y-103705775D01*
X175945119Y-103705773D01*
X175928109Y-103620258D01*
X175914357Y-103551123D01*
X175892974Y-103499500D01*
X175854017Y-103405447D01*
X175854010Y-103405434D01*
X175766409Y-103274331D01*
X175766406Y-103274327D01*
X175654912Y-103162833D01*
X175654908Y-103162830D01*
X175523805Y-103075229D01*
X175523792Y-103075222D01*
X175378121Y-103014884D01*
X175378109Y-103014881D01*
X175311040Y-103001540D01*
X175249129Y-102969155D01*
X175247550Y-102967604D01*
X172474674Y-100194727D01*
X172474673Y-100194726D01*
X172474669Y-100194723D01*
X172368127Y-100123535D01*
X172354986Y-100118092D01*
X172249744Y-100074499D01*
X172249738Y-100074497D01*
X172124071Y-100049500D01*
X172124069Y-100049500D01*
X158235931Y-100049500D01*
X158235929Y-100049500D01*
X158110261Y-100074497D01*
X158110255Y-100074499D01*
X157991870Y-100123535D01*
X157885331Y-100194722D01*
X157885324Y-100194728D01*
X154550193Y-103529859D01*
X154488870Y-103563344D01*
X154424194Y-103560109D01*
X154351370Y-103536447D01*
X154118097Y-103499500D01*
X154118092Y-103499500D01*
X153881908Y-103499500D01*
X153881903Y-103499500D01*
X153648631Y-103536446D01*
X153424003Y-103609433D01*
X153213566Y-103716657D01*
X153122619Y-103782735D01*
X153022490Y-103855483D01*
X153022488Y-103855485D01*
X153022487Y-103855485D01*
X152855485Y-104022487D01*
X152855485Y-104022488D01*
X152855483Y-104022490D01*
X152805723Y-104090978D01*
X152716657Y-104213566D01*
X152609433Y-104424003D01*
X152536446Y-104648631D01*
X152499500Y-104881902D01*
X151629980Y-104881902D01*
X151588281Y-104093417D01*
X151588177Y-104090978D01*
X151585923Y-104022488D01*
X151525624Y-102189867D01*
X151525568Y-102187412D01*
X151522741Y-101969056D01*
X151500938Y-100285322D01*
X151500932Y-100283005D01*
X151514240Y-98380812D01*
X151514282Y-98378378D01*
X151518423Y-98224726D01*
X151565520Y-96476913D01*
X151565610Y-96474474D01*
X151566123Y-96463553D01*
X151640331Y-94881902D01*
X152499500Y-94881902D01*
X152499500Y-95118097D01*
X152536446Y-95351368D01*
X152609433Y-95575996D01*
X152705429Y-95764397D01*
X152716657Y-95786433D01*
X152855483Y-95977510D01*
X153022490Y-96144517D01*
X153213567Y-96283343D01*
X153312991Y-96334002D01*
X153424003Y-96390566D01*
X153424005Y-96390566D01*
X153424008Y-96390568D01*
X153544412Y-96429689D01*
X153648631Y-96463553D01*
X153881903Y-96500500D01*
X153881908Y-96500500D01*
X154118097Y-96500500D01*
X154351368Y-96463553D01*
X154575992Y-96390568D01*
X154786433Y-96283343D01*
X154977510Y-96144517D01*
X154977819Y-96144208D01*
X154977963Y-96144128D01*
X154981214Y-96141353D01*
X154981797Y-96142035D01*
X155039142Y-96110723D01*
X155108834Y-96115707D01*
X155164767Y-96157579D01*
X155189184Y-96223043D01*
X155189500Y-96231889D01*
X155189500Y-97839191D01*
X155169815Y-97906230D01*
X155153181Y-97926872D01*
X154550193Y-98529859D01*
X154488870Y-98563344D01*
X154424194Y-98560109D01*
X154351370Y-98536447D01*
X154118097Y-98499500D01*
X154118092Y-98499500D01*
X153881908Y-98499500D01*
X153881903Y-98499500D01*
X153648631Y-98536446D01*
X153424003Y-98609433D01*
X153213566Y-98716657D01*
X153128391Y-98778541D01*
X153022490Y-98855483D01*
X153022488Y-98855485D01*
X153022487Y-98855485D01*
X152855485Y-99022487D01*
X152855485Y-99022488D01*
X152855483Y-99022490D01*
X152834541Y-99051314D01*
X152716657Y-99213566D01*
X152609433Y-99424003D01*
X152536446Y-99648631D01*
X152499500Y-99881902D01*
X152499500Y-100118097D01*
X152536446Y-100351368D01*
X152609433Y-100575996D01*
X152709621Y-100772624D01*
X152716657Y-100786433D01*
X152855483Y-100977510D01*
X153022490Y-101144517D01*
X153213567Y-101283343D01*
X153289143Y-101321851D01*
X153424003Y-101390566D01*
X153424005Y-101390566D01*
X153424008Y-101390568D01*
X153544412Y-101429689D01*
X153648631Y-101463553D01*
X153881903Y-101500500D01*
X153881908Y-101500500D01*
X154118097Y-101500500D01*
X154351368Y-101463553D01*
X154575992Y-101390568D01*
X154786433Y-101283343D01*
X154977510Y-101144517D01*
X155144517Y-100977510D01*
X155283343Y-100786433D01*
X155390568Y-100575992D01*
X155463553Y-100351368D01*
X155500500Y-100118097D01*
X155500500Y-99881902D01*
X155468600Y-99680500D01*
X155463553Y-99648632D01*
X155439888Y-99575802D01*
X155437894Y-99505963D01*
X155470137Y-99449807D01*
X156345277Y-98574669D01*
X156416465Y-98468127D01*
X156465501Y-98349744D01*
X156481692Y-98268349D01*
X156490500Y-98224071D01*
X156490500Y-97818543D01*
X159429499Y-97818543D01*
X159467947Y-98011829D01*
X159467950Y-98011839D01*
X159543364Y-98193907D01*
X159543371Y-98193920D01*
X159652860Y-98357781D01*
X159652863Y-98357785D01*
X159792214Y-98497136D01*
X159792222Y-98497142D01*
X159845074Y-98532457D01*
X159879286Y-98566668D01*
X159924722Y-98634669D01*
X160475327Y-99185274D01*
X160531582Y-99222862D01*
X160581866Y-99256461D01*
X160581872Y-99256464D01*
X160581873Y-99256465D01*
X160700256Y-99305501D01*
X160700260Y-99305501D01*
X160700261Y-99305502D01*
X160825928Y-99330500D01*
X160825931Y-99330500D01*
X173979217Y-99330500D01*
X174046256Y-99350185D01*
X174066893Y-99366814D01*
X174124082Y-99424003D01*
X174157219Y-99457140D01*
X174321079Y-99566628D01*
X174321092Y-99566635D01*
X174425284Y-99609792D01*
X174503165Y-99642051D01*
X174503169Y-99642051D01*
X174503170Y-99642052D01*
X174696456Y-99680500D01*
X174696459Y-99680500D01*
X174893543Y-99680500D01*
X175053755Y-99648631D01*
X175086835Y-99642051D01*
X175268914Y-99566632D01*
X175432782Y-99457139D01*
X175572139Y-99317782D01*
X175681632Y-99153914D01*
X175757051Y-98971835D01*
X175780195Y-98855483D01*
X175795500Y-98778543D01*
X175795500Y-98581456D01*
X175757052Y-98388170D01*
X175757051Y-98388169D01*
X175757051Y-98388165D01*
X175683910Y-98211585D01*
X175681635Y-98206092D01*
X175681628Y-98206079D01*
X175572139Y-98042218D01*
X175572136Y-98042214D01*
X175432785Y-97902863D01*
X175432781Y-97902860D01*
X175268920Y-97793371D01*
X175268907Y-97793364D01*
X175086839Y-97717950D01*
X175086829Y-97717947D01*
X174893543Y-97679500D01*
X174893541Y-97679500D01*
X174696459Y-97679500D01*
X174696457Y-97679500D01*
X174503170Y-97717947D01*
X174503160Y-97717950D01*
X174321092Y-97793364D01*
X174321079Y-97793371D01*
X174157219Y-97902859D01*
X174133207Y-97926872D01*
X174066896Y-97993182D01*
X174005576Y-98026666D01*
X173979217Y-98029500D01*
X161539632Y-98029500D01*
X161472593Y-98009815D01*
X161426838Y-97957011D01*
X161416894Y-97887853D01*
X161418015Y-97881308D01*
X161430500Y-97818543D01*
X161430500Y-97621456D01*
X161392052Y-97428170D01*
X161392051Y-97428169D01*
X161392051Y-97428165D01*
X161359473Y-97349514D01*
X161316635Y-97246092D01*
X161316628Y-97246079D01*
X161207139Y-97082218D01*
X161207136Y-97082214D01*
X161067785Y-96942863D01*
X161067781Y-96942860D01*
X160903920Y-96833371D01*
X160903907Y-96833364D01*
X160721839Y-96757950D01*
X160721829Y-96757947D01*
X160528543Y-96719500D01*
X160528541Y-96719500D01*
X160331459Y-96719500D01*
X160331457Y-96719500D01*
X160138170Y-96757947D01*
X160138160Y-96757950D01*
X159956092Y-96833364D01*
X159956079Y-96833371D01*
X159792218Y-96942860D01*
X159792214Y-96942863D01*
X159652863Y-97082214D01*
X159652860Y-97082218D01*
X159543371Y-97246079D01*
X159543364Y-97246092D01*
X159467950Y-97428160D01*
X159467947Y-97428170D01*
X159429500Y-97621456D01*
X159429500Y-97621459D01*
X159429500Y-97818541D01*
X159429500Y-97818543D01*
X159429499Y-97818543D01*
X156490500Y-97818543D01*
X156490500Y-95100191D01*
X156510185Y-95033152D01*
X156562989Y-94987397D01*
X156632147Y-94977453D01*
X156661948Y-94985628D01*
X156798165Y-95042051D01*
X156798169Y-95042051D01*
X156798170Y-95042052D01*
X156991456Y-95080500D01*
X156991459Y-95080500D01*
X157188543Y-95080500D01*
X157318582Y-95054632D01*
X157381835Y-95042051D01*
X157563914Y-94966632D01*
X157727782Y-94857139D01*
X157867139Y-94717782D01*
X157976632Y-94553914D01*
X158052051Y-94371835D01*
X158069271Y-94285264D01*
X158090500Y-94178543D01*
X158090500Y-93981456D01*
X158052052Y-93788170D01*
X158052051Y-93788169D01*
X158052051Y-93788165D01*
X158046197Y-93774031D01*
X157976635Y-93606092D01*
X157976628Y-93606079D01*
X157867139Y-93442218D01*
X157867136Y-93442214D01*
X157776819Y-93351897D01*
X157762115Y-93324969D01*
X157745523Y-93299151D01*
X157744631Y-93292950D01*
X157743334Y-93290574D01*
X157740500Y-93264216D01*
X157740500Y-93210808D01*
X157760185Y-93143769D01*
X157776819Y-93123127D01*
X158355271Y-92544675D01*
X158355276Y-92544670D01*
X158426465Y-92438127D01*
X158475501Y-92319744D01*
X158479528Y-92299500D01*
X158485493Y-92269514D01*
X158500500Y-92194071D01*
X158500500Y-90470807D01*
X158520185Y-90403768D01*
X158536815Y-90383130D01*
X158891060Y-90028884D01*
X158916889Y-90014780D01*
X158941321Y-89998347D01*
X158947211Y-89998223D01*
X158952381Y-89995401D01*
X158981738Y-89997500D01*
X159011175Y-89996884D01*
X159016196Y-89999964D01*
X159022072Y-90000385D01*
X159045638Y-90018026D01*
X159070731Y-90033420D01*
X159074800Y-90039856D01*
X159078006Y-90042256D01*
X159090430Y-90062705D01*
X159091957Y-90065872D01*
X159130606Y-90159179D01*
X159153417Y-90193318D01*
X159157188Y-90201138D01*
X159161525Y-90227394D01*
X159169477Y-90252790D01*
X159167133Y-90261333D01*
X159168577Y-90270073D01*
X159158032Y-90294505D01*
X159150991Y-90320169D01*
X159148601Y-90323888D01*
X159130610Y-90350814D01*
X159130602Y-90350828D01*
X159070264Y-90496498D01*
X159070261Y-90496510D01*
X159039500Y-90651153D01*
X159039500Y-90808846D01*
X159070261Y-90963489D01*
X159070264Y-90963501D01*
X159130602Y-91109172D01*
X159130609Y-91109185D01*
X159218210Y-91240288D01*
X159218213Y-91240292D01*
X159327099Y-91349178D01*
X159360584Y-91410501D01*
X159355600Y-91480193D01*
X159313728Y-91536126D01*
X159308309Y-91539961D01*
X159146373Y-91648163D01*
X159146369Y-91648166D01*
X159007018Y-91787517D01*
X159007015Y-91787521D01*
X158897526Y-91951382D01*
X158897519Y-91951395D01*
X158822105Y-92133463D01*
X158822102Y-92133473D01*
X158783655Y-92326759D01*
X158783655Y-92326762D01*
X158783655Y-92523844D01*
X158783655Y-92523846D01*
X158783654Y-92523846D01*
X158822102Y-92717132D01*
X158822105Y-92717142D01*
X158897519Y-92899210D01*
X158897526Y-92899223D01*
X159007015Y-93063084D01*
X159007018Y-93063088D01*
X159089987Y-93146057D01*
X159123472Y-93207380D01*
X159118488Y-93277072D01*
X159116870Y-93281185D01*
X159109699Y-93298498D01*
X159109698Y-93298501D01*
X159109698Y-93298502D01*
X159109697Y-93298504D01*
X159071250Y-93491789D01*
X159071250Y-93491792D01*
X159071250Y-93688874D01*
X159071250Y-93688876D01*
X159071249Y-93688876D01*
X159109697Y-93882162D01*
X159109700Y-93882172D01*
X159185114Y-94064240D01*
X159185121Y-94064253D01*
X159294610Y-94228114D01*
X159294613Y-94228118D01*
X159433964Y-94367469D01*
X159433968Y-94367472D01*
X159597829Y-94476961D01*
X159597842Y-94476968D01*
X159779910Y-94552382D01*
X159779915Y-94552384D01*
X159779919Y-94552384D01*
X159779920Y-94552385D01*
X159973206Y-94590833D01*
X159973209Y-94590833D01*
X160170293Y-94590833D01*
X160300332Y-94564965D01*
X160363585Y-94552384D01*
X160526263Y-94485001D01*
X160545657Y-94476968D01*
X160545657Y-94476967D01*
X160545664Y-94476965D01*
X160709532Y-94367472D01*
X160799853Y-94277150D01*
X160861174Y-94243667D01*
X160887533Y-94240833D01*
X163853738Y-94240833D01*
X163938282Y-94224015D01*
X163979411Y-94215834D01*
X164090211Y-94169938D01*
X164137663Y-94160500D01*
X164318543Y-94160500D01*
X164448582Y-94134632D01*
X164511835Y-94122051D01*
X164693914Y-94046632D01*
X164857782Y-93937139D01*
X164997139Y-93797782D01*
X165106632Y-93633914D01*
X165182051Y-93451835D01*
X165201930Y-93351897D01*
X165220500Y-93258543D01*
X165220500Y-93061456D01*
X165182052Y-92868170D01*
X165182051Y-92868169D01*
X165182051Y-92868165D01*
X165126463Y-92733964D01*
X165118995Y-92664496D01*
X165150270Y-92602017D01*
X165172132Y-92583413D01*
X165177782Y-92579639D01*
X165317139Y-92440282D01*
X165426632Y-92276414D01*
X165429129Y-92270387D01*
X165483093Y-92140104D01*
X165502051Y-92094335D01*
X165530485Y-91951389D01*
X165540500Y-91901043D01*
X165540500Y-91703956D01*
X165502052Y-91510670D01*
X165502051Y-91510669D01*
X165502051Y-91510665D01*
X165465175Y-91421638D01*
X165426635Y-91328592D01*
X165426628Y-91328579D01*
X165317139Y-91164718D01*
X165317136Y-91164714D01*
X165194931Y-91042509D01*
X165161446Y-90981186D01*
X165166430Y-90911494D01*
X165194929Y-90867148D01*
X165261789Y-90800289D01*
X165349394Y-90669179D01*
X165356859Y-90651158D01*
X165409735Y-90523501D01*
X165409737Y-90523497D01*
X165440500Y-90368842D01*
X165440500Y-90211158D01*
X165440500Y-90211155D01*
X165440499Y-90211153D01*
X165437584Y-90196498D01*
X165409737Y-90056503D01*
X165407386Y-90050827D01*
X165349397Y-89910827D01*
X165349391Y-89910816D01*
X165335409Y-89889890D01*
X165314532Y-89823212D01*
X165333017Y-89755832D01*
X165384996Y-89709143D01*
X165438512Y-89697000D01*
X174931559Y-89697000D01*
X174998598Y-89716685D01*
X175044353Y-89769489D01*
X175054297Y-89838647D01*
X175025272Y-89902203D01*
X175019240Y-89908681D01*
X175008213Y-89919707D01*
X175008210Y-89919711D01*
X174920609Y-90050814D01*
X174920602Y-90050827D01*
X174860264Y-90196498D01*
X174860261Y-90196510D01*
X174829500Y-90351153D01*
X174829500Y-90508846D01*
X174860261Y-90663489D01*
X174860264Y-90663501D01*
X174920602Y-90809172D01*
X174920609Y-90809185D01*
X175008210Y-90940288D01*
X175008213Y-90940292D01*
X175119707Y-91051786D01*
X175119711Y-91051789D01*
X175250814Y-91139390D01*
X175250827Y-91139397D01*
X175339906Y-91176294D01*
X175396503Y-91199737D01*
X175551153Y-91230499D01*
X175551156Y-91230500D01*
X175551158Y-91230500D01*
X175708844Y-91230500D01*
X175708845Y-91230499D01*
X175863497Y-91199737D01*
X176009179Y-91139394D01*
X176066044Y-91101397D01*
X176132721Y-91080520D01*
X176134935Y-91080500D01*
X178400088Y-91080500D01*
X178467127Y-91100185D01*
X178512882Y-91152989D01*
X178518747Y-91168500D01*
X178520262Y-91173496D01*
X178580602Y-91319172D01*
X178580609Y-91319185D01*
X178668210Y-91450288D01*
X178668213Y-91450292D01*
X178779707Y-91561786D01*
X178779711Y-91561789D01*
X178910814Y-91649390D01*
X178910827Y-91649397D01*
X179056498Y-91709735D01*
X179056503Y-91709737D01*
X179169165Y-91732147D01*
X179211153Y-91740499D01*
X179211156Y-91740500D01*
X179211158Y-91740500D01*
X179368844Y-91740500D01*
X179368845Y-91740499D01*
X179523497Y-91709737D01*
X179669179Y-91649394D01*
X179726044Y-91611397D01*
X179792721Y-91590520D01*
X179794935Y-91590500D01*
X180860192Y-91590500D01*
X180927231Y-91610185D01*
X180972986Y-91662989D01*
X180982930Y-91732147D01*
X180953905Y-91795703D01*
X180947873Y-91802181D01*
X178512068Y-94237984D01*
X178450745Y-94271469D01*
X178448579Y-94271920D01*
X178381508Y-94285261D01*
X178381498Y-94285264D01*
X178235827Y-94345602D01*
X178235814Y-94345609D01*
X178104711Y-94433210D01*
X178104707Y-94433213D01*
X177993213Y-94544707D01*
X177993210Y-94544711D01*
X177905609Y-94675814D01*
X177905602Y-94675827D01*
X177845264Y-94821498D01*
X177845261Y-94821510D01*
X177814500Y-94976153D01*
X177814500Y-95133846D01*
X177845261Y-95288489D01*
X177845264Y-95288501D01*
X177905602Y-95434172D01*
X177905609Y-95434185D01*
X177993210Y-95565288D01*
X177993213Y-95565292D01*
X178104707Y-95676786D01*
X178104711Y-95676789D01*
X178235814Y-95764390D01*
X178235827Y-95764397D01*
X178352148Y-95812578D01*
X178381503Y-95824737D01*
X178536153Y-95855499D01*
X178536156Y-95855500D01*
X178536158Y-95855500D01*
X178693844Y-95855500D01*
X178693845Y-95855499D01*
X178848497Y-95824737D01*
X178994179Y-95764394D01*
X179125289Y-95676789D01*
X179236789Y-95565289D01*
X179324394Y-95434179D01*
X179384737Y-95288497D01*
X179398079Y-95221416D01*
X179406844Y-95204661D01*
X179410864Y-95186183D01*
X179429606Y-95161146D01*
X179430463Y-95159509D01*
X179431959Y-95157985D01*
X182433127Y-92156819D01*
X182494450Y-92123334D01*
X182520808Y-92120500D01*
X183647691Y-92120500D01*
X183714730Y-92140185D01*
X183735372Y-92156819D01*
X184453554Y-92875000D01*
X184447339Y-92875000D01*
X184345606Y-92902259D01*
X184254394Y-92954920D01*
X184179920Y-93029394D01*
X184127259Y-93120606D01*
X184100000Y-93222339D01*
X184100000Y-93228553D01*
X183420524Y-92549077D01*
X183420523Y-92549077D01*
X183388143Y-92593644D01*
X183295244Y-92775968D01*
X183232009Y-92970582D01*
X183200000Y-93172682D01*
X183200000Y-93377317D01*
X183232009Y-93579417D01*
X183295244Y-93774031D01*
X183388141Y-93956350D01*
X183388147Y-93956359D01*
X183420523Y-94000921D01*
X183420524Y-94000922D01*
X184100000Y-93321446D01*
X184100000Y-93327661D01*
X184127259Y-93429394D01*
X184179920Y-93520606D01*
X184254394Y-93595080D01*
X184345606Y-93647741D01*
X184447339Y-93675000D01*
X184453553Y-93675000D01*
X183774076Y-94354474D01*
X183777052Y-94392282D01*
X183762687Y-94460659D01*
X183713636Y-94510415D01*
X183692440Y-94519715D01*
X183630672Y-94540184D01*
X183630663Y-94540187D01*
X183481342Y-94632289D01*
X183357289Y-94756342D01*
X183265187Y-94905663D01*
X183265185Y-94905668D01*
X183238103Y-94987397D01*
X183210001Y-95072203D01*
X183210001Y-95072204D01*
X183210000Y-95072204D01*
X183199500Y-95174983D01*
X183199500Y-96375001D01*
X183199501Y-96375018D01*
X183210000Y-96477796D01*
X183210001Y-96477799D01*
X183265185Y-96644331D01*
X183265187Y-96644336D01*
X183300069Y-96700888D01*
X183357288Y-96793656D01*
X183481344Y-96917712D01*
X183630666Y-97009814D01*
X183797203Y-97064999D01*
X183899991Y-97075500D01*
X185100008Y-97075499D01*
X185202797Y-97064999D01*
X185369334Y-97009814D01*
X185518656Y-96917712D01*
X185642712Y-96793656D01*
X185734814Y-96644334D01*
X185789999Y-96477797D01*
X185800500Y-96375009D01*
X185800499Y-95174992D01*
X185798917Y-95159509D01*
X185789999Y-95072203D01*
X185789998Y-95072200D01*
X185780008Y-95042052D01*
X185734814Y-94905666D01*
X185642712Y-94756344D01*
X185518656Y-94632288D01*
X185420783Y-94571920D01*
X185369336Y-94540187D01*
X185369335Y-94540186D01*
X185369334Y-94540186D01*
X185307558Y-94519715D01*
X185250115Y-94479943D01*
X185223292Y-94415427D01*
X185222946Y-94392280D01*
X185225921Y-94354473D01*
X184546447Y-93675000D01*
X184552661Y-93675000D01*
X184654394Y-93647741D01*
X184745606Y-93595080D01*
X184820080Y-93520606D01*
X184872741Y-93429394D01*
X184900000Y-93327661D01*
X184900000Y-93321448D01*
X185579474Y-94000922D01*
X185579474Y-94000921D01*
X185611859Y-93956349D01*
X185704755Y-93774031D01*
X185767990Y-93579417D01*
X185800000Y-93377317D01*
X185800000Y-93172682D01*
X185767990Y-92970582D01*
X185704755Y-92775968D01*
X185611859Y-92593650D01*
X185579474Y-92549077D01*
X185579474Y-92549076D01*
X184900000Y-93228551D01*
X184900000Y-93222339D01*
X184872741Y-93120606D01*
X184820080Y-93029394D01*
X184745606Y-92954920D01*
X184654394Y-92902259D01*
X184552661Y-92875000D01*
X184546446Y-92875000D01*
X185264628Y-92156819D01*
X185325951Y-92123334D01*
X185352309Y-92120500D01*
X187419192Y-92120500D01*
X187486231Y-92140185D01*
X187506873Y-92156819D01*
X191109342Y-95759288D01*
X191142827Y-95820611D01*
X191142319Y-95868755D01*
X191143516Y-95868945D01*
X191109500Y-96083713D01*
X191109500Y-96296286D01*
X191138248Y-96477797D01*
X191142754Y-96506243D01*
X191187623Y-96644336D01*
X191208444Y-96708414D01*
X191304951Y-96897820D01*
X191429890Y-97069786D01*
X191580213Y-97220109D01*
X191752182Y-97345050D01*
X191760946Y-97349516D01*
X191811742Y-97397491D01*
X191828536Y-97465312D01*
X191805998Y-97531447D01*
X191760946Y-97570484D01*
X191752182Y-97574949D01*
X191580213Y-97699890D01*
X191429890Y-97850213D01*
X191304951Y-98022179D01*
X191208444Y-98211585D01*
X191142753Y-98413760D01*
X191118535Y-98566668D01*
X191109500Y-98623713D01*
X191109500Y-98836287D01*
X191112541Y-98855485D01*
X191143516Y-99051055D01*
X191141877Y-99051314D01*
X191138738Y-99113883D01*
X191109342Y-99160710D01*
X189827685Y-100442368D01*
X189827679Y-100442376D01*
X189782323Y-100510256D01*
X189782324Y-100510257D01*
X189756494Y-100548914D01*
X189707459Y-100667295D01*
X189707457Y-100667301D01*
X189682460Y-100792968D01*
X189682460Y-102780672D01*
X189662775Y-102847711D01*
X189646141Y-102868353D01*
X188041313Y-104473181D01*
X187979990Y-104506666D01*
X187953632Y-104509500D01*
X179461155Y-104509500D01*
X179306510Y-104540261D01*
X179306498Y-104540264D01*
X179160827Y-104600602D01*
X179160814Y-104600609D01*
X179029711Y-104688210D01*
X179029707Y-104688213D01*
X178918213Y-104799707D01*
X178918210Y-104799711D01*
X178830609Y-104930814D01*
X178830602Y-104930827D01*
X178770264Y-105076498D01*
X178770261Y-105076510D01*
X178739500Y-105231153D01*
X178739500Y-105388846D01*
X178770261Y-105543489D01*
X178770264Y-105543501D01*
X178830602Y-105689172D01*
X178830609Y-105689185D01*
X178918210Y-105820288D01*
X178918213Y-105820292D01*
X179029707Y-105931786D01*
X179029711Y-105931789D01*
X179160814Y-106019390D01*
X179160827Y-106019397D01*
X179256062Y-106058844D01*
X179306503Y-106079737D01*
X179461153Y-106110499D01*
X179461156Y-106110500D01*
X179461158Y-106110500D01*
X179618844Y-106110500D01*
X179618845Y-106110499D01*
X179773497Y-106079737D01*
X179890059Y-106031456D01*
X179919172Y-106019397D01*
X179919172Y-106019396D01*
X179919179Y-106019394D01*
X180050289Y-105931789D01*
X180135260Y-105846817D01*
X180196581Y-105813334D01*
X180222940Y-105810500D01*
X187113152Y-105810500D01*
X187180191Y-105830185D01*
X187225946Y-105882989D01*
X187235890Y-105952147D01*
X187206865Y-106015703D01*
X187200833Y-106022181D01*
X186539833Y-106683181D01*
X186478510Y-106716666D01*
X186452152Y-106719500D01*
X179544935Y-106719500D01*
X179477896Y-106699815D01*
X179476090Y-106698633D01*
X179419179Y-106660606D01*
X179419172Y-106660602D01*
X179273501Y-106600264D01*
X179273489Y-106600261D01*
X179118845Y-106569500D01*
X179118842Y-106569500D01*
X178961158Y-106569500D01*
X178961155Y-106569500D01*
X178806510Y-106600261D01*
X178806498Y-106600264D01*
X178660827Y-106660602D01*
X178660814Y-106660609D01*
X178529711Y-106748210D01*
X178529707Y-106748213D01*
X178418213Y-106859707D01*
X178418210Y-106859711D01*
X178330609Y-106990814D01*
X178330602Y-106990827D01*
X178270264Y-107136498D01*
X178270261Y-107136510D01*
X178239500Y-107291153D01*
X178239500Y-107448846D01*
X178270261Y-107603489D01*
X178270264Y-107603501D01*
X178330602Y-107749172D01*
X178330609Y-107749185D01*
X178418210Y-107880288D01*
X178418213Y-107880292D01*
X178529707Y-107991786D01*
X178529711Y-107991789D01*
X178660814Y-108079390D01*
X178660827Y-108079397D01*
X178806498Y-108139735D01*
X178806503Y-108139737D01*
X178901047Y-108158543D01*
X178961153Y-108170499D01*
X178961156Y-108170500D01*
X178961158Y-108170500D01*
X179118844Y-108170500D01*
X179118845Y-108170499D01*
X179273497Y-108139737D01*
X179419179Y-108079394D01*
X179476044Y-108041397D01*
X179542721Y-108020520D01*
X179544935Y-108020500D01*
X185611672Y-108020500D01*
X185678711Y-108040185D01*
X185724466Y-108092989D01*
X185734410Y-108162147D01*
X185705385Y-108225703D01*
X185699353Y-108232181D01*
X183418353Y-110513181D01*
X183357030Y-110546666D01*
X183330672Y-110549500D01*
X180664935Y-110549500D01*
X180647342Y-110544334D01*
X180629006Y-110544181D01*
X180599780Y-110530368D01*
X180597896Y-110529815D01*
X180597026Y-110529251D01*
X180596500Y-110528906D01*
X180539179Y-110490606D01*
X180535926Y-110489258D01*
X180528054Y-110484106D01*
X180508823Y-110461533D01*
X180487666Y-110440751D01*
X180486413Y-110435230D01*
X180482742Y-110430921D01*
X180478767Y-110401533D01*
X180472205Y-110372614D01*
X180473878Y-110365388D01*
X180473377Y-110361682D01*
X180476075Y-110355901D01*
X180481400Y-110332907D01*
X180509737Y-110264497D01*
X180540500Y-110109842D01*
X180540500Y-109952158D01*
X180540500Y-109952155D01*
X180540499Y-109952153D01*
X180534764Y-109923321D01*
X180509737Y-109797503D01*
X180465688Y-109691158D01*
X180449397Y-109651827D01*
X180449390Y-109651814D01*
X180361789Y-109520711D01*
X180361786Y-109520707D01*
X180250292Y-109409213D01*
X180250288Y-109409210D01*
X180119185Y-109321609D01*
X180119172Y-109321602D01*
X179973501Y-109261264D01*
X179973489Y-109261261D01*
X179818845Y-109230500D01*
X179818842Y-109230500D01*
X179661158Y-109230500D01*
X179661155Y-109230500D01*
X179506510Y-109261261D01*
X179506498Y-109261264D01*
X179360827Y-109321602D01*
X179360820Y-109321606D01*
X179331928Y-109340911D01*
X179303955Y-109359602D01*
X179237279Y-109380480D01*
X179235065Y-109380500D01*
X177173941Y-109380500D01*
X177106902Y-109360815D01*
X177095420Y-109351562D01*
X177094999Y-109352076D01*
X177090288Y-109348210D01*
X176959185Y-109260609D01*
X176959172Y-109260602D01*
X176813501Y-109200264D01*
X176813489Y-109200261D01*
X176658845Y-109169500D01*
X176658842Y-109169500D01*
X176501158Y-109169500D01*
X176501155Y-109169500D01*
X176346510Y-109200261D01*
X176346498Y-109200264D01*
X176200827Y-109260602D01*
X176200814Y-109260609D01*
X176069711Y-109348210D01*
X176069707Y-109348213D01*
X175958213Y-109459707D01*
X175958210Y-109459711D01*
X175870609Y-109590814D01*
X175870602Y-109590827D01*
X175810264Y-109736498D01*
X175810261Y-109736510D01*
X175779500Y-109891153D01*
X175779500Y-110048846D01*
X175810261Y-110203489D01*
X175810264Y-110203501D01*
X175870602Y-110349172D01*
X175870609Y-110349185D01*
X175958210Y-110480288D01*
X175958213Y-110480292D01*
X176069707Y-110591786D01*
X176069711Y-110591789D01*
X176200814Y-110679390D01*
X176200827Y-110679397D01*
X176327940Y-110732048D01*
X176346503Y-110739737D01*
X176481039Y-110766498D01*
X176501153Y-110770499D01*
X176501156Y-110770500D01*
X176501158Y-110770500D01*
X176658844Y-110770500D01*
X176658845Y-110770499D01*
X176777522Y-110746893D01*
X176813488Y-110739739D01*
X176813490Y-110739738D01*
X176813497Y-110739737D01*
X176931307Y-110690938D01*
X176978759Y-110681500D01*
X179235065Y-110681500D01*
X179252657Y-110686665D01*
X179270993Y-110686819D01*
X179300219Y-110700631D01*
X179302104Y-110701185D01*
X179302974Y-110701749D01*
X179303499Y-110702093D01*
X179360821Y-110740394D01*
X179364075Y-110741741D01*
X179371945Y-110746893D01*
X179391175Y-110769464D01*
X179412330Y-110790242D01*
X179413583Y-110795765D01*
X179417257Y-110800077D01*
X179421231Y-110829459D01*
X179427795Y-110858379D01*
X179426120Y-110865609D01*
X179426622Y-110869316D01*
X179423924Y-110875095D01*
X179418598Y-110898095D01*
X179390263Y-110966503D01*
X179390262Y-110966506D01*
X179390262Y-110966507D01*
X179390261Y-110966510D01*
X179359500Y-111121153D01*
X179359500Y-111278846D01*
X179390261Y-111433489D01*
X179390264Y-111433501D01*
X179450602Y-111579172D01*
X179450609Y-111579185D01*
X179538210Y-111710288D01*
X179538213Y-111710292D01*
X179649707Y-111821786D01*
X179649711Y-111821789D01*
X179780814Y-111909390D01*
X179780827Y-111909397D01*
X179926498Y-111969735D01*
X179926503Y-111969737D01*
X180039165Y-111992147D01*
X180081153Y-112000499D01*
X180081156Y-112000500D01*
X180081158Y-112000500D01*
X180238844Y-112000500D01*
X180238845Y-112000499D01*
X180393497Y-111969737D01*
X180539179Y-111909394D01*
X180596044Y-111871397D01*
X180662721Y-111850520D01*
X180664935Y-111850500D01*
X182490192Y-111850500D01*
X182557231Y-111870185D01*
X182602986Y-111922989D01*
X182612930Y-111992147D01*
X182583905Y-112055703D01*
X182577873Y-112062181D01*
X180146873Y-114493181D01*
X180085550Y-114526666D01*
X180059192Y-114529500D01*
X177604935Y-114529500D01*
X177537896Y-114509815D01*
X177536090Y-114508633D01*
X177479179Y-114470606D01*
X177479172Y-114470602D01*
X177333501Y-114410264D01*
X177333489Y-114410261D01*
X177178845Y-114379500D01*
X177178842Y-114379500D01*
X177021158Y-114379500D01*
X177021155Y-114379500D01*
X176866510Y-114410261D01*
X176866498Y-114410264D01*
X176720827Y-114470602D01*
X176720814Y-114470609D01*
X176589711Y-114558210D01*
X176589707Y-114558213D01*
X176478213Y-114669707D01*
X176478210Y-114669711D01*
X176390609Y-114800814D01*
X176390602Y-114800827D01*
X176330264Y-114946498D01*
X176330261Y-114946510D01*
X176299500Y-115101153D01*
X176299500Y-115258846D01*
X176330261Y-115413489D01*
X176330264Y-115413501D01*
X176390602Y-115559172D01*
X176390609Y-115559185D01*
X176478210Y-115690288D01*
X176478213Y-115690292D01*
X176589707Y-115801786D01*
X176589711Y-115801789D01*
X176720814Y-115889390D01*
X176720827Y-115889397D01*
X176817810Y-115929568D01*
X176866503Y-115949737D01*
X177019967Y-115980263D01*
X177021153Y-115980499D01*
X177021156Y-115980500D01*
X177021158Y-115980500D01*
X177178844Y-115980500D01*
X177178845Y-115980499D01*
X177333497Y-115949737D01*
X177479179Y-115889394D01*
X177536044Y-115851397D01*
X177602721Y-115830520D01*
X177604935Y-115830500D01*
X180444071Y-115830500D01*
X180528615Y-115813682D01*
X180569744Y-115805501D01*
X180688127Y-115756465D01*
X180794669Y-115685277D01*
X183014605Y-113465340D01*
X183075926Y-113431857D01*
X183145618Y-113436841D01*
X183201551Y-113478713D01*
X183224757Y-113533625D01*
X183232009Y-113579417D01*
X183295244Y-113774031D01*
X183388141Y-113956350D01*
X183388147Y-113956359D01*
X183420523Y-114000921D01*
X183420524Y-114000922D01*
X184100000Y-113321446D01*
X184100000Y-113327661D01*
X184127259Y-113429394D01*
X184179920Y-113520606D01*
X184254394Y-113595080D01*
X184345606Y-113647741D01*
X184447339Y-113675000D01*
X184453553Y-113675000D01*
X183774076Y-114354474D01*
X183777052Y-114392282D01*
X183762687Y-114460659D01*
X183713636Y-114510415D01*
X183692440Y-114519715D01*
X183630672Y-114540184D01*
X183630663Y-114540187D01*
X183481342Y-114632289D01*
X183357289Y-114756342D01*
X183265187Y-114905663D01*
X183265185Y-114905668D01*
X183248129Y-114957140D01*
X183210001Y-115072203D01*
X183210001Y-115072204D01*
X183210000Y-115072204D01*
X183199500Y-115174983D01*
X183199500Y-116375001D01*
X183199501Y-116375018D01*
X183210000Y-116477796D01*
X183210001Y-116477799D01*
X183265185Y-116644331D01*
X183265186Y-116644334D01*
X183357288Y-116793656D01*
X183481344Y-116917712D01*
X183630666Y-117009814D01*
X183797203Y-117064999D01*
X183899991Y-117075500D01*
X185100008Y-117075499D01*
X185202797Y-117064999D01*
X185369334Y-117009814D01*
X185518656Y-116917712D01*
X185642712Y-116793656D01*
X185734814Y-116644334D01*
X185789999Y-116477797D01*
X185800500Y-116375009D01*
X185800499Y-115174992D01*
X185789999Y-115072203D01*
X185734814Y-114905666D01*
X185642712Y-114756344D01*
X185518656Y-114632288D01*
X185398561Y-114558213D01*
X185369336Y-114540187D01*
X185369335Y-114540186D01*
X185369334Y-114540186D01*
X185307558Y-114519715D01*
X185250115Y-114479943D01*
X185223292Y-114415427D01*
X185222946Y-114392280D01*
X185225921Y-114354473D01*
X184546447Y-113675000D01*
X184552661Y-113675000D01*
X184654394Y-113647741D01*
X184745606Y-113595080D01*
X184820080Y-113520606D01*
X184872741Y-113429394D01*
X184900000Y-113327661D01*
X184900000Y-113321448D01*
X185579474Y-114000922D01*
X185579474Y-114000921D01*
X185611859Y-113956349D01*
X185704755Y-113774031D01*
X185767990Y-113579417D01*
X185800000Y-113377317D01*
X185800000Y-113172682D01*
X185767990Y-112970582D01*
X185704755Y-112775968D01*
X185611859Y-112593650D01*
X185579474Y-112549077D01*
X185579474Y-112549076D01*
X184900000Y-113228551D01*
X184900000Y-113222339D01*
X184872741Y-113120606D01*
X184820080Y-113029394D01*
X184745606Y-112954920D01*
X184654394Y-112902259D01*
X184552661Y-112875000D01*
X184546446Y-112875000D01*
X185225922Y-112195524D01*
X185225921Y-112195523D01*
X185181359Y-112163147D01*
X185181350Y-112163141D01*
X184999031Y-112070244D01*
X184804417Y-112007009D01*
X184758625Y-111999757D01*
X184695490Y-111969828D01*
X184658559Y-111910516D01*
X184659557Y-111840654D01*
X184690340Y-111789605D01*
X189443127Y-107036819D01*
X189504450Y-107003334D01*
X189530808Y-107000500D01*
X191200382Y-107000500D01*
X191267421Y-107020185D01*
X191301099Y-107054591D01*
X191302085Y-107053875D01*
X191429890Y-107229786D01*
X191580213Y-107380109D01*
X191752182Y-107505050D01*
X191760946Y-107509516D01*
X191811742Y-107557491D01*
X191828536Y-107625312D01*
X191805998Y-107691447D01*
X191760946Y-107730484D01*
X191752182Y-107734949D01*
X191576266Y-107862759D01*
X191575635Y-107861891D01*
X191516581Y-107888359D01*
X191499800Y-107889500D01*
X190651455Y-107889500D01*
X190559042Y-107907882D01*
X190559033Y-107907884D01*
X190554812Y-107908724D01*
X190458164Y-107927949D01*
X190413463Y-107946465D01*
X190406179Y-107949482D01*
X190406172Y-107949484D01*
X190276092Y-108003364D01*
X190276079Y-108003371D01*
X190112219Y-108112859D01*
X190066538Y-108158541D01*
X189972861Y-108252218D01*
X189972858Y-108252221D01*
X188842221Y-109382858D01*
X188842218Y-109382861D01*
X188800882Y-109424197D01*
X188702859Y-109522219D01*
X188593369Y-109686082D01*
X188549410Y-109792211D01*
X188547218Y-109797503D01*
X188517949Y-109868164D01*
X188506978Y-109923321D01*
X188505638Y-109930054D01*
X188505634Y-109930069D01*
X188479500Y-110061456D01*
X188479500Y-118814218D01*
X188459815Y-118881257D01*
X188443181Y-118901899D01*
X182381899Y-124963181D01*
X182320576Y-124996666D01*
X182294218Y-124999500D01*
X179495845Y-124999500D01*
X179472352Y-124992601D01*
X179448018Y-124989905D01*
X179439423Y-124982932D01*
X179428806Y-124979815D01*
X179412773Y-124961312D01*
X179393758Y-124945886D01*
X179390297Y-124935373D01*
X179383051Y-124927011D01*
X179379566Y-124902779D01*
X179371910Y-124879521D01*
X179374319Y-124866288D01*
X179373107Y-124857853D01*
X179375798Y-124844441D01*
X179377968Y-124836050D01*
X179399737Y-124783497D01*
X179426914Y-124646867D01*
X179427801Y-124643441D01*
X179443990Y-124616356D01*
X179458616Y-124588397D01*
X179461780Y-124586595D01*
X179463649Y-124583469D01*
X179491907Y-124569439D01*
X179519332Y-124553823D01*
X179524599Y-124553209D01*
X179526231Y-124552399D01*
X179528958Y-124552701D01*
X179547848Y-124550500D01*
X179945065Y-124550500D01*
X180012104Y-124570185D01*
X180013909Y-124571366D01*
X180070821Y-124609394D01*
X180070823Y-124609395D01*
X180070827Y-124609397D01*
X180216498Y-124669735D01*
X180216503Y-124669737D01*
X180371153Y-124700499D01*
X180371156Y-124700500D01*
X180371158Y-124700500D01*
X180528844Y-124700500D01*
X180528845Y-124700499D01*
X180683497Y-124669737D01*
X180829179Y-124609394D01*
X180960289Y-124521789D01*
X181071789Y-124410289D01*
X181159394Y-124279179D01*
X181219737Y-124133497D01*
X181219737Y-124133496D01*
X181221994Y-124128048D01*
X181265834Y-124073644D01*
X181332128Y-124051579D01*
X181336555Y-124051500D01*
X181478844Y-124051500D01*
X181478845Y-124051499D01*
X181633497Y-124020737D01*
X181779179Y-123960394D01*
X181910289Y-123872789D01*
X182021789Y-123761289D01*
X182109394Y-123630179D01*
X182169737Y-123484497D01*
X182200500Y-123329842D01*
X182200500Y-123172158D01*
X182200500Y-123172155D01*
X182200499Y-123172153D01*
X182169738Y-123017510D01*
X182169737Y-123017503D01*
X182169735Y-123017498D01*
X182109397Y-122871827D01*
X182109390Y-122871814D01*
X182021789Y-122740711D01*
X182021786Y-122740707D01*
X181910292Y-122629213D01*
X181910288Y-122629210D01*
X181779185Y-122541609D01*
X181779172Y-122541602D01*
X181633501Y-122481264D01*
X181633489Y-122481261D01*
X181478845Y-122450500D01*
X181478842Y-122450500D01*
X181321158Y-122450500D01*
X181321155Y-122450500D01*
X181166510Y-122481261D01*
X181166498Y-122481264D01*
X181020827Y-122541602D01*
X181020812Y-122541610D01*
X180965454Y-122578601D01*
X180898777Y-122599480D01*
X180896562Y-122599500D01*
X179677649Y-122599500D01*
X179610610Y-122579815D01*
X179564855Y-122527011D01*
X179556032Y-122499692D01*
X179529738Y-122367508D01*
X179529737Y-122367507D01*
X179529737Y-122367503D01*
X179486766Y-122263760D01*
X179469397Y-122221827D01*
X179469390Y-122221814D01*
X179381789Y-122090711D01*
X179381786Y-122090707D01*
X179270292Y-121979213D01*
X179270288Y-121979210D01*
X179139185Y-121891609D01*
X179139172Y-121891602D01*
X178993501Y-121831264D01*
X178993489Y-121831261D01*
X178838845Y-121800500D01*
X178838842Y-121800500D01*
X178681158Y-121800500D01*
X178681155Y-121800500D01*
X178526510Y-121831261D01*
X178526498Y-121831264D01*
X178380827Y-121891602D01*
X178380820Y-121891606D01*
X178351928Y-121910911D01*
X178323955Y-121929602D01*
X178257279Y-121950480D01*
X178255065Y-121950500D01*
X168181808Y-121950500D01*
X168114769Y-121930815D01*
X168094127Y-121914181D01*
X166854674Y-120674727D01*
X166854673Y-120674726D01*
X166854669Y-120674723D01*
X166748127Y-120603535D01*
X166743460Y-120601602D01*
X166629744Y-120554499D01*
X166629738Y-120554497D01*
X166504071Y-120529500D01*
X166504069Y-120529500D01*
X160470808Y-120529500D01*
X160403769Y-120509815D01*
X160383127Y-120493181D01*
X157326819Y-117436873D01*
X157293334Y-117375550D01*
X157290500Y-117349192D01*
X157290500Y-116671153D01*
X160389500Y-116671153D01*
X160389500Y-116828846D01*
X160420261Y-116983489D01*
X160420264Y-116983501D01*
X160480602Y-117129172D01*
X160480609Y-117129185D01*
X160568210Y-117260288D01*
X160568213Y-117260292D01*
X160679707Y-117371786D01*
X160679711Y-117371789D01*
X160810814Y-117459390D01*
X160810827Y-117459397D01*
X160956498Y-117519735D01*
X160956503Y-117519737D01*
X161111153Y-117550499D01*
X161111156Y-117550500D01*
X161111158Y-117550500D01*
X161268844Y-117550500D01*
X161268845Y-117550499D01*
X161423497Y-117519737D01*
X161569179Y-117459394D01*
X161626044Y-117421397D01*
X161692721Y-117400520D01*
X161694935Y-117400500D01*
X163829071Y-117400500D01*
X163913615Y-117383682D01*
X163954744Y-117375501D01*
X164073127Y-117326465D01*
X164179669Y-117255277D01*
X164585432Y-116849512D01*
X164646751Y-116816030D01*
X164648816Y-116815599D01*
X164715997Y-116802237D01*
X164861679Y-116741894D01*
X164992789Y-116654289D01*
X165104289Y-116542789D01*
X165191894Y-116411679D01*
X165252237Y-116265997D01*
X165283000Y-116111342D01*
X165283000Y-115953658D01*
X165283000Y-115953655D01*
X165282999Y-115953653D01*
X165272588Y-115901313D01*
X165252237Y-115799003D01*
X165252235Y-115798998D01*
X165191897Y-115653327D01*
X165191890Y-115653314D01*
X165104289Y-115522211D01*
X165104286Y-115522207D01*
X164992792Y-115410713D01*
X164992788Y-115410710D01*
X164861685Y-115323109D01*
X164861672Y-115323102D01*
X164716001Y-115262764D01*
X164715989Y-115262761D01*
X164561345Y-115232000D01*
X164561342Y-115232000D01*
X164403658Y-115232000D01*
X164403655Y-115232000D01*
X164249010Y-115262761D01*
X164248998Y-115262764D01*
X164103327Y-115323102D01*
X164103314Y-115323109D01*
X163972211Y-115410710D01*
X163972207Y-115410713D01*
X163860713Y-115522207D01*
X163860710Y-115522211D01*
X163773109Y-115653314D01*
X163773102Y-115653327D01*
X163712764Y-115798998D01*
X163712761Y-115799008D01*
X163699420Y-115866079D01*
X163690655Y-115882834D01*
X163686636Y-115901313D01*
X163667890Y-115926354D01*
X163667035Y-115927990D01*
X163665485Y-115929568D01*
X163531871Y-116063182D01*
X163470551Y-116096666D01*
X163444192Y-116099500D01*
X161694935Y-116099500D01*
X161627896Y-116079815D01*
X161626090Y-116078633D01*
X161569179Y-116040606D01*
X161569172Y-116040602D01*
X161423501Y-115980264D01*
X161423489Y-115980261D01*
X161268845Y-115949500D01*
X161268842Y-115949500D01*
X161111158Y-115949500D01*
X161111155Y-115949500D01*
X160956510Y-115980261D01*
X160956498Y-115980264D01*
X160810827Y-116040602D01*
X160810814Y-116040609D01*
X160679711Y-116128210D01*
X160679707Y-116128213D01*
X160568213Y-116239707D01*
X160568210Y-116239711D01*
X160480609Y-116370814D01*
X160480602Y-116370827D01*
X160420264Y-116516498D01*
X160420261Y-116516510D01*
X160389500Y-116671153D01*
X157290500Y-116671153D01*
X157290500Y-115334935D01*
X157310185Y-115267896D01*
X157311366Y-115266090D01*
X157349394Y-115209179D01*
X157409737Y-115063497D01*
X157440500Y-114908842D01*
X157440500Y-114751158D01*
X157440500Y-114751155D01*
X157440499Y-114751153D01*
X157424298Y-114669707D01*
X157409737Y-114596503D01*
X157393876Y-114558210D01*
X157349397Y-114450827D01*
X157349390Y-114450814D01*
X157261789Y-114319711D01*
X157261786Y-114319707D01*
X157220622Y-114278543D01*
X158959499Y-114278543D01*
X158997947Y-114471829D01*
X158997950Y-114471839D01*
X159073364Y-114653907D01*
X159073371Y-114653920D01*
X159182860Y-114817781D01*
X159182863Y-114817785D01*
X159322214Y-114957136D01*
X159322218Y-114957139D01*
X159486079Y-115066628D01*
X159486092Y-115066635D01*
X159668160Y-115142049D01*
X159668165Y-115142051D01*
X159668169Y-115142051D01*
X159668170Y-115142052D01*
X159861456Y-115180500D01*
X159861459Y-115180500D01*
X160058543Y-115180500D01*
X160188582Y-115154632D01*
X160251835Y-115142051D01*
X160433914Y-115066632D01*
X160597782Y-114957139D01*
X160688103Y-114866817D01*
X160749424Y-114833334D01*
X160775783Y-114830500D01*
X163854071Y-114830500D01*
X163938615Y-114813682D01*
X163979744Y-114805501D01*
X164089741Y-114759938D01*
X164137192Y-114750500D01*
X164318543Y-114750500D01*
X164448582Y-114724632D01*
X164511835Y-114712051D01*
X164693914Y-114636632D01*
X164857782Y-114527139D01*
X164997139Y-114387782D01*
X165106632Y-114223914D01*
X165182051Y-114041835D01*
X165212619Y-113888160D01*
X165220500Y-113848543D01*
X165220500Y-113651456D01*
X165182052Y-113458170D01*
X165182051Y-113458169D01*
X165182051Y-113458165D01*
X165179892Y-113452952D01*
X165106635Y-113276092D01*
X165106628Y-113276079D01*
X164997139Y-113112218D01*
X164997136Y-113112214D01*
X164857784Y-112972862D01*
X164853730Y-112969535D01*
X164814396Y-112911789D01*
X164812525Y-112841945D01*
X164848713Y-112782176D01*
X164884940Y-112759122D01*
X165002199Y-112710553D01*
X165053908Y-112689135D01*
X165053911Y-112689133D01*
X165053914Y-112689132D01*
X165217782Y-112579639D01*
X165357139Y-112440282D01*
X165466632Y-112276414D01*
X165542051Y-112094335D01*
X165566835Y-111969738D01*
X165580500Y-111901043D01*
X165580500Y-111703956D01*
X165542052Y-111510670D01*
X165542051Y-111510669D01*
X165542051Y-111510665D01*
X165542049Y-111510660D01*
X165466635Y-111328592D01*
X165466628Y-111328579D01*
X165357139Y-111164718D01*
X165357136Y-111164714D01*
X165276806Y-111084384D01*
X165243321Y-111023061D01*
X165248305Y-110953369D01*
X165276804Y-110909023D01*
X165373039Y-110812789D01*
X165460644Y-110681679D01*
X165461591Y-110679394D01*
X165483797Y-110625782D01*
X165520987Y-110535997D01*
X165551750Y-110381342D01*
X165551750Y-110223658D01*
X165551750Y-110223655D01*
X165551749Y-110223653D01*
X165535419Y-110141557D01*
X165520987Y-110069003D01*
X165511065Y-110045048D01*
X165460645Y-109923323D01*
X165460640Y-109923314D01*
X165373039Y-109792211D01*
X165373036Y-109792207D01*
X165261542Y-109680713D01*
X165261538Y-109680710D01*
X165130435Y-109593109D01*
X165130422Y-109593102D01*
X164984751Y-109532764D01*
X164984739Y-109532761D01*
X164830095Y-109502000D01*
X164830092Y-109502000D01*
X164808330Y-109502000D01*
X164741291Y-109482315D01*
X164695536Y-109429511D01*
X164693769Y-109425452D01*
X164649397Y-109318327D01*
X164649390Y-109318314D01*
X164563644Y-109189987D01*
X164542766Y-109123310D01*
X164561250Y-109055929D01*
X164613229Y-109009239D01*
X164619294Y-109006535D01*
X164763907Y-108946635D01*
X164763907Y-108946634D01*
X164763914Y-108946632D01*
X164927782Y-108837139D01*
X165067139Y-108697782D01*
X165176632Y-108533914D01*
X165252051Y-108351835D01*
X165275852Y-108232181D01*
X165290500Y-108158543D01*
X165290500Y-107961456D01*
X165252052Y-107768170D01*
X165252051Y-107768169D01*
X165252051Y-107768165D01*
X165244184Y-107749172D01*
X165176635Y-107586092D01*
X165176628Y-107586079D01*
X165067139Y-107422218D01*
X165067136Y-107422214D01*
X164923475Y-107278553D01*
X164925448Y-107276579D01*
X164892884Y-107228660D01*
X164891090Y-107158814D01*
X164907821Y-107121794D01*
X165006632Y-106973914D01*
X165082051Y-106791835D01*
X165094632Y-106728582D01*
X165120500Y-106598543D01*
X165120500Y-106401456D01*
X165082052Y-106208170D01*
X165082051Y-106208169D01*
X165082051Y-106208165D01*
X165082049Y-106208160D01*
X165006635Y-106026092D01*
X165006628Y-106026079D01*
X164897139Y-105862218D01*
X164897136Y-105862214D01*
X164757784Y-105722862D01*
X164757781Y-105722860D01*
X164593920Y-105613371D01*
X164593907Y-105613364D01*
X164411839Y-105537950D01*
X164411829Y-105537947D01*
X164218543Y-105499500D01*
X164218541Y-105499500D01*
X164021459Y-105499500D01*
X164021457Y-105499500D01*
X163828170Y-105537947D01*
X163828160Y-105537950D01*
X163646092Y-105613364D01*
X163646079Y-105613371D01*
X163482219Y-105722859D01*
X163458581Y-105746498D01*
X163391896Y-105813182D01*
X163330576Y-105846666D01*
X163304217Y-105849500D01*
X161149600Y-105849500D01*
X161082561Y-105829815D01*
X161036806Y-105777011D01*
X161035039Y-105772952D01*
X160986635Y-105656092D01*
X160986628Y-105656079D01*
X160877139Y-105492218D01*
X160877136Y-105492214D01*
X160737785Y-105352863D01*
X160737781Y-105352860D01*
X160573920Y-105243371D01*
X160573907Y-105243364D01*
X160391839Y-105167950D01*
X160391829Y-105167947D01*
X160198543Y-105129500D01*
X160198541Y-105129500D01*
X160001459Y-105129500D01*
X160001457Y-105129500D01*
X159808170Y-105167947D01*
X159808160Y-105167950D01*
X159626092Y-105243364D01*
X159626079Y-105243371D01*
X159462218Y-105352860D01*
X159462214Y-105352863D01*
X159322863Y-105492214D01*
X159322860Y-105492218D01*
X159213371Y-105656079D01*
X159213364Y-105656092D01*
X159137950Y-105838160D01*
X159137947Y-105838170D01*
X159099500Y-106031456D01*
X159099500Y-106031459D01*
X159099500Y-106228541D01*
X159099500Y-106228543D01*
X159099499Y-106228543D01*
X159137947Y-106421829D01*
X159137950Y-106421839D01*
X159213364Y-106603907D01*
X159213371Y-106603920D01*
X159322860Y-106767781D01*
X159322863Y-106767785D01*
X159462214Y-106907136D01*
X159462218Y-106907139D01*
X159626084Y-107016631D01*
X159626712Y-107016967D01*
X159626979Y-107017229D01*
X159631151Y-107020017D01*
X159630622Y-107020808D01*
X159676557Y-107065929D01*
X159692018Y-107134067D01*
X159668187Y-107199747D01*
X159637151Y-107229428D01*
X159542218Y-107292860D01*
X159542214Y-107292863D01*
X159402863Y-107432214D01*
X159402860Y-107432218D01*
X159293371Y-107596079D01*
X159293364Y-107596092D01*
X159217951Y-107778159D01*
X159217947Y-107778170D01*
X159179500Y-107971456D01*
X159179500Y-107971459D01*
X159179500Y-108168541D01*
X159179500Y-108168543D01*
X159179499Y-108168543D01*
X159217947Y-108361829D01*
X159217950Y-108361839D01*
X159293364Y-108543907D01*
X159293371Y-108543920D01*
X159402860Y-108707781D01*
X159402863Y-108707785D01*
X159542215Y-108847137D01*
X159586952Y-108877029D01*
X159631758Y-108930642D01*
X159640465Y-108999966D01*
X159610311Y-109062994D01*
X159586954Y-109083233D01*
X159489713Y-109148208D01*
X159489707Y-109148213D01*
X159378213Y-109259707D01*
X159378210Y-109259711D01*
X159290609Y-109390814D01*
X159290602Y-109390827D01*
X159230264Y-109536498D01*
X159230261Y-109536510D01*
X159199500Y-109691154D01*
X159199500Y-109848846D01*
X159230261Y-110003489D01*
X159230264Y-110003501D01*
X159290602Y-110149172D01*
X159290609Y-110149185D01*
X159378211Y-110280290D01*
X159378779Y-110280982D01*
X159378962Y-110281414D01*
X159381595Y-110285354D01*
X159380847Y-110285853D01*
X159406086Y-110345294D01*
X159394289Y-110414161D01*
X159370601Y-110447319D01*
X159328214Y-110489706D01*
X159328210Y-110489711D01*
X159240609Y-110620814D01*
X159240602Y-110620827D01*
X159180264Y-110766498D01*
X159180261Y-110766510D01*
X159149500Y-110921153D01*
X159149500Y-111078846D01*
X159180261Y-111233489D01*
X159180264Y-111233501D01*
X159240602Y-111379172D01*
X159240609Y-111379185D01*
X159328210Y-111510288D01*
X159328213Y-111510292D01*
X159439710Y-111621789D01*
X159562003Y-111703502D01*
X159606808Y-111757114D01*
X159615515Y-111826439D01*
X159586415Y-111887262D01*
X159586722Y-111887514D01*
X159585697Y-111888761D01*
X159585361Y-111889466D01*
X159583558Y-111891368D01*
X159582858Y-111892221D01*
X159473371Y-112056079D01*
X159473364Y-112056092D01*
X159397950Y-112238160D01*
X159397947Y-112238170D01*
X159359500Y-112431456D01*
X159359500Y-112431459D01*
X159359500Y-112628541D01*
X159359500Y-112628543D01*
X159359499Y-112628543D01*
X159397947Y-112821829D01*
X159397950Y-112821839D01*
X159473364Y-113003907D01*
X159473371Y-113003920D01*
X159543662Y-113109117D01*
X159564540Y-113175795D01*
X159546056Y-113243175D01*
X159494077Y-113289865D01*
X159488021Y-113292566D01*
X159486090Y-113293365D01*
X159486079Y-113293371D01*
X159322218Y-113402860D01*
X159322214Y-113402863D01*
X159182863Y-113542214D01*
X159182860Y-113542218D01*
X159073371Y-113706079D01*
X159073364Y-113706092D01*
X158997950Y-113888160D01*
X158997947Y-113888170D01*
X158959500Y-114081456D01*
X158959500Y-114081459D01*
X158959500Y-114278541D01*
X158959500Y-114278543D01*
X158959499Y-114278543D01*
X157220622Y-114278543D01*
X157150292Y-114208213D01*
X157150288Y-114208210D01*
X157105778Y-114178469D01*
X157019185Y-114120609D01*
X157019172Y-114120602D01*
X156873501Y-114060264D01*
X156873491Y-114060261D01*
X156764208Y-114038523D01*
X156755203Y-114033813D01*
X156745066Y-114033088D01*
X156724766Y-114017891D01*
X156702297Y-114006138D01*
X156697267Y-113997305D01*
X156689133Y-113991216D01*
X156680272Y-113967460D01*
X156667723Y-113945422D01*
X156668267Y-113935273D01*
X156664716Y-113925752D01*
X156670106Y-113900973D01*
X156671464Y-113875652D01*
X156677803Y-113865591D01*
X156679568Y-113857479D01*
X156700715Y-113829229D01*
X156712931Y-113817013D01*
X156774252Y-113783530D01*
X156776317Y-113783099D01*
X156843497Y-113769737D01*
X156989179Y-113709394D01*
X157120289Y-113621789D01*
X157231789Y-113510289D01*
X157319394Y-113379179D01*
X157379737Y-113233497D01*
X157410500Y-113078842D01*
X157410500Y-112921158D01*
X157410500Y-112921155D01*
X157410499Y-112921153D01*
X157406741Y-112902259D01*
X157379737Y-112766503D01*
X157379735Y-112766498D01*
X157319397Y-112620827D01*
X157319390Y-112620814D01*
X157231789Y-112489711D01*
X157231786Y-112489707D01*
X157120292Y-112378213D01*
X157120288Y-112378210D01*
X157024987Y-112314531D01*
X156980182Y-112260918D01*
X156971475Y-112191593D01*
X157001630Y-112128566D01*
X157006171Y-112123774D01*
X157175276Y-111954670D01*
X157217573Y-111891368D01*
X157246464Y-111848129D01*
X157255448Y-111826439D01*
X157295501Y-111729744D01*
X157301094Y-111701620D01*
X157304858Y-111682704D01*
X157304858Y-111682702D01*
X157320500Y-111604071D01*
X157320500Y-108774935D01*
X157340185Y-108707896D01*
X157341366Y-108706090D01*
X157379394Y-108649179D01*
X157439737Y-108503497D01*
X157470500Y-108348842D01*
X157470500Y-108191158D01*
X157470500Y-108191155D01*
X157470499Y-108191153D01*
X157460271Y-108139735D01*
X157439737Y-108036503D01*
X157433117Y-108020520D01*
X157379397Y-107890827D01*
X157379390Y-107890814D01*
X157291789Y-107759711D01*
X157291786Y-107759707D01*
X157180292Y-107648213D01*
X157180288Y-107648210D01*
X157049185Y-107560609D01*
X157049172Y-107560602D01*
X156903501Y-107500264D01*
X156903489Y-107500261D01*
X156748845Y-107469500D01*
X156748842Y-107469500D01*
X156724500Y-107469500D01*
X156657461Y-107449815D01*
X156611706Y-107397011D01*
X156600500Y-107345500D01*
X156600500Y-107000807D01*
X156609145Y-106971363D01*
X156615668Y-106941381D01*
X156619422Y-106936365D01*
X156620185Y-106933768D01*
X156636810Y-106913135D01*
X156752932Y-106797012D01*
X156814251Y-106763530D01*
X156816316Y-106763099D01*
X156883497Y-106749737D01*
X157029179Y-106689394D01*
X157160289Y-106601789D01*
X157271789Y-106490289D01*
X157359394Y-106359179D01*
X157419737Y-106213497D01*
X157450500Y-106058842D01*
X157450500Y-105901158D01*
X157450500Y-105901155D01*
X157450499Y-105901153D01*
X157442754Y-105862218D01*
X157419737Y-105746503D01*
X157409944Y-105722860D01*
X157359397Y-105600827D01*
X157359390Y-105600814D01*
X157271789Y-105469711D01*
X157271786Y-105469707D01*
X157160292Y-105358213D01*
X157160288Y-105358210D01*
X157029185Y-105270609D01*
X157029172Y-105270602D01*
X156883501Y-105210264D01*
X156883489Y-105210261D01*
X156728845Y-105179500D01*
X156728842Y-105179500D01*
X156571158Y-105179500D01*
X156571155Y-105179500D01*
X156416510Y-105210261D01*
X156416498Y-105210264D01*
X156270827Y-105270602D01*
X156270814Y-105270609D01*
X156139711Y-105358210D01*
X156139707Y-105358213D01*
X156028213Y-105469707D01*
X156028210Y-105469711D01*
X155940609Y-105600814D01*
X155940602Y-105600827D01*
X155880264Y-105746498D01*
X155880261Y-105746508D01*
X155866920Y-105813579D01*
X155834535Y-105875490D01*
X155832984Y-105877068D01*
X155444724Y-106265328D01*
X155388875Y-106348914D01*
X155373535Y-106371871D01*
X155324499Y-106490255D01*
X155324497Y-106490261D01*
X155299500Y-106615928D01*
X155299500Y-109002798D01*
X155279815Y-109069837D01*
X155259793Y-109087185D01*
X155263080Y-109090472D01*
X154482962Y-109870590D01*
X154465925Y-109807007D01*
X154400099Y-109692993D01*
X154307007Y-109599901D01*
X154192993Y-109534075D01*
X154129409Y-109517037D01*
X154869105Y-108777340D01*
X154869104Y-108777338D01*
X154786174Y-108717087D01*
X154575802Y-108609897D01*
X154351247Y-108536934D01*
X154351248Y-108536934D01*
X154118052Y-108500000D01*
X153881948Y-108500000D01*
X153648752Y-108536934D01*
X153424197Y-108609897D01*
X153213830Y-108717084D01*
X153130894Y-108777340D01*
X153870591Y-109517037D01*
X153807007Y-109534075D01*
X153692993Y-109599901D01*
X153599901Y-109692993D01*
X153534075Y-109807007D01*
X153517037Y-109870591D01*
X152777340Y-109130894D01*
X152717084Y-109213830D01*
X152609897Y-109424197D01*
X152536934Y-109648752D01*
X152500000Y-109881947D01*
X152500000Y-110118052D01*
X152536934Y-110351247D01*
X152609897Y-110575802D01*
X152717087Y-110786174D01*
X152777338Y-110869104D01*
X152777340Y-110869105D01*
X153517037Y-110129408D01*
X153534075Y-110192993D01*
X153599901Y-110307007D01*
X153692993Y-110400099D01*
X153807007Y-110465925D01*
X153870590Y-110482962D01*
X153130893Y-111222658D01*
X153213828Y-111282914D01*
X153424197Y-111390102D01*
X153648752Y-111463065D01*
X153648751Y-111463065D01*
X153881948Y-111500000D01*
X154118052Y-111500000D01*
X154351247Y-111463065D01*
X154575802Y-111390102D01*
X154786163Y-111282918D01*
X154786169Y-111282914D01*
X154869104Y-111222658D01*
X154869105Y-111222658D01*
X154129408Y-110482962D01*
X154192993Y-110465925D01*
X154307007Y-110400099D01*
X154400099Y-110307007D01*
X154465925Y-110192993D01*
X154482962Y-110129409D01*
X155263080Y-110909527D01*
X155259585Y-110913021D01*
X155283875Y-110936943D01*
X155299500Y-110997200D01*
X155299500Y-111230671D01*
X155279815Y-111297710D01*
X155263181Y-111318352D01*
X154383724Y-112197809D01*
X154383722Y-112197812D01*
X154367644Y-112221873D01*
X154367645Y-112221874D01*
X154312534Y-112304354D01*
X154263499Y-112422735D01*
X154263497Y-112422741D01*
X154238500Y-112548408D01*
X154238500Y-112548411D01*
X154238500Y-118108634D01*
X154238500Y-118108636D01*
X154238499Y-118108636D01*
X154259654Y-118214984D01*
X154259655Y-118214984D01*
X154259655Y-118214986D01*
X154263499Y-118234309D01*
X154263500Y-118234311D01*
X154312535Y-118352694D01*
X154383722Y-118459233D01*
X154383728Y-118459240D01*
X159112763Y-123188272D01*
X159112769Y-123188277D01*
X159219312Y-123259466D01*
X159288659Y-123288189D01*
X159337694Y-123308501D01*
X159337697Y-123308501D01*
X159337698Y-123308502D01*
X159463366Y-123333500D01*
X159463369Y-123333500D01*
X159463370Y-123333500D01*
X165355152Y-123333500D01*
X165422191Y-123353185D01*
X165442833Y-123369819D01*
X166860833Y-124787819D01*
X166894318Y-124849142D01*
X166889334Y-124918834D01*
X166847462Y-124974767D01*
X166781998Y-124999184D01*
X166773152Y-124999500D01*
X164545908Y-124999500D01*
X164478869Y-124979815D01*
X164440363Y-124935728D01*
X164438605Y-124936813D01*
X164434812Y-124930663D01*
X164342712Y-124781344D01*
X164218656Y-124657288D01*
X164098976Y-124583469D01*
X164069336Y-124565187D01*
X164069331Y-124565185D01*
X164067862Y-124564698D01*
X163902797Y-124510001D01*
X163902795Y-124510000D01*
X163800010Y-124499500D01*
X162199998Y-124499500D01*
X162199981Y-124499501D01*
X162097203Y-124510000D01*
X162097200Y-124510001D01*
X161930668Y-124565185D01*
X161930663Y-124565187D01*
X161781342Y-124657289D01*
X161657289Y-124781342D01*
X161565187Y-124930663D01*
X161565185Y-124930668D01*
X161547867Y-124982932D01*
X161510001Y-125097203D01*
X161510001Y-125097204D01*
X161510000Y-125097204D01*
X161499500Y-125199983D01*
X161499500Y-126800001D01*
X161499501Y-126800018D01*
X161510000Y-126902796D01*
X161510001Y-126902799D01*
X161549438Y-127021810D01*
X161565186Y-127069334D01*
X161657288Y-127218656D01*
X161781344Y-127342712D01*
X161930666Y-127434814D01*
X162097203Y-127489999D01*
X162199991Y-127500500D01*
X163800008Y-127500499D01*
X163902797Y-127489999D01*
X164069334Y-127434814D01*
X164218656Y-127342712D01*
X164342712Y-127218656D01*
X164434814Y-127069334D01*
X164434815Y-127069331D01*
X164438605Y-127063187D01*
X164440399Y-127064293D01*
X164479687Y-127019663D01*
X164545908Y-127000500D01*
X175787707Y-127000500D01*
X175854746Y-127020185D01*
X175900501Y-127072989D01*
X175910445Y-127142147D01*
X175881420Y-127205703D01*
X175822642Y-127243477D01*
X175819830Y-127244266D01*
X175613807Y-127299470D01*
X175613797Y-127299473D01*
X175371535Y-127399821D01*
X175371525Y-127399826D01*
X175144422Y-127530943D01*
X174936374Y-127690586D01*
X174750944Y-127876016D01*
X174591301Y-128084064D01*
X174460184Y-128311167D01*
X174460179Y-128311177D01*
X174359831Y-128553439D01*
X174359828Y-128553449D01*
X174291956Y-128806753D01*
X174257726Y-129066740D01*
X174257726Y-129328995D01*
X174278662Y-129488008D01*
X174291956Y-129588984D01*
X174303867Y-129633436D01*
X174359828Y-129842286D01*
X174359831Y-129842296D01*
X174460179Y-130084558D01*
X174460184Y-130084568D01*
X174591301Y-130311671D01*
X174750944Y-130519719D01*
X174750952Y-130519728D01*
X174936366Y-130705142D01*
X174936374Y-130705149D01*
X175144422Y-130864792D01*
X175371525Y-130995909D01*
X175371535Y-130995914D01*
X175613797Y-131096262D01*
X175613807Y-131096266D01*
X175867110Y-131164138D01*
X176127106Y-131198368D01*
X176127113Y-131198368D01*
X176389339Y-131198368D01*
X176389346Y-131198368D01*
X176649342Y-131164138D01*
X176902645Y-131096266D01*
X177144923Y-130995911D01*
X177372029Y-130864792D01*
X177580077Y-130705150D01*
X177580081Y-130705145D01*
X177580086Y-130705142D01*
X177765500Y-130519728D01*
X177765503Y-130519723D01*
X177765508Y-130519719D01*
X177925150Y-130311671D01*
X178056269Y-130084565D01*
X178156624Y-129842287D01*
X178224496Y-129588984D01*
X178258726Y-129328988D01*
X178258726Y-129066748D01*
X178224496Y-128806752D01*
X178156624Y-128553449D01*
X178130964Y-128491500D01*
X178056272Y-128311177D01*
X178056267Y-128311167D01*
X177925150Y-128084064D01*
X177765507Y-127876016D01*
X177765500Y-127876008D01*
X177580086Y-127690594D01*
X177580077Y-127690586D01*
X177372029Y-127530943D01*
X177144926Y-127399826D01*
X177144916Y-127399821D01*
X176902654Y-127299473D01*
X176902647Y-127299471D01*
X176902645Y-127299470D01*
X176696650Y-127244274D01*
X176636991Y-127207910D01*
X176606462Y-127145063D01*
X176614757Y-127075688D01*
X176659242Y-127021810D01*
X176725794Y-127000535D01*
X176728745Y-127000500D01*
X182858542Y-127000500D01*
X182889566Y-126994328D01*
X182955188Y-126981275D01*
X183051836Y-126962051D01*
X183105165Y-126939961D01*
X183233914Y-126886632D01*
X183397782Y-126777139D01*
X183537139Y-126637782D01*
X183537140Y-126637779D01*
X183544206Y-126630714D01*
X183544209Y-126630710D01*
X184257549Y-125917369D01*
X184318870Y-125883886D01*
X184388562Y-125888870D01*
X184444495Y-125930742D01*
X184468912Y-125996206D01*
X184459790Y-126052503D01*
X184416713Y-126156503D01*
X184416711Y-126156510D01*
X184385950Y-126311153D01*
X184385950Y-126468846D01*
X184416711Y-126623489D01*
X184416714Y-126623501D01*
X184477052Y-126769172D01*
X184477059Y-126769185D01*
X184564660Y-126900288D01*
X184564663Y-126900292D01*
X184578965Y-126914594D01*
X184612450Y-126975917D01*
X184607466Y-127045609D01*
X184578965Y-127089956D01*
X184488213Y-127180707D01*
X184488210Y-127180711D01*
X184400609Y-127311814D01*
X184400602Y-127311827D01*
X184340264Y-127457498D01*
X184340261Y-127457510D01*
X184309500Y-127612153D01*
X184309500Y-127769846D01*
X184340261Y-127924489D01*
X184340264Y-127924501D01*
X184400602Y-128070172D01*
X184400609Y-128070185D01*
X184488210Y-128201288D01*
X184488213Y-128201292D01*
X184599707Y-128312786D01*
X184599711Y-128312789D01*
X184730814Y-128400390D01*
X184730827Y-128400397D01*
X184876498Y-128460735D01*
X184876503Y-128460737D01*
X185031153Y-128491499D01*
X185031156Y-128491500D01*
X185031158Y-128491500D01*
X185188844Y-128491500D01*
X185188845Y-128491499D01*
X185343497Y-128460737D01*
X185489179Y-128400394D01*
X185546044Y-128362397D01*
X185612721Y-128341520D01*
X185614935Y-128341500D01*
X186113725Y-128341500D01*
X186198269Y-128324682D01*
X186239398Y-128316501D01*
X186357781Y-128267465D01*
X186464323Y-128196277D01*
X188787821Y-125872777D01*
X188849142Y-125839294D01*
X188918833Y-125844278D01*
X188974767Y-125886150D01*
X188999184Y-125951614D01*
X188999500Y-125960460D01*
X188999500Y-126800001D01*
X188999501Y-126800018D01*
X189010000Y-126902796D01*
X189010001Y-126902799D01*
X189049438Y-127021810D01*
X189065186Y-127069334D01*
X189157288Y-127218656D01*
X189281344Y-127342712D01*
X189430666Y-127434814D01*
X189597203Y-127489999D01*
X189699991Y-127500500D01*
X191300008Y-127500499D01*
X191402797Y-127489999D01*
X191569334Y-127434814D01*
X191718656Y-127342712D01*
X191842712Y-127218656D01*
X191934814Y-127069334D01*
X191989999Y-126902797D01*
X192000500Y-126800009D01*
X192000499Y-125881947D01*
X194000000Y-125881947D01*
X194000000Y-126118052D01*
X194036934Y-126351247D01*
X194109897Y-126575802D01*
X194217087Y-126786174D01*
X194277338Y-126869104D01*
X194277340Y-126869105D01*
X195017037Y-126129408D01*
X195034075Y-126192993D01*
X195099901Y-126307007D01*
X195192993Y-126400099D01*
X195307007Y-126465925D01*
X195370590Y-126482962D01*
X194630893Y-127222658D01*
X194713828Y-127282914D01*
X194924197Y-127390102D01*
X195148752Y-127463065D01*
X195148751Y-127463065D01*
X195381948Y-127500000D01*
X195618052Y-127500000D01*
X195851247Y-127463065D01*
X196075802Y-127390102D01*
X196286163Y-127282918D01*
X196286169Y-127282914D01*
X196369104Y-127222658D01*
X196369105Y-127222658D01*
X195629408Y-126482962D01*
X195692993Y-126465925D01*
X195807007Y-126400099D01*
X195900099Y-126307007D01*
X195965925Y-126192993D01*
X195982962Y-126129408D01*
X196722658Y-126869105D01*
X196722658Y-126869104D01*
X196782914Y-126786169D01*
X196782918Y-126786163D01*
X196890102Y-126575802D01*
X196963065Y-126351247D01*
X197000000Y-126118052D01*
X197000000Y-125881947D01*
X196963065Y-125648752D01*
X196890102Y-125424197D01*
X196782914Y-125213828D01*
X196722658Y-125130894D01*
X196722658Y-125130893D01*
X195982962Y-125870590D01*
X195965925Y-125807007D01*
X195900099Y-125692993D01*
X195807007Y-125599901D01*
X195692993Y-125534075D01*
X195629409Y-125517037D01*
X196369105Y-124777340D01*
X196369104Y-124777338D01*
X196286174Y-124717087D01*
X196075802Y-124609897D01*
X195851247Y-124536934D01*
X195851248Y-124536934D01*
X195618052Y-124500000D01*
X195381948Y-124500000D01*
X195148752Y-124536934D01*
X194924197Y-124609897D01*
X194713830Y-124717084D01*
X194630894Y-124777340D01*
X195370591Y-125517037D01*
X195307007Y-125534075D01*
X195192993Y-125599901D01*
X195099901Y-125692993D01*
X195034075Y-125807007D01*
X195017037Y-125870590D01*
X194277340Y-125130894D01*
X194217084Y-125213830D01*
X194109897Y-125424197D01*
X194036934Y-125648752D01*
X194000000Y-125881947D01*
X192000499Y-125881947D01*
X192000499Y-125199992D01*
X191993440Y-125130893D01*
X191989999Y-125097203D01*
X191989998Y-125097200D01*
X191957623Y-124999500D01*
X191934814Y-124930666D01*
X191842712Y-124781344D01*
X191718656Y-124657288D01*
X191598976Y-124583469D01*
X191569336Y-124565187D01*
X191569331Y-124565185D01*
X191567862Y-124564698D01*
X191402797Y-124510001D01*
X191402795Y-124510000D01*
X191300016Y-124499500D01*
X191300009Y-124499500D01*
X190460460Y-124499500D01*
X190393421Y-124479815D01*
X190347666Y-124427011D01*
X190337722Y-124357853D01*
X190366747Y-124294297D01*
X190372779Y-124287819D01*
X191030414Y-123630185D01*
X191822780Y-122837819D01*
X191884103Y-122804334D01*
X191910461Y-122801500D01*
X199321591Y-122801500D01*
X199406135Y-122784682D01*
X199447264Y-122776501D01*
X199565647Y-122727465D01*
X199609194Y-122698368D01*
X199609194Y-122698367D01*
X199609196Y-122698367D01*
X199640691Y-122677322D01*
X199672189Y-122656277D01*
X201733927Y-120594539D01*
X201733931Y-120594537D01*
X202026278Y-120302188D01*
X202097466Y-120195645D01*
X202119387Y-120142723D01*
X202146501Y-120077264D01*
X202158490Y-120016992D01*
X202171500Y-119951591D01*
X202171500Y-103908408D01*
X202146502Y-103782741D01*
X202146501Y-103782740D01*
X202146501Y-103782736D01*
X202097465Y-103664353D01*
X202068001Y-103620257D01*
X202026276Y-103557810D01*
X202026274Y-103557808D01*
X202026272Y-103557805D01*
X198337339Y-99868872D01*
X200056297Y-99868872D01*
X200056297Y-100131127D01*
X200064671Y-100194727D01*
X200090527Y-100391116D01*
X200151722Y-100619500D01*
X200158399Y-100644418D01*
X200158402Y-100644428D01*
X200258750Y-100886690D01*
X200258755Y-100886700D01*
X200389872Y-101113803D01*
X200549515Y-101321851D01*
X200549523Y-101321860D01*
X200734937Y-101507274D01*
X200734945Y-101507281D01*
X200942993Y-101666924D01*
X201170096Y-101798041D01*
X201170106Y-101798046D01*
X201412368Y-101898394D01*
X201412378Y-101898398D01*
X201665681Y-101966270D01*
X201925677Y-102000500D01*
X201925684Y-102000500D01*
X202187910Y-102000500D01*
X202187917Y-102000500D01*
X202447913Y-101966270D01*
X202701216Y-101898398D01*
X202943494Y-101798043D01*
X203170600Y-101666924D01*
X203378648Y-101507282D01*
X203378652Y-101507277D01*
X203378657Y-101507274D01*
X203564071Y-101321860D01*
X203564074Y-101321855D01*
X203564079Y-101321851D01*
X203723721Y-101113803D01*
X203854840Y-100886697D01*
X203955195Y-100644419D01*
X204023067Y-100391116D01*
X204057297Y-100131120D01*
X204057297Y-99868880D01*
X204023067Y-99608884D01*
X203955195Y-99355581D01*
X203942457Y-99324829D01*
X203854843Y-99113309D01*
X203854838Y-99113299D01*
X203723721Y-98886196D01*
X203564078Y-98678148D01*
X203564071Y-98678140D01*
X203378657Y-98492726D01*
X203378648Y-98492718D01*
X203170600Y-98333075D01*
X202943497Y-98201958D01*
X202943487Y-98201953D01*
X202701225Y-98101605D01*
X202701218Y-98101603D01*
X202701216Y-98101602D01*
X202447913Y-98033730D01*
X202384703Y-98025408D01*
X202187924Y-97999500D01*
X202187917Y-97999500D01*
X201925677Y-97999500D01*
X201925669Y-97999500D01*
X201697810Y-98029500D01*
X201665681Y-98033730D01*
X201486497Y-98081742D01*
X201412378Y-98101602D01*
X201412368Y-98101605D01*
X201170106Y-98201953D01*
X201170096Y-98201958D01*
X200942993Y-98333075D01*
X200734945Y-98492718D01*
X200549515Y-98678148D01*
X200389872Y-98886196D01*
X200258755Y-99113299D01*
X200258750Y-99113309D01*
X200158402Y-99355571D01*
X200158399Y-99355581D01*
X200090527Y-99608884D01*
X200090407Y-99609797D01*
X200056297Y-99868872D01*
X198337339Y-99868872D01*
X196693193Y-98224726D01*
X196692210Y-98224069D01*
X196586647Y-98153535D01*
X196468264Y-98104499D01*
X196468265Y-98104499D01*
X196465864Y-98104021D01*
X196453700Y-98101602D01*
X196342589Y-98079500D01*
X196252686Y-98079500D01*
X196245795Y-98078727D01*
X196219713Y-98067782D01*
X196192579Y-98059815D01*
X196186900Y-98054013D01*
X196181368Y-98051692D01*
X196173675Y-98040502D01*
X196158900Y-98025408D01*
X196157915Y-98026125D01*
X196030109Y-97850213D01*
X195879786Y-97699890D01*
X195707820Y-97574951D01*
X195707115Y-97574591D01*
X195699054Y-97570485D01*
X195648259Y-97522512D01*
X195631463Y-97454692D01*
X195653999Y-97388556D01*
X195699054Y-97349515D01*
X195707816Y-97345051D01*
X195729789Y-97329086D01*
X195879786Y-97220109D01*
X195879788Y-97220106D01*
X195879792Y-97220104D01*
X196030104Y-97069792D01*
X196030106Y-97069788D01*
X196030109Y-97069786D01*
X196155048Y-96897820D01*
X196155047Y-96897820D01*
X196155051Y-96897816D01*
X196251557Y-96708412D01*
X196317246Y-96506243D01*
X196350500Y-96296287D01*
X196350500Y-96083713D01*
X196317246Y-95873757D01*
X196316484Y-95868945D01*
X196318123Y-95868685D01*
X196321257Y-95806126D01*
X196350655Y-95759289D01*
X198467277Y-93642669D01*
X198538466Y-93536126D01*
X198553637Y-93499500D01*
X198573380Y-93451836D01*
X198587499Y-93417748D01*
X198587501Y-93417744D01*
X198605165Y-93328945D01*
X198612500Y-93292071D01*
X198612500Y-85482367D01*
X198587502Y-85356700D01*
X198587501Y-85356699D01*
X198587501Y-85356695D01*
X198538465Y-85238312D01*
X198538463Y-85238309D01*
X198516427Y-85205329D01*
X198516426Y-85205329D01*
X198467276Y-85131769D01*
X198467274Y-85131767D01*
X198467272Y-85131764D01*
X192740234Y-79404726D01*
X192740230Y-79404723D01*
X192633688Y-79333535D01*
X192515305Y-79284499D01*
X192515299Y-79284497D01*
X192389632Y-79259500D01*
X192389630Y-79259500D01*
X190877707Y-79259500D01*
X190810668Y-79239815D01*
X190764913Y-79187011D01*
X190754969Y-79117853D01*
X190774605Y-79066610D01*
X190876625Y-78913924D01*
X190876632Y-78913914D01*
X190929961Y-78785165D01*
X190952051Y-78731836D01*
X190990500Y-78538540D01*
X190990500Y-78341460D01*
X190990054Y-78339219D01*
X190979509Y-78286208D01*
X190979214Y-78284724D01*
X190952051Y-78148165D01*
X190948462Y-78139501D01*
X190904611Y-78033634D01*
X190876632Y-77966086D01*
X190859501Y-77940448D01*
X190767139Y-77802217D01*
X190624686Y-77659764D01*
X190624655Y-77659735D01*
X186412149Y-73447229D01*
X186407141Y-73442221D01*
X186407139Y-73442218D01*
X186267782Y-73302861D01*
X186254012Y-73293660D01*
X186254011Y-73293659D01*
X186113815Y-73199983D01*
X188999500Y-73199983D01*
X188999500Y-74800001D01*
X188999501Y-74800018D01*
X189010000Y-74902796D01*
X189010001Y-74902799D01*
X189065185Y-75069331D01*
X189065186Y-75069334D01*
X189157288Y-75218656D01*
X189281344Y-75342712D01*
X189430666Y-75434814D01*
X189597203Y-75489999D01*
X189699991Y-75500500D01*
X191300008Y-75500499D01*
X191402797Y-75489999D01*
X191569334Y-75434814D01*
X191718656Y-75342712D01*
X191842712Y-75218656D01*
X191934814Y-75069334D01*
X191989999Y-74902797D01*
X192000500Y-74800009D01*
X192000499Y-73881947D01*
X194000000Y-73881947D01*
X194000000Y-74118052D01*
X194036934Y-74351247D01*
X194109897Y-74575802D01*
X194217087Y-74786174D01*
X194277338Y-74869104D01*
X194277340Y-74869105D01*
X195017037Y-74129408D01*
X195034075Y-74192993D01*
X195099901Y-74307007D01*
X195192993Y-74400099D01*
X195307007Y-74465925D01*
X195370590Y-74482962D01*
X194630893Y-75222658D01*
X194713828Y-75282914D01*
X194924197Y-75390102D01*
X195148752Y-75463065D01*
X195148751Y-75463065D01*
X195381948Y-75500000D01*
X195618052Y-75500000D01*
X195851247Y-75463065D01*
X196075802Y-75390102D01*
X196286163Y-75282918D01*
X196286169Y-75282914D01*
X196369104Y-75222658D01*
X196369105Y-75222658D01*
X195629408Y-74482962D01*
X195692993Y-74465925D01*
X195807007Y-74400099D01*
X195900099Y-74307007D01*
X195965925Y-74192993D01*
X195982962Y-74129408D01*
X196722658Y-74869105D01*
X196722658Y-74869104D01*
X196782914Y-74786169D01*
X196782918Y-74786163D01*
X196890102Y-74575802D01*
X196963065Y-74351247D01*
X197000000Y-74118052D01*
X197000000Y-73881947D01*
X196963065Y-73648752D01*
X196890102Y-73424197D01*
X196782914Y-73213828D01*
X196722658Y-73130894D01*
X196722658Y-73130893D01*
X195982962Y-73870590D01*
X195965925Y-73807007D01*
X195900099Y-73692993D01*
X195807007Y-73599901D01*
X195692993Y-73534075D01*
X195629409Y-73517037D01*
X196369105Y-72777340D01*
X196369104Y-72777338D01*
X196286174Y-72717087D01*
X196075802Y-72609897D01*
X195851247Y-72536934D01*
X195851248Y-72536934D01*
X195618052Y-72500000D01*
X195381948Y-72500000D01*
X195148752Y-72536934D01*
X194924197Y-72609897D01*
X194713830Y-72717084D01*
X194630894Y-72777340D01*
X195370591Y-73517037D01*
X195307007Y-73534075D01*
X195192993Y-73599901D01*
X195099901Y-73692993D01*
X195034075Y-73807007D01*
X195017037Y-73870590D01*
X194277340Y-73130894D01*
X194217084Y-73213830D01*
X194109897Y-73424197D01*
X194036934Y-73648752D01*
X194000000Y-73881947D01*
X192000499Y-73881947D01*
X192000499Y-73199992D01*
X191994267Y-73138989D01*
X191989999Y-73097203D01*
X191989998Y-73097200D01*
X191984133Y-73079500D01*
X191934814Y-72930666D01*
X191842712Y-72781344D01*
X191718656Y-72657288D01*
X191569334Y-72565186D01*
X191402797Y-72510001D01*
X191402795Y-72510000D01*
X191300010Y-72499500D01*
X189699998Y-72499500D01*
X189699981Y-72499501D01*
X189597203Y-72510000D01*
X189597200Y-72510001D01*
X189430668Y-72565185D01*
X189430663Y-72565187D01*
X189281342Y-72657289D01*
X189157289Y-72781342D01*
X189065187Y-72930663D01*
X189065185Y-72930668D01*
X189010001Y-73097203D01*
X188999500Y-73199983D01*
X186113815Y-73199983D01*
X186103919Y-73193371D01*
X186103916Y-73193369D01*
X186103914Y-73193368D01*
X186103911Y-73193366D01*
X186103906Y-73193364D01*
X185979826Y-73141969D01*
X185979821Y-73141967D01*
X185972635Y-73138991D01*
X185921836Y-73117949D01*
X185817539Y-73097203D01*
X185775709Y-73088882D01*
X185728543Y-73079500D01*
X185728541Y-73079500D01*
X185531459Y-73079500D01*
X185531457Y-73079500D01*
X185466084Y-73092503D01*
X185442461Y-73097203D01*
X185338164Y-73117949D01*
X185287365Y-73138991D01*
X185280183Y-73141965D01*
X185280175Y-73141968D01*
X185156089Y-73193366D01*
X185156080Y-73193371D01*
X184992217Y-73302860D01*
X184852863Y-73442214D01*
X184852860Y-73442218D01*
X184743371Y-73606079D01*
X184743364Y-73606092D01*
X184667950Y-73788160D01*
X184667947Y-73788170D01*
X184629500Y-73981456D01*
X184629500Y-73981459D01*
X184629500Y-74178541D01*
X184629500Y-74178543D01*
X184629499Y-74178543D01*
X184667947Y-74371829D01*
X184667950Y-74371839D01*
X184743364Y-74553907D01*
X184743371Y-74553920D01*
X184852860Y-74717781D01*
X184852863Y-74717785D01*
X184996537Y-74861459D01*
X184996559Y-74861479D01*
X189182899Y-79047819D01*
X189216384Y-79109142D01*
X189211400Y-79178834D01*
X189169528Y-79234767D01*
X189104064Y-79259184D01*
X189095218Y-79259500D01*
X185105783Y-79259500D01*
X185038744Y-79239815D01*
X185018106Y-79223185D01*
X184927782Y-79132861D01*
X184927781Y-79132860D01*
X184927780Y-79132859D01*
X184763920Y-79023371D01*
X184763907Y-79023364D01*
X184581839Y-78947950D01*
X184581829Y-78947947D01*
X184388543Y-78909500D01*
X184388541Y-78909500D01*
X184191459Y-78909500D01*
X184191457Y-78909500D01*
X183998170Y-78947947D01*
X183998160Y-78947950D01*
X183816092Y-79023364D01*
X183816079Y-79023371D01*
X183652218Y-79132860D01*
X183652214Y-79132863D01*
X183512863Y-79272214D01*
X183512860Y-79272218D01*
X183403371Y-79436079D01*
X183403364Y-79436092D01*
X183327950Y-79618160D01*
X183327947Y-79618170D01*
X183289500Y-79811456D01*
X183289500Y-79811459D01*
X183289500Y-80008541D01*
X183289500Y-80008543D01*
X183289499Y-80008543D01*
X183329137Y-80207809D01*
X183327315Y-80208171D01*
X183327481Y-80226452D01*
X183331320Y-80253147D01*
X183327794Y-80260867D01*
X183327871Y-80269353D01*
X183313499Y-80292168D01*
X183302295Y-80316703D01*
X183295154Y-80321291D01*
X183290632Y-80328472D01*
X183266202Y-80339897D01*
X183243517Y-80354477D01*
X183231265Y-80356238D01*
X183227343Y-80358073D01*
X183208582Y-80359500D01*
X183185783Y-80359500D01*
X183118744Y-80339815D01*
X183098106Y-80323185D01*
X183007782Y-80232861D01*
X183007781Y-80232860D01*
X183007780Y-80232859D01*
X182843920Y-80123371D01*
X182843907Y-80123364D01*
X182661839Y-80047950D01*
X182661829Y-80047947D01*
X182468543Y-80009500D01*
X182468541Y-80009500D01*
X182271459Y-80009500D01*
X182271457Y-80009500D01*
X182078170Y-80047947D01*
X182078160Y-80047950D01*
X181921174Y-80112975D01*
X181851704Y-80120444D01*
X181789225Y-80089168D01*
X181786041Y-80086095D01*
X179984674Y-78284727D01*
X179984671Y-78284725D01*
X179984670Y-78284724D01*
X179984669Y-78284723D01*
X179878127Y-78213535D01*
X179759744Y-78164499D01*
X179759738Y-78164497D01*
X179634071Y-78139500D01*
X179634069Y-78139500D01*
X160757410Y-78139500D01*
X160757408Y-78139500D01*
X160631740Y-78164497D01*
X160631734Y-78164499D01*
X160513353Y-78213534D01*
X160513352Y-78213535D01*
X160406810Y-78284723D01*
X160406809Y-78284724D01*
X160406808Y-78284725D01*
X160406804Y-78284727D01*
X155064726Y-83626805D01*
X154993534Y-83733353D01*
X154944499Y-83851734D01*
X154944497Y-83851740D01*
X154919500Y-83977407D01*
X154919500Y-87284070D01*
X154923434Y-87303848D01*
X154937730Y-87375714D01*
X154942524Y-87399815D01*
X154944499Y-87409744D01*
X154992708Y-87526132D01*
X154993535Y-87528127D01*
X155049922Y-87612517D01*
X155064726Y-87634673D01*
X155064727Y-87634674D01*
X155733181Y-88303127D01*
X155766666Y-88364450D01*
X155769500Y-88390808D01*
X155769500Y-88518541D01*
X155769500Y-88518543D01*
X155769499Y-88518543D01*
X155807947Y-88711829D01*
X155807950Y-88711839D01*
X155883364Y-88893907D01*
X155883371Y-88893920D01*
X155992860Y-89057781D01*
X155992863Y-89057785D01*
X156132214Y-89197136D01*
X156132218Y-89197139D01*
X156296079Y-89306628D01*
X156296092Y-89306635D01*
X156478160Y-89382049D01*
X156478165Y-89382051D01*
X156515462Y-89389469D01*
X156559112Y-89398153D01*
X156621023Y-89430538D01*
X156655597Y-89491254D01*
X156651858Y-89561023D01*
X156622602Y-89607451D01*
X156244562Y-89985490D01*
X156244561Y-89985491D01*
X156221407Y-90020145D01*
X156192970Y-90062705D01*
X156181484Y-90079895D01*
X156181481Y-90079898D01*
X156173375Y-90092028D01*
X156173368Y-90092040D01*
X156124334Y-90210420D01*
X156124332Y-90210426D01*
X156099335Y-90336093D01*
X156099335Y-90459051D01*
X156079650Y-90526090D01*
X156063016Y-90546732D01*
X155972698Y-90637049D01*
X155972695Y-90637053D01*
X155863206Y-90800914D01*
X155863199Y-90800927D01*
X155787785Y-90982995D01*
X155787782Y-90983005D01*
X155749335Y-91176291D01*
X155749335Y-91373380D01*
X155772687Y-91490777D01*
X155766460Y-91560368D01*
X155723597Y-91615546D01*
X155675262Y-91636585D01*
X155606508Y-91650261D01*
X155606498Y-91650264D01*
X155460827Y-91710602D01*
X155460814Y-91710609D01*
X155329711Y-91798210D01*
X155329707Y-91798213D01*
X155218213Y-91909707D01*
X155218210Y-91909711D01*
X155130609Y-92040814D01*
X155130602Y-92040827D01*
X155070264Y-92186498D01*
X155070261Y-92186510D01*
X155039500Y-92341153D01*
X155039500Y-92498846D01*
X155070261Y-92653489D01*
X155070264Y-92653501D01*
X155130602Y-92799172D01*
X155130606Y-92799179D01*
X155168602Y-92856044D01*
X155189480Y-92922721D01*
X155189500Y-92924935D01*
X155189500Y-93768111D01*
X155169815Y-93835150D01*
X155117011Y-93880905D01*
X155047853Y-93890849D01*
X154984297Y-93861824D01*
X154977819Y-93855792D01*
X154977512Y-93855485D01*
X154977510Y-93855483D01*
X154786433Y-93716657D01*
X154781032Y-93713905D01*
X154575996Y-93609433D01*
X154351368Y-93536446D01*
X154118097Y-93499500D01*
X154118092Y-93499500D01*
X153881908Y-93499500D01*
X153881903Y-93499500D01*
X153648631Y-93536446D01*
X153424003Y-93609433D01*
X153213566Y-93716657D01*
X153115152Y-93788160D01*
X153022490Y-93855483D01*
X153022488Y-93855485D01*
X153022487Y-93855485D01*
X152855485Y-94022487D01*
X152855485Y-94022488D01*
X152855483Y-94022490D01*
X152795862Y-94104550D01*
X152716657Y-94213566D01*
X152609433Y-94424003D01*
X152536446Y-94648631D01*
X152499500Y-94881902D01*
X151640331Y-94881902D01*
X151654760Y-94574376D01*
X151654901Y-94571920D01*
X151656107Y-94553907D01*
X151781926Y-92673980D01*
X151782107Y-92671626D01*
X151946960Y-90776564D01*
X151947182Y-90774267D01*
X152042775Y-89881902D01*
X152499500Y-89881902D01*
X152499500Y-90118097D01*
X152536446Y-90351368D01*
X152609433Y-90575996D01*
X152710418Y-90774188D01*
X152716657Y-90786433D01*
X152855483Y-90977510D01*
X153022490Y-91144517D01*
X153213567Y-91283343D01*
X153302373Y-91328592D01*
X153424003Y-91390566D01*
X153424005Y-91390566D01*
X153424008Y-91390568D01*
X153544412Y-91429689D01*
X153648631Y-91463553D01*
X153881903Y-91500500D01*
X153881908Y-91500500D01*
X154118097Y-91500500D01*
X154351368Y-91463553D01*
X154363091Y-91459744D01*
X154575992Y-91390568D01*
X154786433Y-91283343D01*
X154977510Y-91144517D01*
X155144517Y-90977510D01*
X155283343Y-90786433D01*
X155390568Y-90575992D01*
X155463553Y-90351368D01*
X155467905Y-90323888D01*
X155500500Y-90118097D01*
X155500500Y-89881902D01*
X155463553Y-89648631D01*
X155424189Y-89527483D01*
X155390568Y-89424008D01*
X155390566Y-89424005D01*
X155390566Y-89424003D01*
X155317614Y-89280827D01*
X155283343Y-89213567D01*
X155144517Y-89022490D01*
X154977510Y-88855483D01*
X154786433Y-88716657D01*
X154756170Y-88701237D01*
X154575996Y-88609433D01*
X154351368Y-88536446D01*
X154118097Y-88499500D01*
X154118092Y-88499500D01*
X153881908Y-88499500D01*
X153881903Y-88499500D01*
X153648631Y-88536446D01*
X153424003Y-88609433D01*
X153213566Y-88716657D01*
X153141201Y-88769234D01*
X153022490Y-88855483D01*
X153022488Y-88855485D01*
X153022487Y-88855485D01*
X152855485Y-89022487D01*
X152855485Y-89022488D01*
X152855483Y-89022490D01*
X152844062Y-89038210D01*
X152716657Y-89213566D01*
X152609433Y-89424003D01*
X152536446Y-89648631D01*
X152499500Y-89881902D01*
X152042775Y-89881902D01*
X152149810Y-88882733D01*
X152150077Y-88880451D01*
X152390380Y-86993385D01*
X152390696Y-86991087D01*
X152668583Y-85109193D01*
X152668945Y-85106902D01*
X152984302Y-83230959D01*
X152984711Y-83228668D01*
X153337410Y-81359419D01*
X153337892Y-81357000D01*
X153449120Y-80825873D01*
X153727782Y-79495230D01*
X153728309Y-79492838D01*
X153748604Y-79404726D01*
X154155257Y-77639191D01*
X154155826Y-77636831D01*
X154619660Y-75792048D01*
X154620260Y-75789761D01*
X155120809Y-73954531D01*
X155121428Y-73952344D01*
X155142145Y-73881947D01*
X156500000Y-73881947D01*
X156500000Y-74118052D01*
X156536934Y-74351247D01*
X156609897Y-74575802D01*
X156717087Y-74786174D01*
X156777338Y-74869104D01*
X156777340Y-74869105D01*
X157517037Y-74129408D01*
X157534075Y-74192993D01*
X157599901Y-74307007D01*
X157692993Y-74400099D01*
X157807007Y-74465925D01*
X157870590Y-74482962D01*
X157130893Y-75222658D01*
X157213828Y-75282914D01*
X157424197Y-75390102D01*
X157648752Y-75463065D01*
X157648751Y-75463065D01*
X157881948Y-75500000D01*
X158118052Y-75500000D01*
X158351247Y-75463065D01*
X158575802Y-75390102D01*
X158786163Y-75282918D01*
X158786169Y-75282914D01*
X158869104Y-75222658D01*
X158869105Y-75222658D01*
X158129408Y-74482962D01*
X158192993Y-74465925D01*
X158307007Y-74400099D01*
X158400099Y-74307007D01*
X158465925Y-74192993D01*
X158482962Y-74129409D01*
X159222658Y-74869105D01*
X159222658Y-74869104D01*
X159282914Y-74786169D01*
X159282918Y-74786163D01*
X159390102Y-74575802D01*
X159463065Y-74351247D01*
X159500000Y-74118052D01*
X159500000Y-73881947D01*
X159463065Y-73648752D01*
X159390102Y-73424197D01*
X159302939Y-73253129D01*
X159302938Y-73253127D01*
X159282916Y-73213830D01*
X159272855Y-73199983D01*
X161499500Y-73199983D01*
X161499500Y-74800001D01*
X161499501Y-74800018D01*
X161510000Y-74902796D01*
X161510001Y-74902799D01*
X161565185Y-75069331D01*
X161565186Y-75069334D01*
X161657288Y-75218656D01*
X161781344Y-75342712D01*
X161930666Y-75434814D01*
X162097203Y-75489999D01*
X162199991Y-75500500D01*
X163800008Y-75500499D01*
X163902797Y-75489999D01*
X164069334Y-75434814D01*
X164218656Y-75342712D01*
X164342712Y-75218656D01*
X164434814Y-75069334D01*
X164489999Y-74902797D01*
X164500500Y-74800009D01*
X164500499Y-73199992D01*
X164494267Y-73138989D01*
X164489999Y-73097203D01*
X164489998Y-73097200D01*
X164484133Y-73079500D01*
X164434814Y-72930666D01*
X164342712Y-72781344D01*
X164218656Y-72657288D01*
X164069334Y-72565186D01*
X163902797Y-72510001D01*
X163902795Y-72510000D01*
X163800010Y-72499500D01*
X162199998Y-72499500D01*
X162199981Y-72499501D01*
X162097203Y-72510000D01*
X162097200Y-72510001D01*
X161930668Y-72565185D01*
X161930663Y-72565187D01*
X161781342Y-72657289D01*
X161657289Y-72781342D01*
X161565187Y-72930663D01*
X161565185Y-72930668D01*
X161510001Y-73097203D01*
X161499500Y-73199983D01*
X159272855Y-73199983D01*
X159222658Y-73130894D01*
X159222658Y-73130893D01*
X158482962Y-73870590D01*
X158465925Y-73807007D01*
X158400099Y-73692993D01*
X158307007Y-73599901D01*
X158192993Y-73534075D01*
X158129409Y-73517037D01*
X158869105Y-72777340D01*
X158869104Y-72777338D01*
X158786174Y-72717087D01*
X158575802Y-72609897D01*
X158351247Y-72536934D01*
X158351248Y-72536934D01*
X158118052Y-72500000D01*
X157881948Y-72500000D01*
X157648752Y-72536934D01*
X157424197Y-72609897D01*
X157213830Y-72717084D01*
X157130894Y-72777340D01*
X157870591Y-73517037D01*
X157807007Y-73534075D01*
X157692993Y-73599901D01*
X157599901Y-73692993D01*
X157534075Y-73807007D01*
X157517037Y-73870591D01*
X156777340Y-73130894D01*
X156717084Y-73213830D01*
X156609897Y-73424197D01*
X156536934Y-73648752D01*
X156500000Y-73881947D01*
X155142145Y-73881947D01*
X155658509Y-72127357D01*
X155659169Y-72125193D01*
X155948514Y-71209820D01*
X174169550Y-71209820D01*
X174169550Y-71472075D01*
X174190486Y-71631088D01*
X174203780Y-71732064D01*
X174225228Y-71812109D01*
X174271652Y-71985366D01*
X174271655Y-71985376D01*
X174372003Y-72227638D01*
X174372008Y-72227648D01*
X174503125Y-72454751D01*
X174662768Y-72662799D01*
X174662776Y-72662808D01*
X174848190Y-72848222D01*
X174848198Y-72848229D01*
X175056246Y-73007872D01*
X175283349Y-73138989D01*
X175283359Y-73138994D01*
X175525621Y-73239342D01*
X175525631Y-73239346D01*
X175778934Y-73307218D01*
X176038930Y-73341448D01*
X176038937Y-73341448D01*
X176301163Y-73341448D01*
X176301170Y-73341448D01*
X176561166Y-73307218D01*
X176814469Y-73239346D01*
X176991390Y-73166062D01*
X177056740Y-73138994D01*
X177056741Y-73138993D01*
X177056747Y-73138991D01*
X177283853Y-73007872D01*
X177491901Y-72848230D01*
X177491905Y-72848225D01*
X177491910Y-72848222D01*
X177677324Y-72662808D01*
X177677327Y-72662803D01*
X177677332Y-72662799D01*
X177836974Y-72454751D01*
X177968093Y-72227645D01*
X178068448Y-71985367D01*
X178136320Y-71732064D01*
X178170550Y-71472068D01*
X178170550Y-71209828D01*
X178136320Y-70949832D01*
X178068448Y-70696529D01*
X177970254Y-70459468D01*
X177968096Y-70454257D01*
X177968091Y-70454247D01*
X177836974Y-70227144D01*
X177677331Y-70019096D01*
X177677324Y-70019088D01*
X177491910Y-69833674D01*
X177491901Y-69833666D01*
X177283853Y-69674023D01*
X177056750Y-69542906D01*
X177056740Y-69542901D01*
X176814478Y-69442553D01*
X176814471Y-69442551D01*
X176814469Y-69442550D01*
X176561166Y-69374678D01*
X176503389Y-69367071D01*
X176301177Y-69340448D01*
X176301170Y-69340448D01*
X176038930Y-69340448D01*
X176038922Y-69340448D01*
X175807822Y-69370874D01*
X175778934Y-69374678D01*
X175525631Y-69442550D01*
X175525621Y-69442553D01*
X175283359Y-69542901D01*
X175283349Y-69542906D01*
X175056246Y-69674023D01*
X174848198Y-69833666D01*
X174662768Y-70019096D01*
X174503125Y-70227144D01*
X174372008Y-70454247D01*
X174372003Y-70454257D01*
X174271655Y-70696519D01*
X174271652Y-70696529D01*
X174203780Y-70949833D01*
X174169550Y-71209820D01*
X155948514Y-71209820D01*
X156232503Y-70311389D01*
X156233263Y-70309068D01*
X156260968Y-70227145D01*
X156701074Y-68925723D01*
X156741197Y-68868524D01*
X156805876Y-68842096D01*
X156818539Y-68841448D01*
X194798121Y-68841448D01*
X194865160Y-68861133D01*
G37*
%TD.AperFunction*%
%TD*%
M02*
