0
SECTION
2
HEADER
9
$INSUNITS
70
4
9
$ACADVER
1
AC1014
9
$HANDSEED
5
FFFF
0
ENDSEC
0
SECTION
2
TABLES
0
TABLE
2
VPORT
5
8
100
AcDbSymbolTable
0
ENDTAB
0
TABLE
2
LTYPE
5
5
100
AcDbSymbolTable
0
LTYPE
5
14
100
AcDbSymbolTableRecord
100
AcDbLinetypeTableRecord
2
BYBLOCK
70
0
0
LTYPE
5
15
100
AcDbSymbolTableRecord
100
AcDbLinetypeTableRecord
2
BYLAYER
70
0
0
LTYPE
5
16
100
AcDbSymbolTableRecord
100
AcDbLinetypeTableRecord
2
DASHED
70
0
3
Dashed __ __ __ __ __ __ __ __ __ __ __ __ __ _
72
65
73
2
40
0.75
49
0.5
74
0
49
-0.25
74
0
0
ENDTAB
0
TABLE
2
LAYER
5
2
100
AcDbSymbolTable
70
2
0
LAYER
5
50
100
AcDbSymbolTableRecord
100
AcDbLayerTableRecord
2
0
70
0
62
7
6
CONTINUOUS
0
ENDTAB
0
TABLE
2
STYLE
5
3
100
AcDbSymbolTable
70
1
0
STYLE
5
11
100
AcDbSymbolTableRecord
100
AcDbTextStyleTableRecord
2
STANDARD
70
0
0
ENDTAB
0
TABLE
2
VIEW
5
6
100
AcDbSymbolTable
70
0
0
ENDTAB
0
TABLE
2
UCS
5
7
100
AcDbSymbolTable
70
0
0
ENDTAB
0
TABLE
2
APPID
5
9
100
AcDbSymbolTable
70
2
0
APPID
5
12
100
AcDbSymbolTableRecord
100
AcDbRegAppTableRecord
2
ACAD
70
0
0
ENDTAB
0
TABLE
2
DIMSTYLE
5
A
100
AcDbSymbolTable
70
1
0
ENDTAB
0
TABLE
2
BLOCK_RECORD
5
1
100
AcDbSymbolTable
70
1
0
BLOCK_RECORD
5
1F
100
AcDbSymbolTableRecord
100
AcDbBlockTableRecord
2
*MODEL_SPACE
0
BLOCK_RECORD
5
1B
100
AcDbSymbolTableRecord
100
AcDbBlockTableRecord
2
*PAPER_SPACE
0
ENDTAB
0
ENDSEC
0
SECTION
2
BLOCKS
0
BLOCK
5
20
100
AcDbEntity
100
AcDbBlockBegin
2
*MODEL_SPACE
0
ENDBLK
5
21
100
AcDbEntity
100
AcDbBlockEnd
0
BLOCK
5
1C
100
AcDbEntity
100
AcDbBlockBegin
2
*PAPER_SPACE
0
ENDBLK
5
1D
100
AcDbEntity
100
AcDbBlockEnd
0
ENDSEC
0
SECTION
2
ENTITIES
0
LWPOLYLINE
5
100
100
AcDbEntity
8
0
100
AcDbPolyline
90
30
70
1
43
0.0
10
-96.788339967440322
20
35.228074936709909
42
0.176326980759756
10
-96.788340027291014
20
-35.228074607636579
10
-87.391413837198769
20
-31.807873202544947
42
-0.067184064484094239
10
-92.697087424163911
20
-7.4999998353648856
10
-65.572479022559392
20
-7.4999998353648678
42
0.34897107836213348
10
-7.5000022039946916
20
-65.572478652205604
10
-7.5000030692508535
20
-92.697087059321035
42
-0.067184056360512043
10
-31.807873430794807
20
-87.391413682710336
10
-35.228077951384151
20
-96.788338719797878
42
0.17632698907318592
10
35.228074714482801
20
-96.788339854314088
10
31.807870467176812
20
-87.391414739569996
42
-0.067184064484095571
10
7.4999969307493952
20
-92.697087551130409
10
7.4999977960053608
20
-65.57247914952562
42
0.34897109695828599
10
65.572478962637518
20
-7.4999998353649522
10
92.697087364242776
20
-7.4999998353649211
42
-0.067184064484096792
10
87.39141377727745
20
-31.807873202544805
10
96.788339907483021
20
-35.228074607538119
42
0.17632698070846467
10
96.788339854570324
20
35.228074917549542
10
87.391413724364668
20
31.807873512556487
42
-0.067184064455833969
10
92.697087350922146
20
7.5000001646351233
10
65.572478943807027
20
7.5000001646350523
42
0.31210641196875827
10
16.124515466636243
20
64.000000082317484
10
35
20
64.000000082317484
10
35
20
74.000000082317484
10
-34.999997954567732
20
74.000000082317456
10
-34.999997954567739
20
64.000000082317456
10
-16.124515526558078
20
64.000000082317456
42
0.31210640321708416
10
-65.572478764484018
20
7.5000022563515216
10
-92.697087171988173
20
7.500003116790932
42
-0.067184056402835174
10
-87.391413791280584
20
31.807873493339173
0
LWPOLYLINE
5
101
100
AcDbEntity
8
0
100
AcDbPolyline
90
8
70
1
43
0.0
10
41.93217213951003
20
-35.414393777519578
10
-41.932172259353813
20
-35.414393777519479
42
-0.23222562980709072
10
-44.305691440453714
20
-34.249170793113144
42
-0.58145461408382237
10
-6.8251659711140267
20
55.582525388708
10
-2.1213204034814708
20
50.878679821075458
42
0.41421356237309592
10
2.1213202836378104
20
50.878679821075465
10
6.8251658512703273
20
55.582525388707957
42
-0.58145461408382371
10
44.305691320609938
20
-34.249170793113251
42
-0.23222562980709294
0
CIRCLE
5
102
100
AcDbEntity
8
0
100
AcDbCircle
10
30.450038604981053
20
-93.109295931431419
30
0
40
1.6000000000000014
210
0
220
-0
230
1
0
CIRCLE
5
103
100
AcDbEntity
8
0
100
AcDbCircle
10
-5.9921830969367207e-08
20
53.000000164635097
30
0
40
1.6000000000000003
210
0
220
-0
230
1
0
CIRCLE
5
104
100
AcDbEntity
8
0
100
AcDbCircle
10
-30.450044769780828
20
-93.109293988761195
30
0
40
1.6000000000000014
210
0
220
-0
230
1
0
CIRCLE
5
105
100
AcDbEntity
8
0
100
AcDbCircle
10
-2.6332540478159148e-06
20
-79.02918072620129
30
0
40
1.6000000000000003
210
0
220
-0
230
1
0
CIRCLE
5
106
100
AcDbEntity
8
0
100
AcDbCircle
10
-93.109295132296921
20
-30.450041522745845
30
0
40
1.6000000000000014
210
0
220
-0
230
1
0
CIRCLE
5
107
100
AcDbEntity
8
0
100
AcDbCircle
10
79.029180778558185
20
1.646350869883599e-07
30
0
40
1.6000000000000014
210
0
220
-0
230
1
0
CIRCLE
5
108
100
AcDbEntity
8
0
100
AcDbCircle
10
36.516172622683378
20
-38.414393777519571
30
0
40
1.6000000000000014
210
0
220
-0
230
1
0
CIRCLE
5
109
100
AcDbEntity
8
0
100
AcDbCircle
10
-93.109295132296921
20
30.450041852016088
30
0
40
1.6000000000000014
210
0
220
-0
230
1
0
CIRCLE
5
110
100
AcDbEntity
8
0
100
AcDbCircle
10
93.109295012453188
20
-30.45004152274587
30
0
40
1.6000000000000014
210
0
220
-0
230
1
0
CIRCLE
5
111
100
AcDbEntity
8
0
100
AcDbCircle
10
-36.516172742527189
20
-38.414393777519457
30
0
40
1.6000000000000014
210
0
220
-0
230
1
0
CIRCLE
5
112
100
AcDbEntity
8
0
100
AcDbCircle
10
-79.029180838479562
20
1.6463510634492654e-07
30
0
40
1.5999999999999925
210
0
220
-0
230
1
0
CIRCLE
5
113
100
AcDbEntity
8
0
100
AcDbCircle
10
93.109295012453188
20
30.450041852016057
30
0
40
1.6000000000000014
210
0
220
-0
230
1
0
ENDSEC
0
SECTION
2
OBJECTS
0
DICTIONARY
5
C
100
AcDbDictionary
3
ACAD_GROUP
350
D
3
ACAD_MLINESTYLE
350
17
0
DICTIONARY
5
D
100
AcDbDictionary
0
DICTIONARY
5
1A
330
C
100
AcDbDictionary
0
DICTIONARY
5
17
100
AcDbDictionary
0
ENDSEC
0
EOF
