M48
; DRILL file {KiCad 9.0.7} date 2026-04-08T20:14:03+0900
; FORMAT={-:-/ absolute / metric / decimal}
; #@! TF.CreationDate,2026-04-08T20:14:03+09:00
; #@! TF.GenerationSoftware,Kicad,Pcbnew,9.0.7
; #@! TF.FileFunction,Plated,1,2,PTH
FMAT,2
METRIC
; #@! TA.AperFunction,Plated,PTH,ViaDrill
T1C0.300
; #@! TA.AperFunction,Plated,PTH,ComponentDrill
T2C1.000
%
G90
G05
T1
X34.3Y-40.57
X34.35Y-43.96
X34.41Y-48.73
X34.58Y-58.44
X34.68Y-55.0
X35.23Y-63.02
X35.75Y-67.44
X35.89Y-36.64
X36.15Y-32.79
X36.26Y-50.35
X37.39Y-46.89
X37.62Y-65.65
X37.88Y-60.06
X38.17Y-56.77
X38.43Y-31.88
X38.58Y-53.77
X39.17Y-62.18
X39.58Y-67.96
X40.17Y-48.24
X41.23Y-63.53
X41.3Y-31.36
X41.46Y-50.0
X41.46Y-54.77
X41.64Y-57.41
X42.17Y-44.83
X42.76Y-37.44
X42.99Y-60.59
X43.35Y-65.23
X43.59Y-39.32
X44.4Y-55.65
X44.99Y-50.53
X45.17Y-46.41
X45.21Y-32.26
X45.29Y-41.47
X45.58Y-62.65
X46.11Y-37.58
X46.46Y-67.12
X46.87Y-44.36
X47.18Y-56.08
X47.82Y-53.12
X47.93Y-59.59
X48.43Y-31.55
X48.76Y-65.0
X49.67Y-47.0
X49.76Y-66.94
X50.87Y-55.59
X51.02Y-42.7
X51.1Y-41.17
X51.49Y-33.8
X51.7Y-59.82
X52.46Y-66.82
X53.22Y-68.38
X53.5Y-40.47
X54.39Y-51.7
X55.83Y-31.26
X56.17Y-55.43
X56.17Y-57.55
X56.5Y-53.83
X57.22Y-51.41
X57.49Y-61.05
X57.62Y-37.22
X58.14Y-49.84
X58.75Y-44.21
X58.82Y-54.75
X58.9Y-42.16
X59.41Y-38.58
X59.92Y-44.5
X59.95Y-55.99
X60.6Y-60.88
X60.66Y-63.68
X60.75Y-39.41
X60.82Y-44.7
X62.02Y-38.65
X62.05Y-34.34
X62.43Y-49.76
X62.436Y-35.041
X63.32Y-55.59
X63.34Y-60.66
X63.37Y-46.51
X63.66Y-51.97
X63.84Y-50.2
X64.02Y-35.341
X65.13Y-35.542
X65.23Y-40.88
X65.57Y-43.78
X65.76Y-46.34
X66.78Y-39.02
X66.88Y-63.86
X68.67Y-37.04
X68.97Y-48.12
X69.19Y-63.86
X69.5Y-65.97
X69.58Y-37.41
X69.96Y-56.53
X70.11Y-59.75
X70.95Y-49.53
X71.68Y-37.0
X72.05Y-63.9
X72.29Y-65.97
X72.91Y-45.85
X73.34Y-50.55
X73.81Y-59.87
X74.12Y-47.08
X74.64Y-65.86
X74.85Y-58.925
X75.575Y-63.4
X75.77Y-37.3
X76.65Y-38.52
X77.36Y-35.34
X78.86Y-33.16
X79.86Y-65.74
X81.19Y-32.67
X81.9Y-65.86
X82.78Y-35.96
X83.56Y-55.24
X83.58Y-52.64
X83.6Y-49.87
X83.64Y-47.45
X83.71Y-39.98
X83.82Y-44.85
X84.04Y-42.43
X84.2Y-57.94
X84.85Y-37.03
X84.95Y-55.19
X85.31Y-66.21
X85.45Y-31.67
X85.57Y-39.75
X85.63Y-49.89
X85.66Y-42.33
X85.66Y-57.84
X85.7Y-52.56
X85.71Y-44.81
X85.84Y-47.44
X85.94Y-62.43
X86.38Y-60.32
X89.35Y-37.07
X89.44Y-63.04
X89.63Y-31.59
X91.17Y-68.02
X92.79Y-66.41
X92.83Y-34.03
X93.18Y-55.83
X95.26Y-63.95
X95.86Y-37.11
X96.4Y-46.76
X97.02Y-52.95
X97.04Y-61.69
X97.38Y-47.36
X97.86Y-58.86
X97.9Y-51.61
X97.94Y-55.22
X98.27Y-40.16
X98.73Y-43.0
X98.81Y-46.11
T2
X58.5Y-58.38
X58.5Y-66.0
X60.08Y-32.5
X61.04Y-58.38
X61.04Y-66.0
X62.62Y-32.5
X63.58Y-58.38
X63.58Y-66.0
X65.16Y-32.5
X66.12Y-58.38
X66.12Y-66.0
X67.7Y-32.5
X70.24Y-32.5
X72.78Y-32.5
X75.32Y-32.5
X78.86Y-38.57
X78.86Y-41.11
X78.86Y-43.65
X78.86Y-46.19
X78.86Y-48.73
X78.86Y-51.27
X78.86Y-53.81
X78.86Y-56.35
X78.86Y-58.89
X78.86Y-61.43
X81.4Y-38.57
X81.4Y-41.11
X81.4Y-43.65
X81.4Y-46.19
X81.4Y-48.73
X81.4Y-51.27
X81.4Y-53.81
X81.4Y-56.35
X81.4Y-58.89
X81.4Y-61.43
X88.0Y-38.57
X88.0Y-41.11
X88.0Y-43.65
X88.0Y-46.19
X88.0Y-48.73
X88.0Y-51.27
X88.0Y-53.81
X88.0Y-56.35
X88.0Y-58.89
X88.0Y-61.43
X90.54Y-38.57
X90.54Y-41.11
X90.54Y-43.65
X90.54Y-46.19
X90.54Y-48.73
X90.54Y-51.27
X90.54Y-53.81
X90.54Y-56.35
X90.54Y-58.89
X90.54Y-61.43
M30
