%TF.GenerationSoftware,KiCad,Pcbnew,9.0.7*%
%TF.CreationDate,2026-04-08T20:14:01+09:00*%
%TF.ProjectId,Main board,4d61696e-2062-46f6-9172-642e6b696361,rev?*%
%TF.SameCoordinates,Original*%
%TF.FileFunction,Legend,Bot*%
%TF.FilePolarity,Positive*%
%FSLAX46Y46*%
G04 Gerber Fmt 4.6, Leading zero omitted, Abs format (unit mm)*
G04 Created by KiCad (PCBNEW 9.0.7) date 2026-04-08 20:14:01*
%MOMM*%
%LPD*%
G01*
G04 APERTURE LIST*
%ADD10C,0.150000*%
%ADD11C,0.120000*%
G04 APERTURE END LIST*
D10*
X80463333Y-35694819D02*
X80463333Y-36409104D01*
X80463333Y-36409104D02*
X80510952Y-36551961D01*
X80510952Y-36551961D02*
X80606190Y-36647200D01*
X80606190Y-36647200D02*
X80749047Y-36694819D01*
X80749047Y-36694819D02*
X80844285Y-36694819D01*
X80034761Y-35790057D02*
X79987142Y-35742438D01*
X79987142Y-35742438D02*
X79891904Y-35694819D01*
X79891904Y-35694819D02*
X79653809Y-35694819D01*
X79653809Y-35694819D02*
X79558571Y-35742438D01*
X79558571Y-35742438D02*
X79510952Y-35790057D01*
X79510952Y-35790057D02*
X79463333Y-35885295D01*
X79463333Y-35885295D02*
X79463333Y-35980533D01*
X79463333Y-35980533D02*
X79510952Y-36123390D01*
X79510952Y-36123390D02*
X80082380Y-36694819D01*
X80082380Y-36694819D02*
X79463333Y-36694819D01*
D11*
%TO.C,J2*%
X77530000Y-37240000D02*
X80130000Y-37240000D01*
X77530000Y-62760000D02*
X77530000Y-37240000D01*
X77530000Y-62760000D02*
X82730000Y-62760000D01*
X80130000Y-37240000D02*
X80130000Y-39840000D01*
X80130000Y-39840000D02*
X82730000Y-39840000D01*
X81400000Y-37240000D02*
X82730000Y-37240000D01*
X82730000Y-37240000D02*
X82730000Y-38570000D01*
X82730000Y-62760000D02*
X82730000Y-39840000D01*
%TD*%
M02*
