%TF.GenerationSoftware,KiCad,Pcbnew,9.0.7*%
%TF.CreationDate,2026-04-08T20:14:01+09:00*%
%TF.ProjectId,Main board,4d61696e-2062-46f6-9172-642e6b696361,rev?*%
%TF.SameCoordinates,Original*%
%TF.FileFunction,Legend,Top*%
%TF.FilePolarity,Positive*%
%FSLAX46Y46*%
G04 Gerber Fmt 4.6, Leading zero omitted, Abs format (unit mm)*
G04 Created by KiCad (PCBNEW 9.0.7) date 2026-04-08 20:14:01*
%MOMM*%
%LPD*%
G01*
G04 APERTURE LIST*
%ADD10C,0.187500*%
%ADD11C,0.150000*%
%ADD12C,0.120000*%
%ADD13C,0.200000*%
%ADD14C,0.100000*%
G04 APERTURE END LIST*
D10*
X41693321Y-37730497D02*
X43193321Y-37730497D01*
X43193321Y-37730497D02*
X41693321Y-38587640D01*
X41693321Y-38587640D02*
X43193321Y-38587640D01*
X41693321Y-40159069D02*
X42407607Y-39659069D01*
X41693321Y-39301926D02*
X43193321Y-39301926D01*
X43193321Y-39301926D02*
X43193321Y-39873355D01*
X43193321Y-39873355D02*
X43121892Y-40016212D01*
X43121892Y-40016212D02*
X43050464Y-40087641D01*
X43050464Y-40087641D02*
X42907607Y-40159069D01*
X42907607Y-40159069D02*
X42693321Y-40159069D01*
X42693321Y-40159069D02*
X42550464Y-40087641D01*
X42550464Y-40087641D02*
X42479035Y-40016212D01*
X42479035Y-40016212D02*
X42407607Y-39873355D01*
X42407607Y-39873355D02*
X42407607Y-39301926D01*
X41764750Y-40730498D02*
X41693321Y-40944784D01*
X41693321Y-40944784D02*
X41693321Y-41301926D01*
X41693321Y-41301926D02*
X41764750Y-41444784D01*
X41764750Y-41444784D02*
X41836178Y-41516212D01*
X41836178Y-41516212D02*
X41979035Y-41587641D01*
X41979035Y-41587641D02*
X42121892Y-41587641D01*
X42121892Y-41587641D02*
X42264750Y-41516212D01*
X42264750Y-41516212D02*
X42336178Y-41444784D01*
X42336178Y-41444784D02*
X42407607Y-41301926D01*
X42407607Y-41301926D02*
X42479035Y-41016212D01*
X42479035Y-41016212D02*
X42550464Y-40873355D01*
X42550464Y-40873355D02*
X42621892Y-40801926D01*
X42621892Y-40801926D02*
X42764750Y-40730498D01*
X42764750Y-40730498D02*
X42907607Y-40730498D01*
X42907607Y-40730498D02*
X43050464Y-40801926D01*
X43050464Y-40801926D02*
X43121892Y-40873355D01*
X43121892Y-40873355D02*
X43193321Y-41016212D01*
X43193321Y-41016212D02*
X43193321Y-41373355D01*
X43193321Y-41373355D02*
X43121892Y-41587641D01*
X43193321Y-42016212D02*
X43193321Y-42873355D01*
X41693321Y-42444783D02*
X43193321Y-42444783D01*
D11*
X88936666Y-31924819D02*
X88936666Y-32639104D01*
X88936666Y-32639104D02*
X88889047Y-32781961D01*
X88889047Y-32781961D02*
X88793809Y-32877200D01*
X88793809Y-32877200D02*
X88650952Y-32924819D01*
X88650952Y-32924819D02*
X88555714Y-32924819D01*
X89317619Y-31924819D02*
X89936666Y-31924819D01*
X89936666Y-31924819D02*
X89603333Y-32305771D01*
X89603333Y-32305771D02*
X89746190Y-32305771D01*
X89746190Y-32305771D02*
X89841428Y-32353390D01*
X89841428Y-32353390D02*
X89889047Y-32401009D01*
X89889047Y-32401009D02*
X89936666Y-32496247D01*
X89936666Y-32496247D02*
X89936666Y-32734342D01*
X89936666Y-32734342D02*
X89889047Y-32829580D01*
X89889047Y-32829580D02*
X89841428Y-32877200D01*
X89841428Y-32877200D02*
X89746190Y-32924819D01*
X89746190Y-32924819D02*
X89460476Y-32924819D01*
X89460476Y-32924819D02*
X89365238Y-32877200D01*
X89365238Y-32877200D02*
X89317619Y-32829580D01*
X61523810Y-35554819D02*
X61523810Y-34554819D01*
X62571428Y-35459580D02*
X62523809Y-35507200D01*
X62523809Y-35507200D02*
X62380952Y-35554819D01*
X62380952Y-35554819D02*
X62285714Y-35554819D01*
X62285714Y-35554819D02*
X62142857Y-35507200D01*
X62142857Y-35507200D02*
X62047619Y-35411961D01*
X62047619Y-35411961D02*
X62000000Y-35316723D01*
X62000000Y-35316723D02*
X61952381Y-35126247D01*
X61952381Y-35126247D02*
X61952381Y-34983390D01*
X61952381Y-34983390D02*
X62000000Y-34792914D01*
X62000000Y-34792914D02*
X62047619Y-34697676D01*
X62047619Y-34697676D02*
X62142857Y-34602438D01*
X62142857Y-34602438D02*
X62285714Y-34554819D01*
X62285714Y-34554819D02*
X62380952Y-34554819D01*
X62380952Y-34554819D02*
X62523809Y-34602438D01*
X62523809Y-34602438D02*
X62571428Y-34650057D01*
X63523809Y-35554819D02*
X62952381Y-35554819D01*
X63238095Y-35554819D02*
X63238095Y-34554819D01*
X63238095Y-34554819D02*
X63142857Y-34697676D01*
X63142857Y-34697676D02*
X63047619Y-34792914D01*
X63047619Y-34792914D02*
X62952381Y-34840533D01*
X57204819Y-32833333D02*
X57919104Y-32833333D01*
X57919104Y-32833333D02*
X58061961Y-32880952D01*
X58061961Y-32880952D02*
X58157200Y-32976190D01*
X58157200Y-32976190D02*
X58204819Y-33119047D01*
X58204819Y-33119047D02*
X58204819Y-33214285D01*
X58204819Y-31833333D02*
X58204819Y-32404761D01*
X58204819Y-32119047D02*
X57204819Y-32119047D01*
X57204819Y-32119047D02*
X57347676Y-32214285D01*
X57347676Y-32214285D02*
X57442914Y-32309523D01*
X57442914Y-32309523D02*
X57490533Y-32404761D01*
X55184819Y-58713333D02*
X55899104Y-58713333D01*
X55899104Y-58713333D02*
X56041961Y-58760952D01*
X56041961Y-58760952D02*
X56137200Y-58856190D01*
X56137200Y-58856190D02*
X56184819Y-58999047D01*
X56184819Y-58999047D02*
X56184819Y-59094285D01*
X55184819Y-57808571D02*
X55184819Y-57999047D01*
X55184819Y-57999047D02*
X55232438Y-58094285D01*
X55232438Y-58094285D02*
X55280057Y-58141904D01*
X55280057Y-58141904D02*
X55422914Y-58237142D01*
X55422914Y-58237142D02*
X55613390Y-58284761D01*
X55613390Y-58284761D02*
X55994342Y-58284761D01*
X55994342Y-58284761D02*
X56089580Y-58237142D01*
X56089580Y-58237142D02*
X56137200Y-58189523D01*
X56137200Y-58189523D02*
X56184819Y-58094285D01*
X56184819Y-58094285D02*
X56184819Y-57903809D01*
X56184819Y-57903809D02*
X56137200Y-57808571D01*
X56137200Y-57808571D02*
X56089580Y-57760952D01*
X56089580Y-57760952D02*
X55994342Y-57713333D01*
X55994342Y-57713333D02*
X55756247Y-57713333D01*
X55756247Y-57713333D02*
X55661009Y-57760952D01*
X55661009Y-57760952D02*
X55613390Y-57808571D01*
X55613390Y-57808571D02*
X55565771Y-57903809D01*
X55565771Y-57903809D02*
X55565771Y-58094285D01*
X55565771Y-58094285D02*
X55613390Y-58189523D01*
X55613390Y-58189523D02*
X55661009Y-58237142D01*
X55661009Y-58237142D02*
X55756247Y-58284761D01*
X55184819Y-66333333D02*
X55899104Y-66333333D01*
X55899104Y-66333333D02*
X56041961Y-66380952D01*
X56041961Y-66380952D02*
X56137200Y-66476190D01*
X56137200Y-66476190D02*
X56184819Y-66619047D01*
X56184819Y-66619047D02*
X56184819Y-66714285D01*
X55184819Y-65380952D02*
X55184819Y-65857142D01*
X55184819Y-65857142D02*
X55661009Y-65904761D01*
X55661009Y-65904761D02*
X55613390Y-65857142D01*
X55613390Y-65857142D02*
X55565771Y-65761904D01*
X55565771Y-65761904D02*
X55565771Y-65523809D01*
X55565771Y-65523809D02*
X55613390Y-65428571D01*
X55613390Y-65428571D02*
X55661009Y-65380952D01*
X55661009Y-65380952D02*
X55756247Y-65333333D01*
X55756247Y-65333333D02*
X55994342Y-65333333D01*
X55994342Y-65333333D02*
X56089580Y-65380952D01*
X56089580Y-65380952D02*
X56137200Y-65428571D01*
X56137200Y-65428571D02*
X56184819Y-65523809D01*
X56184819Y-65523809D02*
X56184819Y-65761904D01*
X56184819Y-65761904D02*
X56137200Y-65857142D01*
X56137200Y-65857142D02*
X56089580Y-65904761D01*
D12*
%TO.C,J3*%
X83320000Y-38070000D02*
X83320000Y-39070000D01*
X83320000Y-39070000D02*
X84320000Y-38570000D01*
X84320000Y-38570000D02*
X83320000Y-38070000D01*
X84710000Y-33360000D02*
X93830000Y-33360000D01*
X84710000Y-47950000D02*
X86020000Y-47950000D01*
X84710000Y-66640000D02*
X84710000Y-33360000D01*
X86020000Y-34660000D02*
X92520000Y-34660000D01*
X86020000Y-47950000D02*
X86020000Y-34660000D01*
X86020000Y-52050000D02*
X84710000Y-52050000D01*
X86020000Y-52050000D02*
X86020000Y-52050000D01*
X86020000Y-65340000D02*
X86020000Y-52050000D01*
X92520000Y-34660000D02*
X92520000Y-65340000D01*
X92520000Y-65340000D02*
X86020000Y-65340000D01*
X93830000Y-33360000D02*
X93830000Y-66640000D01*
X93830000Y-66640000D02*
X84710000Y-66640000D01*
%TO.C,C2*%
X55490000Y-35359420D02*
X55490000Y-35640580D01*
X56510000Y-35359420D02*
X56510000Y-35640580D01*
%TO.C,C3*%
X51990000Y-43640580D02*
X51990000Y-43359420D01*
X53010000Y-43640580D02*
X53010000Y-43359420D01*
%TO.C,C4*%
X53990000Y-43640580D02*
X53990000Y-43359420D01*
X55010000Y-43640580D02*
X55010000Y-43359420D01*
%TO.C,C5*%
X41390580Y-33240000D02*
X41109420Y-33240000D01*
X41390580Y-34260000D02*
X41109420Y-34260000D01*
%TO.C,IC1*%
X57390000Y-37390000D02*
X58340000Y-37390000D01*
X57390000Y-38340000D02*
X57390000Y-37390000D01*
X57390000Y-47610000D02*
X57390000Y-46660000D01*
X58340000Y-47610000D02*
X57390000Y-47610000D01*
X66660000Y-37390000D02*
X67610000Y-37390000D01*
X67610000Y-37390000D02*
X67610000Y-38340000D01*
X67610000Y-46660000D02*
X67610000Y-47610000D01*
X67610000Y-47610000D02*
X66660000Y-47610000D01*
X56750000Y-38340000D02*
X56410000Y-37870000D01*
X57090000Y-37870000D01*
X56750000Y-38340000D01*
G36*
X56750000Y-38340000D02*
G01*
X56410000Y-37870000D01*
X57090000Y-37870000D01*
X56750000Y-38340000D01*
G37*
%TO.C,C1*%
X53490000Y-35359420D02*
X53490000Y-35640580D01*
X54510000Y-35359420D02*
X54510000Y-35640580D01*
%TO.C,J1*%
X58750000Y-33830000D02*
X58750000Y-32500000D01*
X60080000Y-33830000D02*
X58750000Y-33830000D01*
X61350000Y-31170000D02*
X76650000Y-31170000D01*
X61350000Y-33830000D02*
X61350000Y-31170000D01*
X61350000Y-33830000D02*
X76650000Y-33830000D01*
X76650000Y-33830000D02*
X76650000Y-31170000D01*
%TO.C,C7*%
X66740000Y-51359420D02*
X66740000Y-51640580D01*
X67760000Y-51359420D02*
X67760000Y-51640580D01*
%TO.C,R1*%
X51477500Y-38262742D02*
X51477500Y-38737258D01*
X52522500Y-38262742D02*
X52522500Y-38737258D01*
D13*
%TO.C,SW1*%
X37400000Y-41200000D02*
X37400000Y-38800000D01*
D14*
X37925000Y-43000000D02*
X37925000Y-43000000D01*
X37925000Y-43100000D02*
X37925000Y-43100000D01*
D13*
X38600000Y-37900000D02*
X39400000Y-37900000D01*
X38600000Y-42100000D02*
X39400000Y-42100000D01*
X40600000Y-41200000D02*
X40600000Y-38800000D01*
D14*
X37925000Y-43000000D02*
G75*
G02*
X37925000Y-43100000I0J-50000D01*
G01*
X37925000Y-43100000D02*
G75*
G02*
X37925000Y-43000000I0J50000D01*
G01*
D12*
%TO.C,C6*%
X64990000Y-51359420D02*
X64990000Y-51640580D01*
X66010000Y-51359420D02*
X66010000Y-51640580D01*
%TO.C,J6*%
X57170000Y-57050000D02*
X58500000Y-57050000D01*
X57170000Y-58380000D02*
X57170000Y-57050000D01*
X59770000Y-57050000D02*
X67450000Y-57050000D01*
X59770000Y-59710000D02*
X59770000Y-57050000D01*
X59770000Y-59710000D02*
X67450000Y-59710000D01*
X67450000Y-59710000D02*
X67450000Y-57050000D01*
%TO.C,C9*%
X60609420Y-50490000D02*
X60890580Y-50490000D01*
X60609420Y-51510000D02*
X60890580Y-51510000D01*
%TO.C,C8*%
X70859420Y-38240000D02*
X71140580Y-38240000D01*
X70859420Y-39260000D02*
X71140580Y-39260000D01*
%TO.C,J5*%
X57170000Y-64670000D02*
X58500000Y-64670000D01*
X57170000Y-66000000D02*
X57170000Y-64670000D01*
X59770000Y-64670000D02*
X67450000Y-64670000D01*
X59770000Y-67330000D02*
X59770000Y-64670000D01*
X59770000Y-67330000D02*
X67450000Y-67330000D01*
X67450000Y-67330000D02*
X67450000Y-64670000D01*
%TD*%
M02*
