%TF.GenerationSoftware,KiCad,Pcbnew,9.0.7*%
%TF.CreationDate,2026-04-08T20:14:01+09:00*%
%TF.ProjectId,Main board,4d61696e-2062-46f6-9172-642e6b696361,rev?*%
%TF.SameCoordinates,Original*%
%TF.FileFunction,Paste,Top*%
%TF.FilePolarity,Positive*%
%FSLAX46Y46*%
G04 Gerber Fmt 4.6, Leading zero omitted, Abs format (unit mm)*
G04 Created by KiCad (PCBNEW 9.0.7) date 2026-04-08 20:14:01*
%MOMM*%
%LPD*%
G01*
G04 APERTURE LIST*
G04 Aperture macros list*
%AMRoundRect*
0 Rectangle with rounded corners*
0 $1 Rounding radius*
0 $2 $3 $4 $5 $6 $7 $8 $9 X,Y pos of 4 corners*
0 Add a 4 corners polygon primitive as box body*
4,1,4,$2,$3,$4,$5,$6,$7,$8,$9,$2,$3,0*
0 Add four circle primitives for the rounded corners*
1,1,$1+$1,$2,$3*
1,1,$1+$1,$4,$5*
1,1,$1+$1,$6,$7*
1,1,$1+$1,$8,$9*
0 Add four rect primitives between the rounded corners*
20,1,$1+$1,$2,$3,$4,$5,0*
20,1,$1+$1,$4,$5,$6,$7,0*
20,1,$1+$1,$6,$7,$8,$9,0*
20,1,$1+$1,$8,$9,$2,$3,0*%
G04 Aperture macros list end*
%ADD10RoundRect,0.225000X-0.250000X0.225000X-0.250000X-0.225000X0.250000X-0.225000X0.250000X0.225000X0*%
%ADD11RoundRect,0.225000X0.250000X-0.225000X0.250000X0.225000X-0.250000X0.225000X-0.250000X-0.225000X0*%
%ADD12RoundRect,0.225000X0.225000X0.250000X-0.225000X0.250000X-0.225000X-0.250000X0.225000X-0.250000X0*%
%ADD13RoundRect,0.075000X-0.700000X-0.075000X0.700000X-0.075000X0.700000X0.075000X-0.700000X0.075000X0*%
%ADD14RoundRect,0.075000X-0.075000X-0.700000X0.075000X-0.700000X0.075000X0.700000X-0.075000X0.700000X0*%
%ADD15RoundRect,0.200000X-0.275000X0.200000X-0.275000X-0.200000X0.275000X-0.200000X0.275000X0.200000X0*%
%ADD16R,0.650000X1.050000*%
%ADD17RoundRect,0.225000X-0.225000X-0.250000X0.225000X-0.250000X0.225000X0.250000X-0.225000X0.250000X0*%
G04 APERTURE END LIST*
D10*
%TO.C,C2*%
X56000000Y-34725000D03*
X56000000Y-36275000D03*
%TD*%
D11*
%TO.C,C3*%
X52500000Y-44275000D03*
X52500000Y-42725000D03*
%TD*%
%TO.C,C4*%
X54500000Y-44275000D03*
X54500000Y-42725000D03*
%TD*%
D12*
%TO.C,C5*%
X42025000Y-33750000D03*
X40475000Y-33750000D03*
%TD*%
D13*
%TO.C,IC1*%
X56825000Y-38750000D03*
X56825000Y-39250000D03*
X56825000Y-39750000D03*
X56825000Y-40250000D03*
X56825000Y-40750000D03*
X56825000Y-41250000D03*
X56825000Y-41750000D03*
X56825000Y-42250000D03*
X56825000Y-42750000D03*
X56825000Y-43250000D03*
X56825000Y-43750000D03*
X56825000Y-44250000D03*
X56825000Y-44750000D03*
X56825000Y-45250000D03*
X56825000Y-45750000D03*
X56825000Y-46250000D03*
D14*
X58750000Y-48175000D03*
X59250000Y-48175000D03*
X59750000Y-48175000D03*
X60250000Y-48175000D03*
X60750000Y-48175000D03*
X61250000Y-48175000D03*
X61750000Y-48175000D03*
X62250000Y-48175000D03*
X62750000Y-48175000D03*
X63250000Y-48175000D03*
X63750000Y-48175000D03*
X64250000Y-48175000D03*
X64750000Y-48175000D03*
X65250000Y-48175000D03*
X65750000Y-48175000D03*
X66250000Y-48175000D03*
D13*
X68175000Y-46250000D03*
X68175000Y-45750000D03*
X68175000Y-45250000D03*
X68175000Y-44750000D03*
X68175000Y-44250000D03*
X68175000Y-43750000D03*
X68175000Y-43250000D03*
X68175000Y-42750000D03*
X68175000Y-42250000D03*
X68175000Y-41750000D03*
X68175000Y-41250000D03*
X68175000Y-40750000D03*
X68175000Y-40250000D03*
X68175000Y-39750000D03*
X68175000Y-39250000D03*
X68175000Y-38750000D03*
D14*
X66250000Y-36825000D03*
X65750000Y-36825000D03*
X65250000Y-36825000D03*
X64750000Y-36825000D03*
X64250000Y-36825000D03*
X63750000Y-36825000D03*
X63250000Y-36825000D03*
X62750000Y-36825000D03*
X62250000Y-36825000D03*
X61750000Y-36825000D03*
X61250000Y-36825000D03*
X60750000Y-36825000D03*
X60250000Y-36825000D03*
X59750000Y-36825000D03*
X59250000Y-36825000D03*
X58750000Y-36825000D03*
%TD*%
D10*
%TO.C,C1*%
X54000000Y-34725000D03*
X54000000Y-36275000D03*
%TD*%
%TO.C,C7*%
X67250000Y-50725000D03*
X67250000Y-52275000D03*
%TD*%
D15*
%TO.C,R1*%
X52000000Y-37675000D03*
X52000000Y-39325000D03*
%TD*%
D16*
%TO.C,SW1*%
X37925000Y-42075000D03*
X37925000Y-37925000D03*
X40075000Y-42075000D03*
X40075000Y-37925000D03*
%TD*%
D10*
%TO.C,C6*%
X65500000Y-50725000D03*
X65500000Y-52275000D03*
%TD*%
D17*
%TO.C,C9*%
X59975000Y-51000000D03*
X61525000Y-51000000D03*
%TD*%
%TO.C,C8*%
X70225000Y-38750000D03*
X71775000Y-38750000D03*
%TD*%
M02*
