%TF.GenerationSoftware,KiCad,Pcbnew,9.0.7*%
%TF.CreationDate,2026-03-08T19:29:38+09:00*%
%TF.ProjectId,IR board_1.0,49522062-6f61-4726-945f-312e302e6b69,rev?*%
%TF.SameCoordinates,Original*%
%TF.FileFunction,Legend,Bot*%
%TF.FilePolarity,Positive*%
%FSLAX46Y46*%
G04 Gerber Fmt 4.6, Leading zero omitted, Abs format (unit mm)*
G04 Created by KiCad (PCBNEW 9.0.7) date 2026-03-08 19:29:38*
%MOMM*%
%LPD*%
G01*
G04 APERTURE LIST*
%ADD10C,0.150000*%
%ADD11C,0.120000*%
G04 APERTURE END LIST*
D10*
X202654819Y-70666666D02*
X203369104Y-70666666D01*
X203369104Y-70666666D02*
X203511961Y-70619047D01*
X203511961Y-70619047D02*
X203607200Y-70523809D01*
X203607200Y-70523809D02*
X203654819Y-70380952D01*
X203654819Y-70380952D02*
X203654819Y-70285714D01*
X202750057Y-71095238D02*
X202702438Y-71142857D01*
X202702438Y-71142857D02*
X202654819Y-71238095D01*
X202654819Y-71238095D02*
X202654819Y-71476190D01*
X202654819Y-71476190D02*
X202702438Y-71571428D01*
X202702438Y-71571428D02*
X202750057Y-71619047D01*
X202750057Y-71619047D02*
X202845295Y-71666666D01*
X202845295Y-71666666D02*
X202940533Y-71666666D01*
X202940533Y-71666666D02*
X203083390Y-71619047D01*
X203083390Y-71619047D02*
X203654819Y-71047619D01*
X203654819Y-71047619D02*
X203654819Y-71666666D01*
X184876189Y-68654819D02*
X184876189Y-67654819D01*
X183828571Y-68559580D02*
X183876190Y-68607200D01*
X183876190Y-68607200D02*
X184019047Y-68654819D01*
X184019047Y-68654819D02*
X184114285Y-68654819D01*
X184114285Y-68654819D02*
X184257142Y-68607200D01*
X184257142Y-68607200D02*
X184352380Y-68511961D01*
X184352380Y-68511961D02*
X184399999Y-68416723D01*
X184399999Y-68416723D02*
X184447618Y-68226247D01*
X184447618Y-68226247D02*
X184447618Y-68083390D01*
X184447618Y-68083390D02*
X184399999Y-67892914D01*
X184399999Y-67892914D02*
X184352380Y-67797676D01*
X184352380Y-67797676D02*
X184257142Y-67702438D01*
X184257142Y-67702438D02*
X184114285Y-67654819D01*
X184114285Y-67654819D02*
X184019047Y-67654819D01*
X184019047Y-67654819D02*
X183876190Y-67702438D01*
X183876190Y-67702438D02*
X183828571Y-67750057D01*
X182876190Y-68654819D02*
X183447618Y-68654819D01*
X183161904Y-68654819D02*
X183161904Y-67654819D01*
X183161904Y-67654819D02*
X183257142Y-67797676D01*
X183257142Y-67797676D02*
X183352380Y-67892914D01*
X183352380Y-67892914D02*
X183447618Y-67940533D01*
X231620595Y-70073766D02*
X231048175Y-70646185D01*
X231048175Y-70646185D02*
X230947160Y-70679857D01*
X230947160Y-70679857D02*
X230879816Y-70679857D01*
X230879816Y-70679857D02*
X230778801Y-70646185D01*
X230778801Y-70646185D02*
X230644114Y-70511498D01*
X230644114Y-70511498D02*
X230610442Y-70410483D01*
X230610442Y-70410483D02*
X230610442Y-70343140D01*
X230610442Y-70343140D02*
X230644114Y-70242124D01*
X230644114Y-70242124D02*
X231216534Y-69669705D01*
X229802320Y-69669705D02*
X230206381Y-70073766D01*
X230004351Y-69871735D02*
X230711458Y-69164628D01*
X230711458Y-69164628D02*
X230677786Y-69332987D01*
X230677786Y-69332987D02*
X230677786Y-69467674D01*
X230677786Y-69467674D02*
X230711458Y-69568689D01*
X229869664Y-68322834D02*
X230206381Y-68659552D01*
X230206381Y-68659552D02*
X229903336Y-69029941D01*
X229903336Y-69029941D02*
X229903336Y-68962598D01*
X229903336Y-68962598D02*
X229869664Y-68861583D01*
X229869664Y-68861583D02*
X229701305Y-68693224D01*
X229701305Y-68693224D02*
X229600290Y-68659552D01*
X229600290Y-68659552D02*
X229532946Y-68659552D01*
X229532946Y-68659552D02*
X229431931Y-68693224D01*
X229431931Y-68693224D02*
X229263572Y-68861583D01*
X229263572Y-68861583D02*
X229229900Y-68962598D01*
X229229900Y-68962598D02*
X229229900Y-69029941D01*
X229229900Y-69029941D02*
X229263572Y-69130957D01*
X229263572Y-69130957D02*
X229431931Y-69299315D01*
X229431931Y-69299315D02*
X229532946Y-69332987D01*
X229532946Y-69332987D02*
X229600290Y-69332987D01*
X217761349Y-60251086D02*
X217451557Y-60998989D01*
X217451557Y-60998989D02*
X217371117Y-61068754D01*
X217371117Y-61068754D02*
X217308900Y-61094526D01*
X217308900Y-61094526D02*
X217202688Y-61102074D01*
X217202688Y-61102074D02*
X217026711Y-61029182D01*
X217026711Y-61029182D02*
X216956946Y-60948741D01*
X216956946Y-60948741D02*
X216931174Y-60886524D01*
X216931174Y-60886524D02*
X216923626Y-60780313D01*
X216923626Y-60780313D02*
X217233417Y-60032410D01*
X215926855Y-60573606D02*
X216454786Y-60792282D01*
X216190820Y-60682944D02*
X216573504Y-59759065D01*
X216573504Y-59759065D02*
X216606823Y-59927494D01*
X216606823Y-59927494D02*
X216658366Y-60051928D01*
X216658366Y-60051928D02*
X216728131Y-60132368D01*
X215517641Y-59321712D02*
X215693618Y-59394604D01*
X215693618Y-59394604D02*
X215763384Y-59475045D01*
X215763384Y-59475045D02*
X215789155Y-59537262D01*
X215789155Y-59537262D02*
X215822474Y-59705691D01*
X215822474Y-59705691D02*
X215793577Y-59899891D01*
X215793577Y-59899891D02*
X215647792Y-60251845D01*
X215647792Y-60251845D02*
X215567352Y-60321610D01*
X215567352Y-60321610D02*
X215505135Y-60347382D01*
X215505135Y-60347382D02*
X215398923Y-60354930D01*
X215398923Y-60354930D02*
X215222946Y-60282038D01*
X215222946Y-60282038D02*
X215153181Y-60201598D01*
X215153181Y-60201598D02*
X215127410Y-60139380D01*
X215127410Y-60139380D02*
X215119861Y-60033169D01*
X215119861Y-60033169D02*
X215210976Y-59813197D01*
X215210976Y-59813197D02*
X215291417Y-59743432D01*
X215291417Y-59743432D02*
X215353634Y-59717661D01*
X215353634Y-59717661D02*
X215459846Y-59710112D01*
X215459846Y-59710112D02*
X215635823Y-59783005D01*
X215635823Y-59783005D02*
X215705588Y-59863445D01*
X215705588Y-59863445D02*
X215731359Y-59925662D01*
X215731359Y-59925662D02*
X215738908Y-60031874D01*
X240665895Y-84452442D02*
X239917993Y-84762234D01*
X239917993Y-84762234D02*
X239811781Y-84754685D01*
X239811781Y-84754685D02*
X239749564Y-84728914D01*
X239749564Y-84728914D02*
X239669124Y-84659149D01*
X239669124Y-84659149D02*
X239596232Y-84483172D01*
X239596232Y-84483172D02*
X239603780Y-84376960D01*
X239603780Y-84376960D02*
X239629551Y-84314743D01*
X239629551Y-84314743D02*
X239699317Y-84234302D01*
X239699317Y-84234302D02*
X240447219Y-83924511D01*
X239140656Y-83383315D02*
X239359332Y-83911246D01*
X239249994Y-83647281D02*
X240173874Y-83264597D01*
X240173874Y-83264597D02*
X240078337Y-83407255D01*
X240078337Y-83407255D02*
X240026795Y-83531689D01*
X240026795Y-83531689D02*
X240019246Y-83637901D01*
X239428561Y-82336296D02*
X238812642Y-82591418D01*
X239871631Y-82410483D02*
X239302832Y-82903800D01*
X239302832Y-82903800D02*
X239065933Y-82331874D01*
D11*
%TO.C,R1*%
X185127500Y-61262742D02*
X185127500Y-61737258D01*
X186172500Y-61262742D02*
X186172500Y-61737258D01*
%TO.C,U13*%
X243865000Y-100000000D02*
X243865000Y-102600000D01*
X243865000Y-102600000D02*
X244215000Y-102600000D01*
X246875000Y-97510000D02*
X246875000Y-102600000D01*
X246875000Y-102600000D02*
X246535000Y-102600000D01*
X246876736Y-97900083D02*
G75*
G02*
X246875000Y-102100000I-101736J-2099917D01*
G01*
%TO.C,U12*%
X239530999Y-119188496D02*
X239854357Y-119322435D01*
X240525976Y-116786409D02*
X239530999Y-119188496D01*
X242311876Y-120340373D02*
X241997757Y-120210261D01*
X244259735Y-115637826D02*
X242311876Y-120340373D01*
X244112061Y-115998880D02*
G75*
G02*
X242503218Y-119878434I-897596J-1901138D01*
G01*
%TO.C,R2*%
X215477500Y-72062258D02*
X215477500Y-71587742D01*
X216522500Y-72062258D02*
X216522500Y-71587742D01*
%TO.C,J2*%
X204000000Y-63150000D02*
X204000000Y-64400000D01*
X204290000Y-63440000D02*
X204290000Y-78560000D01*
X204290000Y-78560000D02*
X210260000Y-78560000D01*
X204300000Y-63450000D02*
X204300000Y-65250000D01*
X204300000Y-65250000D02*
X205050000Y-65250000D01*
X204300000Y-66750000D02*
X204300000Y-75250000D01*
X204300000Y-75250000D02*
X205050000Y-75250000D01*
X204300000Y-76750000D02*
X204300000Y-78550000D01*
X204300000Y-78550000D02*
X205050000Y-78550000D01*
X205050000Y-63450000D02*
X204300000Y-63450000D01*
X205050000Y-65250000D02*
X205050000Y-63450000D01*
X205050000Y-66750000D02*
X204300000Y-66750000D01*
X205050000Y-75250000D02*
X205050000Y-66750000D01*
X205050000Y-76750000D02*
X204300000Y-76750000D01*
X205050000Y-78550000D02*
X205050000Y-76750000D01*
X205250000Y-63150000D02*
X204000000Y-63150000D01*
X206550000Y-64200000D02*
X206550000Y-63450000D01*
X206550000Y-77800000D02*
X206550000Y-78550000D01*
X209500000Y-64200000D02*
X206550000Y-64200000D01*
X209500000Y-71000000D02*
X209500000Y-64200000D01*
X209500000Y-71000000D02*
X209500000Y-77800000D01*
X209500000Y-77800000D02*
X206550000Y-77800000D01*
X210260000Y-63440000D02*
X204290000Y-63440000D01*
X210260000Y-78560000D02*
X210260000Y-63440000D01*
%TO.C,C9*%
X174990000Y-72359420D02*
X174990000Y-72640580D01*
X176010000Y-72359420D02*
X176010000Y-72640580D01*
%TO.C,U6*%
X155721131Y-115591632D02*
X156035250Y-115461520D01*
X157668989Y-120294179D02*
X155721131Y-115591632D01*
X158502008Y-114439755D02*
X158178650Y-114573694D01*
X159496985Y-116841842D02*
X158502008Y-114439755D01*
X157518107Y-119934454D02*
G75*
G02*
X155912472Y-116053571I-709610J1979004D01*
G01*
%TO.C,IC1*%
X178790000Y-70490000D02*
X178790000Y-71440000D01*
X178790000Y-79760000D02*
X178790000Y-80710000D01*
X178790000Y-80710000D02*
X179740000Y-80710000D01*
X179740000Y-70490000D02*
X178790000Y-70490000D01*
X188060000Y-80710000D02*
X189010000Y-80710000D01*
X189010000Y-70490000D02*
X188060000Y-70490000D01*
X189010000Y-71440000D02*
X189010000Y-70490000D01*
X189010000Y-80710000D02*
X189010000Y-79760000D01*
X189650000Y-71440000D02*
X189310000Y-70970000D01*
X189990000Y-70970000D01*
X189650000Y-71440000D01*
G36*
X189650000Y-71440000D02*
G01*
X189310000Y-70970000D01*
X189990000Y-70970000D01*
X189650000Y-71440000D01*
G37*
%TO.C,C8*%
X188640000Y-68459420D02*
X188640000Y-68740580D01*
X189660000Y-68459420D02*
X189660000Y-68740580D01*
%TO.C,U2*%
X179761254Y-57646028D02*
X184463801Y-55698170D01*
X183213591Y-59474024D02*
X185615678Y-58479047D01*
X184463801Y-55698170D02*
X184593913Y-56012289D01*
X185615678Y-58479047D02*
X185481739Y-58155689D01*
X180120979Y-57495146D02*
G75*
G02*
X184001862Y-55889511I1979004J709610D01*
G01*
%TO.C,C8*%
X179640580Y-82990000D02*
X179359420Y-82990000D01*
X179640580Y-84010000D02*
X179359420Y-84010000D01*
%TO.C,C2*%
X191490000Y-77859420D02*
X191490000Y-78140580D01*
X192510000Y-77859420D02*
X192510000Y-78140580D01*
%TO.C,C1*%
X193490000Y-77859420D02*
X193490000Y-78140580D01*
X194510000Y-77859420D02*
X194510000Y-78140580D01*
%TO.C,U1*%
X197510000Y-53125000D02*
X202600000Y-53125000D01*
X200000000Y-56135000D02*
X202600000Y-56135000D01*
X202600000Y-53125000D02*
X202600000Y-53465000D01*
X202600000Y-56135000D02*
X202600000Y-55785000D01*
X197900083Y-53123264D02*
G75*
G02*
X202100000Y-53125000I2099917J-101736D01*
G01*
%TO.C,C5*%
X186640580Y-82990000D02*
X186359420Y-82990000D01*
X186640580Y-84010000D02*
X186359420Y-84010000D01*
%TO.C,U3*%
X165051248Y-68657492D02*
X168650421Y-65058319D01*
X168650421Y-65058319D02*
X168890837Y-65298735D01*
X168940335Y-69025188D02*
X170778812Y-67186710D01*
X170778812Y-67186710D02*
X170531325Y-66939223D01*
X165325850Y-68380434D02*
G75*
G02*
X168296868Y-65411872I1556804J1412927D01*
G01*
%TO.C,U15*%
X231017239Y-68982761D02*
X232855716Y-70821239D01*
X231384934Y-65093674D02*
X234984108Y-68692847D01*
X232855716Y-70821239D02*
X233103204Y-70573751D01*
X234984108Y-68692847D02*
X234743691Y-68933264D01*
X231661992Y-65368277D02*
G75*
G02*
X234630554Y-68339294I1412927J-1556804D01*
G01*
%TO.C,C7*%
X182859420Y-82990000D02*
X183140580Y-82990000D01*
X182859420Y-84010000D02*
X183140580Y-84010000D01*
%TO.C,U8*%
X179715060Y-142334837D02*
X179845172Y-142020718D01*
X180866937Y-139553960D02*
X180732998Y-139877318D01*
X183269024Y-140548937D02*
X180866937Y-139553960D01*
X184417607Y-144282696D02*
X179715060Y-142334837D01*
X184056554Y-144135022D02*
G75*
G02*
X180177001Y-142526179I-1901138J897594D01*
G01*
%TO.C,U5*%
X153125000Y-97460000D02*
X153465000Y-97460000D01*
X153125000Y-102550000D02*
X153125000Y-97460000D01*
X156135000Y-97460000D02*
X155785000Y-97460000D01*
X156135000Y-100060000D02*
X156135000Y-97460000D01*
X153123264Y-102159917D02*
G75*
G02*
X153125000Y-97960000I101736J2099917D01*
G01*
%TO.C,U10*%
X214384322Y-141520953D02*
X214518261Y-141844311D01*
X215536199Y-144301830D02*
X215406087Y-143987711D01*
X216786409Y-140525976D02*
X214384322Y-141520953D01*
X220238746Y-142353972D02*
X215536199Y-144301830D01*
X219879021Y-142504854D02*
G75*
G02*
X215998138Y-144110489I-1979004J-709610D01*
G01*
%TO.C,C4*%
X193490000Y-71140580D02*
X193490000Y-70859420D01*
X194510000Y-71140580D02*
X194510000Y-70859420D01*
%TO.C,U7*%
X165015892Y-131307153D02*
X165256309Y-131066736D01*
X167144284Y-129178761D02*
X166896796Y-129426249D01*
X168615066Y-134906326D02*
X165015892Y-131307153D01*
X168982761Y-131017239D02*
X167144284Y-129178761D01*
X168338008Y-134631723D02*
G75*
G02*
X165369446Y-131660706I-1412927J1556804D01*
G01*
%TO.C,U16*%
X215637826Y-55740265D02*
X220340373Y-57688124D01*
X216786409Y-59474024D02*
X219188496Y-60469001D01*
X219188496Y-60469001D02*
X219322435Y-60145643D01*
X220340373Y-57688124D02*
X220210261Y-58002243D01*
X215998880Y-55887939D02*
G75*
G02*
X219878434Y-57496782I1901138J-897596D01*
G01*
%TO.C,C3*%
X191240000Y-71140580D02*
X191240000Y-70859420D01*
X192260000Y-71140580D02*
X192260000Y-70859420D01*
%TO.C,C6*%
X194990000Y-74634420D02*
X194990000Y-74915580D01*
X196010000Y-74634420D02*
X196010000Y-74915580D01*
%TO.C,U4*%
X155717304Y-84417607D02*
X157665163Y-79715060D01*
X157665163Y-79715060D02*
X157979282Y-79845172D01*
X159451063Y-83269024D02*
X160446040Y-80866937D01*
X160446040Y-80866937D02*
X160122682Y-80732998D01*
X155864978Y-84056554D02*
G75*
G02*
X157473821Y-80177001I897594J1901138D01*
G01*
%TO.C,U14*%
X240525976Y-83213591D02*
X241520953Y-85615678D01*
X241520953Y-85615678D02*
X241844311Y-85481739D01*
X242353972Y-79761254D02*
X244301830Y-84463801D01*
X244301830Y-84463801D02*
X243987711Y-84593913D01*
X242504854Y-80120979D02*
G75*
G02*
X244110489Y-84001862I709610J-1979004D01*
G01*
%TO.C,U11*%
X229178761Y-132855716D02*
X229426249Y-133103204D01*
X231017239Y-131017239D02*
X229178761Y-132855716D01*
X231307153Y-134984108D02*
X231066736Y-134743691D01*
X234906326Y-131384934D02*
X231307153Y-134984108D01*
X234631723Y-131661992D02*
G75*
G02*
X231660706Y-134630554I-1556804J-1412927D01*
G01*
%TO.C,U9*%
X197400000Y-143865000D02*
X197400000Y-144215000D01*
X197400000Y-146875000D02*
X197400000Y-146535000D01*
X200000000Y-143865000D02*
X197400000Y-143865000D01*
X202490000Y-146875000D02*
X197400000Y-146875000D01*
X202099917Y-146876736D02*
G75*
G02*
X197900000Y-146875000I-2099917J101736D01*
G01*
%TD*%
M02*
