M48
; DRILL file {KiCad 9.0.7} date 2026-03-08T19:29:40+0900
; FORMAT={-:-/ absolute / metric / decimal}
; #@! TF.CreationDate,2026-03-08T19:29:40+09:00
; #@! TF.GenerationSoftware,Kicad,Pcbnew,9.0.7
; #@! TF.FileFunction,Plated,1,2,PTH
FMAT,2
METRIC
; #@! TA.AperFunction,Plated,PTH,ViaDrill
T1C0.300
; #@! TA.AperFunction,Plated,PTH,ViaDrill
T2C0.400
; #@! TA.AperFunction,Plated,PTH,ComponentDrill
T3C0.900
; #@! TA.AperFunction,Plated,PTH,ComponentDrill
T4C0.950
; #@! TA.AperFunction,Plated,PTH,ComponentDrill
T5C1.000
; #@! TA.AperFunction,Plated,PTH,ComponentDrill
T6C1.300
%
G90
G05
T1
X153.975Y-104.6
X155.325Y-107.075
X155.325Y-108.85
X155.4Y-79.875
X156.525Y-77.7
X157.225Y-90.65
X157.825Y-89.725
X158.375Y-110.25
X159.1Y-73.1
X159.45Y-112.4
X159.5Y-122.05
X161.175Y-125.625
X162.325Y-68.575
X163.15Y-123.2
X163.55Y-128.375
X164.625Y-125.125
X164.775Y-91.25
X165.225Y-65.575
X166.375Y-79.3
X169.05Y-61.95
X170.375Y-108.375
X171.475Y-136.35
X171.7Y-90.45
X171.8Y-77.775
X173.9Y-138.525
X175.1Y-135.625
X176.45Y-57.75
X177.675Y-137.6
X178.7Y-68.32
X179.25Y-66.0
X179.4Y-103.225
X179.425Y-138.425
X179.84Y-72.07
X180.025Y-93.05
X180.75Y-76.175
X180.775Y-77.975
X181.8Y-74.075
X182.3Y-76.85
X183.4Y-112.4
X183.975Y-73.275
X184.675Y-74.103
X184.76Y-84.61
X185.275Y-74.752
X185.675Y-53.525
X185.875Y-75.35
X186.475Y-75.95
X187.03Y-79.24
X187.075Y-76.55
X187.175Y-147.375
X187.675Y-77.15
X188.325Y-142.075
X190.25Y-70.4
X190.3Y-67.025
X192.075Y-147.875
X193.34Y-76.01
X195.275Y-148.725
X195.34Y-78.15
X195.85Y-72.725
X196.55Y-75.55
X197.1Y-57.275
X198.05Y-119.675
X200.05Y-50.975
X201.65Y-149.05
X201.85Y-63.6
X203.873Y-142.444
X203.875Y-72.775
X204.725Y-57.025
X209.55Y-52.9
X212.425Y-141.675
X213.65Y-116.175
X213.85Y-74.4
X214.275Y-146.75
X214.725Y-77.425
X215.125Y-84.9
X218.825Y-107.7
X218.975Y-72.825
X219.625Y-76.65
X221.275Y-89.45
X221.375Y-94.975
X221.775Y-143.875
X222.525Y-137.8
X224.125Y-84.05
X225.0Y-58.15
X225.175Y-141.3
X227.2Y-92.75
X227.6Y-69.225
X227.7Y-140.35
X227.825Y-66.75
X228.05Y-106.725
X228.75Y-62.275
X228.925Y-71.3
X229.325Y-77.725
X230.075Y-89.05
X232.375Y-72.05
X232.575Y-77.925
X232.725Y-108.65
X235.45Y-81.975
X235.475Y-77.7
X236.325Y-72.2
X237.35Y-122.95
X238.1Y-69.175
X239.525Y-74.85
X240.825Y-122.2
X241.3Y-90.375
X242.675Y-76.4
X246.8Y-94.475
X246.975Y-86.65
T2
X153.075Y-89.65
X153.1Y-92.225
X153.45Y-98.825
X153.55Y-94.55
X153.675Y-85.8
X153.775Y-87.475
X154.625Y-84.625
X154.625Y-92.275
X156.05Y-82.7
X157.075Y-119.425
X160.5Y-71.825
X160.5Y-74.562
X183.875Y-144.675
X183.975Y-78.25
X188.64Y-81.28
X189.575Y-80.925
X200.05Y-80.15
X201.125Y-146.875
X203.975Y-77.5
X204.325Y-145.25
X209.936Y-147.975
X209.975Y-57.5
X209.975Y-69.025
T3
X154.625Y-97.52
X154.625Y-100.06
X154.625Y-102.6
X157.084Y-85.038
X157.13Y-115.073
X158.056Y-82.691
X158.102Y-117.42
X159.028Y-80.345
X159.074Y-119.766
X166.077Y-69.754
X166.119Y-130.289
X167.873Y-67.957
X167.915Y-132.085
X169.669Y-66.161
X169.711Y-133.881
X180.289Y-59.051
X180.345Y-140.972
X182.636Y-58.079
X182.691Y-141.944
X184.982Y-57.107
X185.038Y-142.916
X197.46Y-54.625
X197.46Y-145.375
X200.0Y-54.625
X200.0Y-145.375
X202.54Y-54.625
X202.54Y-145.375
X215.018Y-57.107
X215.018Y-142.893
X217.364Y-58.079
X217.364Y-141.921
X219.711Y-59.051
X219.711Y-140.949
X230.289Y-66.119
X230.289Y-133.881
X232.085Y-67.915
X232.085Y-132.085
X233.881Y-69.711
X233.881Y-130.289
X240.949Y-80.289
X240.949Y-119.711
X241.921Y-82.636
X241.921Y-117.364
X242.893Y-84.982
X242.893Y-115.018
X245.375Y-97.46
X245.375Y-100.0
X245.375Y-102.54
T4
X206.75Y-66.0
X206.75Y-68.5
X206.75Y-71.0
X206.75Y-73.5
X206.75Y-76.0
T5
X192.34Y-141.25
X194.88Y-141.25
X197.42Y-141.25
X199.96Y-141.25
X202.5Y-141.25
X205.04Y-141.25
X207.58Y-141.25
T6
X213.0Y-66.0
X213.0Y-71.0
X225.5Y-66.0
X225.5Y-71.0
M30
