%TF.GenerationSoftware,KiCad,Pcbnew,9.0.7*%
%TF.CreationDate,2026-03-08T19:29:38+09:00*%
%TF.ProjectId,IR board_1.0,49522062-6f61-4726-945f-312e302e6b69,rev?*%
%TF.SameCoordinates,Original*%
%TF.FileFunction,Paste,Bot*%
%TF.FilePolarity,Positive*%
%FSLAX46Y46*%
G04 Gerber Fmt 4.6, Leading zero omitted, Abs format (unit mm)*
G04 Created by KiCad (PCBNEW 9.0.7) date 2026-03-08 19:29:38*
%MOMM*%
%LPD*%
G01*
G04 APERTURE LIST*
G04 Aperture macros list*
%AMRoundRect*
0 Rectangle with rounded corners*
0 $1 Rounding radius*
0 $2 $3 $4 $5 $6 $7 $8 $9 X,Y pos of 4 corners*
0 Add a 4 corners polygon primitive as box body*
4,1,4,$2,$3,$4,$5,$6,$7,$8,$9,$2,$3,0*
0 Add four circle primitives for the rounded corners*
1,1,$1+$1,$2,$3*
1,1,$1+$1,$4,$5*
1,1,$1+$1,$6,$7*
1,1,$1+$1,$8,$9*
0 Add four rect primitives between the rounded corners*
20,1,$1+$1,$2,$3,$4,$5,0*
20,1,$1+$1,$4,$5,$6,$7,0*
20,1,$1+$1,$6,$7,$8,$9,0*
20,1,$1+$1,$8,$9,$2,$3,0*%
G04 Aperture macros list end*
%ADD10RoundRect,0.200000X-0.275000X0.200000X-0.275000X-0.200000X0.275000X-0.200000X0.275000X0.200000X0*%
%ADD11RoundRect,0.225000X-0.250000X0.225000X-0.250000X-0.225000X0.250000X-0.225000X0.250000X0.225000X0*%
%ADD12RoundRect,0.075000X0.700000X0.075000X-0.700000X0.075000X-0.700000X-0.075000X0.700000X-0.075000X0*%
%ADD13RoundRect,0.075000X0.075000X0.700000X-0.075000X0.700000X-0.075000X-0.700000X0.075000X-0.700000X0*%
%ADD14RoundRect,0.225000X0.250000X-0.225000X0.250000X0.225000X-0.250000X0.225000X-0.250000X-0.225000X0*%
%ADD15RoundRect,0.225000X0.225000X0.250000X-0.225000X0.250000X-0.225000X-0.250000X0.225000X-0.250000X0*%
%ADD16RoundRect,0.225000X-0.225000X-0.250000X0.225000X-0.250000X0.225000X0.250000X-0.225000X0.250000X0*%
G04 APERTURE END LIST*
D10*
%TO.C,R1*%
X185650000Y-60675000D03*
X185650000Y-62325000D03*
%TD*%
%TO.C,R2*%
X216000000Y-71000000D03*
X216000000Y-72650000D03*
%TD*%
D11*
%TO.C,C9*%
X175500000Y-71725000D03*
X175500000Y-73275000D03*
%TD*%
D12*
%TO.C,IC1*%
X189575000Y-71850000D03*
X189575000Y-72350000D03*
X189575000Y-72850000D03*
X189575000Y-73350000D03*
X189575000Y-73850000D03*
X189575000Y-74350000D03*
X189575000Y-74850000D03*
X189575000Y-75350000D03*
X189575000Y-75850000D03*
X189575000Y-76350000D03*
X189575000Y-76850000D03*
X189575000Y-77350000D03*
X189575000Y-77850000D03*
X189575000Y-78350000D03*
X189575000Y-78850000D03*
X189575000Y-79350000D03*
D13*
X187650000Y-81275000D03*
X187150000Y-81275000D03*
X186650000Y-81275000D03*
X186150000Y-81275000D03*
X185650000Y-81275000D03*
X185150000Y-81275000D03*
X184650000Y-81275000D03*
X184150000Y-81275000D03*
X183650000Y-81275000D03*
X183150000Y-81275000D03*
X182650000Y-81275000D03*
X182150000Y-81275000D03*
X181650000Y-81275000D03*
X181150000Y-81275000D03*
X180650000Y-81275000D03*
X180150000Y-81275000D03*
D12*
X178225000Y-79350000D03*
X178225000Y-78850000D03*
X178225000Y-78350000D03*
X178225000Y-77850000D03*
X178225000Y-77350000D03*
X178225000Y-76850000D03*
X178225000Y-76350000D03*
X178225000Y-75850000D03*
X178225000Y-75350000D03*
X178225000Y-74850000D03*
X178225000Y-74350000D03*
X178225000Y-73850000D03*
X178225000Y-73350000D03*
X178225000Y-72850000D03*
X178225000Y-72350000D03*
X178225000Y-71850000D03*
D13*
X180150000Y-69925000D03*
X180650000Y-69925000D03*
X181150000Y-69925000D03*
X181650000Y-69925000D03*
X182150000Y-69925000D03*
X182650000Y-69925000D03*
X183150000Y-69925000D03*
X183650000Y-69925000D03*
X184150000Y-69925000D03*
X184650000Y-69925000D03*
X185150000Y-69925000D03*
X185650000Y-69925000D03*
X186150000Y-69925000D03*
X186650000Y-69925000D03*
X187150000Y-69925000D03*
X187650000Y-69925000D03*
%TD*%
D14*
%TO.C,C8*%
X189150000Y-69375000D03*
X189150000Y-67825000D03*
%TD*%
D15*
%TO.C,C8*%
X180275000Y-83500000D03*
X178725000Y-83500000D03*
%TD*%
D11*
%TO.C,C2*%
X192000000Y-77225000D03*
X192000000Y-78775000D03*
%TD*%
%TO.C,C1*%
X194000000Y-77225000D03*
X194000000Y-78775000D03*
%TD*%
D15*
%TO.C,C5*%
X187275000Y-83500000D03*
X185725000Y-83500000D03*
%TD*%
D16*
%TO.C,C7*%
X182225000Y-83500000D03*
X183775000Y-83500000D03*
%TD*%
D14*
%TO.C,C4*%
X194000000Y-71775000D03*
X194000000Y-70225000D03*
%TD*%
%TO.C,C3*%
X191750000Y-71775000D03*
X191750000Y-70225000D03*
%TD*%
D11*
%TO.C,C6*%
X195500000Y-74000000D03*
X195500000Y-75550000D03*
%TD*%
M02*
