%TF.GenerationSoftware,KiCad,Pcbnew,9.0.7*%
%TF.CreationDate,2026-03-08T19:29:38+09:00*%
%TF.ProjectId,IR board_1.0,49522062-6f61-4726-945f-312e302e6b69,rev?*%
%TF.SameCoordinates,Original*%
%TF.FileFunction,Copper,L1,Top*%
%TF.FilePolarity,Positive*%
%FSLAX46Y46*%
G04 Gerber Fmt 4.6, Leading zero omitted, Abs format (unit mm)*
G04 Created by KiCad (PCBNEW 9.0.7) date 2026-03-08 19:29:38*
%MOMM*%
%LPD*%
G01*
G04 APERTURE LIST*
G04 Aperture macros list*
%AMRoundRect*
0 Rectangle with rounded corners*
0 $1 Rounding radius*
0 $2 $3 $4 $5 $6 $7 $8 $9 X,Y pos of 4 corners*
0 Add a 4 corners polygon primitive as box body*
4,1,4,$2,$3,$4,$5,$6,$7,$8,$9,$2,$3,0*
0 Add four circle primitives for the rounded corners*
1,1,$1+$1,$2,$3*
1,1,$1+$1,$4,$5*
1,1,$1+$1,$6,$7*
1,1,$1+$1,$8,$9*
0 Add four rect primitives between the rounded corners*
20,1,$1+$1,$2,$3,$4,$5,0*
20,1,$1+$1,$4,$5,$6,$7,0*
20,1,$1+$1,$6,$7,$8,$9,0*
20,1,$1+$1,$8,$9,$2,$3,0*%
G04 Aperture macros list end*
%TA.AperFunction,ComponentPad*%
%ADD10R,1.700000X1.700000*%
%TD*%
%TA.AperFunction,ComponentPad*%
%ADD11O,1.700000X1.700000*%
%TD*%
%TA.AperFunction,SMDPad,CuDef*%
%ADD12R,1.050000X0.650000*%
%TD*%
%TA.AperFunction,ComponentPad*%
%ADD13C,1.950000*%
%TD*%
%TA.AperFunction,ComponentPad*%
%ADD14RoundRect,0.250200X-0.649800X0.649800X-0.649800X-0.649800X0.649800X-0.649800X0.649800X0.649800X0*%
%TD*%
%TA.AperFunction,ComponentPad*%
%ADD15C,1.800000*%
%TD*%
%TA.AperFunction,ComponentPad*%
%ADD16RoundRect,0.250200X-0.351669X0.849005X-0.849005X-0.351669X0.351669X-0.849005X0.849005X0.351669X0*%
%TD*%
%TA.AperFunction,ComponentPad*%
%ADD17RoundRect,0.250000X-0.725000X0.600000X-0.725000X-0.600000X0.725000X-0.600000X0.725000X0.600000X0*%
%TD*%
%TA.AperFunction,ComponentPad*%
%ADD18O,1.950000X1.700000*%
%TD*%
%TA.AperFunction,ComponentPad*%
%ADD19RoundRect,0.250200X0.849005X-0.351669X0.351669X0.849005X-0.849005X0.351669X-0.351669X-0.849005X0*%
%TD*%
%TA.AperFunction,ComponentPad*%
%ADD20RoundRect,0.250200X-0.351669X-0.849005X0.849005X-0.351669X0.351669X0.849005X-0.849005X0.351669X0*%
%TD*%
%TA.AperFunction,ComponentPad*%
%ADD21RoundRect,0.250200X-0.649800X-0.649800X0.649800X-0.649800X0.649800X0.649800X-0.649800X0.649800X0*%
%TD*%
%TA.AperFunction,ComponentPad*%
%ADD22RoundRect,0.250200X0.000000X-0.918956X0.918956X0.000000X0.000000X0.918956X-0.918956X0.000000X0*%
%TD*%
%TA.AperFunction,ComponentPad*%
%ADD23RoundRect,0.250200X-0.918956X0.000000X0.000000X-0.918956X0.918956X0.000000X0.000000X0.918956X0*%
%TD*%
%TA.AperFunction,ComponentPad*%
%ADD24RoundRect,0.250200X0.849005X0.351669X-0.351669X0.849005X-0.849005X-0.351669X0.351669X-0.849005X0*%
%TD*%
%TA.AperFunction,ComponentPad*%
%ADD25RoundRect,0.250200X0.649800X-0.649800X0.649800X0.649800X-0.649800X0.649800X-0.649800X-0.649800X0*%
%TD*%
%TA.AperFunction,ComponentPad*%
%ADD26RoundRect,0.250200X0.351669X0.849005X-0.849005X0.351669X-0.351669X-0.849005X0.849005X-0.351669X0*%
%TD*%
%TA.AperFunction,ComponentPad*%
%ADD27RoundRect,0.250200X0.918956X0.000000X0.000000X0.918956X-0.918956X0.000000X0.000000X-0.918956X0*%
%TD*%
%TA.AperFunction,ComponentPad*%
%ADD28RoundRect,0.250200X-0.849005X-0.351669X0.351669X-0.849005X0.849005X0.351669X-0.351669X0.849005X0*%
%TD*%
%TA.AperFunction,ComponentPad*%
%ADD29RoundRect,0.250200X0.351669X-0.849005X0.849005X0.351669X-0.351669X0.849005X-0.849005X-0.351669X0*%
%TD*%
%TA.AperFunction,ComponentPad*%
%ADD30RoundRect,0.250200X-0.849005X0.351669X-0.351669X-0.849005X0.849005X-0.351669X0.351669X0.849005X0*%
%TD*%
%TA.AperFunction,ComponentPad*%
%ADD31RoundRect,0.250200X0.000000X0.918956X-0.918956X0.000000X0.000000X-0.918956X0.918956X0.000000X0*%
%TD*%
%TA.AperFunction,ComponentPad*%
%ADD32RoundRect,0.250200X0.649800X0.649800X-0.649800X0.649800X-0.649800X-0.649800X0.649800X-0.649800X0*%
%TD*%
%TA.AperFunction,ViaPad*%
%ADD33C,0.800000*%
%TD*%
%TA.AperFunction,ViaPad*%
%ADD34C,0.600000*%
%TD*%
%TA.AperFunction,Conductor*%
%ADD35C,0.500000*%
%TD*%
%TA.AperFunction,Conductor*%
%ADD36C,0.200000*%
%TD*%
G04 APERTURE END LIST*
D10*
%TO.P,J1,1,Pin_1*%
%TO.N,VCC*%
X207580000Y-141250000D03*
D11*
%TO.P,J1,2,Pin_2*%
%TO.N,SWCLK*%
X205040000Y-141250000D03*
%TO.P,J1,3,Pin_3*%
%TO.N,GND*%
X202500000Y-141250000D03*
%TO.P,J1,4,Pin_4*%
%TO.N,SWDIO*%
X199960000Y-141250000D03*
%TO.P,J1,5,Pin_5*%
%TO.N,NRST*%
X197420000Y-141250000D03*
%TO.P,J1,6,Pin_6*%
%TO.N,USART2_TX_PC*%
X194880000Y-141250000D03*
%TO.P,J1,7,Pin_7*%
%TO.N,USART2_RX_PC*%
X192340000Y-141250000D03*
%TD*%
D12*
%TO.P,SW1,1,1*%
%TO.N,GND*%
X197925000Y-73400000D03*
X202075000Y-73400000D03*
%TO.P,SW1,2,2*%
%TO.N,NRST*%
X197925000Y-75550000D03*
X202075000Y-75550000D03*
%TD*%
D13*
%TO.P,SW2,1,1*%
%TO.N,VCC*%
X213000000Y-66000000D03*
X225500000Y-66000000D03*
%TO.P,SW2,2,2*%
%TO.N,UI_SW*%
X213000000Y-71000000D03*
X225500000Y-71000000D03*
%TD*%
D14*
%TO.P,U13,1,OUT*%
%TO.N,IR_12*%
X245375000Y-97460000D03*
D15*
%TO.P,U13,2,GND*%
%TO.N,GND*%
X245375000Y-100000000D03*
%TO.P,U13,3,Vs*%
%TO.N,VCC*%
X245375000Y-102540000D03*
%TD*%
D16*
%TO.P,U12,1,OUT*%
%TO.N,IR_11*%
X242893050Y-115017607D03*
D15*
%TO.P,U12,2,GND*%
%TO.N,GND*%
X241921034Y-117364261D03*
%TO.P,U12,3,Vs*%
%TO.N,VCC*%
X240949018Y-119710915D03*
%TD*%
D17*
%TO.P,J2,1,Pin_1*%
%TO.N,USART1_TX_IR*%
X206750000Y-66000000D03*
D18*
%TO.P,J2,2,Pin_2*%
%TO.N,USART1_RX_IR*%
X206750000Y-68500000D03*
%TO.P,J2,3,Pin_3*%
%TO.N,UI_SW*%
X206750000Y-71000000D03*
%TO.P,J2,4,Pin_4*%
%TO.N,VCC*%
X206750000Y-73500000D03*
%TO.P,J2,5,Pin_5*%
%TO.N,GND*%
X206750000Y-76000000D03*
%TD*%
D19*
%TO.P,U6,1,OUT*%
%TO.N,IR_5*%
X159073943Y-119766348D03*
D15*
%TO.P,U6,2,GND*%
%TO.N,GND*%
X158101927Y-117419694D03*
%TO.P,U6,3,Vs*%
%TO.N,VCC*%
X157129911Y-115073040D03*
%TD*%
D20*
%TO.P,U2,1,OUT*%
%TO.N,IR_1*%
X180289085Y-59050982D03*
D15*
%TO.P,U2,2,GND*%
%TO.N,GND*%
X182635739Y-58078966D03*
%TO.P,U2,3,Vs*%
%TO.N,VCC*%
X184982393Y-57106950D03*
%TD*%
D21*
%TO.P,U1,1,OUT*%
%TO.N,IR_0*%
X197460000Y-54625000D03*
D15*
%TO.P,U1,2,GND*%
%TO.N,GND*%
X200000000Y-54625000D03*
%TO.P,U1,3,Vs*%
%TO.N,VCC*%
X202540000Y-54625000D03*
%TD*%
D22*
%TO.P,U3,1,OUT*%
%TO.N,IR_2*%
X166076552Y-69753508D03*
D15*
%TO.P,U3,2,GND*%
%TO.N,GND*%
X167872604Y-67957456D03*
%TO.P,U3,3,Vs*%
%TO.N,VCC*%
X169668655Y-66161405D03*
%TD*%
D23*
%TO.P,U15,1,OUT*%
%TO.N,IR_14*%
X230288919Y-66118979D03*
D15*
%TO.P,U15,2,GND*%
%TO.N,GND*%
X232084970Y-67915030D03*
%TO.P,U15,3,Vs*%
%TO.N,VCC*%
X233881021Y-69711081D03*
%TD*%
D24*
%TO.P,U8,1,OUT*%
%TO.N,IR_7*%
X185037826Y-142916011D03*
D15*
%TO.P,U8,2,GND*%
%TO.N,GND*%
X182691172Y-141943995D03*
%TO.P,U8,3,Vs*%
%TO.N,VCC*%
X180344518Y-140971979D03*
%TD*%
D25*
%TO.P,U5,1,OUT*%
%TO.N,IR_4*%
X154625000Y-102600000D03*
D15*
%TO.P,U5,2,GND*%
%TO.N,GND*%
X154625000Y-100060000D03*
%TO.P,U5,3,Vs*%
%TO.N,VCC*%
X154625000Y-97520000D03*
%TD*%
D26*
%TO.P,U10,1,OUT*%
%TO.N,IR_9*%
X219710915Y-140949018D03*
D15*
%TO.P,U10,2,GND*%
%TO.N,GND*%
X217364261Y-141921034D03*
%TO.P,U10,3,Vs*%
%TO.N,VCC*%
X215017607Y-142893050D03*
%TD*%
D27*
%TO.P,U7,1,OUT*%
%TO.N,IR_6*%
X169711081Y-133881021D03*
D15*
%TO.P,U7,2,GND*%
%TO.N,GND*%
X167915030Y-132084970D03*
%TO.P,U7,3,Vs*%
%TO.N,VCC*%
X166118979Y-130288919D03*
%TD*%
D28*
%TO.P,U16,1,OUT*%
%TO.N,IR_15*%
X215017607Y-57106950D03*
D15*
%TO.P,U16,2,GND*%
%TO.N,GND*%
X217364261Y-58078966D03*
%TO.P,U16,3,Vs*%
%TO.N,VCC*%
X219710915Y-59050982D03*
%TD*%
D29*
%TO.P,U4,1,OUT*%
%TO.N,IR_3*%
X157083989Y-85037826D03*
D15*
%TO.P,U4,2,GND*%
%TO.N,GND*%
X158056005Y-82691172D03*
%TO.P,U4,3,Vs*%
%TO.N,VCC*%
X159028021Y-80344518D03*
%TD*%
D30*
%TO.P,U14,1,OUT*%
%TO.N,IR_13*%
X240949018Y-80289085D03*
D15*
%TO.P,U14,2,GND*%
%TO.N,GND*%
X241921034Y-82635739D03*
%TO.P,U14,3,Vs*%
%TO.N,VCC*%
X242893050Y-84982393D03*
%TD*%
D31*
%TO.P,U11,1,OUT*%
%TO.N,IR_10*%
X233881021Y-130288919D03*
D15*
%TO.P,U11,2,GND*%
%TO.N,GND*%
X232084970Y-132084970D03*
%TO.P,U11,3,Vs*%
%TO.N,VCC*%
X230288919Y-133881021D03*
%TD*%
D32*
%TO.P,U9,1,OUT*%
%TO.N,IR_8*%
X202540000Y-145375000D03*
D15*
%TO.P,U9,2,GND*%
%TO.N,GND*%
X200000000Y-145375000D03*
%TO.P,U9,3,Vs*%
%TO.N,VCC*%
X197460000Y-145375000D03*
%TD*%
D33*
%TO.N,VCC*%
X160500000Y-74561718D03*
X209975000Y-69025000D03*
X154625000Y-92275000D03*
X160500000Y-71825000D03*
X209975000Y-57500000D03*
X154625000Y-84625000D03*
X209935657Y-147975000D03*
D34*
%TO.N,GND*%
X218975000Y-72825000D03*
X213850000Y-74400000D03*
X155325000Y-108850000D03*
X221775000Y-143875000D03*
X158375000Y-110250000D03*
X228925000Y-71300000D03*
X200050000Y-50975000D03*
X215125000Y-84900000D03*
X195275000Y-148725000D03*
D33*
X204325000Y-145250000D03*
D34*
X224125000Y-84050000D03*
X242675000Y-76400000D03*
X153975000Y-104600000D03*
X225000000Y-58150000D03*
X155400000Y-79875000D03*
X219625000Y-76650000D03*
X232375000Y-72050000D03*
D33*
X153550000Y-94550000D03*
D34*
X237350000Y-122950000D03*
X161175000Y-125625000D03*
X165225000Y-65575000D03*
X184760000Y-84610000D03*
X204725000Y-57025000D03*
X227600000Y-69225000D03*
X181800000Y-74075000D03*
X230075000Y-89050000D03*
X179425000Y-138425000D03*
X155325000Y-107075000D03*
X203875000Y-72775000D03*
X228750000Y-62275000D03*
X159500000Y-122050000D03*
X190250000Y-70400000D03*
X185675000Y-53525000D03*
X164775000Y-91250000D03*
X180775000Y-77975000D03*
X240825000Y-122200000D03*
X229325000Y-77725000D03*
X159100000Y-73100000D03*
X176450000Y-57750000D03*
X214725000Y-77425000D03*
X246975000Y-86650000D03*
X227700000Y-140350000D03*
X221275000Y-89450000D03*
X188325000Y-142075000D03*
X209550000Y-52900000D03*
X225175000Y-141300000D03*
X214275000Y-146750000D03*
X179840000Y-72070000D03*
X190300000Y-67025000D03*
X201650000Y-149050000D03*
X235450000Y-81975000D03*
X236325000Y-72200000D03*
X187175000Y-147375000D03*
X232575000Y-77925000D03*
X171475000Y-136350000D03*
X177675000Y-137600000D03*
X238100000Y-69175000D03*
X239525000Y-74850000D03*
D33*
X153450000Y-98825000D03*
X201125000Y-146875000D03*
D34*
X162325000Y-68575000D03*
X179250000Y-66000000D03*
X195850000Y-72725000D03*
X183400000Y-112400000D03*
D33*
X156050000Y-82700000D03*
X183875000Y-144675000D03*
D34*
X173900000Y-138525000D03*
X180025000Y-93050000D03*
X164625000Y-125125000D03*
X175100000Y-135625000D03*
D33*
X157075000Y-119425000D03*
D34*
X213650000Y-116175000D03*
X221375000Y-94975000D03*
X170375000Y-108375000D03*
X187030000Y-79240000D03*
X192075000Y-147875000D03*
X212425000Y-141675000D03*
X218825000Y-107700000D03*
X203872623Y-142444152D03*
X222525000Y-137800000D03*
X235475000Y-77700000D03*
X163150000Y-123200000D03*
X159450000Y-112400000D03*
X246800000Y-94475000D03*
X197100000Y-57275000D03*
X171700000Y-90450000D03*
X171800000Y-77775000D03*
X166375000Y-79300000D03*
X227200000Y-92750000D03*
X227825000Y-66750000D03*
X179400000Y-103225000D03*
X241300000Y-90375000D03*
X195340000Y-78150000D03*
X163550000Y-128375000D03*
X232725000Y-108650000D03*
D33*
X153100000Y-92225000D03*
D34*
X198050000Y-119675000D03*
D33*
X153675000Y-85800000D03*
D34*
X169050000Y-61950000D03*
X201850000Y-63600000D03*
X193340000Y-76010000D03*
X228050000Y-106725000D03*
X156525000Y-77700000D03*
%TO.N,NRST*%
X196550000Y-75550000D03*
D33*
X203975000Y-77500000D03*
%TO.N,SWDIO*%
X200050000Y-80150000D03*
X183975000Y-78250000D03*
%TO.N,USART2_RX_PC*%
X153775000Y-87475000D03*
X188640000Y-81279655D03*
%TO.N,USART2_TX_PC*%
X153075000Y-89650000D03*
X189575000Y-80925000D03*
D34*
%TO.N,SWCLK*%
X178700000Y-68320000D03*
%TO.N,USART1_RX_IR*%
X182300000Y-76850000D03*
%TO.N,USART1_TX_IR*%
X180750000Y-76175000D03*
%TO.N,IR_8*%
X157825000Y-89725000D03*
%TO.N,IR_12*%
X185875000Y-75350000D03*
%TO.N,IR_9*%
X187675000Y-77150000D03*
%TO.N,IR_13*%
X185275000Y-74752071D03*
%TO.N,IR_10*%
X187075000Y-76550000D03*
%TO.N,IR_14*%
X184675000Y-74102507D03*
%TO.N,IR_7*%
X157225000Y-90650000D03*
%TO.N,IR_15*%
X183975000Y-73275000D03*
%TO.N,IR_11*%
X186475000Y-75950000D03*
%TD*%
D35*
%TO.N,VCC*%
X168700000Y-136250000D02*
X167600000Y-136250000D01*
X204575000Y-52100000D02*
X189989343Y-52100000D01*
X179847539Y-140475000D02*
X172925000Y-140475000D01*
X172925000Y-140475000D02*
X168700000Y-136250000D01*
X209975000Y-69025000D02*
X209975000Y-70275000D01*
X169668655Y-62656345D02*
X160500000Y-71825000D01*
X152550000Y-110493129D02*
X155403436Y-113346564D01*
X240949018Y-127350947D02*
X240844679Y-127505321D01*
X248200000Y-109925000D02*
X248200000Y-99900000D01*
X209935657Y-147975000D02*
X213060657Y-144850000D01*
X187982171Y-54107171D02*
X184982393Y-57106950D01*
X233881021Y-65501726D02*
X227904295Y-59525000D01*
X227904295Y-59525000D02*
X224200000Y-59525000D01*
X235817102Y-67437807D02*
X235817102Y-68667102D01*
X211180000Y-144850000D02*
X207580000Y-141250000D01*
X245275000Y-112850000D02*
X248200000Y-109925000D01*
X152550000Y-94347918D02*
X152550000Y-110493129D01*
X234468979Y-133931021D02*
X231075000Y-137325000D01*
X231075000Y-137325000D02*
X226575000Y-137325000D01*
X219710915Y-56810915D02*
X219710915Y-59050982D01*
X248200000Y-100750000D02*
X248200000Y-99900000D01*
X226575000Y-137325000D02*
X219050000Y-144850000D01*
X233881021Y-65501726D02*
X233881021Y-69711081D01*
X217100000Y-54200000D02*
X213275000Y-54200000D01*
X157129911Y-115073040D02*
X155403436Y-113346564D01*
X155403436Y-119628436D02*
X155403436Y-113346564D01*
X204575000Y-52100000D02*
X207550000Y-55075000D01*
X224200000Y-59525000D02*
X220725000Y-56050000D01*
X235817102Y-68667102D02*
X241150000Y-74000000D01*
X244775000Y-79950000D02*
X244775000Y-86864344D01*
X166118979Y-130288919D02*
X164113919Y-130288919D01*
X218950000Y-56050000D02*
X219710915Y-56810915D01*
X241150000Y-76325000D02*
X244775000Y-79950000D01*
X154625000Y-84625000D02*
X154625000Y-82825000D01*
X248200000Y-99900000D02*
X248200000Y-90289344D01*
X218950000Y-56050000D02*
X217100000Y-54200000D01*
X207550000Y-55075000D02*
X207100000Y-54625000D01*
X245375000Y-102540000D02*
X246410000Y-102540000D01*
X209975000Y-70275000D02*
X206750000Y-73500000D01*
X213060657Y-144850000D02*
X219050000Y-144850000D01*
X163425000Y-132075000D02*
X163425000Y-129600000D01*
X167600000Y-136250000D02*
X163425000Y-132075000D01*
X216974557Y-144850000D02*
X215017607Y-142893050D01*
X153397918Y-93500000D02*
X152550000Y-94347918D01*
X246410000Y-102540000D02*
X248200000Y-100750000D01*
X159311718Y-75750000D02*
X159311718Y-80060821D01*
X163425000Y-129600000D02*
X162625000Y-128800000D01*
X158548591Y-124723591D02*
X158548591Y-122773591D01*
X180558930Y-55116070D02*
X176825000Y-58850000D01*
X244775000Y-86864344D02*
X245592828Y-87682172D01*
X187982171Y-54107171D02*
X186973272Y-55116070D01*
X233881021Y-65501726D02*
X235817102Y-67437807D01*
X243950000Y-121200000D02*
X240949018Y-124200982D01*
X186973272Y-55116070D02*
X180558930Y-55116070D01*
X219050000Y-144850000D02*
X216974557Y-144850000D01*
X245592828Y-87682172D02*
X242893050Y-84982393D01*
X233675000Y-134675000D02*
X234468979Y-133881021D01*
X173475000Y-58850000D02*
X169668655Y-62656345D01*
X213060658Y-144850000D02*
X211180000Y-144850000D01*
X176825000Y-58850000D02*
X173475000Y-58850000D01*
X154625000Y-82825000D02*
X159311718Y-78138282D01*
X160500000Y-74561718D02*
X159311718Y-75750000D01*
X231082898Y-134675000D02*
X233675000Y-134675000D01*
X154625000Y-97520000D02*
X154625000Y-92275000D01*
X241150000Y-74000000D02*
X241150000Y-76325000D01*
X158548591Y-122773591D02*
X155403436Y-119628436D01*
X240844679Y-127505321D02*
X234468979Y-133881021D01*
X220725000Y-56050000D02*
X218950000Y-56050000D01*
X180344518Y-140971979D02*
X179847539Y-140475000D01*
X207100000Y-54625000D02*
X202540000Y-54625000D01*
X159311718Y-78138282D02*
X159311718Y-75750000D01*
X169668655Y-62656345D02*
X169668655Y-66161405D01*
X213275000Y-54200000D02*
X209975000Y-57500000D01*
X162625000Y-128800000D02*
X158548591Y-124723591D01*
X153400000Y-93500000D02*
X153397918Y-93500000D01*
X154625000Y-92275000D02*
X153400000Y-93500000D01*
X159311718Y-80060821D02*
X159028021Y-80344518D01*
X243950000Y-118825000D02*
X243950000Y-121200000D01*
X248200000Y-90289344D02*
X245592828Y-87682172D01*
X189989343Y-52100000D02*
X187982171Y-54107171D01*
X243950000Y-118825000D02*
X243064085Y-119710915D01*
X207550000Y-55075000D02*
X209975000Y-57500000D01*
X230288919Y-133881021D02*
X231082898Y-134675000D01*
X240949018Y-124200982D02*
X240949018Y-127350947D01*
X209975000Y-69025000D02*
X213000000Y-66000000D01*
X245275000Y-117500000D02*
X245275000Y-112850000D01*
X164113919Y-130288919D02*
X162625000Y-128800000D01*
X243064085Y-119710915D02*
X240949018Y-119710915D01*
X234468979Y-133881021D02*
X234468979Y-133931021D01*
X243950000Y-118825000D02*
X245275000Y-117500000D01*
D36*
%TO.N,GND*%
X203872623Y-142444152D02*
X203694152Y-142444152D01*
X153450000Y-98885000D02*
X154625000Y-100060000D01*
X203872623Y-142444152D02*
X203872623Y-144797623D01*
X200000000Y-145750000D02*
X201125000Y-146875000D01*
X153075000Y-88550000D02*
X152375000Y-89250000D01*
X200000000Y-145375000D02*
X200000000Y-145750000D01*
X203872623Y-144797623D02*
X204325000Y-145250000D01*
X153675000Y-85800000D02*
X153075000Y-86400000D01*
X153075000Y-86400000D02*
X153075000Y-88550000D01*
X203694152Y-142444152D02*
X202500000Y-141250000D01*
X153450000Y-98825000D02*
X153450000Y-98885000D01*
X152375000Y-89250000D02*
X152375000Y-91500000D01*
X152375000Y-91500000D02*
X153100000Y-92225000D01*
%TO.N,NRST*%
X203975000Y-77500000D02*
X203975000Y-77450000D01*
X202075000Y-75550000D02*
X197925000Y-75550000D01*
X203975000Y-77450000D02*
X202075000Y-75550000D01*
X196550000Y-75550000D02*
X197925000Y-75550000D01*
%TO.N,SWDIO*%
X185875000Y-80150000D02*
X183975000Y-78250000D01*
X200050000Y-80150000D02*
X185875000Y-80150000D01*
%TO.N,USART2_RX_PC*%
X154475000Y-86775000D02*
X158348586Y-86775000D01*
X169125000Y-82725000D02*
X173137500Y-86737500D01*
X158349586Y-86774000D02*
X158351000Y-86774000D01*
X188775000Y-83437900D02*
X188775000Y-81414655D01*
X162400000Y-82725000D02*
X169125000Y-82725000D01*
X153775000Y-87475000D02*
X154475000Y-86775000D01*
X185475400Y-86737500D02*
X188775000Y-83437900D01*
X158351000Y-86774000D02*
X162400000Y-82725000D01*
X158348586Y-86775000D02*
X158349586Y-86774000D01*
X188775000Y-81414655D02*
X188640000Y-81279655D01*
X173137500Y-86737500D02*
X185475400Y-86737500D01*
%TO.N,USART2_TX_PC*%
X158515686Y-87175000D02*
X185605000Y-87175000D01*
X185605000Y-87175000D02*
X189575000Y-83205000D01*
X153075000Y-89650000D02*
X154550000Y-88175000D01*
X189575000Y-83205000D02*
X189575000Y-80925000D01*
X154550000Y-88175000D02*
X157515686Y-88175000D01*
X157515686Y-88175000D02*
X158515686Y-87175000D01*
%TO.N,SWCLK*%
X197225000Y-148150000D02*
X197400000Y-148325000D01*
X194750000Y-145675000D02*
X182300000Y-145675000D01*
X197225000Y-148150000D02*
X197300000Y-148225000D01*
X152935351Y-85014649D02*
X153895852Y-84054148D01*
X203100000Y-148325000D02*
X205040000Y-146385000D01*
X162875000Y-129827818D02*
X157998591Y-124951409D01*
X152116347Y-87880260D02*
X152675000Y-87321607D01*
X154853436Y-114261712D02*
X151924550Y-111332826D01*
X153895852Y-84054148D02*
X153895852Y-82279148D01*
X157998591Y-124951409D02*
X157998591Y-123001409D01*
X160700000Y-72850000D02*
X172710000Y-72850000D01*
X162875000Y-132302818D02*
X162875000Y-129827818D01*
X153895852Y-82279148D02*
X157950000Y-78225000D01*
X172710000Y-72850000D02*
X175150000Y-70410000D01*
X154853436Y-119856254D02*
X154853436Y-114261712D01*
X168472182Y-136800000D02*
X167372182Y-136800000D01*
X151924550Y-111332826D02*
X151924550Y-106275450D01*
X151975000Y-89084314D02*
X152116347Y-88942967D01*
X197400000Y-148325000D02*
X203100000Y-148325000D01*
X151975000Y-106225000D02*
X151975000Y-89084314D01*
X197225000Y-148150000D02*
X194750000Y-145675000D01*
X172697182Y-141025000D02*
X168472182Y-136800000D01*
X182300000Y-145675000D02*
X177650000Y-141025000D01*
X157950000Y-75600000D02*
X160700000Y-72850000D01*
X177240000Y-68320000D02*
X178700000Y-68320000D01*
X167372182Y-136800000D02*
X162875000Y-132302818D01*
X152675000Y-86234314D02*
X152935351Y-85973963D01*
X152935351Y-85973963D02*
X152935351Y-85014649D01*
X157998591Y-123001409D02*
X154853436Y-119856254D01*
X175150000Y-70410000D02*
X177240000Y-68320000D01*
X152116347Y-88942967D02*
X152116347Y-87880260D01*
X152675000Y-87321607D02*
X152675000Y-86234314D01*
X151924550Y-106275450D02*
X151975000Y-106225000D01*
X177650000Y-141025000D02*
X172697182Y-141025000D01*
X157950000Y-78225000D02*
X157950000Y-75600000D01*
X205040000Y-146385000D02*
X205040000Y-141250000D01*
%TO.N,USART1_RX_IR*%
X184609314Y-76850000D02*
X185909314Y-78150000D01*
X195515686Y-71500000D02*
X201815686Y-71500000D01*
X182300000Y-76850000D02*
X184609314Y-76850000D01*
X185909314Y-78150000D02*
X188865686Y-78150000D01*
X204815686Y-68500000D02*
X206750000Y-68500000D01*
X188865686Y-78150000D02*
X195515686Y-71500000D01*
X201815686Y-71500000D02*
X204815686Y-68500000D01*
%TO.N,USART1_TX_IR*%
X180750000Y-76175000D02*
X184500000Y-76175000D01*
X188700000Y-77750000D02*
X195350000Y-71100000D01*
X201650000Y-71100000D02*
X206750000Y-66000000D01*
X195350000Y-71100000D02*
X201650000Y-71100000D01*
X186075000Y-77750000D02*
X188700000Y-77750000D01*
X184500000Y-76175000D02*
X186075000Y-77750000D01*
%TO.N,IR_8*%
X157825000Y-90898529D02*
X156525000Y-92198529D01*
X185004890Y-140707540D02*
X187822350Y-143525000D01*
X201475000Y-143525000D02*
X202540000Y-144590000D01*
X183717459Y-140707540D02*
X185004890Y-140707540D01*
X156525000Y-111634314D02*
X159050000Y-114159314D01*
X159050000Y-114159314D02*
X159050000Y-115959314D01*
X157825000Y-89725000D02*
X157825000Y-90898529D01*
X156525000Y-92198529D02*
X156525000Y-111634314D01*
X159050000Y-115959314D02*
X160550000Y-117459314D01*
X187822350Y-143525000D02*
X201475000Y-143525000D01*
X160550000Y-117459314D02*
X160550000Y-118359314D01*
X202540000Y-144590000D02*
X202540000Y-145375000D01*
X181982843Y-139717157D02*
X182727076Y-139717157D01*
X161350000Y-119159314D02*
X161350000Y-122784314D01*
X177740686Y-139175000D02*
X181440686Y-139175000D01*
X161350000Y-122784314D02*
X177740686Y-139175000D01*
X182727076Y-139717157D02*
X183717459Y-140707540D01*
X181440686Y-139175000D02*
X181982843Y-139717157D01*
X160550000Y-118359314D02*
X161350000Y-119159314D01*
%TO.N,IR_12*%
X239225000Y-83700000D02*
X245375000Y-89850000D01*
X236734314Y-74450000D02*
X239225000Y-76940686D01*
X223325000Y-72850000D02*
X224925000Y-74450000D01*
X224925000Y-74450000D02*
X236734314Y-74450000D01*
X239225000Y-76940686D02*
X239225000Y-83700000D01*
X245375000Y-89850000D02*
X245375000Y-97460000D01*
X211734314Y-60475000D02*
X212434314Y-61175000D01*
X185875000Y-75350000D02*
X185875000Y-68652942D01*
X223325000Y-64325000D02*
X223325000Y-72850000D01*
X194052942Y-60475000D02*
X211734314Y-60475000D01*
X212434314Y-61175000D02*
X220175000Y-61175000D01*
X220175000Y-61175000D02*
X223325000Y-64325000D01*
X185875000Y-68652942D02*
X194052942Y-60475000D01*
%TO.N,IR_9*%
X211937256Y-62375000D02*
X219677942Y-62375000D01*
X239011474Y-118622840D02*
X239011474Y-123461409D01*
X221523865Y-140949018D02*
X219710915Y-140949018D01*
X243250000Y-90100000D02*
X243250000Y-111240810D01*
X194550000Y-61675000D02*
X211237256Y-61675000D01*
X238025000Y-77437744D02*
X238025000Y-84875000D01*
X240900000Y-113590810D02*
X240900000Y-115734314D01*
X238025000Y-84875000D02*
X243250000Y-90100000D01*
X240321034Y-116313280D02*
X240321034Y-117313280D01*
X240321034Y-117313280D02*
X239011474Y-118622840D01*
X222125000Y-73347058D02*
X224427942Y-75650000D01*
X240900000Y-115734314D02*
X240321034Y-116313280D01*
X219677942Y-62375000D02*
X222125000Y-64822058D01*
X187675000Y-68550000D02*
X194550000Y-61675000D01*
X211237256Y-61675000D02*
X211937256Y-62375000D01*
X222125000Y-64822058D02*
X222125000Y-73347058D01*
X236237256Y-75650000D02*
X238025000Y-77437744D01*
X239011474Y-123461409D02*
X221523865Y-140949018D01*
X224427942Y-75650000D02*
X236237256Y-75650000D01*
X243250000Y-111240810D02*
X240900000Y-113590810D01*
X187675000Y-77150000D02*
X187675000Y-68550000D01*
%TO.N,IR_13*%
X212600000Y-60775000D02*
X211900000Y-60075000D01*
X220340686Y-60775000D02*
X212600000Y-60775000D01*
X236900000Y-74050000D02*
X225090686Y-74050000D01*
X240949018Y-80289085D02*
X240949018Y-78099018D01*
X240949018Y-78099018D02*
X236900000Y-74050000D01*
X223725000Y-72684314D02*
X223725000Y-64159314D01*
X193887256Y-60075000D02*
X185275000Y-68687256D01*
X211900000Y-60075000D02*
X193887256Y-60075000D01*
X225090686Y-74050000D02*
X223725000Y-72684314D01*
X185275000Y-68687256D02*
X185275000Y-72500000D01*
X185275000Y-74752071D02*
X185275000Y-72500000D01*
X223725000Y-64159314D02*
X220340686Y-60775000D01*
%TO.N,IR_10*%
X238425000Y-84031372D02*
X243650000Y-89256372D01*
X224593628Y-75250000D02*
X236402942Y-75250000D01*
X187075000Y-76550000D02*
X187075000Y-68584314D01*
X219843628Y-61975000D02*
X222525000Y-64656372D01*
X187075000Y-68584314D02*
X194384314Y-61275000D01*
X212102942Y-61975000D02*
X219843628Y-61975000D01*
X222525000Y-64656372D02*
X222525000Y-73181372D01*
X238425000Y-77272058D02*
X238425000Y-84031372D01*
X241300000Y-113756496D02*
X241300000Y-115900000D01*
X194384314Y-61275000D02*
X211402942Y-61275000D01*
X239625000Y-124544940D02*
X233881021Y-130288919D01*
X222525000Y-73181372D02*
X224593628Y-75250000D01*
X243650000Y-89256372D02*
X243650000Y-111406496D01*
X239625000Y-118575000D02*
X239625000Y-124544940D01*
X211402942Y-61275000D02*
X212102942Y-61975000D01*
X236402942Y-75250000D02*
X238425000Y-77272058D01*
X240721034Y-116478966D02*
X240721034Y-117478966D01*
X240721034Y-117478966D02*
X239625000Y-118575000D01*
X241300000Y-115900000D02*
X240721034Y-116478966D01*
X243650000Y-111406496D02*
X241300000Y-113756496D01*
%TO.N,IR_14*%
X224419940Y-60250000D02*
X230288919Y-66118979D01*
X219213858Y-60250982D02*
X220207972Y-60250982D01*
X184575000Y-68821570D02*
X193721570Y-59675000D01*
X220207972Y-60250982D02*
X220208954Y-60250000D01*
X184675000Y-74102507D02*
X184575000Y-74002507D01*
X184575000Y-74002507D02*
X184575000Y-68821570D01*
X220208954Y-60250000D02*
X224419940Y-60250000D01*
X212640686Y-60250000D02*
X219212876Y-60250000D01*
X193721570Y-59675000D02*
X212065686Y-59675000D01*
X212065686Y-59675000D02*
X212640686Y-60250000D01*
X219212876Y-60250000D02*
X219213858Y-60250982D01*
%TO.N,IR_7*%
X160950000Y-122950000D02*
X177575000Y-139575000D01*
X181900000Y-140200000D02*
X182644234Y-140200000D01*
X182644234Y-140200000D02*
X185037826Y-142593592D01*
X156125000Y-91750000D02*
X156125000Y-111800000D01*
X177575000Y-139575000D02*
X181275000Y-139575000D01*
X160950000Y-119325000D02*
X160950000Y-122950000D01*
X156125000Y-111800000D02*
X158650000Y-114325000D01*
X159825000Y-117300000D02*
X159825000Y-118200000D01*
X185037826Y-142593592D02*
X185037826Y-142916011D01*
X158650000Y-114325000D02*
X158650000Y-116125000D01*
X158650000Y-116125000D02*
X159825000Y-117300000D01*
X159825000Y-118200000D02*
X160950000Y-119325000D01*
X157225000Y-90650000D02*
X156125000Y-91750000D01*
X181275000Y-139575000D02*
X181900000Y-140200000D01*
%TO.N,IR_15*%
X183975000Y-68855884D02*
X193555884Y-59275000D01*
X212849557Y-59275000D02*
X215017607Y-57106950D01*
X183975000Y-73275000D02*
X183975000Y-68855884D01*
X193555884Y-59275000D02*
X212849557Y-59275000D01*
%TO.N,IR_11*%
X186475000Y-68618628D02*
X194218628Y-60875000D01*
X222925000Y-64490686D02*
X222925000Y-73015686D01*
X244050000Y-89090686D02*
X244050000Y-111572182D01*
X244050000Y-111572182D02*
X242893050Y-112729132D01*
X242893050Y-112729132D02*
X242893050Y-115017607D01*
X222925000Y-73015686D02*
X224759314Y-74850000D01*
X238825000Y-83865686D02*
X244050000Y-89090686D01*
X236568628Y-74850000D02*
X238825000Y-77106372D01*
X224759314Y-74850000D02*
X236568628Y-74850000D01*
X194218628Y-60875000D02*
X211568628Y-60875000D01*
X238825000Y-77106372D02*
X238825000Y-83865686D01*
X186475000Y-75950000D02*
X186475000Y-68618628D01*
X220009314Y-61575000D02*
X222925000Y-64490686D01*
X212268628Y-61575000D02*
X220009314Y-61575000D01*
X211568628Y-60875000D02*
X212268628Y-61575000D01*
%TD*%
%TA.AperFunction,Conductor*%
%TO.N,GND*%
G36*
X206164340Y-142138068D02*
G01*
X206220274Y-142179939D01*
X206237189Y-142210917D01*
X206286202Y-142342328D01*
X206286206Y-142342335D01*
X206372452Y-142457544D01*
X206372455Y-142457547D01*
X206487664Y-142543793D01*
X206487671Y-142543797D01*
X206622517Y-142594091D01*
X206622516Y-142594091D01*
X206629444Y-142594835D01*
X206682127Y-142600500D01*
X207817769Y-142600499D01*
X207884808Y-142620184D01*
X207905450Y-142636818D01*
X210701586Y-145432954D01*
X210731058Y-145452645D01*
X210775270Y-145482186D01*
X210824505Y-145515084D01*
X210824506Y-145515084D01*
X210824507Y-145515085D01*
X210824509Y-145515086D01*
X210961082Y-145571656D01*
X210961087Y-145571658D01*
X210981257Y-145575670D01*
X210997583Y-145578918D01*
X211059494Y-145611303D01*
X211094068Y-145672018D01*
X211090329Y-145741788D01*
X211061073Y-145788216D01*
X209783464Y-147065823D01*
X209722141Y-147099308D01*
X209719976Y-147099759D01*
X209672994Y-147109104D01*
X209672988Y-147109106D01*
X209509116Y-147176983D01*
X209509103Y-147176990D01*
X209361622Y-147275535D01*
X209361618Y-147275538D01*
X209236195Y-147400961D01*
X209236192Y-147400965D01*
X209137647Y-147548446D01*
X209137640Y-147548459D01*
X209069763Y-147712332D01*
X209069760Y-147712341D01*
X209035157Y-147886304D01*
X209035157Y-148063695D01*
X209069760Y-148237658D01*
X209069763Y-148237667D01*
X209137640Y-148401540D01*
X209137647Y-148401553D01*
X209179129Y-148463634D01*
X209188932Y-148494942D01*
X209199849Y-148525888D01*
X209199321Y-148528121D01*
X209200007Y-148530311D01*
X209191325Y-148561956D01*
X209183781Y-148593885D01*
X209182130Y-148595478D01*
X209181523Y-148597691D01*
X209157116Y-148619614D01*
X209133502Y-148642401D01*
X209130616Y-148643419D01*
X209129544Y-148644382D01*
X209100218Y-148654142D01*
X208976777Y-148678696D01*
X208973357Y-148679327D01*
X207607958Y-148911318D01*
X207604521Y-148911852D01*
X206233210Y-149105449D01*
X206229760Y-149105887D01*
X204853528Y-149260951D01*
X204850066Y-149261292D01*
X203470044Y-149377695D01*
X203466575Y-149377939D01*
X202083797Y-149455595D01*
X202080322Y-149455741D01*
X200695952Y-149494583D01*
X200692474Y-149494632D01*
X199307526Y-149494632D01*
X199304048Y-149494583D01*
X197919677Y-149455741D01*
X197916202Y-149455595D01*
X196533424Y-149377939D01*
X196529955Y-149377695D01*
X195149933Y-149261292D01*
X195146471Y-149260951D01*
X193770239Y-149105887D01*
X193766789Y-149105449D01*
X192395478Y-148911852D01*
X192392041Y-148911318D01*
X191026642Y-148679327D01*
X191023222Y-148678696D01*
X189664930Y-148408515D01*
X189661528Y-148407789D01*
X188311310Y-148099611D01*
X188307931Y-148098790D01*
X186966889Y-147752865D01*
X186963533Y-147751949D01*
X185632695Y-147368541D01*
X185629396Y-147367539D01*
X184309888Y-146946975D01*
X184306589Y-146945873D01*
X183079633Y-146516542D01*
X183022857Y-146475820D01*
X182997110Y-146410867D01*
X183010566Y-146342305D01*
X183058954Y-146291903D01*
X183120588Y-146275500D01*
X194449903Y-146275500D01*
X194516942Y-146295185D01*
X194537584Y-146311819D01*
X196863349Y-148637585D01*
X196863355Y-148637590D01*
X196915139Y-148689374D01*
X196915149Y-148689385D01*
X196919479Y-148693715D01*
X196919480Y-148693716D01*
X197031284Y-148805520D01*
X197031286Y-148805521D01*
X197031290Y-148805524D01*
X197168209Y-148884573D01*
X197168216Y-148884577D01*
X197269094Y-148911607D01*
X197320942Y-148925500D01*
X197320943Y-148925500D01*
X203013331Y-148925500D01*
X203013347Y-148925501D01*
X203020943Y-148925501D01*
X203179054Y-148925501D01*
X203179057Y-148925501D01*
X203331785Y-148884577D01*
X203381904Y-148855639D01*
X203468716Y-148805520D01*
X203580520Y-148693716D01*
X203580520Y-148693714D01*
X203590728Y-148683507D01*
X203590730Y-148683504D01*
X205408713Y-146865521D01*
X205408716Y-146865520D01*
X205520520Y-146753716D01*
X205570639Y-146666904D01*
X205599577Y-146616785D01*
X205640500Y-146464058D01*
X205640500Y-146305943D01*
X205640500Y-142535718D01*
X205660185Y-142468679D01*
X205708207Y-142425233D01*
X205747815Y-142405052D01*
X205747815Y-142405051D01*
X205747816Y-142405051D01*
X205919792Y-142280104D01*
X206033329Y-142166566D01*
X206094648Y-142133084D01*
X206164340Y-142138068D01*
G37*
%TD.AperFunction*%
%TA.AperFunction,Conductor*%
G36*
X218690008Y-145620185D02*
G01*
X218735763Y-145672989D01*
X218745707Y-145742147D01*
X218716682Y-145805703D01*
X218670422Y-145839061D01*
X218301021Y-145992071D01*
X218297789Y-145993357D01*
X217003930Y-146487249D01*
X217000664Y-146488444D01*
X215693410Y-146945873D01*
X215690111Y-146946975D01*
X214370618Y-147367535D01*
X214367290Y-147368545D01*
X213036466Y-147751949D01*
X213033110Y-147752865D01*
X211692060Y-148098792D01*
X211688680Y-148099613D01*
X211050624Y-148245244D01*
X210980886Y-148240971D01*
X210924528Y-148199672D01*
X210899445Y-148134460D01*
X210913599Y-148066039D01*
X210935348Y-148036675D01*
X213335205Y-145636819D01*
X213396528Y-145603334D01*
X213422886Y-145600500D01*
X218622969Y-145600500D01*
X218690008Y-145620185D01*
G37*
%TD.AperFunction*%
%TA.AperFunction,Conductor*%
G36*
X199580667Y-145548694D02*
G01*
X199639910Y-145651306D01*
X199723694Y-145735090D01*
X199826306Y-145794333D01*
X199911414Y-145817137D01*
X199202485Y-146526065D01*
X199202485Y-146526066D01*
X199266243Y-146572388D01*
X199462589Y-146672432D01*
X199672164Y-146740526D01*
X199889819Y-146775000D01*
X200110181Y-146775000D01*
X200327835Y-146740526D01*
X200537410Y-146672432D01*
X200733760Y-146572386D01*
X200797513Y-146526066D01*
X200797514Y-146526066D01*
X200088585Y-145817138D01*
X200173694Y-145794333D01*
X200276306Y-145735090D01*
X200360090Y-145651306D01*
X200419333Y-145548694D01*
X200442138Y-145463585D01*
X201126156Y-146147603D01*
X201156181Y-146196280D01*
X201205202Y-146344217D01*
X201205204Y-146344222D01*
X201234135Y-146391126D01*
X201297330Y-146493581D01*
X201421419Y-146617670D01*
X201570780Y-146709797D01*
X201664988Y-146741014D01*
X201737361Y-146764996D01*
X201774236Y-146768763D01*
X201840174Y-146775500D01*
X201840178Y-146775500D01*
X203239822Y-146775500D01*
X203239826Y-146775500D01*
X203342638Y-146764996D01*
X203509220Y-146709797D01*
X203537275Y-146692492D01*
X203604665Y-146674051D01*
X203671329Y-146694972D01*
X203716100Y-146748613D01*
X203724763Y-146817944D01*
X203694567Y-146880952D01*
X203690053Y-146885711D01*
X202887584Y-147688181D01*
X202826261Y-147721666D01*
X202799903Y-147724500D01*
X197700098Y-147724500D01*
X197633059Y-147704815D01*
X197612417Y-147688181D01*
X196805798Y-146881562D01*
X196772313Y-146820239D01*
X196777297Y-146750547D01*
X196819169Y-146694614D01*
X196884633Y-146670197D01*
X196931796Y-146675949D01*
X197132049Y-146741015D01*
X197349778Y-146775500D01*
X197349779Y-146775500D01*
X197570221Y-146775500D01*
X197570222Y-146775500D01*
X197787951Y-146741015D01*
X197997606Y-146672895D01*
X198194022Y-146572815D01*
X198372365Y-146443242D01*
X198528242Y-146287365D01*
X198629991Y-146147317D01*
X198685320Y-146104653D01*
X198754933Y-146098674D01*
X198816729Y-146131279D01*
X198830628Y-146147319D01*
X198848932Y-146172513D01*
X199557861Y-145463584D01*
X199580667Y-145548694D01*
G37*
%TD.AperFunction*%
%TA.AperFunction,Conductor*%
G36*
X186212111Y-140733996D02*
G01*
X187363564Y-141106853D01*
X188595839Y-141465624D01*
X189838270Y-141787464D01*
X190454661Y-141927669D01*
X190509108Y-141942258D01*
X190518804Y-141942258D01*
X190528258Y-141944408D01*
X190584557Y-141942258D01*
X190640892Y-141942258D01*
X190650255Y-141939749D01*
X190659946Y-141939379D01*
X190713774Y-141922729D01*
X190768186Y-141908150D01*
X190776582Y-141903302D01*
X190785846Y-141900437D01*
X190831532Y-141871680D01*
X190833533Y-141870420D01*
X190882314Y-141842258D01*
X190889168Y-141835402D01*
X190897374Y-141830238D01*
X190897373Y-141830238D01*
X190897376Y-141830237D01*
X190920195Y-141805604D01*
X190980194Y-141769802D01*
X191050025Y-141772121D01*
X191107517Y-141811825D01*
X191121646Y-141833578D01*
X191154323Y-141897709D01*
X191180207Y-141948510D01*
X191184951Y-141957819D01*
X191309890Y-142129786D01*
X191460213Y-142280109D01*
X191632179Y-142405048D01*
X191632181Y-142405049D01*
X191632184Y-142405051D01*
X191821588Y-142501557D01*
X192023757Y-142567246D01*
X192233713Y-142600500D01*
X192233714Y-142600500D01*
X192446286Y-142600500D01*
X192446287Y-142600500D01*
X192656243Y-142567246D01*
X192858412Y-142501557D01*
X193047816Y-142405051D01*
X193134138Y-142342335D01*
X193219786Y-142280109D01*
X193219788Y-142280106D01*
X193219792Y-142280104D01*
X193370104Y-142129792D01*
X193370106Y-142129788D01*
X193370109Y-142129786D01*
X193495048Y-141957820D01*
X193495049Y-141957819D01*
X193495051Y-141957816D01*
X193499514Y-141949054D01*
X193547488Y-141898259D01*
X193615308Y-141881463D01*
X193681444Y-141903999D01*
X193720486Y-141949056D01*
X193724951Y-141957820D01*
X193849890Y-142129786D01*
X194000213Y-142280109D01*
X194172179Y-142405048D01*
X194172181Y-142405049D01*
X194172184Y-142405051D01*
X194361588Y-142501557D01*
X194563757Y-142567246D01*
X194773713Y-142600500D01*
X194773714Y-142600500D01*
X194986286Y-142600500D01*
X194986287Y-142600500D01*
X195196243Y-142567246D01*
X195398412Y-142501557D01*
X195587816Y-142405051D01*
X195674138Y-142342335D01*
X195759786Y-142280109D01*
X195759788Y-142280106D01*
X195759792Y-142280104D01*
X195910104Y-142129792D01*
X195910106Y-142129788D01*
X195910109Y-142129786D01*
X196035048Y-141957820D01*
X196035049Y-141957819D01*
X196035051Y-141957816D01*
X196039514Y-141949054D01*
X196087488Y-141898259D01*
X196155308Y-141881463D01*
X196221444Y-141903999D01*
X196260486Y-141949056D01*
X196264951Y-141957820D01*
X196389890Y-142129786D01*
X196540213Y-142280109D01*
X196712179Y-142405048D01*
X196712181Y-142405049D01*
X196712184Y-142405051D01*
X196901588Y-142501557D01*
X197103757Y-142567246D01*
X197313713Y-142600500D01*
X197313714Y-142600500D01*
X197526286Y-142600500D01*
X197526287Y-142600500D01*
X197736243Y-142567246D01*
X197938412Y-142501557D01*
X198127816Y-142405051D01*
X198214138Y-142342335D01*
X198299786Y-142280109D01*
X198299788Y-142280106D01*
X198299792Y-142280104D01*
X198450104Y-142129792D01*
X198450106Y-142129788D01*
X198450109Y-142129786D01*
X198575048Y-141957820D01*
X198575049Y-141957819D01*
X198575051Y-141957816D01*
X198579514Y-141949054D01*
X198627488Y-141898259D01*
X198695308Y-141881463D01*
X198761444Y-141903999D01*
X198800486Y-141949056D01*
X198804951Y-141957820D01*
X198929890Y-142129786D01*
X199080213Y-142280109D01*
X199252179Y-142405048D01*
X199252181Y-142405049D01*
X199252184Y-142405051D01*
X199441588Y-142501557D01*
X199643757Y-142567246D01*
X199853713Y-142600500D01*
X199853714Y-142600500D01*
X200066286Y-142600500D01*
X200066287Y-142600500D01*
X200276243Y-142567246D01*
X200478412Y-142501557D01*
X200667816Y-142405051D01*
X200754138Y-142342335D01*
X200839786Y-142280109D01*
X200839788Y-142280106D01*
X200839792Y-142280104D01*
X200990104Y-142129792D01*
X200990106Y-142129788D01*
X200990109Y-142129786D01*
X201098435Y-141980686D01*
X201115051Y-141957816D01*
X201119793Y-141948508D01*
X201167763Y-141897711D01*
X201235583Y-141880911D01*
X201301719Y-141903445D01*
X201340763Y-141948500D01*
X201345377Y-141957555D01*
X201470272Y-142129459D01*
X201470276Y-142129464D01*
X201620535Y-142279723D01*
X201620540Y-142279727D01*
X201792442Y-142404620D01*
X201981782Y-142501095D01*
X202183871Y-142566757D01*
X202250000Y-142577231D01*
X202250000Y-141683012D01*
X202307007Y-141715925D01*
X202434174Y-141750000D01*
X202565826Y-141750000D01*
X202692993Y-141715925D01*
X202750000Y-141683012D01*
X202750000Y-142577230D01*
X202816126Y-142566757D01*
X202816129Y-142566757D01*
X203018217Y-142501095D01*
X203207557Y-142404620D01*
X203379459Y-142279727D01*
X203379464Y-142279723D01*
X203529723Y-142129464D01*
X203529727Y-142129459D01*
X203654620Y-141957558D01*
X203659232Y-141948507D01*
X203707205Y-141897709D01*
X203775025Y-141880912D01*
X203841161Y-141903447D01*
X203880204Y-141948504D01*
X203884949Y-141957817D01*
X204009890Y-142129786D01*
X204160213Y-142280109D01*
X204332184Y-142405051D01*
X204332184Y-142405052D01*
X204371793Y-142425233D01*
X204422590Y-142473206D01*
X204439500Y-142535718D01*
X204439500Y-146084903D01*
X204419815Y-146151942D01*
X204403181Y-146172584D01*
X204050711Y-146525053D01*
X203989388Y-146558538D01*
X203919696Y-146553554D01*
X203863763Y-146511682D01*
X203839346Y-146446218D01*
X203854198Y-146377945D01*
X203857481Y-146372292D01*
X203874797Y-146344220D01*
X203929996Y-146177638D01*
X203940500Y-146074826D01*
X203940500Y-144675174D01*
X203929996Y-144572362D01*
X203874797Y-144405780D01*
X203782670Y-144256419D01*
X203658581Y-144132330D01*
X203509220Y-144040203D01*
X203509217Y-144040202D01*
X203342638Y-143985003D01*
X203239833Y-143974500D01*
X203239826Y-143974500D01*
X202825097Y-143974500D01*
X202758058Y-143954815D01*
X202737416Y-143938181D01*
X201962590Y-143163355D01*
X201962588Y-143163352D01*
X201843717Y-143044481D01*
X201843716Y-143044480D01*
X201756904Y-142994360D01*
X201756904Y-142994359D01*
X201756900Y-142994358D01*
X201706785Y-142965423D01*
X201554057Y-142924499D01*
X201395943Y-142924499D01*
X201388347Y-142924499D01*
X201388331Y-142924500D01*
X188122447Y-142924500D01*
X188055408Y-142904815D01*
X188034766Y-142888181D01*
X186086232Y-140939647D01*
X186052747Y-140878324D01*
X186057731Y-140808632D01*
X186099603Y-140752699D01*
X186165067Y-140728282D01*
X186212111Y-140733996D01*
G37*
%TD.AperFunction*%
%TA.AperFunction,Conductor*%
G36*
X182241172Y-141884751D02*
G01*
X182241172Y-142003239D01*
X182271839Y-142117689D01*
X182331082Y-142220301D01*
X182414866Y-142304085D01*
X182440033Y-142318615D01*
X181512109Y-142702975D01*
X181512109Y-142702976D01*
X181623314Y-142856036D01*
X181779130Y-143011852D01*
X181957411Y-143141381D01*
X182153761Y-143241427D01*
X182363336Y-143309521D01*
X182580991Y-143343995D01*
X182801353Y-143343995D01*
X182988212Y-143314399D01*
X182603853Y-142386472D01*
X182631928Y-142393995D01*
X182750416Y-142393995D01*
X182864866Y-142363328D01*
X182967478Y-142304085D01*
X183051262Y-142220301D01*
X183065793Y-142195131D01*
X183435942Y-143088749D01*
X183445053Y-143145211D01*
X183433729Y-143300646D01*
X183433730Y-143300652D01*
X183461684Y-143473891D01*
X183461686Y-143473899D01*
X183528843Y-143636027D01*
X183631577Y-143778296D01*
X183764355Y-143893043D01*
X183764357Y-143893044D01*
X183855323Y-143942092D01*
X185148433Y-144477716D01*
X185247438Y-144507356D01*
X185305780Y-144511606D01*
X185422462Y-144520107D01*
X185422462Y-144520106D01*
X185422464Y-144520107D01*
X185548510Y-144499767D01*
X185595706Y-144492152D01*
X185595708Y-144492151D01*
X185595711Y-144492151D01*
X185595712Y-144492150D01*
X185595714Y-144492150D01*
X185666968Y-144462635D01*
X185757841Y-144424994D01*
X185900113Y-144322258D01*
X186014859Y-144189480D01*
X186063907Y-144098514D01*
X186427168Y-143221522D01*
X186471009Y-143167120D01*
X186537303Y-143145055D01*
X186605002Y-143162334D01*
X186629410Y-143181295D01*
X187337489Y-143889374D01*
X187337499Y-143889385D01*
X187341829Y-143893715D01*
X187341830Y-143893716D01*
X187453634Y-144005520D01*
X187513710Y-144040204D01*
X187540445Y-144055639D01*
X187540447Y-144055641D01*
X187573574Y-144074767D01*
X187590565Y-144084577D01*
X187743293Y-144125500D01*
X196429531Y-144125500D01*
X196496570Y-144145185D01*
X196542325Y-144197989D01*
X196552269Y-144267147D01*
X196523244Y-144330703D01*
X196517212Y-144337181D01*
X196391756Y-144462636D01*
X196391752Y-144462641D01*
X196262187Y-144640974D01*
X196162104Y-144837393D01*
X196162103Y-144837396D01*
X196093985Y-145047047D01*
X196059500Y-145264778D01*
X196059500Y-145485221D01*
X196093985Y-145702954D01*
X196159049Y-145903204D01*
X196161044Y-145973045D01*
X196124963Y-146032877D01*
X196062262Y-146063705D01*
X195992848Y-146055740D01*
X195953437Y-146029202D01*
X195237590Y-145313355D01*
X195237588Y-145313352D01*
X195118717Y-145194481D01*
X195118716Y-145194480D01*
X195031904Y-145144360D01*
X195031904Y-145144359D01*
X195031900Y-145144358D01*
X194981785Y-145115423D01*
X194829057Y-145074499D01*
X194670943Y-145074499D01*
X194663347Y-145074499D01*
X194663331Y-145074500D01*
X182600097Y-145074500D01*
X182533058Y-145054815D01*
X182512416Y-145038181D01*
X180043628Y-142569393D01*
X180010143Y-142508070D01*
X180015127Y-142438378D01*
X180056999Y-142382445D01*
X180122463Y-142358028D01*
X180150700Y-142359238D01*
X180234296Y-142372479D01*
X180234298Y-142372479D01*
X180454739Y-142372479D01*
X180454740Y-142372479D01*
X180672469Y-142337994D01*
X180882124Y-142269874D01*
X181078540Y-142169794D01*
X181121946Y-142138257D01*
X181187751Y-142114778D01*
X181255805Y-142130603D01*
X181304500Y-142180709D01*
X181317304Y-142219177D01*
X181320766Y-142241035D01*
X182248694Y-141856675D01*
X182241172Y-141884751D01*
G37*
%TD.AperFunction*%
%TA.AperFunction,Conductor*%
G36*
X199143128Y-144145185D02*
G01*
X199188883Y-144197989D01*
X199191532Y-144212979D01*
X199911414Y-144932861D01*
X199826306Y-144955667D01*
X199723694Y-145014910D01*
X199639910Y-145098694D01*
X199580667Y-145201306D01*
X199557861Y-145286414D01*
X198848932Y-144577485D01*
X198848930Y-144577485D01*
X198830626Y-144602679D01*
X198775296Y-144645345D01*
X198705683Y-144651324D01*
X198643888Y-144618718D01*
X198629990Y-144602679D01*
X198528247Y-144462640D01*
X198402788Y-144337181D01*
X198369303Y-144275858D01*
X198374287Y-144206166D01*
X198416159Y-144150233D01*
X198481623Y-144125816D01*
X198490469Y-144125500D01*
X199076089Y-144125500D01*
X199143128Y-144145185D01*
G37*
%TD.AperFunction*%
%TA.AperFunction,Conductor*%
G36*
X201222946Y-144145185D02*
G01*
X201268701Y-144197989D01*
X201278645Y-144267147D01*
X201261445Y-144314597D01*
X201205207Y-144405771D01*
X201205202Y-144405782D01*
X201156182Y-144553717D01*
X201126157Y-144602394D01*
X200442137Y-145286414D01*
X200419333Y-145201306D01*
X200360090Y-145098694D01*
X200276306Y-145014910D01*
X200173694Y-144955667D01*
X200088583Y-144932861D01*
X200810418Y-144211027D01*
X200814657Y-144190851D01*
X200824419Y-144180948D01*
X200830197Y-144168297D01*
X200848465Y-144156556D01*
X200863708Y-144141095D01*
X200878478Y-144137268D01*
X200888975Y-144130523D01*
X200923910Y-144125500D01*
X201155907Y-144125500D01*
X201222946Y-144145185D01*
G37*
%TD.AperFunction*%
%TA.AperFunction,Conductor*%
G36*
X231300446Y-138048280D02*
G01*
X231357954Y-138047615D01*
X231417165Y-138084706D01*
X231446924Y-138147922D01*
X231437782Y-138217191D01*
X231404367Y-138261758D01*
X231403445Y-138262536D01*
X231400790Y-138264714D01*
X230317991Y-139128218D01*
X230315241Y-139130348D01*
X229208698Y-139963108D01*
X229205890Y-139965161D01*
X228076365Y-140766601D01*
X228073501Y-140768573D01*
X226921985Y-141537992D01*
X226919066Y-141539884D01*
X225746398Y-142276719D01*
X225743427Y-142278528D01*
X224550576Y-142982173D01*
X224547556Y-142983898D01*
X223335415Y-143653826D01*
X223332348Y-143655465D01*
X222101924Y-144291116D01*
X222098812Y-144292669D01*
X220851018Y-144893575D01*
X220847863Y-144895040D01*
X220047286Y-145253275D01*
X219978054Y-145262689D01*
X219914722Y-145233179D01*
X219877398Y-145174114D01*
X219877933Y-145104246D01*
X219908956Y-145052411D01*
X226849549Y-138111819D01*
X226910872Y-138078334D01*
X226937230Y-138075500D01*
X231148920Y-138075500D01*
X231299887Y-138045470D01*
X231300446Y-138048280D01*
G37*
%TD.AperFunction*%
%TA.AperFunction,Conductor*%
G36*
X238359473Y-119745067D02*
G01*
X238402351Y-119800233D01*
X238410974Y-119845665D01*
X238410974Y-123161312D01*
X238391289Y-123228351D01*
X238374655Y-123248993D01*
X221311449Y-140312199D01*
X221284521Y-140326902D01*
X221258703Y-140343495D01*
X221252502Y-140344386D01*
X221250126Y-140345684D01*
X221223768Y-140348518D01*
X221060924Y-140348518D01*
X220993885Y-140328833D01*
X220948130Y-140276029D01*
X220946363Y-140271971D01*
X220928564Y-140229001D01*
X220736996Y-139766515D01*
X220687948Y-139675549D01*
X220687947Y-139675547D01*
X220573200Y-139542769D01*
X220430931Y-139440035D01*
X220268803Y-139372878D01*
X220268795Y-139372876D01*
X220095556Y-139344922D01*
X220095551Y-139344921D01*
X219920528Y-139357672D01*
X219821520Y-139387313D01*
X218528409Y-139922938D01*
X218437444Y-139971985D01*
X218304666Y-140086732D01*
X218201932Y-140229001D01*
X218134775Y-140391129D01*
X218134773Y-140391137D01*
X218106819Y-140564376D01*
X218106818Y-140564382D01*
X218118142Y-140719814D01*
X218109031Y-140776276D01*
X217738881Y-141669896D01*
X217724351Y-141644728D01*
X217640567Y-141560944D01*
X217537955Y-141501701D01*
X217423505Y-141471034D01*
X217305017Y-141471034D01*
X217276941Y-141478556D01*
X217661301Y-140550628D01*
X217474448Y-140521034D01*
X217254080Y-140521034D01*
X217036425Y-140555507D01*
X216826850Y-140623601D01*
X216630500Y-140723647D01*
X216452219Y-140853176D01*
X216296403Y-141008992D01*
X216296403Y-141008993D01*
X216185198Y-141162052D01*
X217113124Y-141546412D01*
X217087955Y-141560944D01*
X217004171Y-141644728D01*
X216944928Y-141747340D01*
X216914261Y-141861790D01*
X216914261Y-141980278D01*
X216921783Y-142008351D01*
X215993855Y-141623992D01*
X215990393Y-141645851D01*
X215960463Y-141708985D01*
X215901152Y-141745916D01*
X215831289Y-141744918D01*
X215795035Y-141726771D01*
X215751628Y-141695234D01*
X215555213Y-141595154D01*
X215555210Y-141595153D01*
X215345559Y-141527035D01*
X215235383Y-141509585D01*
X215127829Y-141492550D01*
X214907385Y-141492550D01*
X214849608Y-141501701D01*
X214689654Y-141527035D01*
X214480003Y-141595153D01*
X214480000Y-141595154D01*
X214283581Y-141695237D01*
X214105248Y-141824802D01*
X214105243Y-141824806D01*
X213949363Y-141980686D01*
X213949359Y-141980691D01*
X213819794Y-142159024D01*
X213719711Y-142355443D01*
X213719710Y-142355446D01*
X213651592Y-142565097D01*
X213617107Y-142782828D01*
X213617107Y-143003271D01*
X213651592Y-143221002D01*
X213719710Y-143430653D01*
X213719711Y-143430656D01*
X213819794Y-143627075D01*
X213949359Y-143805408D01*
X213949363Y-143805413D01*
X214031769Y-143887819D01*
X214065254Y-143949142D01*
X214060270Y-144018834D01*
X214018398Y-144074767D01*
X213952934Y-144099184D01*
X213944088Y-144099500D01*
X211542230Y-144099500D01*
X211475191Y-144079815D01*
X211454549Y-144063181D01*
X209519759Y-142128391D01*
X209486274Y-142067068D01*
X209491258Y-141997376D01*
X209533130Y-141941443D01*
X209579934Y-141919799D01*
X210161730Y-141787464D01*
X211404161Y-141465624D01*
X212636436Y-141106853D01*
X213857456Y-140711470D01*
X215066133Y-140279828D01*
X216261392Y-139812310D01*
X217442168Y-139309333D01*
X218607409Y-138771345D01*
X219756077Y-138198826D01*
X220887150Y-137592285D01*
X221999619Y-136952262D01*
X223092494Y-136279328D01*
X223892090Y-135753441D01*
X224164795Y-135574086D01*
X224417787Y-135396659D01*
X225215588Y-134837150D01*
X226243915Y-134069192D01*
X227248868Y-133270889D01*
X228229552Y-132442955D01*
X229185093Y-131586124D01*
X230114641Y-130701162D01*
X231017366Y-129788855D01*
X231892467Y-128850017D01*
X232739162Y-127885484D01*
X233396392Y-127090114D01*
X233556681Y-126896135D01*
X233556686Y-126896127D01*
X233556698Y-126896114D01*
X234344346Y-125882789D01*
X235101406Y-124846412D01*
X235827203Y-123787906D01*
X236521090Y-122708212D01*
X237182449Y-121608294D01*
X237216966Y-121546806D01*
X237411365Y-121200499D01*
X237810692Y-120489130D01*
X238177083Y-119788219D01*
X238225584Y-119737928D01*
X238293577Y-119721841D01*
X238359473Y-119745067D01*
G37*
%TD.AperFunction*%
%TA.AperFunction,Conductor*%
G36*
X218700355Y-142203863D02*
G01*
X218746722Y-142237345D01*
X218774834Y-142269875D01*
X218833702Y-142337994D01*
X218848629Y-142355266D01*
X218990898Y-142458000D01*
X219153026Y-142525157D01*
X219153034Y-142525159D01*
X219239653Y-142539136D01*
X219326277Y-142553114D01*
X219326277Y-142553113D01*
X219326278Y-142553114D01*
X219384619Y-142548863D01*
X219501303Y-142540363D01*
X219600308Y-142510723D01*
X220266465Y-142234790D01*
X220335932Y-142227322D01*
X220398412Y-142258597D01*
X220434064Y-142318686D01*
X220431570Y-142388511D01*
X220401597Y-142437033D01*
X218775451Y-144063181D01*
X218714128Y-144096666D01*
X218687770Y-144099500D01*
X217336786Y-144099500D01*
X217269747Y-144079815D01*
X217249105Y-144063181D01*
X216839750Y-143653826D01*
X216505849Y-143319925D01*
X216472366Y-143258604D01*
X216477350Y-143188912D01*
X216519222Y-143132979D01*
X216559874Y-143112901D01*
X216605279Y-143100095D01*
X216989638Y-142172169D01*
X217004171Y-142197340D01*
X217087955Y-142281124D01*
X217190567Y-142340367D01*
X217305017Y-142371034D01*
X217423505Y-142371034D01*
X217451577Y-142363511D01*
X217067219Y-143291438D01*
X217254080Y-143321034D01*
X217474442Y-143321034D01*
X217692096Y-143286560D01*
X217901671Y-143218466D01*
X218098021Y-143118420D01*
X218276302Y-142988891D01*
X218432120Y-142833073D01*
X218543322Y-142680014D01*
X217615398Y-142295654D01*
X217640567Y-142281124D01*
X217724351Y-142197340D01*
X217783594Y-142094728D01*
X217814261Y-141980278D01*
X217814261Y-141861790D01*
X217806738Y-141833714D01*
X218700355Y-142203863D01*
G37*
%TD.AperFunction*%
%TA.AperFunction,Conductor*%
G36*
X164936994Y-131059104D02*
G01*
X164970273Y-131090534D01*
X164987896Y-131114790D01*
X165050733Y-131201280D01*
X165206615Y-131357162D01*
X165206620Y-131357166D01*
X165268536Y-131402150D01*
X165384957Y-131486734D01*
X165513354Y-131552156D01*
X165581372Y-131586814D01*
X165581375Y-131586815D01*
X165686200Y-131620874D01*
X165791028Y-131654934D01*
X166008757Y-131689419D01*
X166008758Y-131689419D01*
X166229200Y-131689419D01*
X166229201Y-131689419D01*
X166400176Y-131662339D01*
X166469468Y-131671294D01*
X166522920Y-131716290D01*
X166543560Y-131783041D01*
X166542046Y-131804209D01*
X166537174Y-131834970D01*
X167539752Y-131834970D01*
X167495697Y-131911276D01*
X167465030Y-132025726D01*
X167465030Y-132144214D01*
X167495697Y-132258664D01*
X167539752Y-132334970D01*
X166537175Y-132334970D01*
X166549503Y-132412805D01*
X166549503Y-132412808D01*
X166617597Y-132622380D01*
X166717643Y-132818730D01*
X166847172Y-132997011D01*
X167002988Y-133152827D01*
X167181269Y-133282356D01*
X167377619Y-133382402D01*
X167587193Y-133450496D01*
X167665029Y-133462824D01*
X167665030Y-133462824D01*
X167665030Y-132460247D01*
X167741336Y-132504303D01*
X167855786Y-132534970D01*
X167974274Y-132534970D01*
X168088724Y-132504303D01*
X168165030Y-132460247D01*
X168165030Y-133427596D01*
X168151840Y-133483247D01*
X168081894Y-133622518D01*
X168041424Y-133793275D01*
X168041424Y-133968766D01*
X168081894Y-134139521D01*
X168160655Y-134296346D01*
X168225930Y-134376477D01*
X169215624Y-135366171D01*
X169215629Y-135366175D01*
X169215630Y-135366176D01*
X169295756Y-135431447D01*
X169452579Y-135510207D01*
X169529100Y-135528343D01*
X169623336Y-135550678D01*
X169623337Y-135550678D01*
X169798826Y-135550678D01*
X169893062Y-135528343D01*
X169969583Y-135510207D01*
X170126406Y-135431447D01*
X170206532Y-135366176D01*
X171196236Y-134376472D01*
X171258104Y-134300523D01*
X171315704Y-134260980D01*
X171385542Y-134258854D01*
X171441923Y-134291158D01*
X176663584Y-139512819D01*
X176697069Y-139574142D01*
X176692085Y-139643834D01*
X176650213Y-139699767D01*
X176584749Y-139724184D01*
X176575903Y-139724500D01*
X173287229Y-139724500D01*
X173220190Y-139704815D01*
X173199548Y-139688181D01*
X169178421Y-135667052D01*
X169178414Y-135667046D01*
X169104729Y-135617812D01*
X169104729Y-135617813D01*
X169055491Y-135584913D01*
X168918917Y-135528343D01*
X168918907Y-135528340D01*
X168773920Y-135499500D01*
X168773918Y-135499500D01*
X167962229Y-135499500D01*
X167895190Y-135479815D01*
X167874548Y-135463181D01*
X164796956Y-132385588D01*
X164211819Y-131800451D01*
X164178334Y-131739128D01*
X164175500Y-131712770D01*
X164175500Y-131163419D01*
X164195185Y-131096380D01*
X164247989Y-131050625D01*
X164299500Y-131039419D01*
X164869955Y-131039419D01*
X164936994Y-131059104D01*
G37*
%TD.AperFunction*%
%TA.AperFunction,Conductor*%
G36*
X174045185Y-134286643D02*
G01*
X174059953Y-134296122D01*
X174349970Y-134512707D01*
X174784412Y-134837150D01*
X175835204Y-135574086D01*
X176123114Y-135763441D01*
X176907506Y-136279328D01*
X178000381Y-136952262D01*
X179112850Y-137592285D01*
X180031113Y-138084706D01*
X180243923Y-138198826D01*
X180526205Y-138339521D01*
X180577424Y-138387043D01*
X180594819Y-138454713D01*
X180572868Y-138521045D01*
X180518540Y-138564979D01*
X180470891Y-138574500D01*
X178040783Y-138574500D01*
X177973744Y-138554815D01*
X177953102Y-138538181D01*
X173898077Y-134483156D01*
X173864592Y-134421833D01*
X173869576Y-134352141D01*
X173911448Y-134296208D01*
X173976912Y-134271791D01*
X174045185Y-134286643D01*
G37*
%TD.AperFunction*%
%TA.AperFunction,Conductor*%
G36*
X240082604Y-125001317D02*
G01*
X240117852Y-125003838D01*
X240117876Y-125003855D01*
X240117904Y-125003858D01*
X240146145Y-125025018D01*
X240173785Y-125045710D01*
X240173794Y-125045735D01*
X240173819Y-125045754D01*
X240186260Y-125079158D01*
X240198202Y-125111174D01*
X240198203Y-125111224D01*
X240198206Y-125111230D01*
X240198204Y-125111237D01*
X240198518Y-125120020D01*
X240198518Y-127038751D01*
X240178833Y-127105790D01*
X240162199Y-127126432D01*
X233973121Y-133315510D01*
X233400451Y-133888181D01*
X233339128Y-133921666D01*
X233312770Y-133924500D01*
X231813419Y-133924500D01*
X231812581Y-133924254D01*
X231811740Y-133924489D01*
X231779106Y-133914424D01*
X231746380Y-133904815D01*
X231745808Y-133904155D01*
X231744974Y-133903898D01*
X231722963Y-133877791D01*
X231700625Y-133852011D01*
X231700314Y-133850926D01*
X231699938Y-133850480D01*
X231699247Y-133847200D01*
X231690454Y-133816484D01*
X231689419Y-133808521D01*
X231689419Y-133770799D01*
X231662070Y-133598125D01*
X231661847Y-133596409D01*
X231667029Y-133563525D01*
X231671294Y-133530529D01*
X231672446Y-133529160D01*
X231672725Y-133527391D01*
X231694856Y-133502538D01*
X231716290Y-133477077D01*
X231718001Y-133476547D01*
X231719191Y-133475212D01*
X231751240Y-133466270D01*
X231783041Y-133456438D01*
X231785781Y-133456633D01*
X231786491Y-133456436D01*
X231787541Y-133456759D01*
X231804210Y-133457952D01*
X231834970Y-133462824D01*
X231834970Y-132460247D01*
X231911276Y-132504303D01*
X232025726Y-132534970D01*
X232144214Y-132534970D01*
X232258664Y-132504303D01*
X232334970Y-132460247D01*
X232334970Y-133462824D01*
X232412804Y-133450496D01*
X232412807Y-133450496D01*
X232622380Y-133382402D01*
X232818730Y-133282356D01*
X232997011Y-133152827D01*
X233152827Y-132997011D01*
X233282356Y-132818730D01*
X233382402Y-132622380D01*
X233450496Y-132412808D01*
X233450496Y-132412805D01*
X233462825Y-132334970D01*
X232460248Y-132334970D01*
X232504303Y-132258664D01*
X232534970Y-132144214D01*
X232534970Y-132025726D01*
X232504303Y-131911276D01*
X232460248Y-131834970D01*
X233427597Y-131834970D01*
X233483247Y-131848159D01*
X233622519Y-131918105D01*
X233665834Y-131928371D01*
X233793276Y-131958576D01*
X233793277Y-131958576D01*
X233968766Y-131958576D01*
X234025684Y-131945085D01*
X234139523Y-131918105D01*
X234296346Y-131839345D01*
X234376472Y-131774074D01*
X235366176Y-130784370D01*
X235431447Y-130704244D01*
X235510207Y-130547421D01*
X235550678Y-130376663D01*
X235550678Y-130201175D01*
X235510207Y-130030417D01*
X235431447Y-129873594D01*
X235373837Y-129802873D01*
X235346759Y-129738465D01*
X235358801Y-129669640D01*
X235382293Y-129636880D01*
X239985764Y-125033410D01*
X239986876Y-125032299D01*
X240017345Y-125015679D01*
X240017351Y-125015676D01*
X240018577Y-125015007D01*
X240048160Y-124998854D01*
X240048188Y-124998856D01*
X240048214Y-124998842D01*
X240082604Y-125001317D01*
G37*
%TD.AperFunction*%
%TA.AperFunction,Conductor*%
G36*
X160309996Y-120848708D02*
G01*
X160345648Y-120908797D01*
X160349500Y-120939463D01*
X160349500Y-122863330D01*
X160349499Y-122863348D01*
X160349499Y-123029054D01*
X160349498Y-123029054D01*
X160349499Y-123029057D01*
X160390423Y-123181785D01*
X160413670Y-123222050D01*
X160469477Y-123318712D01*
X160469481Y-123318717D01*
X160588349Y-123437585D01*
X160588355Y-123437590D01*
X165862940Y-128712175D01*
X165896425Y-128773498D01*
X165891441Y-128843190D01*
X165849569Y-128899123D01*
X165794658Y-128922329D01*
X165791026Y-128922904D01*
X165581375Y-128991022D01*
X165581372Y-128991023D01*
X165384953Y-129091106D01*
X165206620Y-129220671D01*
X165206615Y-129220675D01*
X165050733Y-129376557D01*
X164970274Y-129487303D01*
X164914944Y-129529970D01*
X164869955Y-129538419D01*
X164476148Y-129538419D01*
X164409109Y-129518734D01*
X164388467Y-129502100D01*
X164007953Y-129121585D01*
X159335410Y-124449042D01*
X159301925Y-124387719D01*
X159299091Y-124361361D01*
X159299091Y-122699670D01*
X159270250Y-122554683D01*
X159270249Y-122554682D01*
X159270249Y-122554678D01*
X159270247Y-122554673D01*
X159213678Y-122418102D01*
X159213676Y-122418098D01*
X159213675Y-122418096D01*
X159167840Y-122349499D01*
X159131543Y-122295175D01*
X158381221Y-121544853D01*
X158347736Y-121483530D01*
X158352720Y-121413838D01*
X158394592Y-121357905D01*
X158460056Y-121333488D01*
X158508858Y-121341397D01*
X158509108Y-121340517D01*
X158516062Y-121342489D01*
X158602681Y-121356466D01*
X158689305Y-121370444D01*
X158689305Y-121370443D01*
X158689306Y-121370444D01*
X158747647Y-121366193D01*
X158864331Y-121357693D01*
X158963336Y-121328053D01*
X160178050Y-120824901D01*
X160247517Y-120817433D01*
X160309996Y-120848708D01*
G37*
%TD.AperFunction*%
%TA.AperFunction,Conductor*%
G36*
X162155703Y-120443455D02*
G01*
X162184391Y-120479723D01*
X162186099Y-120482991D01*
X162189310Y-120489135D01*
X162817540Y-121608277D01*
X163280565Y-122378341D01*
X163416772Y-122604870D01*
X163478915Y-122708220D01*
X164172796Y-123787906D01*
X164872247Y-124807988D01*
X164898594Y-124846412D01*
X165655654Y-125882789D01*
X165685600Y-125921315D01*
X165711199Y-125986326D01*
X165697588Y-126054857D01*
X165649086Y-126105150D01*
X165581094Y-126121237D01*
X165515197Y-126098011D01*
X165500015Y-126085094D01*
X161986819Y-122571897D01*
X161953334Y-122510574D01*
X161950500Y-122484216D01*
X161950500Y-120537168D01*
X161970185Y-120470129D01*
X162022989Y-120424374D01*
X162092147Y-120414430D01*
X162155703Y-120443455D01*
G37*
%TD.AperFunction*%
%TA.AperFunction,Conductor*%
G36*
X243142539Y-120481100D02*
G01*
X243188294Y-120533904D01*
X243199500Y-120585415D01*
X243199500Y-120837769D01*
X243179815Y-120904808D01*
X243163181Y-120925450D01*
X240437181Y-123651450D01*
X240375858Y-123684935D01*
X240306166Y-123679951D01*
X240250233Y-123638079D01*
X240225816Y-123572615D01*
X240225500Y-123563769D01*
X240225500Y-121116433D01*
X240245185Y-121049394D01*
X240297989Y-121003639D01*
X240367147Y-120993695D01*
X240405796Y-121005949D01*
X240411407Y-121008808D01*
X240411414Y-121008811D01*
X240506843Y-121039817D01*
X240621067Y-121076930D01*
X240838796Y-121111415D01*
X240838797Y-121111415D01*
X241059239Y-121111415D01*
X241059240Y-121111415D01*
X241276969Y-121076930D01*
X241486624Y-121008810D01*
X241683040Y-120908730D01*
X241861383Y-120779157D01*
X242017260Y-120623280D01*
X242097723Y-120512530D01*
X242153053Y-120469864D01*
X242198042Y-120461415D01*
X243075500Y-120461415D01*
X243142539Y-120481100D01*
G37*
%TD.AperFunction*%
%TA.AperFunction,Conductor*%
G36*
X211004198Y-62295185D02*
G01*
X211024840Y-62311819D01*
X211452395Y-62739374D01*
X211452405Y-62739385D01*
X211456735Y-62743715D01*
X211456736Y-62743716D01*
X211568540Y-62855520D01*
X211568542Y-62855521D01*
X211568546Y-62855524D01*
X211699093Y-62930894D01*
X211705472Y-62934577D01*
X211817275Y-62964534D01*
X211858198Y-62975500D01*
X211858199Y-62975500D01*
X219377845Y-62975500D01*
X219444884Y-62995185D01*
X219465526Y-63011819D01*
X221488181Y-65034474D01*
X221521666Y-65095797D01*
X221524500Y-65122155D01*
X221524500Y-73260388D01*
X221524499Y-73260406D01*
X221524499Y-73426112D01*
X221524498Y-73426112D01*
X221565423Y-73578843D01*
X221581268Y-73606287D01*
X221581267Y-73606287D01*
X221581268Y-73606288D01*
X221644475Y-73715767D01*
X221644481Y-73715775D01*
X221763349Y-73834643D01*
X221763355Y-73834648D01*
X223943081Y-76014374D01*
X223943091Y-76014385D01*
X223947421Y-76018715D01*
X223947422Y-76018716D01*
X224059226Y-76130520D01*
X224059228Y-76130521D01*
X224059232Y-76130524D01*
X224109552Y-76159576D01*
X224109555Y-76159577D01*
X224130701Y-76171786D01*
X224196151Y-76209574D01*
X224196152Y-76209575D01*
X224196154Y-76209575D01*
X224196157Y-76209577D01*
X224348885Y-76250501D01*
X224348888Y-76250501D01*
X224514596Y-76250501D01*
X224514612Y-76250500D01*
X235937159Y-76250500D01*
X236004198Y-76270185D01*
X236024840Y-76286819D01*
X237388181Y-77650160D01*
X237421666Y-77711483D01*
X237424500Y-77737841D01*
X237424500Y-84788330D01*
X237424499Y-84788348D01*
X237424499Y-84954054D01*
X237424498Y-84954054D01*
X237424499Y-84954057D01*
X237465423Y-85106785D01*
X237465424Y-85106786D01*
X237479658Y-85131442D01*
X237479659Y-85131443D01*
X237544475Y-85243709D01*
X237544481Y-85243717D01*
X237663349Y-85362585D01*
X237663355Y-85362590D01*
X242613181Y-90312416D01*
X242646666Y-90373739D01*
X242649500Y-90400097D01*
X242649500Y-92836073D01*
X242629815Y-92903112D01*
X242577011Y-92948867D01*
X242507853Y-92958811D01*
X242444297Y-92929786D01*
X242406523Y-92871008D01*
X242403161Y-92856299D01*
X242352511Y-92549935D01*
X242328843Y-92406777D01*
X242226402Y-91877423D01*
X242226402Y-91859516D01*
X242213925Y-91812952D01*
X242204767Y-91765626D01*
X242202133Y-91760215D01*
X242193849Y-91738028D01*
X242192294Y-91732222D01*
X242182571Y-91715382D01*
X242170378Y-91694262D01*
X242170378Y-91694261D01*
X242168184Y-91690462D01*
X242147096Y-91647131D01*
X242135360Y-91633608D01*
X242129412Y-91623305D01*
X242126406Y-91618101D01*
X242126402Y-91618094D01*
X242095404Y-91587095D01*
X242095404Y-91587094D01*
X242092306Y-91583996D01*
X242060720Y-91547600D01*
X242045883Y-91537574D01*
X242033217Y-91524908D01*
X242018439Y-91516376D01*
X241995262Y-91502994D01*
X241991468Y-91500804D01*
X241951528Y-91473816D01*
X241934596Y-91467970D01*
X241919087Y-91459016D01*
X241919084Y-91459015D01*
X241876761Y-91447674D01*
X241868390Y-91445111D01*
X241826959Y-91430807D01*
X241826945Y-91430806D01*
X241809090Y-91429542D01*
X241791794Y-91424908D01*
X241743595Y-91424908D01*
X241739226Y-91424598D01*
X241701792Y-91421949D01*
X241695504Y-91421505D01*
X241695503Y-91421505D01*
X241695502Y-91421505D01*
X241692237Y-91422137D01*
X241677919Y-91424908D01*
X241660010Y-91424908D01*
X241613451Y-91437383D01*
X241609142Y-91438217D01*
X241609139Y-91438216D01*
X241566120Y-91446542D01*
X241566118Y-91446542D01*
X241560699Y-91449180D01*
X241538537Y-91457455D01*
X223490754Y-96293343D01*
X223490755Y-96293344D01*
X223483174Y-96295375D01*
X223449269Y-96299995D01*
X223419805Y-96312355D01*
X223411681Y-96314531D01*
X223411679Y-96314531D01*
X223388941Y-96320624D01*
X223366093Y-96333815D01*
X223352073Y-96340768D01*
X223327749Y-96350973D01*
X223327742Y-96350977D01*
X223309128Y-96365392D01*
X223309129Y-96365393D01*
X223302479Y-96370543D01*
X223274811Y-96386518D01*
X223250615Y-96410712D01*
X223244411Y-96415518D01*
X223244411Y-96415519D01*
X223226626Y-96429295D01*
X223223557Y-96431672D01*
X223209306Y-96450418D01*
X223198277Y-96463050D01*
X223181627Y-96479699D01*
X223181623Y-96479705D01*
X223175231Y-96490777D01*
X223164512Y-96509342D01*
X223143804Y-96536584D01*
X223131709Y-96566158D01*
X223127507Y-96573437D01*
X223115733Y-96593830D01*
X223108904Y-96619315D01*
X223106875Y-96626888D01*
X223093923Y-96658563D01*
X223089896Y-96690251D01*
X223087719Y-96698376D01*
X223087719Y-96698379D01*
X223081625Y-96721123D01*
X223081625Y-96747500D01*
X223080636Y-96763129D01*
X223077311Y-96789295D01*
X223077311Y-96789298D01*
X223080490Y-96812627D01*
X223080618Y-96813595D01*
X223081625Y-96821447D01*
X223081625Y-96852910D01*
X223089363Y-96881793D01*
X223090424Y-96890059D01*
X223090389Y-96890276D01*
X223090562Y-96891174D01*
X223179194Y-97635712D01*
X223179619Y-97639888D01*
X223245936Y-98421589D01*
X223246220Y-98425777D01*
X223286041Y-99209294D01*
X223286183Y-99213489D01*
X223299462Y-99997901D01*
X223299462Y-100002099D01*
X223286183Y-100786511D01*
X223286041Y-100790706D01*
X223246220Y-101574223D01*
X223245936Y-101578411D01*
X223179619Y-102360112D01*
X223179194Y-102364288D01*
X223090560Y-103108834D01*
X223090422Y-103109946D01*
X223089361Y-103118220D01*
X223081626Y-103147091D01*
X223081626Y-103178548D01*
X223080619Y-103186402D01*
X223080545Y-103186569D01*
X223080491Y-103187372D01*
X223077312Y-103210700D01*
X223077312Y-103210704D01*
X223081626Y-103244654D01*
X223081626Y-103278875D01*
X223089894Y-103309733D01*
X223090954Y-103318074D01*
X223093923Y-103341433D01*
X223093925Y-103341442D01*
X223102128Y-103361501D01*
X223106876Y-103373112D01*
X223115734Y-103406169D01*
X223131709Y-103433840D01*
X223134893Y-103441625D01*
X223134893Y-103441628D01*
X223143804Y-103463416D01*
X223143804Y-103463417D01*
X223159763Y-103484410D01*
X223168434Y-103497450D01*
X223181623Y-103520294D01*
X223181625Y-103520296D01*
X223181626Y-103520298D01*
X223204223Y-103542895D01*
X223223558Y-103568329D01*
X223250609Y-103589280D01*
X223256159Y-103594830D01*
X223256162Y-103594833D01*
X223274808Y-103613480D01*
X223274811Y-103613482D01*
X223274812Y-103613483D01*
X223274814Y-103613484D01*
X223295202Y-103625255D01*
X223302488Y-103629461D01*
X223327746Y-103649025D01*
X223359300Y-103662262D01*
X223388940Y-103679375D01*
X223419806Y-103687645D01*
X223449270Y-103700006D01*
X223483177Y-103704625D01*
X223490753Y-103706655D01*
X241538535Y-108542543D01*
X241560701Y-108550820D01*
X241563798Y-108552327D01*
X241566120Y-108553457D01*
X241613448Y-108562615D01*
X241660010Y-108575092D01*
X241677919Y-108575092D01*
X241695504Y-108578495D01*
X241743595Y-108575092D01*
X241791794Y-108575092D01*
X241809090Y-108570457D01*
X241826959Y-108569193D01*
X241872529Y-108553459D01*
X241919088Y-108540984D01*
X241934598Y-108532029D01*
X241951528Y-108526184D01*
X241951532Y-108526182D01*
X241987836Y-108501649D01*
X241987840Y-108501646D01*
X241991466Y-108499196D01*
X242033217Y-108475092D01*
X242045883Y-108462425D01*
X242060720Y-108452400D01*
X242089447Y-108419295D01*
X242095392Y-108412915D01*
X242126402Y-108381907D01*
X242129417Y-108376684D01*
X242135359Y-108366391D01*
X242147096Y-108352869D01*
X242168190Y-108309526D01*
X242192294Y-108267778D01*
X242193851Y-108261965D01*
X242202139Y-108239772D01*
X242204767Y-108234374D01*
X242213094Y-108191339D01*
X242213095Y-108191339D01*
X242213927Y-108187039D01*
X242226402Y-108140484D01*
X242226402Y-108122576D01*
X242328843Y-107593223D01*
X242403161Y-107143699D01*
X242433517Y-107080769D01*
X242493076Y-107044240D01*
X242562931Y-107045710D01*
X242620901Y-107084713D01*
X242648582Y-107148866D01*
X242649500Y-107163926D01*
X242649500Y-110940712D01*
X242629815Y-111007751D01*
X242613181Y-111028393D01*
X240419481Y-113222092D01*
X240419479Y-113222095D01*
X240409481Y-113239412D01*
X240381020Y-113288709D01*
X240369081Y-113309388D01*
X240318512Y-113357602D01*
X240249905Y-113370823D01*
X240229601Y-113367160D01*
X228487556Y-110220889D01*
X228055668Y-110105165D01*
X236201866Y-110105165D01*
X236201866Y-110367420D01*
X236228489Y-110569632D01*
X236236096Y-110627409D01*
X236253163Y-110691103D01*
X236303968Y-110880711D01*
X236303971Y-110880721D01*
X236404319Y-111122983D01*
X236404324Y-111122993D01*
X236535441Y-111350096D01*
X236695084Y-111558144D01*
X236695092Y-111558153D01*
X236880506Y-111743567D01*
X236880514Y-111743574D01*
X237088562Y-111903217D01*
X237315665Y-112034334D01*
X237315671Y-112034337D01*
X237384643Y-112062906D01*
X237557947Y-112134691D01*
X237811250Y-112202563D01*
X238071246Y-112236793D01*
X238071253Y-112236793D01*
X238333479Y-112236793D01*
X238333486Y-112236793D01*
X238593482Y-112202563D01*
X238846785Y-112134691D01*
X239089063Y-112034336D01*
X239316169Y-111903217D01*
X239524217Y-111743575D01*
X239524221Y-111743570D01*
X239524226Y-111743567D01*
X239709640Y-111558153D01*
X239709643Y-111558148D01*
X239709648Y-111558144D01*
X239869290Y-111350096D01*
X240000409Y-111122990D01*
X240100764Y-110880712D01*
X240168636Y-110627409D01*
X240202866Y-110367413D01*
X240202866Y-110105173D01*
X240168636Y-109845177D01*
X240100764Y-109591874D01*
X240002570Y-109354813D01*
X240000412Y-109349602D01*
X240000407Y-109349592D01*
X239869290Y-109122489D01*
X239709647Y-108914441D01*
X239709640Y-108914433D01*
X239524226Y-108729019D01*
X239524217Y-108729011D01*
X239316169Y-108569368D01*
X239089066Y-108438251D01*
X239089056Y-108438246D01*
X238846794Y-108337898D01*
X238846787Y-108337896D01*
X238846785Y-108337895D01*
X238593482Y-108270023D01*
X238532163Y-108261950D01*
X238333493Y-108235793D01*
X238333486Y-108235793D01*
X238071246Y-108235793D01*
X238071238Y-108235793D01*
X237840138Y-108266219D01*
X237811250Y-108270023D01*
X237557947Y-108337895D01*
X237557937Y-108337898D01*
X237315675Y-108438246D01*
X237315665Y-108438251D01*
X237088562Y-108569368D01*
X236880514Y-108729011D01*
X236695084Y-108914441D01*
X236535441Y-109122489D01*
X236404324Y-109349592D01*
X236404319Y-109349602D01*
X236303971Y-109591864D01*
X236303968Y-109591874D01*
X236276808Y-109693239D01*
X236236096Y-109845178D01*
X236201866Y-110105165D01*
X228055668Y-110105165D01*
X222196918Y-108535318D01*
X222196918Y-108535317D01*
X222189331Y-108533284D01*
X222157668Y-108520336D01*
X222125971Y-108516308D01*
X222117849Y-108514132D01*
X222117847Y-108514131D01*
X222095109Y-108508038D01*
X222095105Y-108508038D01*
X222068732Y-108508038D01*
X222053103Y-108507049D01*
X222026937Y-108503724D01*
X222026932Y-108503724D01*
X222007289Y-108506400D01*
X222003602Y-108506903D01*
X221995271Y-108508038D01*
X221963321Y-108508038D01*
X221930266Y-108516894D01*
X221928337Y-108517156D01*
X221922486Y-108517954D01*
X221922485Y-108517953D01*
X221896356Y-108521514D01*
X221874648Y-108530622D01*
X221858777Y-108536050D01*
X221851605Y-108537972D01*
X221836028Y-108542146D01*
X221836027Y-108542146D01*
X221836025Y-108542147D01*
X221813178Y-108555336D01*
X221813177Y-108555335D01*
X221806369Y-108559265D01*
X221774833Y-108572496D01*
X221749586Y-108592048D01*
X221742302Y-108596254D01*
X221742298Y-108596258D01*
X221721898Y-108608037D01*
X221721895Y-108608039D01*
X221697690Y-108632243D01*
X221670645Y-108653192D01*
X221651315Y-108678618D01*
X221645364Y-108684570D01*
X221645364Y-108684571D01*
X221628715Y-108701221D01*
X221628710Y-108701227D01*
X221615521Y-108724069D01*
X221606857Y-108737100D01*
X221590891Y-108758103D01*
X221590891Y-108758104D01*
X221581978Y-108779900D01*
X221581532Y-108780977D01*
X221578503Y-108788187D01*
X221562821Y-108815352D01*
X221555283Y-108843476D01*
X221552017Y-108851256D01*
X221551845Y-108851466D01*
X221551483Y-108852507D01*
X221189490Y-109688640D01*
X221187387Y-109693239D01*
X220776874Y-110544466D01*
X220774585Y-110548974D01*
X220329735Y-111382711D01*
X220327265Y-111387123D01*
X219848762Y-112202086D01*
X219846113Y-112206393D01*
X219334810Y-113001129D01*
X219331988Y-113005325D01*
X218788705Y-113778563D01*
X218785715Y-113782640D01*
X218211343Y-114533109D01*
X218208188Y-114537061D01*
X217603717Y-115263467D01*
X217600404Y-115267287D01*
X216966817Y-115968449D01*
X216963352Y-115972130D01*
X216301710Y-116646875D01*
X216298097Y-116650413D01*
X215609473Y-117297648D01*
X215605718Y-117301035D01*
X214891308Y-117919631D01*
X214887419Y-117922862D01*
X214148383Y-118511821D01*
X214144366Y-118514891D01*
X213381900Y-119073254D01*
X213377767Y-119076152D01*
X213094718Y-119266206D01*
X212593219Y-119602936D01*
X212588965Y-119605668D01*
X211783563Y-120100047D01*
X211779200Y-120102604D01*
X210954296Y-120563746D01*
X210949834Y-120566122D01*
X210106860Y-120993229D01*
X210102303Y-120995422D01*
X209242605Y-121387812D01*
X209237964Y-121389818D01*
X208362952Y-121746846D01*
X208358232Y-121748660D01*
X207469421Y-122069708D01*
X207464632Y-122071328D01*
X206563474Y-122355874D01*
X206558622Y-122357298D01*
X205646604Y-122604870D01*
X205641698Y-122606095D01*
X204720350Y-122816279D01*
X204715399Y-122817303D01*
X203786232Y-122989753D01*
X203781242Y-122990574D01*
X202845835Y-123124998D01*
X202840817Y-123125615D01*
X201900702Y-123221792D01*
X201895662Y-123222204D01*
X200952403Y-123279974D01*
X200947351Y-123280180D01*
X200002528Y-123299448D01*
X199997472Y-123299448D01*
X199052648Y-123280180D01*
X199047596Y-123279974D01*
X198104337Y-123222204D01*
X198099297Y-123221792D01*
X197159182Y-123125615D01*
X197154164Y-123124998D01*
X196218757Y-122990574D01*
X196213767Y-122989753D01*
X195284600Y-122817303D01*
X195279649Y-122816279D01*
X194768490Y-122699670D01*
X194358295Y-122606093D01*
X194353402Y-122604871D01*
X193441368Y-122357295D01*
X193436535Y-122355877D01*
X193227629Y-122289914D01*
X192535367Y-122071328D01*
X192530578Y-122069708D01*
X191641767Y-121748660D01*
X191637047Y-121746846D01*
X190762035Y-121389818D01*
X190757394Y-121387812D01*
X189897696Y-120995422D01*
X189893139Y-120993229D01*
X189050165Y-120566122D01*
X189045703Y-120563746D01*
X188220799Y-120102604D01*
X188216436Y-120100047D01*
X187411034Y-119605668D01*
X187406795Y-119602945D01*
X186622209Y-119076137D01*
X186618099Y-119073254D01*
X186612115Y-119068872D01*
X189999500Y-119068872D01*
X189999500Y-119331127D01*
X190018398Y-119474661D01*
X190033730Y-119591116D01*
X190098831Y-119834076D01*
X190101602Y-119844418D01*
X190101605Y-119844428D01*
X190201953Y-120086690D01*
X190201958Y-120086700D01*
X190333075Y-120313803D01*
X190492718Y-120521851D01*
X190492726Y-120521860D01*
X190678140Y-120707274D01*
X190678148Y-120707281D01*
X190678149Y-120707282D01*
X190725194Y-120743381D01*
X190886196Y-120866924D01*
X191113299Y-120998041D01*
X191113309Y-120998046D01*
X191355571Y-121098394D01*
X191355581Y-121098398D01*
X191608884Y-121166270D01*
X191868880Y-121200500D01*
X191868887Y-121200500D01*
X192131113Y-121200500D01*
X192131120Y-121200500D01*
X192391116Y-121166270D01*
X192644419Y-121098398D01*
X192886697Y-120998043D01*
X193113803Y-120866924D01*
X193321851Y-120707282D01*
X193321855Y-120707277D01*
X193321860Y-120707274D01*
X193507274Y-120521860D01*
X193507277Y-120521855D01*
X193507282Y-120521851D01*
X193666924Y-120313803D01*
X193798043Y-120086697D01*
X193898398Y-119844419D01*
X193966270Y-119591116D01*
X194000500Y-119331120D01*
X194000500Y-119068880D01*
X194000499Y-119068872D01*
X205999500Y-119068872D01*
X205999500Y-119331127D01*
X206018398Y-119474661D01*
X206033730Y-119591116D01*
X206098831Y-119834076D01*
X206101602Y-119844418D01*
X206101605Y-119844428D01*
X206201953Y-120086690D01*
X206201958Y-120086700D01*
X206333075Y-120313803D01*
X206492718Y-120521851D01*
X206492726Y-120521860D01*
X206678140Y-120707274D01*
X206678148Y-120707281D01*
X206678149Y-120707282D01*
X206725194Y-120743381D01*
X206886196Y-120866924D01*
X207113299Y-120998041D01*
X207113309Y-120998046D01*
X207355571Y-121098394D01*
X207355581Y-121098398D01*
X207608884Y-121166270D01*
X207868880Y-121200500D01*
X207868887Y-121200500D01*
X208131113Y-121200500D01*
X208131120Y-121200500D01*
X208391116Y-121166270D01*
X208644419Y-121098398D01*
X208886697Y-120998043D01*
X209113803Y-120866924D01*
X209321851Y-120707282D01*
X209321855Y-120707277D01*
X209321860Y-120707274D01*
X209507274Y-120521860D01*
X209507277Y-120521855D01*
X209507282Y-120521851D01*
X209666924Y-120313803D01*
X209798043Y-120086697D01*
X209898398Y-119844419D01*
X209966270Y-119591116D01*
X210000500Y-119331120D01*
X210000500Y-119068880D01*
X209966270Y-118808884D01*
X209898398Y-118555581D01*
X209880272Y-118511821D01*
X209798046Y-118313309D01*
X209798041Y-118313299D01*
X209666924Y-118086196D01*
X209507281Y-117878148D01*
X209507274Y-117878140D01*
X209321860Y-117692726D01*
X209321851Y-117692718D01*
X209113803Y-117533075D01*
X208886700Y-117401958D01*
X208886690Y-117401953D01*
X208644428Y-117301605D01*
X208644421Y-117301603D01*
X208644419Y-117301602D01*
X208391116Y-117233730D01*
X208333339Y-117226123D01*
X208131127Y-117199500D01*
X208131120Y-117199500D01*
X207868880Y-117199500D01*
X207868872Y-117199500D01*
X207637772Y-117229926D01*
X207608884Y-117233730D01*
X207380649Y-117294885D01*
X207355581Y-117301602D01*
X207355571Y-117301605D01*
X207113309Y-117401953D01*
X207113299Y-117401958D01*
X206886196Y-117533075D01*
X206678148Y-117692718D01*
X206492718Y-117878148D01*
X206333075Y-118086196D01*
X206201958Y-118313299D01*
X206201953Y-118313309D01*
X206101605Y-118555571D01*
X206101602Y-118555581D01*
X206038974Y-118789315D01*
X206033730Y-118808885D01*
X205999500Y-119068872D01*
X194000499Y-119068872D01*
X193966270Y-118808884D01*
X193898398Y-118555581D01*
X193880272Y-118511821D01*
X193798046Y-118313309D01*
X193798041Y-118313299D01*
X193666924Y-118086196D01*
X193507281Y-117878148D01*
X193507274Y-117878140D01*
X193321860Y-117692726D01*
X193321851Y-117692718D01*
X193113803Y-117533075D01*
X192886700Y-117401958D01*
X192886690Y-117401953D01*
X192644428Y-117301605D01*
X192644421Y-117301603D01*
X192644419Y-117301602D01*
X192391116Y-117233730D01*
X192333339Y-117226123D01*
X192131127Y-117199500D01*
X192131120Y-117199500D01*
X191868880Y-117199500D01*
X191868872Y-117199500D01*
X191637772Y-117229926D01*
X191608884Y-117233730D01*
X191380649Y-117294885D01*
X191355581Y-117301602D01*
X191355571Y-117301605D01*
X191113309Y-117401953D01*
X191113299Y-117401958D01*
X190886196Y-117533075D01*
X190678148Y-117692718D01*
X190492718Y-117878148D01*
X190333075Y-118086196D01*
X190201958Y-118313299D01*
X190201953Y-118313309D01*
X190101605Y-118555571D01*
X190101602Y-118555581D01*
X190038974Y-118789315D01*
X190033730Y-118808885D01*
X189999500Y-119068872D01*
X186612115Y-119068872D01*
X185855633Y-118514891D01*
X185851616Y-118511821D01*
X185112580Y-117922862D01*
X185108691Y-117919631D01*
X184394281Y-117301035D01*
X184390526Y-117297648D01*
X183701902Y-116650413D01*
X183698289Y-116646875D01*
X183036647Y-115972130D01*
X183033182Y-115968449D01*
X182399595Y-115267287D01*
X182396282Y-115263467D01*
X182178602Y-115001876D01*
X181791799Y-114537046D01*
X181788668Y-114533125D01*
X181214284Y-113782640D01*
X181211294Y-113778563D01*
X180668011Y-113005325D01*
X180665189Y-113001129D01*
X180153886Y-112206393D01*
X180151237Y-112202086D01*
X179672734Y-111387123D01*
X179670264Y-111382711D01*
X179652862Y-111350096D01*
X179225400Y-110548946D01*
X179223139Y-110544494D01*
X178812612Y-109693239D01*
X178810513Y-109688649D01*
X178793296Y-109648881D01*
X178448489Y-108852449D01*
X178447981Y-108851255D01*
X178444716Y-108843480D01*
X178437179Y-108815352D01*
X178421494Y-108788186D01*
X178418466Y-108780975D01*
X178418441Y-108780757D01*
X178418017Y-108779892D01*
X178409107Y-108758102D01*
X178409106Y-108758101D01*
X178393147Y-108737107D01*
X178388397Y-108730859D01*
X178371287Y-108701224D01*
X178348691Y-108678628D01*
X178329355Y-108653192D01*
X178308501Y-108637040D01*
X178308501Y-108637039D01*
X178302295Y-108632232D01*
X178278101Y-108608038D01*
X178250435Y-108592064D01*
X178243798Y-108586924D01*
X178243784Y-108586915D01*
X178225167Y-108572496D01*
X178225165Y-108572495D01*
X178225166Y-108572495D01*
X178205699Y-108564328D01*
X178193610Y-108559257D01*
X178163972Y-108542146D01*
X178133114Y-108533877D01*
X178125354Y-108530622D01*
X178125352Y-108530620D01*
X178103648Y-108521516D01*
X178103640Y-108521514D01*
X178077509Y-108517953D01*
X178062167Y-108514865D01*
X178036688Y-108508039D01*
X178036680Y-108508038D01*
X178036679Y-108508038D01*
X178036677Y-108508038D01*
X178013137Y-108508038D01*
X177996398Y-108506903D01*
X177973065Y-108503724D01*
X177946897Y-108507049D01*
X177939112Y-108508038D01*
X177904895Y-108508038D01*
X177874042Y-108516304D01*
X177865696Y-108517365D01*
X177865696Y-108517366D01*
X177842331Y-108520335D01*
X177817915Y-108530320D01*
X177803077Y-108535319D01*
X159755298Y-113371206D01*
X159755297Y-113371205D01*
X159743812Y-113374282D01*
X159725955Y-113375547D01*
X159680387Y-113391279D01*
X159676149Y-113392415D01*
X159676148Y-113392414D01*
X159676148Y-113392415D01*
X159633827Y-113403755D01*
X159628603Y-113406771D01*
X159607091Y-113416585D01*
X159601387Y-113418554D01*
X159565072Y-113443093D01*
X159565071Y-113443092D01*
X159561422Y-113445557D01*
X159519698Y-113469648D01*
X159507035Y-113482308D01*
X159497195Y-113488958D01*
X159497195Y-113488959D01*
X159492196Y-113492337D01*
X159463476Y-113525430D01*
X159457517Y-113531826D01*
X159452322Y-113537022D01*
X159391002Y-113570513D01*
X159321310Y-113565535D01*
X159276951Y-113537030D01*
X157161819Y-111421898D01*
X157128334Y-111360575D01*
X157125500Y-111334217D01*
X157125500Y-110105165D01*
X159797134Y-110105165D01*
X159797134Y-110367420D01*
X159823757Y-110569632D01*
X159831364Y-110627409D01*
X159848431Y-110691103D01*
X159899236Y-110880711D01*
X159899239Y-110880721D01*
X159999587Y-111122983D01*
X159999592Y-111122993D01*
X160130709Y-111350096D01*
X160290352Y-111558144D01*
X160290360Y-111558153D01*
X160475774Y-111743567D01*
X160475782Y-111743574D01*
X160683830Y-111903217D01*
X160910933Y-112034334D01*
X160910939Y-112034337D01*
X160979911Y-112062906D01*
X161153215Y-112134691D01*
X161406518Y-112202563D01*
X161666514Y-112236793D01*
X161666521Y-112236793D01*
X161928747Y-112236793D01*
X161928754Y-112236793D01*
X162188750Y-112202563D01*
X162442053Y-112134691D01*
X162684331Y-112034336D01*
X162911437Y-111903217D01*
X163119485Y-111743575D01*
X163119489Y-111743570D01*
X163119494Y-111743567D01*
X163304908Y-111558153D01*
X163304911Y-111558148D01*
X163304916Y-111558144D01*
X163464558Y-111350096D01*
X163595677Y-111122990D01*
X163696032Y-110880712D01*
X163763904Y-110627409D01*
X163798134Y-110367413D01*
X163798134Y-110105173D01*
X163763904Y-109845177D01*
X163696032Y-109591874D01*
X163597838Y-109354813D01*
X163595680Y-109349602D01*
X163595675Y-109349592D01*
X163464558Y-109122489D01*
X163304915Y-108914441D01*
X163304908Y-108914433D01*
X163119494Y-108729019D01*
X163119485Y-108729011D01*
X162911437Y-108569368D01*
X162684334Y-108438251D01*
X162684324Y-108438246D01*
X162442062Y-108337898D01*
X162442055Y-108337896D01*
X162442053Y-108337895D01*
X162188750Y-108270023D01*
X162127431Y-108261950D01*
X161928761Y-108235793D01*
X161928754Y-108235793D01*
X161666514Y-108235793D01*
X161666506Y-108235793D01*
X161435406Y-108266219D01*
X161406518Y-108270023D01*
X161153215Y-108337895D01*
X161153205Y-108337898D01*
X160910943Y-108438246D01*
X160910933Y-108438251D01*
X160683830Y-108569368D01*
X160475782Y-108729011D01*
X160290352Y-108914441D01*
X160130709Y-109122489D01*
X159999592Y-109349592D01*
X159999587Y-109349602D01*
X159899239Y-109591864D01*
X159899236Y-109591874D01*
X159872076Y-109693239D01*
X159831364Y-109845178D01*
X159797134Y-110105165D01*
X157125500Y-110105165D01*
X157125500Y-105670784D01*
X157145185Y-105603745D01*
X157197989Y-105557990D01*
X157267147Y-105548046D01*
X157330703Y-105577071D01*
X157368477Y-105635849D01*
X157372344Y-105653899D01*
X157479613Y-106434642D01*
X157479615Y-106434654D01*
X157657419Y-107510125D01*
X157671158Y-107593223D01*
X157773599Y-108122576D01*
X157773599Y-108140484D01*
X157786075Y-108187047D01*
X157786906Y-108191339D01*
X157786908Y-108191349D01*
X157786907Y-108191351D01*
X157795232Y-108234368D01*
X157795235Y-108234377D01*
X157797869Y-108239788D01*
X157806145Y-108261950D01*
X157807706Y-108267775D01*
X157807707Y-108267778D01*
X157829622Y-108305737D01*
X157831810Y-108309526D01*
X157831813Y-108309531D01*
X157852906Y-108352869D01*
X157864642Y-108366393D01*
X157870584Y-108376684D01*
X157870585Y-108376686D01*
X157873599Y-108381907D01*
X157904587Y-108412894D01*
X157907690Y-108415997D01*
X157939281Y-108452400D01*
X157954117Y-108462425D01*
X157966784Y-108475092D01*
X158008534Y-108499196D01*
X158048473Y-108526184D01*
X158065402Y-108532029D01*
X158080913Y-108540984D01*
X158116088Y-108550409D01*
X158123246Y-108552327D01*
X158127467Y-108553458D01*
X158127471Y-108553459D01*
X158173042Y-108569193D01*
X158190910Y-108570457D01*
X158208207Y-108575092D01*
X158252022Y-108575092D01*
X158260773Y-108575401D01*
X158262890Y-108575550D01*
X158304498Y-108578495D01*
X158322083Y-108575092D01*
X158339991Y-108575092D01*
X158386551Y-108562616D01*
X158433881Y-108553457D01*
X158439291Y-108550823D01*
X158461462Y-108542543D01*
X176516821Y-103704626D01*
X176550731Y-103700006D01*
X176580196Y-103687644D01*
X176611060Y-103679375D01*
X176640698Y-103662263D01*
X176672255Y-103649025D01*
X176697515Y-103629460D01*
X176725189Y-103613483D01*
X176743850Y-103594820D01*
X176755586Y-103584482D01*
X176776443Y-103568329D01*
X176790692Y-103549583D01*
X176801729Y-103536942D01*
X176818374Y-103520298D01*
X176835486Y-103490657D01*
X176856195Y-103463416D01*
X176868289Y-103433840D01*
X176884266Y-103406168D01*
X176891092Y-103380689D01*
X176896092Y-103365852D01*
X176906077Y-103341437D01*
X176910105Y-103309735D01*
X176918374Y-103278875D01*
X176918374Y-103244656D01*
X176922688Y-103210704D01*
X176919509Y-103187370D01*
X176919382Y-103186407D01*
X176918374Y-103178548D01*
X176918374Y-103147091D01*
X176910634Y-103118207D01*
X176909574Y-103109942D01*
X176909608Y-103109725D01*
X176909435Y-103108824D01*
X176906602Y-103085028D01*
X176820801Y-102364284D01*
X176820377Y-102360112D01*
X176799121Y-102109559D01*
X176754058Y-101578386D01*
X176753776Y-101574222D01*
X176713953Y-100790680D01*
X176713812Y-100786511D01*
X176712919Y-100733760D01*
X176700533Y-100002067D01*
X176700533Y-99997932D01*
X176707655Y-99577184D01*
X181699500Y-99577184D01*
X181699500Y-99600418D01*
X181699500Y-100422816D01*
X181702113Y-100479333D01*
X181738553Y-101267539D01*
X181816578Y-102109559D01*
X181816580Y-102109580D01*
X181933407Y-102947088D01*
X181975486Y-103172187D01*
X182082127Y-103742666D01*
X182088797Y-103778344D01*
X182282401Y-104601498D01*
X182282403Y-104601505D01*
X182513813Y-105414825D01*
X182513822Y-105414854D01*
X182668058Y-105875034D01*
X182782553Y-106216639D01*
X183088030Y-107005167D01*
X183088034Y-107005175D01*
X183088048Y-107005209D01*
X183429596Y-107778741D01*
X183806517Y-108535702D01*
X183806537Y-108535739D01*
X183978316Y-108844141D01*
X184218017Y-109274487D01*
X184663185Y-109993457D01*
X184981783Y-110458553D01*
X185141083Y-110691103D01*
X185594798Y-111291918D01*
X185650689Y-111365930D01*
X186133023Y-111946783D01*
X186190916Y-112016500D01*
X186190928Y-112016515D01*
X186760587Y-112641401D01*
X186760601Y-112641416D01*
X186760616Y-112641432D01*
X187358568Y-113239384D01*
X187358584Y-113239399D01*
X187358598Y-113239412D01*
X187983484Y-113809071D01*
X187983491Y-113809077D01*
X187983497Y-113809082D01*
X188634070Y-114349311D01*
X189308899Y-114858918D01*
X190006543Y-115336815D01*
X190725513Y-115781983D01*
X191464276Y-116193471D01*
X191464284Y-116193475D01*
X191464297Y-116193482D01*
X192221258Y-116570403D01*
X192577504Y-116727701D01*
X192994833Y-116911970D01*
X193783361Y-117217447D01*
X194585155Y-117486181D01*
X195201485Y-117661542D01*
X195374436Y-117710751D01*
X195398505Y-117717599D01*
X196221675Y-117911207D01*
X197052908Y-118066592D01*
X197890431Y-118183421D01*
X198732455Y-118261446D01*
X199577184Y-118300500D01*
X199577187Y-118300500D01*
X200422813Y-118300500D01*
X200422816Y-118300500D01*
X201267545Y-118261446D01*
X202109569Y-118183421D01*
X202947092Y-118066592D01*
X203778325Y-117911207D01*
X204601495Y-117717599D01*
X205414845Y-117486181D01*
X206216639Y-117217447D01*
X207005167Y-116911970D01*
X207778746Y-116570401D01*
X208535724Y-116193471D01*
X209274487Y-115781983D01*
X209993457Y-115336815D01*
X210691101Y-114858918D01*
X211365930Y-114349311D01*
X212016503Y-113809082D01*
X212641432Y-113239384D01*
X213239384Y-112641432D01*
X213809082Y-112016503D01*
X214349311Y-111365930D01*
X214858918Y-110691101D01*
X215336815Y-109993457D01*
X215781983Y-109274487D01*
X216193471Y-108535724D01*
X216194684Y-108533289D01*
X216284522Y-108352869D01*
X216570401Y-107778746D01*
X216911970Y-107005167D01*
X217217447Y-106216639D01*
X217486181Y-105414845D01*
X217717599Y-104601495D01*
X217911207Y-103778325D01*
X218066592Y-102947092D01*
X218183421Y-102109569D01*
X218261446Y-101267545D01*
X218300500Y-100422816D01*
X218300500Y-99577184D01*
X218261446Y-98732455D01*
X218183421Y-97890431D01*
X218066592Y-97052908D01*
X217911207Y-96221675D01*
X217717599Y-95398505D01*
X217486181Y-94585155D01*
X217217447Y-93783361D01*
X216911970Y-92994833D01*
X216570401Y-92221254D01*
X216491036Y-92061868D01*
X216193482Y-91464297D01*
X216193462Y-91464260D01*
X216185547Y-91450050D01*
X215781983Y-90725513D01*
X215336815Y-90006543D01*
X215080644Y-89632579D01*
X236201866Y-89632579D01*
X236201866Y-89894834D01*
X236225791Y-90076553D01*
X236236096Y-90154823D01*
X236301817Y-90400097D01*
X236303968Y-90408125D01*
X236303971Y-90408135D01*
X236404319Y-90650397D01*
X236404324Y-90650407D01*
X236535441Y-90877510D01*
X236695084Y-91085558D01*
X236695092Y-91085567D01*
X236880506Y-91270981D01*
X236880514Y-91270988D01*
X237088562Y-91430631D01*
X237315665Y-91561748D01*
X237315675Y-91561753D01*
X237543638Y-91656178D01*
X237557947Y-91662105D01*
X237811250Y-91729977D01*
X238071246Y-91764207D01*
X238071253Y-91764207D01*
X238333479Y-91764207D01*
X238333486Y-91764207D01*
X238593482Y-91729977D01*
X238846785Y-91662105D01*
X239089063Y-91561750D01*
X239316169Y-91430631D01*
X239524217Y-91270989D01*
X239524221Y-91270984D01*
X239524226Y-91270981D01*
X239709640Y-91085567D01*
X239709643Y-91085562D01*
X239709648Y-91085558D01*
X239869290Y-90877510D01*
X240000409Y-90650404D01*
X240100764Y-90408126D01*
X240168636Y-90154823D01*
X240202866Y-89894827D01*
X240202866Y-89632587D01*
X240168636Y-89372591D01*
X240100764Y-89119288D01*
X240057819Y-89015609D01*
X240000412Y-88877016D01*
X240000407Y-88877006D01*
X239869290Y-88649903D01*
X239709647Y-88441855D01*
X239709640Y-88441847D01*
X239524226Y-88256433D01*
X239524217Y-88256425D01*
X239316169Y-88096782D01*
X239089066Y-87965665D01*
X239089056Y-87965660D01*
X238846794Y-87865312D01*
X238846787Y-87865310D01*
X238846785Y-87865309D01*
X238593482Y-87797437D01*
X238535705Y-87789830D01*
X238333493Y-87763207D01*
X238333486Y-87763207D01*
X238071246Y-87763207D01*
X238071238Y-87763207D01*
X237840138Y-87793633D01*
X237811250Y-87797437D01*
X237557947Y-87865309D01*
X237557937Y-87865312D01*
X237315675Y-87965660D01*
X237315665Y-87965665D01*
X237088562Y-88096782D01*
X236880514Y-88256425D01*
X236695084Y-88441855D01*
X236535441Y-88649903D01*
X236404324Y-88877006D01*
X236404319Y-88877016D01*
X236303971Y-89119278D01*
X236303968Y-89119288D01*
X236243268Y-89345827D01*
X236236096Y-89372592D01*
X236201866Y-89632579D01*
X215080644Y-89632579D01*
X214858918Y-89308899D01*
X214715730Y-89119288D01*
X214435885Y-88748713D01*
X214349311Y-88634070D01*
X213809082Y-87983497D01*
X213809077Y-87983491D01*
X213809071Y-87983484D01*
X213239412Y-87358598D01*
X213239399Y-87358584D01*
X213239384Y-87358568D01*
X212641432Y-86760616D01*
X212641416Y-86760601D01*
X212641401Y-86760587D01*
X212016515Y-86190928D01*
X212016503Y-86190918D01*
X211365930Y-85650689D01*
X211308637Y-85607423D01*
X210691103Y-85141083D01*
X210257842Y-84844293D01*
X209993457Y-84663185D01*
X209274487Y-84218017D01*
X208894098Y-84006142D01*
X208535739Y-83806537D01*
X208535702Y-83806517D01*
X207778741Y-83429596D01*
X207005209Y-83088048D01*
X207005190Y-83088040D01*
X207005167Y-83088030D01*
X206216639Y-82782553D01*
X206216630Y-82782550D01*
X206216625Y-82782548D01*
X205414854Y-82513822D01*
X205414853Y-82513821D01*
X205414845Y-82513819D01*
X205414836Y-82513816D01*
X205414825Y-82513813D01*
X204601505Y-82282403D01*
X204601498Y-82282401D01*
X203778344Y-82088797D01*
X203778334Y-82088795D01*
X203778325Y-82088793D01*
X203246427Y-81989363D01*
X202947088Y-81933407D01*
X202109580Y-81816580D01*
X202109559Y-81816578D01*
X201267539Y-81738553D01*
X200558841Y-81705788D01*
X200422816Y-81699500D01*
X199577184Y-81699500D01*
X199448088Y-81705468D01*
X198732460Y-81738553D01*
X197890440Y-81816578D01*
X197890419Y-81816580D01*
X197052911Y-81933407D01*
X196617415Y-82014816D01*
X196221675Y-82088793D01*
X196221669Y-82088794D01*
X196221655Y-82088797D01*
X195398501Y-82282401D01*
X195398494Y-82282403D01*
X194585174Y-82513813D01*
X194585145Y-82513822D01*
X193783374Y-82782548D01*
X193783361Y-82782552D01*
X193783361Y-82782553D01*
X192994833Y-83088030D01*
X192994824Y-83088034D01*
X192994790Y-83088048D01*
X192221258Y-83429596D01*
X191464297Y-83806517D01*
X191464260Y-83806537D01*
X190725523Y-84218011D01*
X190725501Y-84218024D01*
X190006546Y-84663183D01*
X189308896Y-85141083D01*
X188634094Y-85650670D01*
X188634052Y-85650703D01*
X187983499Y-86190916D01*
X187983484Y-86190928D01*
X187358598Y-86760587D01*
X187358547Y-86760636D01*
X186760636Y-87358547D01*
X186760587Y-87358598D01*
X186190928Y-87983484D01*
X186190916Y-87983499D01*
X185650703Y-88634052D01*
X185650670Y-88634094D01*
X185141083Y-89308896D01*
X184663183Y-90006546D01*
X184218024Y-90725501D01*
X184218011Y-90725523D01*
X183806537Y-91464260D01*
X183806517Y-91464297D01*
X183429596Y-92221258D01*
X183088048Y-92994790D01*
X183088034Y-92994823D01*
X183088030Y-92994833D01*
X182782553Y-93783361D01*
X182782548Y-93783374D01*
X182513822Y-94585145D01*
X182513813Y-94585174D01*
X182282403Y-95398494D01*
X182282401Y-95398501D01*
X182088797Y-96221655D01*
X182088794Y-96221669D01*
X182088793Y-96221675D01*
X182044783Y-96457105D01*
X181933407Y-97052911D01*
X181816580Y-97890419D01*
X181816578Y-97890440D01*
X181738553Y-98732460D01*
X181712699Y-99291686D01*
X181699500Y-99577184D01*
X176707655Y-99577184D01*
X176713812Y-99213462D01*
X176713954Y-99209294D01*
X176714301Y-99202485D01*
X176753777Y-98425749D01*
X176754060Y-98421589D01*
X176756380Y-98394250D01*
X176820377Y-97639878D01*
X176820802Y-97635712D01*
X176909442Y-96891118D01*
X176909573Y-96890068D01*
X176910632Y-96881805D01*
X176918376Y-96852910D01*
X176918376Y-96821447D01*
X176919384Y-96813590D01*
X176919456Y-96813423D01*
X176919511Y-96812627D01*
X176922690Y-96789297D01*
X176918376Y-96755344D01*
X176918376Y-96721126D01*
X176910106Y-96690265D01*
X176906079Y-96658564D01*
X176896097Y-96634155D01*
X176891095Y-96619311D01*
X176887741Y-96606795D01*
X176884268Y-96593832D01*
X176872497Y-96573444D01*
X176865111Y-96558384D01*
X176856197Y-96536585D01*
X176835486Y-96509339D01*
X176818375Y-96479703D01*
X176795783Y-96457111D01*
X176776445Y-96431672D01*
X176755590Y-96415519D01*
X176755585Y-96415515D01*
X176755585Y-96415514D01*
X176749380Y-96410708D01*
X176725190Y-96386518D01*
X176697522Y-96370543D01*
X176690874Y-96365394D01*
X176690872Y-96365392D01*
X176672262Y-96350980D01*
X176672257Y-96350976D01*
X176668706Y-96349486D01*
X176647922Y-96340766D01*
X176647922Y-96340765D01*
X176640687Y-96337730D01*
X176611061Y-96320626D01*
X176580201Y-96312356D01*
X176572446Y-96309103D01*
X176572445Y-96309102D01*
X176550734Y-96299995D01*
X176550731Y-96299994D01*
X176524590Y-96296432D01*
X176509242Y-96293343D01*
X158461464Y-91457455D01*
X158460870Y-91457294D01*
X158449703Y-91454242D01*
X158433881Y-91446542D01*
X158391536Y-91438346D01*
X158387003Y-91437108D01*
X158361088Y-91421135D01*
X158334050Y-91407169D01*
X158331637Y-91402983D01*
X158327524Y-91400448D01*
X158314359Y-91373002D01*
X158299163Y-91346633D01*
X158299396Y-91341806D01*
X158297307Y-91337450D01*
X158301070Y-91307243D01*
X158302543Y-91276845D01*
X158305725Y-91269882D01*
X158305946Y-91268116D01*
X158307246Y-91266556D01*
X158312304Y-91255494D01*
X158324051Y-91235148D01*
X158384577Y-91130313D01*
X158425501Y-90977586D01*
X158425501Y-90819471D01*
X158425501Y-90811876D01*
X158425500Y-90811858D01*
X158425500Y-90304765D01*
X158445185Y-90237726D01*
X158446398Y-90235874D01*
X158534390Y-90104185D01*
X158534390Y-90104184D01*
X158534394Y-90104179D01*
X158594737Y-89958497D01*
X158625500Y-89803842D01*
X158625500Y-89646158D01*
X158625500Y-89646155D01*
X158625499Y-89646153D01*
X158619942Y-89618216D01*
X158594737Y-89491503D01*
X158587308Y-89473567D01*
X158534397Y-89345827D01*
X158534390Y-89345814D01*
X158446789Y-89214711D01*
X158446786Y-89214707D01*
X158335292Y-89103213D01*
X158335288Y-89103210D01*
X158204185Y-89015609D01*
X158204172Y-89015602D01*
X158058501Y-88955264D01*
X158058489Y-88955261D01*
X157903845Y-88924500D01*
X157903842Y-88924500D01*
X157881289Y-88924500D01*
X157814250Y-88904815D01*
X157768495Y-88852011D01*
X157758551Y-88782853D01*
X157787576Y-88719297D01*
X157819289Y-88693113D01*
X157878998Y-88658640D01*
X157884402Y-88655520D01*
X157996206Y-88543716D01*
X157996206Y-88543714D01*
X158006410Y-88533511D01*
X158006413Y-88533506D01*
X158728103Y-87811819D01*
X158789426Y-87778334D01*
X158815784Y-87775500D01*
X160777536Y-87775500D01*
X160844575Y-87795185D01*
X160890330Y-87847989D01*
X160900274Y-87917147D01*
X160871249Y-87980703D01*
X160839536Y-88006887D01*
X160683830Y-88096782D01*
X160475782Y-88256425D01*
X160290352Y-88441855D01*
X160130709Y-88649903D01*
X159999592Y-88877006D01*
X159999587Y-88877016D01*
X159899239Y-89119278D01*
X159899236Y-89119288D01*
X159838536Y-89345827D01*
X159831364Y-89372592D01*
X159797134Y-89632579D01*
X159797134Y-89894834D01*
X159821059Y-90076553D01*
X159831364Y-90154823D01*
X159897085Y-90400097D01*
X159899236Y-90408125D01*
X159899239Y-90408135D01*
X159999587Y-90650397D01*
X159999592Y-90650407D01*
X160130709Y-90877510D01*
X160290352Y-91085558D01*
X160290360Y-91085567D01*
X160475774Y-91270981D01*
X160475782Y-91270988D01*
X160683830Y-91430631D01*
X160910933Y-91561748D01*
X160910943Y-91561753D01*
X161138906Y-91656178D01*
X161153215Y-91662105D01*
X161406518Y-91729977D01*
X161666514Y-91764207D01*
X161666521Y-91764207D01*
X161928747Y-91764207D01*
X161928754Y-91764207D01*
X162188750Y-91729977D01*
X162442053Y-91662105D01*
X162684331Y-91561750D01*
X162911437Y-91430631D01*
X163119485Y-91270989D01*
X163119489Y-91270984D01*
X163119494Y-91270981D01*
X163304908Y-91085567D01*
X163304911Y-91085562D01*
X163304916Y-91085558D01*
X163464558Y-90877510D01*
X163595677Y-90650404D01*
X163696032Y-90408126D01*
X163763904Y-90154823D01*
X163798134Y-89894827D01*
X163798134Y-89632587D01*
X163763904Y-89372591D01*
X163696032Y-89119288D01*
X163653087Y-89015609D01*
X163595680Y-88877016D01*
X163595675Y-88877006D01*
X163464558Y-88649903D01*
X163304915Y-88441855D01*
X163304908Y-88441847D01*
X163119494Y-88256433D01*
X163119485Y-88256425D01*
X162911437Y-88096782D01*
X162755732Y-88006887D01*
X162707517Y-87956320D01*
X162694293Y-87887713D01*
X162720261Y-87822849D01*
X162777175Y-87782320D01*
X162817732Y-87775500D01*
X185518331Y-87775500D01*
X185518347Y-87775501D01*
X185525943Y-87775501D01*
X185684054Y-87775501D01*
X185684057Y-87775501D01*
X185836785Y-87734577D01*
X185906233Y-87694481D01*
X185973716Y-87655520D01*
X186085520Y-87543716D01*
X186085520Y-87543714D01*
X186095724Y-87533511D01*
X186095728Y-87533506D01*
X189933506Y-83695728D01*
X189933511Y-83695724D01*
X189943714Y-83685520D01*
X189943716Y-83685520D01*
X190055520Y-83573716D01*
X190114364Y-83471795D01*
X190134577Y-83436785D01*
X190175501Y-83284057D01*
X190175501Y-83125943D01*
X190175501Y-83118348D01*
X190175500Y-83118330D01*
X190175500Y-81649361D01*
X190195185Y-81582322D01*
X190211814Y-81561684D01*
X190274464Y-81499035D01*
X190373013Y-81351547D01*
X190440894Y-81187666D01*
X190446231Y-81160839D01*
X190468610Y-81048328D01*
X190475500Y-81013691D01*
X190475500Y-80874500D01*
X190495185Y-80807461D01*
X190547989Y-80761706D01*
X190599500Y-80750500D01*
X199325639Y-80750500D01*
X199392678Y-80770185D01*
X199413315Y-80786814D01*
X199449490Y-80822989D01*
X199475966Y-80849465D01*
X199623446Y-80948009D01*
X199623459Y-80948016D01*
X199746363Y-80998923D01*
X199787334Y-81015894D01*
X199787336Y-81015894D01*
X199787341Y-81015896D01*
X199961304Y-81050499D01*
X199961307Y-81050500D01*
X199961309Y-81050500D01*
X200138693Y-81050500D01*
X200138694Y-81050499D01*
X200196682Y-81038964D01*
X200312658Y-81015896D01*
X200312661Y-81015894D01*
X200312666Y-81015894D01*
X200476547Y-80948013D01*
X200624035Y-80849464D01*
X200749464Y-80724035D01*
X200848013Y-80576547D01*
X200915894Y-80412666D01*
X200950500Y-80238691D01*
X200950500Y-80061309D01*
X200950500Y-80061306D01*
X200950499Y-80061304D01*
X200915896Y-79887341D01*
X200915893Y-79887332D01*
X200848016Y-79723459D01*
X200848009Y-79723446D01*
X200749464Y-79575965D01*
X200749461Y-79575961D01*
X200624038Y-79450538D01*
X200624034Y-79450535D01*
X200476553Y-79351990D01*
X200476540Y-79351983D01*
X200312667Y-79284106D01*
X200312658Y-79284103D01*
X200138694Y-79249500D01*
X200138691Y-79249500D01*
X199961309Y-79249500D01*
X199961306Y-79249500D01*
X199787341Y-79284103D01*
X199787332Y-79284106D01*
X199623459Y-79351983D01*
X199623446Y-79351990D01*
X199475966Y-79450534D01*
X199444643Y-79481857D01*
X199413318Y-79513182D01*
X199351998Y-79546666D01*
X199325639Y-79549500D01*
X186175098Y-79549500D01*
X186108059Y-79529815D01*
X186087417Y-79513181D01*
X185411991Y-78837755D01*
X185378506Y-78776432D01*
X185383490Y-78706740D01*
X185425362Y-78650807D01*
X185490826Y-78626390D01*
X185559099Y-78641242D01*
X185561672Y-78642687D01*
X185677530Y-78709577D01*
X185830257Y-78750501D01*
X185830259Y-78750501D01*
X185995968Y-78750501D01*
X185995984Y-78750500D01*
X188779017Y-78750500D01*
X188779033Y-78750501D01*
X188786629Y-78750501D01*
X188944740Y-78750501D01*
X188944743Y-78750501D01*
X189097471Y-78709577D01*
X189154680Y-78676547D01*
X189234402Y-78630520D01*
X189346206Y-78518716D01*
X189346206Y-78518714D01*
X189356410Y-78508511D01*
X189356413Y-78508506D01*
X192393767Y-75471153D01*
X195749500Y-75471153D01*
X195749500Y-75628846D01*
X195780261Y-75783489D01*
X195780264Y-75783501D01*
X195840602Y-75929172D01*
X195840609Y-75929185D01*
X195928210Y-76060288D01*
X195928213Y-76060292D01*
X196039707Y-76171786D01*
X196039711Y-76171789D01*
X196170814Y-76259390D01*
X196170827Y-76259397D01*
X196316498Y-76319735D01*
X196316503Y-76319737D01*
X196471153Y-76350499D01*
X196471156Y-76350500D01*
X196471158Y-76350500D01*
X196628844Y-76350500D01*
X196628845Y-76350499D01*
X196783497Y-76319737D01*
X196929179Y-76259394D01*
X196935022Y-76255489D01*
X197001694Y-76234610D01*
X197069075Y-76253091D01*
X197078212Y-76259314D01*
X197157665Y-76318793D01*
X197157668Y-76318795D01*
X197157671Y-76318797D01*
X197292517Y-76369091D01*
X197292516Y-76369091D01*
X197299444Y-76369835D01*
X197352127Y-76375500D01*
X198497872Y-76375499D01*
X198557483Y-76369091D01*
X198692331Y-76318796D01*
X198807546Y-76232546D01*
X198831768Y-76200190D01*
X198887701Y-76158318D01*
X198931035Y-76150500D01*
X201068965Y-76150500D01*
X201136004Y-76170185D01*
X201168232Y-76200190D01*
X201192449Y-76232541D01*
X201192452Y-76232544D01*
X201192454Y-76232546D01*
X201192457Y-76232548D01*
X201307664Y-76318793D01*
X201307671Y-76318797D01*
X201335507Y-76329179D01*
X201442517Y-76369091D01*
X201502127Y-76375500D01*
X201999902Y-76375499D01*
X202066941Y-76395183D01*
X202087583Y-76411818D01*
X203038181Y-77362416D01*
X203071666Y-77423739D01*
X203074500Y-77450097D01*
X203074500Y-77588695D01*
X203109103Y-77762658D01*
X203109106Y-77762667D01*
X203176983Y-77926540D01*
X203176990Y-77926553D01*
X203275535Y-78074034D01*
X203275538Y-78074038D01*
X203400961Y-78199461D01*
X203400965Y-78199464D01*
X203548446Y-78298009D01*
X203548459Y-78298016D01*
X203646659Y-78338691D01*
X203712334Y-78365894D01*
X203712336Y-78365894D01*
X203712341Y-78365896D01*
X203886304Y-78400499D01*
X203886307Y-78400500D01*
X203886309Y-78400500D01*
X204063693Y-78400500D01*
X204063694Y-78400499D01*
X204121682Y-78388964D01*
X204237658Y-78365896D01*
X204237661Y-78365894D01*
X204237666Y-78365894D01*
X204401547Y-78298013D01*
X204549035Y-78199464D01*
X204674464Y-78074035D01*
X204773013Y-77926547D01*
X204840894Y-77762666D01*
X204875500Y-77588691D01*
X204875500Y-77411309D01*
X204875500Y-77411306D01*
X204875499Y-77411304D01*
X204840896Y-77237341D01*
X204840893Y-77237332D01*
X204837518Y-77229185D01*
X204806633Y-77154620D01*
X204773016Y-77073459D01*
X204773009Y-77073446D01*
X204674464Y-76925965D01*
X204674461Y-76925961D01*
X204549038Y-76800538D01*
X204549034Y-76800535D01*
X204401553Y-76701990D01*
X204401540Y-76701983D01*
X204237667Y-76634106D01*
X204237658Y-76634103D01*
X204063694Y-76599500D01*
X204063691Y-76599500D01*
X204025098Y-76599500D01*
X203958059Y-76579815D01*
X203937417Y-76563181D01*
X203136818Y-75762582D01*
X203103333Y-75701259D01*
X203100499Y-75674901D01*
X203100499Y-75177129D01*
X203100498Y-75177123D01*
X203099821Y-75170827D01*
X203094416Y-75120540D01*
X203094091Y-75117516D01*
X203043797Y-74982671D01*
X203043793Y-74982664D01*
X202957547Y-74867455D01*
X202957544Y-74867452D01*
X202842335Y-74781206D01*
X202842328Y-74781202D01*
X202707482Y-74730908D01*
X202707483Y-74730908D01*
X202647883Y-74724501D01*
X202647881Y-74724500D01*
X202647873Y-74724500D01*
X202647864Y-74724500D01*
X201502129Y-74724500D01*
X201502123Y-74724501D01*
X201442516Y-74730908D01*
X201307671Y-74781202D01*
X201307664Y-74781206D01*
X201192457Y-74867451D01*
X201192449Y-74867458D01*
X201168232Y-74899810D01*
X201112299Y-74941682D01*
X201068965Y-74949500D01*
X198931035Y-74949500D01*
X198863996Y-74929815D01*
X198831768Y-74899810D01*
X198807550Y-74867458D01*
X198807547Y-74867455D01*
X198807546Y-74867454D01*
X198785068Y-74850627D01*
X198692335Y-74781206D01*
X198692328Y-74781202D01*
X198557482Y-74730908D01*
X198557483Y-74730908D01*
X198497883Y-74724501D01*
X198497881Y-74724500D01*
X198497873Y-74724500D01*
X198497864Y-74724500D01*
X197352129Y-74724500D01*
X197352123Y-74724501D01*
X197292516Y-74730908D01*
X197157671Y-74781202D01*
X197157669Y-74781203D01*
X197078223Y-74840676D01*
X197012758Y-74865092D01*
X196944486Y-74850240D01*
X196935023Y-74844511D01*
X196929179Y-74840606D01*
X196929176Y-74840604D01*
X196929175Y-74840604D01*
X196783501Y-74780264D01*
X196783489Y-74780261D01*
X196628845Y-74749500D01*
X196628842Y-74749500D01*
X196471158Y-74749500D01*
X196471155Y-74749500D01*
X196316510Y-74780261D01*
X196316498Y-74780264D01*
X196170827Y-74840602D01*
X196170814Y-74840609D01*
X196039711Y-74928210D01*
X196039707Y-74928213D01*
X195928213Y-75039707D01*
X195928210Y-75039711D01*
X195840609Y-75170814D01*
X195840602Y-75170827D01*
X195780264Y-75316498D01*
X195780261Y-75316510D01*
X195749500Y-75471153D01*
X192393767Y-75471153D01*
X194092077Y-73772844D01*
X196900000Y-73772844D01*
X196906401Y-73832372D01*
X196906403Y-73832379D01*
X196956645Y-73967086D01*
X196956649Y-73967093D01*
X197042809Y-74082187D01*
X197042812Y-74082190D01*
X197157906Y-74168350D01*
X197157913Y-74168354D01*
X197292620Y-74218596D01*
X197292627Y-74218598D01*
X197352155Y-74224999D01*
X197352172Y-74225000D01*
X197675000Y-74225000D01*
X198175000Y-74225000D01*
X198497828Y-74225000D01*
X198497844Y-74224999D01*
X198557372Y-74218598D01*
X198557379Y-74218596D01*
X198692086Y-74168354D01*
X198692093Y-74168350D01*
X198807187Y-74082190D01*
X198807190Y-74082187D01*
X198893350Y-73967093D01*
X198893354Y-73967086D01*
X198943596Y-73832379D01*
X198943598Y-73832372D01*
X198949999Y-73772844D01*
X201050000Y-73772844D01*
X201056401Y-73832372D01*
X201056403Y-73832379D01*
X201106645Y-73967086D01*
X201106649Y-73967093D01*
X201192809Y-74082187D01*
X201192812Y-74082190D01*
X201307906Y-74168350D01*
X201307913Y-74168354D01*
X201442620Y-74218596D01*
X201442627Y-74218598D01*
X201502155Y-74224999D01*
X201502172Y-74225000D01*
X201825000Y-74225000D01*
X202325000Y-74225000D01*
X202647828Y-74225000D01*
X202647844Y-74224999D01*
X202707372Y-74218598D01*
X202707379Y-74218596D01*
X202842086Y-74168354D01*
X202842093Y-74168350D01*
X202957187Y-74082190D01*
X202957190Y-74082187D01*
X203043350Y-73967093D01*
X203043354Y-73967086D01*
X203093596Y-73832379D01*
X203093598Y-73832372D01*
X203099999Y-73772844D01*
X203100000Y-73772827D01*
X203100000Y-73650000D01*
X202325000Y-73650000D01*
X202325000Y-74225000D01*
X201825000Y-74225000D01*
X201825000Y-73650000D01*
X201050000Y-73650000D01*
X201050000Y-73772844D01*
X198949999Y-73772844D01*
X198950000Y-73772827D01*
X198950000Y-73650000D01*
X198175000Y-73650000D01*
X198175000Y-74225000D01*
X197675000Y-74225000D01*
X197675000Y-73650000D01*
X196900000Y-73650000D01*
X196900000Y-73772844D01*
X194092077Y-73772844D01*
X194837766Y-73027155D01*
X196900000Y-73027155D01*
X196900000Y-73150000D01*
X197675000Y-73150000D01*
X198175000Y-73150000D01*
X198950000Y-73150000D01*
X198950000Y-73027172D01*
X198949999Y-73027155D01*
X201050000Y-73027155D01*
X201050000Y-73150000D01*
X201825000Y-73150000D01*
X202325000Y-73150000D01*
X203100000Y-73150000D01*
X203100000Y-73027172D01*
X203099999Y-73027155D01*
X203093598Y-72967627D01*
X203093596Y-72967620D01*
X203043354Y-72832913D01*
X203043350Y-72832906D01*
X202957190Y-72717812D01*
X202957187Y-72717809D01*
X202842093Y-72631649D01*
X202842086Y-72631645D01*
X202707379Y-72581403D01*
X202707372Y-72581401D01*
X202647844Y-72575000D01*
X202325000Y-72575000D01*
X202325000Y-73150000D01*
X201825000Y-73150000D01*
X201825000Y-72575000D01*
X201502155Y-72575000D01*
X201442627Y-72581401D01*
X201442620Y-72581403D01*
X201307913Y-72631645D01*
X201307906Y-72631649D01*
X201192812Y-72717809D01*
X201192809Y-72717812D01*
X201106649Y-72832906D01*
X201106645Y-72832913D01*
X201056403Y-72967620D01*
X201056401Y-72967627D01*
X201050000Y-73027155D01*
X198949999Y-73027155D01*
X198943598Y-72967627D01*
X198943596Y-72967620D01*
X198893354Y-72832913D01*
X198893350Y-72832906D01*
X198807190Y-72717812D01*
X198807187Y-72717809D01*
X198692093Y-72631649D01*
X198692086Y-72631645D01*
X198557379Y-72581403D01*
X198557372Y-72581401D01*
X198497844Y-72575000D01*
X198175000Y-72575000D01*
X198175000Y-73150000D01*
X197675000Y-73150000D01*
X197675000Y-72575000D01*
X197352155Y-72575000D01*
X197292627Y-72581401D01*
X197292620Y-72581403D01*
X197157913Y-72631645D01*
X197157906Y-72631649D01*
X197042812Y-72717809D01*
X197042809Y-72717812D01*
X196956649Y-72832906D01*
X196956645Y-72832913D01*
X196906403Y-72967620D01*
X196906401Y-72967627D01*
X196900000Y-73027155D01*
X194837766Y-73027155D01*
X195728102Y-72136819D01*
X195789425Y-72103334D01*
X195815783Y-72100500D01*
X201729017Y-72100500D01*
X201729033Y-72100501D01*
X201736629Y-72100501D01*
X201894740Y-72100501D01*
X201894743Y-72100501D01*
X202047471Y-72059577D01*
X202099863Y-72029328D01*
X202184402Y-71980520D01*
X202296206Y-71868716D01*
X202296206Y-71868714D01*
X202306410Y-71858511D01*
X202306413Y-71858506D01*
X205028103Y-69136819D01*
X205055030Y-69122115D01*
X205080849Y-69105523D01*
X205087049Y-69104631D01*
X205089426Y-69103334D01*
X205115784Y-69100500D01*
X205339281Y-69100500D01*
X205406320Y-69120185D01*
X205449765Y-69168205D01*
X205469947Y-69207814D01*
X205469948Y-69207815D01*
X205594890Y-69379786D01*
X205745209Y-69530105D01*
X205745214Y-69530109D01*
X205909793Y-69649682D01*
X205952459Y-69705011D01*
X205958438Y-69774625D01*
X205925833Y-69836420D01*
X205909793Y-69850318D01*
X205745214Y-69969890D01*
X205745209Y-69969894D01*
X205594890Y-70120213D01*
X205469951Y-70292179D01*
X205373444Y-70481585D01*
X205307753Y-70683760D01*
X205286902Y-70815411D01*
X205274500Y-70893713D01*
X205274500Y-71106287D01*
X205276058Y-71116124D01*
X205295465Y-71238658D01*
X205307754Y-71316243D01*
X205342495Y-71423165D01*
X205373444Y-71518414D01*
X205469951Y-71707820D01*
X205594890Y-71879786D01*
X205745209Y-72030105D01*
X205745214Y-72030109D01*
X205909793Y-72149682D01*
X205952459Y-72205011D01*
X205958438Y-72274625D01*
X205925833Y-72336420D01*
X205909793Y-72350318D01*
X205745214Y-72469890D01*
X205745209Y-72469894D01*
X205594890Y-72620213D01*
X205469951Y-72792179D01*
X205373444Y-72981585D01*
X205307753Y-73183760D01*
X205294411Y-73268001D01*
X205274500Y-73393713D01*
X205274500Y-73606287D01*
X205280553Y-73644505D01*
X205300877Y-73772827D01*
X205307754Y-73816243D01*
X205373382Y-74018225D01*
X205373444Y-74018414D01*
X205469951Y-74207820D01*
X205594890Y-74379786D01*
X205745209Y-74530105D01*
X205745214Y-74530109D01*
X205910218Y-74649991D01*
X205952884Y-74705320D01*
X205958863Y-74774934D01*
X205926258Y-74836729D01*
X205910218Y-74850627D01*
X205745540Y-74970272D01*
X205745535Y-74970276D01*
X205595276Y-75120535D01*
X205595272Y-75120540D01*
X205470379Y-75292442D01*
X205373904Y-75481782D01*
X205308242Y-75683870D01*
X205308242Y-75683873D01*
X205297769Y-75750000D01*
X206345854Y-75750000D01*
X206307370Y-75816657D01*
X206275000Y-75937465D01*
X206275000Y-76062535D01*
X206307370Y-76183343D01*
X206345854Y-76250000D01*
X205297769Y-76250000D01*
X205308242Y-76316126D01*
X205308242Y-76316129D01*
X205373904Y-76518217D01*
X205470379Y-76707557D01*
X205595272Y-76879459D01*
X205595276Y-76879464D01*
X205745535Y-77029723D01*
X205745540Y-77029727D01*
X205917442Y-77154620D01*
X206106782Y-77251095D01*
X206308872Y-77316757D01*
X206500000Y-77347029D01*
X206500000Y-76404145D01*
X206566657Y-76442630D01*
X206687465Y-76475000D01*
X206812535Y-76475000D01*
X206933343Y-76442630D01*
X207000000Y-76404145D01*
X207000000Y-77347028D01*
X207191127Y-77316757D01*
X207393217Y-77251095D01*
X207582557Y-77154620D01*
X207754459Y-77029727D01*
X207754464Y-77029723D01*
X207904723Y-76879464D01*
X207904727Y-76879459D01*
X208029620Y-76707557D01*
X208126095Y-76518217D01*
X208191757Y-76316129D01*
X208191757Y-76316126D01*
X208202231Y-76250000D01*
X207154146Y-76250000D01*
X207192630Y-76183343D01*
X207225000Y-76062535D01*
X207225000Y-75937465D01*
X207192630Y-75816657D01*
X207154146Y-75750000D01*
X208202231Y-75750000D01*
X208191757Y-75683873D01*
X208191757Y-75683870D01*
X208126095Y-75481782D01*
X208029620Y-75292442D01*
X207904727Y-75120540D01*
X207904723Y-75120535D01*
X207754464Y-74970276D01*
X207754459Y-74970272D01*
X207589781Y-74850627D01*
X207547115Y-74795297D01*
X207541136Y-74725684D01*
X207573741Y-74663889D01*
X207589776Y-74649994D01*
X207754792Y-74530104D01*
X207905104Y-74379792D01*
X207905106Y-74379788D01*
X207905109Y-74379786D01*
X208030048Y-74207820D01*
X208030047Y-74207820D01*
X208030051Y-74207816D01*
X208126557Y-74018412D01*
X208192246Y-73816243D01*
X208225500Y-73606287D01*
X208225500Y-73393713D01*
X208193292Y-73190361D01*
X208202247Y-73121067D01*
X208228081Y-73083285D01*
X210427498Y-70883870D01*
X211524500Y-70883870D01*
X211524500Y-71116129D01*
X211560831Y-71345514D01*
X211632601Y-71566400D01*
X211691335Y-71681670D01*
X211738039Y-71773331D01*
X211874551Y-71961224D01*
X212038776Y-72125449D01*
X212226669Y-72261961D01*
X212324436Y-72311776D01*
X212433599Y-72367398D01*
X212433601Y-72367398D01*
X212433604Y-72367400D01*
X212654486Y-72439169D01*
X212772668Y-72457886D01*
X212883871Y-72475500D01*
X212883876Y-72475500D01*
X213116129Y-72475500D01*
X213217502Y-72459443D01*
X213345514Y-72439169D01*
X213566396Y-72367400D01*
X213773331Y-72261961D01*
X213961224Y-72125449D01*
X214125449Y-71961224D01*
X214261961Y-71773331D01*
X214367400Y-71566396D01*
X214439169Y-71345514D01*
X214459443Y-71217502D01*
X214475500Y-71116129D01*
X214475500Y-70883870D01*
X214454838Y-70753416D01*
X214439169Y-70654486D01*
X214367400Y-70433604D01*
X214367398Y-70433601D01*
X214367398Y-70433599D01*
X214273318Y-70248959D01*
X214261961Y-70226669D01*
X214125449Y-70038776D01*
X213961224Y-69874551D01*
X213773331Y-69738039D01*
X213748479Y-69725376D01*
X213566400Y-69632601D01*
X213345514Y-69560831D01*
X213116129Y-69524500D01*
X213116124Y-69524500D01*
X212883876Y-69524500D01*
X212883871Y-69524500D01*
X212654485Y-69560831D01*
X212433599Y-69632601D01*
X212226668Y-69738039D01*
X212038773Y-69874553D01*
X211874553Y-70038773D01*
X211738039Y-70226668D01*
X211632601Y-70433599D01*
X211560831Y-70654485D01*
X211524500Y-70883870D01*
X210427498Y-70883870D01*
X210557952Y-70753416D01*
X210619313Y-70661581D01*
X210640084Y-70630495D01*
X210669963Y-70558361D01*
X210696659Y-70493912D01*
X210725500Y-70348917D01*
X210725500Y-70201082D01*
X210725500Y-69560269D01*
X210745185Y-69493230D01*
X210746398Y-69491378D01*
X210773013Y-69451547D01*
X210840894Y-69287666D01*
X210850240Y-69240678D01*
X210882624Y-69178770D01*
X210884120Y-69177246D01*
X212581938Y-67479428D01*
X212643259Y-67445945D01*
X212689015Y-67444638D01*
X212883871Y-67475500D01*
X212883876Y-67475500D01*
X213116129Y-67475500D01*
X213218409Y-67459300D01*
X213345514Y-67439169D01*
X213566396Y-67367400D01*
X213773331Y-67261961D01*
X213961224Y-67125449D01*
X214125449Y-66961224D01*
X214261961Y-66773331D01*
X214367400Y-66566396D01*
X214439169Y-66345514D01*
X214461151Y-66206723D01*
X214475500Y-66116129D01*
X214475500Y-65883870D01*
X214446956Y-65703653D01*
X214439169Y-65654486D01*
X214367400Y-65433604D01*
X214367398Y-65433601D01*
X214367398Y-65433599D01*
X214311776Y-65324436D01*
X214261961Y-65226669D01*
X214125449Y-65038776D01*
X213961224Y-64874551D01*
X213773331Y-64738039D01*
X213706640Y-64704058D01*
X213566400Y-64632601D01*
X213345514Y-64560831D01*
X213116129Y-64524500D01*
X213116124Y-64524500D01*
X212883876Y-64524500D01*
X212883871Y-64524500D01*
X212654485Y-64560831D01*
X212433599Y-64632601D01*
X212226668Y-64738039D01*
X212038773Y-64874553D01*
X211874553Y-65038773D01*
X211738039Y-65226668D01*
X211632601Y-65433599D01*
X211560831Y-65654485D01*
X211524500Y-65883870D01*
X211524500Y-66116129D01*
X211555361Y-66310982D01*
X211546406Y-66380276D01*
X211520569Y-66418061D01*
X209822807Y-68115823D01*
X209761484Y-68149308D01*
X209759319Y-68149759D01*
X209712337Y-68159104D01*
X209712331Y-68159106D01*
X209548459Y-68226983D01*
X209548446Y-68226990D01*
X209400965Y-68325535D01*
X209400961Y-68325538D01*
X209275538Y-68450961D01*
X209275535Y-68450965D01*
X209176990Y-68598446D01*
X209176983Y-68598459D01*
X209109106Y-68762332D01*
X209109103Y-68762341D01*
X209074500Y-68936304D01*
X209074500Y-69113695D01*
X209109103Y-69287658D01*
X209109106Y-69287667D01*
X209176984Y-69451542D01*
X209176985Y-69451543D01*
X209176987Y-69451547D01*
X209203602Y-69491378D01*
X209224480Y-69558055D01*
X209224500Y-69560269D01*
X209224500Y-69912770D01*
X209204815Y-69979809D01*
X209188181Y-70000451D01*
X208407075Y-70781556D01*
X208345752Y-70815041D01*
X208276060Y-70810057D01*
X208220127Y-70768185D01*
X208196921Y-70713273D01*
X208192246Y-70683760D01*
X208192246Y-70683757D01*
X208126557Y-70481588D01*
X208030051Y-70292184D01*
X208030049Y-70292181D01*
X208030048Y-70292179D01*
X207905109Y-70120213D01*
X207754792Y-69969896D01*
X207676164Y-69912770D01*
X207590204Y-69850316D01*
X207547540Y-69794989D01*
X207541561Y-69725376D01*
X207574166Y-69663580D01*
X207590199Y-69649686D01*
X207754792Y-69530104D01*
X207905104Y-69379792D01*
X207905106Y-69379788D01*
X207905109Y-69379786D01*
X208014086Y-69229789D01*
X208030051Y-69207816D01*
X208126557Y-69018412D01*
X208192246Y-68816243D01*
X208225500Y-68606287D01*
X208225500Y-68393713D01*
X208192246Y-68183757D01*
X208126557Y-67981588D01*
X208030051Y-67792184D01*
X208030049Y-67792181D01*
X208030048Y-67792179D01*
X207905109Y-67620213D01*
X207766294Y-67481398D01*
X207732809Y-67420075D01*
X207737793Y-67350383D01*
X207779665Y-67294450D01*
X207788879Y-67288178D01*
X207794331Y-67284814D01*
X207794334Y-67284814D01*
X207943656Y-67192712D01*
X208067712Y-67068656D01*
X208159814Y-66919334D01*
X208214999Y-66752797D01*
X208225500Y-66650009D01*
X208225499Y-65349992D01*
X208214999Y-65247203D01*
X208159814Y-65080666D01*
X208067712Y-64931344D01*
X207943656Y-64807288D01*
X207794334Y-64715186D01*
X207627797Y-64660001D01*
X207627795Y-64660000D01*
X207525010Y-64649500D01*
X205974998Y-64649500D01*
X205974981Y-64649501D01*
X205872203Y-64660000D01*
X205872200Y-64660001D01*
X205705668Y-64715185D01*
X205705663Y-64715187D01*
X205556342Y-64807289D01*
X205432289Y-64931342D01*
X205340187Y-65080663D01*
X205340186Y-65080666D01*
X205285001Y-65247203D01*
X205285001Y-65247204D01*
X205285000Y-65247204D01*
X205274500Y-65349983D01*
X205274500Y-66574902D01*
X205254815Y-66641941D01*
X205238181Y-66662583D01*
X201437584Y-70463181D01*
X201376261Y-70496666D01*
X201349903Y-70499500D01*
X195270942Y-70499500D01*
X195118214Y-70540423D01*
X195087146Y-70558361D01*
X195087145Y-70558361D01*
X194981287Y-70619477D01*
X194981282Y-70619481D01*
X188646116Y-76954648D01*
X188584793Y-76988133D01*
X188515101Y-76983149D01*
X188459168Y-76941277D01*
X188443874Y-76914419D01*
X188384397Y-76770827D01*
X188384390Y-76770814D01*
X188296398Y-76639125D01*
X188275520Y-76572447D01*
X188275500Y-76570234D01*
X188275500Y-68850097D01*
X188295185Y-68783058D01*
X188311819Y-68762416D01*
X194762416Y-62311819D01*
X194823739Y-62278334D01*
X194850097Y-62275500D01*
X210937159Y-62275500D01*
X211004198Y-62295185D01*
G37*
%TD.AperFunction*%
%TA.AperFunction,Conductor*%
G36*
X156350821Y-116238112D02*
G01*
X156389985Y-116266566D01*
X156395889Y-116270855D01*
X156524286Y-116336277D01*
X156592304Y-116370935D01*
X156592307Y-116370936D01*
X156801959Y-116439055D01*
X156854951Y-116447448D01*
X156918086Y-116477377D01*
X156955018Y-116536688D01*
X156954020Y-116606551D01*
X156935873Y-116642806D01*
X156922864Y-116660711D01*
X156922864Y-116660712D01*
X157850791Y-117045072D01*
X157825621Y-117059604D01*
X157741837Y-117143388D01*
X157682594Y-117246000D01*
X157651927Y-117360450D01*
X157651927Y-117478938D01*
X157659449Y-117507011D01*
X156731521Y-117122652D01*
X156701927Y-117309506D01*
X156701927Y-117529875D01*
X156736400Y-117747529D01*
X156804494Y-117957104D01*
X156904540Y-118153454D01*
X157034069Y-118331735D01*
X157189893Y-118487559D01*
X157342945Y-118598756D01*
X157727304Y-117670829D01*
X157741837Y-117696000D01*
X157825621Y-117779784D01*
X157928233Y-117839027D01*
X158042683Y-117869694D01*
X158161171Y-117869694D01*
X158189244Y-117862171D01*
X157819095Y-118755791D01*
X157785613Y-118802158D01*
X157667694Y-118904062D01*
X157564960Y-119046331D01*
X157497803Y-119208459D01*
X157497801Y-119208467D01*
X157469847Y-119381706D01*
X157469846Y-119381711D01*
X157482597Y-119556734D01*
X157512238Y-119655742D01*
X157735477Y-120194687D01*
X157977574Y-120779162D01*
X157995018Y-120821274D01*
X158002487Y-120890744D01*
X157971212Y-120953223D01*
X157911123Y-120988875D01*
X157841298Y-120986381D01*
X157792776Y-120956408D01*
X156190255Y-119353887D01*
X156156770Y-119292564D01*
X156153936Y-119266206D01*
X156153936Y-116338430D01*
X156173621Y-116271391D01*
X156226425Y-116225636D01*
X156295583Y-116215692D01*
X156350821Y-116238112D01*
G37*
%TD.AperFunction*%
%TA.AperFunction,Conductor*%
G36*
X244463773Y-115255368D02*
G01*
X244511384Y-115306505D01*
X244524500Y-115362010D01*
X244524500Y-117137770D01*
X244504815Y-117204809D01*
X244488181Y-117225451D01*
X242789536Y-118924096D01*
X242728213Y-118957581D01*
X242701855Y-118960415D01*
X242303214Y-118960415D01*
X242236175Y-118940730D01*
X242190420Y-118887926D01*
X242180476Y-118818768D01*
X242195024Y-118775827D01*
X242218075Y-118734665D01*
X241833715Y-117806738D01*
X241861790Y-117814261D01*
X241980278Y-117814261D01*
X242094728Y-117783594D01*
X242197340Y-117724351D01*
X242281124Y-117640567D01*
X242295654Y-117615398D01*
X242680014Y-118543322D01*
X242833073Y-118432120D01*
X242988891Y-118276302D01*
X243118420Y-118098021D01*
X243218466Y-117901671D01*
X243286560Y-117692096D01*
X243321034Y-117474442D01*
X243321034Y-117254079D01*
X243291438Y-117067219D01*
X242363511Y-117451577D01*
X242371034Y-117423505D01*
X242371034Y-117305017D01*
X242340367Y-117190567D01*
X242281124Y-117087955D01*
X242197340Y-117004171D01*
X242172169Y-116989638D01*
X243065787Y-116619490D01*
X243122250Y-116610379D01*
X243277686Y-116621703D01*
X243277686Y-116621702D01*
X243277688Y-116621703D01*
X243403734Y-116601363D01*
X243450930Y-116593748D01*
X243450932Y-116593747D01*
X243450935Y-116593747D01*
X243450936Y-116593746D01*
X243450938Y-116593746D01*
X243507297Y-116570401D01*
X243613065Y-116526590D01*
X243755337Y-116423854D01*
X243870083Y-116291076D01*
X243919131Y-116200110D01*
X244285939Y-115314556D01*
X244329780Y-115260154D01*
X244396074Y-115238089D01*
X244463773Y-115255368D01*
G37*
%TD.AperFunction*%
%TA.AperFunction,Conductor*%
G36*
X153501417Y-103838713D02*
G01*
X153506413Y-103842664D01*
X153506419Y-103842670D01*
X153655780Y-103934797D01*
X153766834Y-103971596D01*
X153822361Y-103989996D01*
X153859236Y-103993763D01*
X153925174Y-104000500D01*
X153925178Y-104000500D01*
X155324822Y-104000500D01*
X155324826Y-104000500D01*
X155387897Y-103994056D01*
X155456589Y-104006825D01*
X155507474Y-104054704D01*
X155524500Y-104117414D01*
X155524500Y-111713330D01*
X155524499Y-111713348D01*
X155524499Y-111879054D01*
X155524498Y-111879054D01*
X155565423Y-112031785D01*
X155565424Y-112031788D01*
X155566896Y-112034337D01*
X155566899Y-112034342D01*
X155644477Y-112168712D01*
X155644481Y-112168717D01*
X155763349Y-112287585D01*
X155763355Y-112287590D01*
X156958635Y-113482870D01*
X156964668Y-113493919D01*
X156974302Y-113502029D01*
X156981097Y-113524006D01*
X156992120Y-113544193D01*
X156991221Y-113556752D01*
X156994941Y-113568781D01*
X156988776Y-113590940D01*
X156987136Y-113613885D01*
X156979590Y-113623964D01*
X156976216Y-113636095D01*
X156959047Y-113651406D01*
X156945264Y-113669818D01*
X156932220Y-113675329D01*
X156924070Y-113682599D01*
X156890351Y-113693024D01*
X156884479Y-113693954D01*
X156815186Y-113684999D01*
X156777401Y-113659162D01*
X153336819Y-110218580D01*
X153303334Y-110157257D01*
X153300500Y-110130899D01*
X153300500Y-103935975D01*
X153320185Y-103868936D01*
X153372989Y-103823181D01*
X153442147Y-103813237D01*
X153501417Y-103838713D01*
G37*
%TD.AperFunction*%
%TA.AperFunction,Conductor*%
G36*
X243207772Y-86370431D02*
G01*
X243245558Y-86396269D01*
X244188922Y-87339633D01*
X244188951Y-87339664D01*
X244655573Y-87806284D01*
X245006750Y-88157461D01*
X245006779Y-88157492D01*
X247413181Y-90563893D01*
X247446666Y-90625216D01*
X247449500Y-90651574D01*
X247449500Y-100387769D01*
X247429815Y-100454808D01*
X247413181Y-100475450D01*
X246437262Y-101451368D01*
X246375939Y-101484853D01*
X246306247Y-101479869D01*
X246276696Y-101464005D01*
X246147319Y-101370008D01*
X246104653Y-101314679D01*
X246098674Y-101245065D01*
X246131279Y-101183270D01*
X246147319Y-101169372D01*
X246172513Y-101151066D01*
X246172514Y-101151066D01*
X245463585Y-100442137D01*
X245548694Y-100419333D01*
X245651306Y-100360090D01*
X245735090Y-100276306D01*
X245794333Y-100173694D01*
X245817137Y-100088585D01*
X246526066Y-100797514D01*
X246526066Y-100797513D01*
X246572386Y-100733760D01*
X246672432Y-100537410D01*
X246740526Y-100327835D01*
X246775000Y-100110181D01*
X246775000Y-99889818D01*
X246740526Y-99672164D01*
X246672432Y-99462589D01*
X246572388Y-99266243D01*
X246526066Y-99202485D01*
X246526065Y-99202485D01*
X245817137Y-99911413D01*
X245794333Y-99826306D01*
X245735090Y-99723694D01*
X245651306Y-99639910D01*
X245548694Y-99580667D01*
X245463584Y-99557861D01*
X246147601Y-98873844D01*
X246196279Y-98843819D01*
X246344220Y-98794797D01*
X246493581Y-98702670D01*
X246617670Y-98578581D01*
X246709797Y-98429220D01*
X246764996Y-98262638D01*
X246775500Y-98159826D01*
X246775500Y-96760174D01*
X246767504Y-96681913D01*
X246764996Y-96657361D01*
X246724975Y-96536585D01*
X246709797Y-96490780D01*
X246617670Y-96341419D01*
X246493581Y-96217330D01*
X246344220Y-96125203D01*
X246344217Y-96125202D01*
X246177638Y-96070003D01*
X246086897Y-96060733D01*
X246022205Y-96034336D01*
X245982054Y-95977155D01*
X245975500Y-95937375D01*
X245975500Y-89770945D01*
X245975500Y-89770943D01*
X245934577Y-89618216D01*
X245861420Y-89491503D01*
X245855524Y-89481290D01*
X245855521Y-89481286D01*
X245855520Y-89481284D01*
X245743716Y-89369480D01*
X245743715Y-89369479D01*
X245739385Y-89365149D01*
X245739374Y-89365139D01*
X242962866Y-86588631D01*
X242956832Y-86577581D01*
X242947200Y-86569473D01*
X242940404Y-86547496D01*
X242929381Y-86527308D01*
X242930279Y-86514749D01*
X242926560Y-86502721D01*
X242932723Y-86480562D01*
X242934365Y-86457616D01*
X242941911Y-86447535D01*
X242945285Y-86435408D01*
X242962450Y-86420099D01*
X242976237Y-86401683D01*
X242989281Y-86396170D01*
X242997430Y-86388903D01*
X243031142Y-86378478D01*
X243138481Y-86361477D01*
X243207772Y-86370431D01*
G37*
%TD.AperFunction*%
%TA.AperFunction,Conductor*%
G36*
X154205667Y-100233694D02*
G01*
X154264910Y-100336306D01*
X154348694Y-100420090D01*
X154451306Y-100479333D01*
X154536414Y-100502137D01*
X153852394Y-101186157D01*
X153803717Y-101216182D01*
X153655782Y-101265202D01*
X153655777Y-101265204D01*
X153506416Y-101357332D01*
X153501411Y-101361290D01*
X153436615Y-101387431D01*
X153367974Y-101374390D01*
X153317278Y-101326310D01*
X153300500Y-101264024D01*
X153300500Y-100978006D01*
X153320185Y-100910967D01*
X153372989Y-100865212D01*
X153434231Y-100854388D01*
X153473932Y-100857513D01*
X154182861Y-100148584D01*
X154205667Y-100233694D01*
G37*
%TD.AperFunction*%
%TA.AperFunction,Conductor*%
G36*
X153505703Y-98367576D02*
G01*
X153524817Y-98388402D01*
X153556758Y-98432365D01*
X153712640Y-98588247D01*
X153852679Y-98689990D01*
X153895345Y-98745319D01*
X153901324Y-98814933D01*
X153868719Y-98876728D01*
X153852679Y-98890626D01*
X153827485Y-98908930D01*
X153827485Y-98908932D01*
X154536414Y-99617861D01*
X154451306Y-99640667D01*
X154348694Y-99699910D01*
X154264910Y-99783694D01*
X154205667Y-99886306D01*
X154182861Y-99971414D01*
X153473932Y-99262485D01*
X153434229Y-99265610D01*
X153365852Y-99251246D01*
X153316095Y-99202195D01*
X153300500Y-99141992D01*
X153300500Y-98461289D01*
X153320185Y-98394250D01*
X153372989Y-98348495D01*
X153442147Y-98338551D01*
X153505703Y-98367576D01*
G37*
%TD.AperFunction*%
%TA.AperFunction,Conductor*%
G36*
X153793834Y-94267964D02*
G01*
X153849767Y-94309836D01*
X153874184Y-94375300D01*
X153874500Y-94384146D01*
X153874500Y-96270975D01*
X153854815Y-96338014D01*
X153823387Y-96371291D01*
X153802430Y-96386518D01*
X153712632Y-96451760D01*
X153556756Y-96607636D01*
X153524818Y-96651596D01*
X153469488Y-96694261D01*
X153399875Y-96700240D01*
X153338080Y-96667634D01*
X153303722Y-96606795D01*
X153300500Y-96578710D01*
X153300500Y-94710146D01*
X153320185Y-94643107D01*
X153336815Y-94622469D01*
X153662819Y-94296464D01*
X153724142Y-94262980D01*
X153793834Y-94267964D01*
G37*
%TD.AperFunction*%
%TA.AperFunction,Conductor*%
G36*
X157469137Y-88795185D02*
G01*
X157514892Y-88847989D01*
X157524836Y-88917147D01*
X157495811Y-88980703D01*
X157449549Y-89014062D01*
X157445821Y-89015605D01*
X157445814Y-89015609D01*
X157314711Y-89103210D01*
X157314707Y-89103213D01*
X157203213Y-89214707D01*
X157203210Y-89214711D01*
X157115609Y-89345814D01*
X157115602Y-89345827D01*
X157055264Y-89491498D01*
X157055261Y-89491510D01*
X157024500Y-89646153D01*
X157024500Y-89783740D01*
X157004815Y-89850779D01*
X156952011Y-89896534D01*
X156947953Y-89898301D01*
X156845824Y-89940604D01*
X156845814Y-89940609D01*
X156714711Y-90028210D01*
X156714707Y-90028213D01*
X156603213Y-90139707D01*
X156603210Y-90139711D01*
X156515609Y-90270814D01*
X156515602Y-90270827D01*
X156455264Y-90416498D01*
X156455261Y-90416508D01*
X156424361Y-90571850D01*
X156391976Y-90633761D01*
X156390425Y-90635339D01*
X155644481Y-91381282D01*
X155644477Y-91381287D01*
X155604777Y-91450050D01*
X155604774Y-91450057D01*
X155599602Y-91459016D01*
X155565423Y-91518215D01*
X155529939Y-91650639D01*
X155527873Y-91656178D01*
X155510333Y-91679603D01*
X155495104Y-91704588D01*
X155489637Y-91707243D01*
X155485996Y-91712107D01*
X155458578Y-91722330D01*
X155432257Y-91735116D01*
X155426223Y-91734394D01*
X155420529Y-91736518D01*
X155391936Y-91730294D01*
X155362882Y-91726821D01*
X155356676Y-91722620D01*
X155352257Y-91721659D01*
X155345981Y-91715382D01*
X155324014Y-91700514D01*
X155199038Y-91575538D01*
X155199034Y-91575535D01*
X155051553Y-91476990D01*
X155051540Y-91476983D01*
X154887667Y-91409106D01*
X154887658Y-91409103D01*
X154713694Y-91374500D01*
X154713691Y-91374500D01*
X154536309Y-91374500D01*
X154536306Y-91374500D01*
X154362341Y-91409103D01*
X154362332Y-91409106D01*
X154198459Y-91476983D01*
X154198446Y-91476990D01*
X154050965Y-91575535D01*
X154050961Y-91575538D01*
X153925538Y-91700961D01*
X153925535Y-91700965D01*
X153826990Y-91848446D01*
X153826983Y-91848459D01*
X153759106Y-92012331D01*
X153759104Y-92012337D01*
X153749759Y-92059319D01*
X153717373Y-92121230D01*
X153715823Y-92122807D01*
X152934407Y-92904223D01*
X152933781Y-92904845D01*
X152925400Y-92913106D01*
X152919502Y-92917049D01*
X152786881Y-93049668D01*
X152786555Y-93049991D01*
X152756104Y-93066338D01*
X152725858Y-93082854D01*
X152725400Y-93082821D01*
X152724995Y-93083039D01*
X152690536Y-93080328D01*
X152656166Y-93077870D01*
X152655798Y-93077595D01*
X152655341Y-93077559D01*
X152627865Y-93056684D01*
X152600233Y-93035998D01*
X152600072Y-93035567D01*
X152599707Y-93035290D01*
X152587873Y-93002861D01*
X152575816Y-92970534D01*
X152575787Y-92969740D01*
X152575756Y-92969654D01*
X152575780Y-92969544D01*
X152575500Y-92961688D01*
X152575500Y-90603373D01*
X152595185Y-90536334D01*
X152647989Y-90490579D01*
X152717147Y-90480635D01*
X152746950Y-90488811D01*
X152812334Y-90515894D01*
X152812336Y-90515894D01*
X152812341Y-90515896D01*
X152986304Y-90550499D01*
X152986307Y-90550500D01*
X152986309Y-90550500D01*
X153163693Y-90550500D01*
X153163694Y-90550499D01*
X153234923Y-90536331D01*
X153337658Y-90515896D01*
X153337661Y-90515894D01*
X153337666Y-90515894D01*
X153501547Y-90448013D01*
X153649035Y-90349464D01*
X153774464Y-90224035D01*
X153873013Y-90076547D01*
X153940894Y-89912666D01*
X153943752Y-89898301D01*
X153975499Y-89738695D01*
X153975500Y-89738693D01*
X153975500Y-89650097D01*
X153995185Y-89583058D01*
X154011819Y-89562416D01*
X154762416Y-88811819D01*
X154823739Y-88778334D01*
X154850097Y-88775500D01*
X157402098Y-88775500D01*
X157469137Y-88795185D01*
G37*
%TD.AperFunction*%
%TA.AperFunction,Conductor*%
G36*
X245730703Y-81102251D02*
G01*
X245764060Y-81148510D01*
X245800447Y-81236354D01*
X245992071Y-81698978D01*
X245993357Y-81702210D01*
X246487249Y-82996069D01*
X246488444Y-82999335D01*
X246945873Y-84306589D01*
X246946975Y-84309888D01*
X247056395Y-84653189D01*
X247301760Y-85423016D01*
X247367535Y-85629381D01*
X247368541Y-85632695D01*
X247693495Y-86760636D01*
X247751949Y-86963533D01*
X247752865Y-86966889D01*
X248098790Y-88307931D01*
X248099611Y-88311310D01*
X248245245Y-88949375D01*
X248240972Y-89019114D01*
X248199673Y-89075472D01*
X248134461Y-89100555D01*
X248066040Y-89086401D01*
X248036673Y-89064649D01*
X246066925Y-87094900D01*
X246066902Y-87094879D01*
X245732639Y-86760616D01*
X245561819Y-86589795D01*
X245528334Y-86528472D01*
X245525500Y-86502114D01*
X245525500Y-81195964D01*
X245545185Y-81128925D01*
X245597989Y-81083170D01*
X245667147Y-81073226D01*
X245730703Y-81102251D01*
G37*
%TD.AperFunction*%
%TA.AperFunction,Conductor*%
G36*
X152988066Y-87960288D02*
G01*
X153044000Y-88002159D01*
X153047835Y-88007578D01*
X153075538Y-88049038D01*
X153200961Y-88174461D01*
X153200965Y-88174464D01*
X153348446Y-88273009D01*
X153348453Y-88273013D01*
X153356814Y-88276476D01*
X153411218Y-88320316D01*
X153433284Y-88386610D01*
X153416006Y-88454310D01*
X153397045Y-88478719D01*
X153162582Y-88713182D01*
X153141565Y-88724658D01*
X153123003Y-88739791D01*
X153108486Y-88742721D01*
X153101262Y-88746666D01*
X153088855Y-88748713D01*
X153081905Y-88749500D01*
X152986309Y-88749500D01*
X152859959Y-88774632D01*
X152854799Y-88775217D01*
X152825284Y-88770063D01*
X152795446Y-88767394D01*
X152791228Y-88764118D01*
X152785971Y-88763200D01*
X152763930Y-88742911D01*
X152740269Y-88724530D01*
X152738493Y-88719495D01*
X152734565Y-88715880D01*
X152726991Y-88686890D01*
X152717025Y-88658640D01*
X152716847Y-88652004D01*
X152716847Y-88180357D01*
X152736532Y-88113318D01*
X152753160Y-88092681D01*
X152857055Y-87988786D01*
X152918374Y-87955304D01*
X152988066Y-87960288D01*
G37*
%TD.AperFunction*%
%TA.AperFunction,Conductor*%
G36*
X153804870Y-85081310D02*
G01*
X153819398Y-85082349D01*
X153836263Y-85094974D01*
X153855582Y-85103383D01*
X153872177Y-85121858D01*
X153875332Y-85124220D01*
X153879167Y-85129640D01*
X153925535Y-85199034D01*
X153925538Y-85199038D01*
X154050961Y-85324461D01*
X154050965Y-85324464D01*
X154198446Y-85423009D01*
X154198459Y-85423016D01*
X154321363Y-85473923D01*
X154362334Y-85490894D01*
X154362336Y-85490894D01*
X154362341Y-85490896D01*
X154536304Y-85525499D01*
X154536307Y-85525500D01*
X154536309Y-85525500D01*
X154713693Y-85525500D01*
X154713694Y-85525499D01*
X154771682Y-85513964D01*
X154887658Y-85490896D01*
X154887661Y-85490894D01*
X154887666Y-85490894D01*
X155051547Y-85423013D01*
X155199035Y-85324464D01*
X155274105Y-85249393D01*
X155335426Y-85215910D01*
X155405118Y-85220894D01*
X155461052Y-85262765D01*
X155485469Y-85328229D01*
X155485457Y-85346086D01*
X155479892Y-85422462D01*
X155479893Y-85422467D01*
X155507847Y-85595706D01*
X155507849Y-85595714D01*
X155575006Y-85757842D01*
X155677740Y-85900111D01*
X155743198Y-85956680D01*
X155781050Y-86015408D01*
X155781142Y-86085278D01*
X155743445Y-86144106D01*
X155679928Y-86173214D01*
X155662119Y-86174500D01*
X154395941Y-86174500D01*
X154374639Y-86180207D01*
X154374640Y-86180208D01*
X154243214Y-86215423D01*
X154243209Y-86215426D01*
X154106290Y-86294475D01*
X154106282Y-86294481D01*
X153862583Y-86538181D01*
X153835091Y-86553192D01*
X153808539Y-86569851D01*
X153803243Y-86570582D01*
X153801260Y-86571666D01*
X153797402Y-86571390D01*
X153774902Y-86574500D01*
X153686306Y-86574500D01*
X153512341Y-86609103D01*
X153512337Y-86609105D01*
X153512335Y-86609105D01*
X153512334Y-86609106D01*
X153483156Y-86621191D01*
X153468776Y-86627148D01*
X153399306Y-86634615D01*
X153336827Y-86603339D01*
X153301176Y-86543250D01*
X153303671Y-86473425D01*
X153333643Y-86424906D01*
X153415871Y-86342679D01*
X153465990Y-86255867D01*
X153494928Y-86205748D01*
X153535852Y-86053020D01*
X153535852Y-85894906D01*
X153535852Y-85887311D01*
X153535851Y-85887293D01*
X153535851Y-85314746D01*
X153555536Y-85247707D01*
X153572164Y-85227070D01*
X153688387Y-85110847D01*
X153706874Y-85100752D01*
X153722548Y-85086674D01*
X153736924Y-85084344D01*
X153749706Y-85077365D01*
X153770721Y-85078867D01*
X153791518Y-85075498D01*
X153804870Y-85081310D01*
G37*
%TD.AperFunction*%
%TA.AperFunction,Conductor*%
G36*
X204279809Y-52870185D02*
G01*
X204300451Y-52886819D01*
X205076451Y-53662819D01*
X205109936Y-53724142D01*
X205104952Y-53793834D01*
X205063080Y-53849767D01*
X204997616Y-53874184D01*
X204988770Y-53874500D01*
X203789024Y-53874500D01*
X203721985Y-53854815D01*
X203688705Y-53823384D01*
X203687962Y-53822362D01*
X203666807Y-53793243D01*
X203608245Y-53712638D01*
X203452363Y-53556756D01*
X203452358Y-53556752D01*
X203274025Y-53427187D01*
X203274024Y-53427186D01*
X203274022Y-53427185D01*
X203211096Y-53395122D01*
X203077606Y-53327104D01*
X203077603Y-53327103D01*
X202867952Y-53258985D01*
X202716535Y-53235003D01*
X202650222Y-53224500D01*
X202429778Y-53224500D01*
X202363465Y-53235003D01*
X202212047Y-53258985D01*
X202002396Y-53327103D01*
X202002393Y-53327104D01*
X201805974Y-53427187D01*
X201627641Y-53556752D01*
X201627636Y-53556756D01*
X201471756Y-53712636D01*
X201370008Y-53852681D01*
X201314678Y-53895346D01*
X201245065Y-53901325D01*
X201183270Y-53868719D01*
X201169371Y-53852680D01*
X201151066Y-53827485D01*
X201151065Y-53827485D01*
X200442137Y-54536413D01*
X200419333Y-54451306D01*
X200360090Y-54348694D01*
X200276306Y-54264910D01*
X200173694Y-54205667D01*
X200088583Y-54182861D01*
X200797513Y-53473932D01*
X200733756Y-53427611D01*
X200537410Y-53327567D01*
X200327835Y-53259473D01*
X200110181Y-53225000D01*
X199889819Y-53225000D01*
X199672164Y-53259473D01*
X199462589Y-53327567D01*
X199266233Y-53427616D01*
X199202485Y-53473931D01*
X199202485Y-53473932D01*
X199911414Y-54182861D01*
X199826306Y-54205667D01*
X199723694Y-54264910D01*
X199639910Y-54348694D01*
X199580667Y-54451306D01*
X199557861Y-54536414D01*
X198873843Y-53852396D01*
X198843818Y-53803718D01*
X198840543Y-53793834D01*
X198794797Y-53655780D01*
X198794793Y-53655774D01*
X198794792Y-53655771D01*
X198751935Y-53586290D01*
X198702670Y-53506419D01*
X198578581Y-53382330D01*
X198429220Y-53290203D01*
X198429217Y-53290202D01*
X198262638Y-53235003D01*
X198159833Y-53224500D01*
X198159826Y-53224500D01*
X196760174Y-53224500D01*
X196760166Y-53224500D01*
X196657361Y-53235003D01*
X196490782Y-53290202D01*
X196490777Y-53290204D01*
X196341417Y-53382331D01*
X196217331Y-53506417D01*
X196125204Y-53655777D01*
X196125202Y-53655782D01*
X196070003Y-53822361D01*
X196059500Y-53925166D01*
X196059500Y-55324833D01*
X196070003Y-55427638D01*
X196125202Y-55594217D01*
X196125204Y-55594222D01*
X196127514Y-55597967D01*
X196217330Y-55743581D01*
X196341419Y-55867670D01*
X196490780Y-55959797D01*
X196584988Y-55991014D01*
X196657361Y-56014996D01*
X196694236Y-56018763D01*
X196760174Y-56025500D01*
X196760178Y-56025500D01*
X198159822Y-56025500D01*
X198159826Y-56025500D01*
X198262638Y-56014996D01*
X198429220Y-55959797D01*
X198578581Y-55867670D01*
X198702670Y-55743581D01*
X198725797Y-55706086D01*
X198751936Y-55663710D01*
X198794793Y-55594226D01*
X198794797Y-55594220D01*
X198843819Y-55446278D01*
X198873844Y-55397601D01*
X199557861Y-54713584D01*
X199580667Y-54798694D01*
X199639910Y-54901306D01*
X199723694Y-54985090D01*
X199826306Y-55044333D01*
X199911414Y-55067137D01*
X199202485Y-55776065D01*
X199202485Y-55776066D01*
X199266243Y-55822388D01*
X199462589Y-55922432D01*
X199672164Y-55990526D01*
X199889819Y-56025000D01*
X200110181Y-56025000D01*
X200327835Y-55990526D01*
X200537410Y-55922432D01*
X200733760Y-55822386D01*
X200797513Y-55776066D01*
X200797514Y-55776066D01*
X200088585Y-55067138D01*
X200173694Y-55044333D01*
X200276306Y-54985090D01*
X200360090Y-54901306D01*
X200419333Y-54798694D01*
X200442137Y-54713585D01*
X201151066Y-55422514D01*
X201151066Y-55422513D01*
X201169372Y-55397319D01*
X201224701Y-55354653D01*
X201294315Y-55348674D01*
X201356110Y-55381279D01*
X201370008Y-55397319D01*
X201471752Y-55537358D01*
X201471756Y-55537363D01*
X201627636Y-55693243D01*
X201627641Y-55693247D01*
X201696921Y-55743581D01*
X201805978Y-55822815D01*
X201930485Y-55886255D01*
X202002393Y-55922895D01*
X202002396Y-55922896D01*
X202052142Y-55939059D01*
X202212049Y-55991015D01*
X202429778Y-56025500D01*
X202429779Y-56025500D01*
X202650221Y-56025500D01*
X202650222Y-56025500D01*
X202867951Y-55991015D01*
X203077606Y-55922895D01*
X203274022Y-55822815D01*
X203452365Y-55693242D01*
X203608242Y-55537365D01*
X203613005Y-55530810D01*
X203687780Y-55427889D01*
X203688705Y-55426615D01*
X203744035Y-55383949D01*
X203789024Y-55375500D01*
X206737771Y-55375500D01*
X206767211Y-55384144D01*
X206797198Y-55390668D01*
X206802213Y-55394422D01*
X206804810Y-55395185D01*
X206825452Y-55411819D01*
X206962707Y-55549074D01*
X206962728Y-55549097D01*
X209065823Y-57652191D01*
X209099308Y-57713514D01*
X209099759Y-57715680D01*
X209109104Y-57762660D01*
X209109106Y-57762668D01*
X209176983Y-57926540D01*
X209176990Y-57926553D01*
X209275535Y-58074034D01*
X209275538Y-58074038D01*
X209400961Y-58199461D01*
X209400965Y-58199464D01*
X209548446Y-58298009D01*
X209548459Y-58298016D01*
X209671363Y-58348923D01*
X209712334Y-58365894D01*
X209712336Y-58365894D01*
X209712341Y-58365896D01*
X209886304Y-58400499D01*
X209886307Y-58400500D01*
X209886309Y-58400500D01*
X210063693Y-58400500D01*
X210063694Y-58400499D01*
X210121682Y-58388964D01*
X210237658Y-58365896D01*
X210237661Y-58365894D01*
X210237666Y-58365894D01*
X210401547Y-58298013D01*
X210549035Y-58199464D01*
X210674464Y-58074035D01*
X210773013Y-57926547D01*
X210840894Y-57762666D01*
X210850239Y-57715680D01*
X210882622Y-57653772D01*
X210884118Y-57652248D01*
X213549549Y-54986819D01*
X213610872Y-54953334D01*
X213637230Y-54950500D01*
X216737770Y-54950500D01*
X216804809Y-54970185D01*
X216825451Y-54986819D01*
X218362707Y-56524074D01*
X218362728Y-56524097D01*
X218924096Y-57085463D01*
X218957581Y-57146786D01*
X218960415Y-57173144D01*
X218960415Y-57696785D01*
X218940730Y-57763824D01*
X218887926Y-57809579D01*
X218818768Y-57819523D01*
X218775827Y-57804975D01*
X218734665Y-57781923D01*
X217806738Y-58166282D01*
X217814261Y-58138210D01*
X217814261Y-58019722D01*
X217783594Y-57905272D01*
X217724351Y-57802660D01*
X217640567Y-57718876D01*
X217615396Y-57704343D01*
X218543323Y-57319984D01*
X218432126Y-57166932D01*
X218276302Y-57011108D01*
X218098021Y-56881579D01*
X217901671Y-56781533D01*
X217692096Y-56713439D01*
X217474442Y-56678966D01*
X217254074Y-56678966D01*
X217067219Y-56708560D01*
X217451578Y-57636488D01*
X217423505Y-57628966D01*
X217305017Y-57628966D01*
X217190567Y-57659633D01*
X217087955Y-57718876D01*
X217004171Y-57802660D01*
X216989639Y-57827830D01*
X216619490Y-56934211D01*
X216617489Y-56922576D01*
X216613414Y-56915442D01*
X216610904Y-56884272D01*
X216610220Y-56880292D01*
X216610286Y-56879024D01*
X216621703Y-56722312D01*
X216614708Y-56678966D01*
X216593748Y-56549070D01*
X216593746Y-56549061D01*
X216526589Y-56386933D01*
X216423855Y-56244664D01*
X216291077Y-56129917D01*
X216200112Y-56080870D01*
X216193789Y-56078251D01*
X215689589Y-55869404D01*
X214907001Y-55545245D01*
X214807993Y-55515604D01*
X214632970Y-55502853D01*
X214632965Y-55502854D01*
X214459726Y-55530808D01*
X214459718Y-55530810D01*
X214297590Y-55597967D01*
X214155321Y-55700701D01*
X214040574Y-55833479D01*
X213991527Y-55924444D01*
X213455902Y-57217555D01*
X213426261Y-57316563D01*
X213413510Y-57491586D01*
X213413511Y-57491591D01*
X213441466Y-57664832D01*
X213441467Y-57664836D01*
X213459264Y-57707802D01*
X213466733Y-57777271D01*
X213435458Y-57839750D01*
X213432384Y-57842935D01*
X212637141Y-58638181D01*
X212575818Y-58671666D01*
X212549460Y-58674500D01*
X193476827Y-58674500D01*
X193324098Y-58715423D01*
X193313708Y-58721422D01*
X193310926Y-58723029D01*
X193310924Y-58723030D01*
X193310922Y-58723031D01*
X193187171Y-58794477D01*
X193187166Y-58794481D01*
X183494481Y-68487166D01*
X183444414Y-68573885D01*
X183415424Y-68624096D01*
X183415423Y-68624097D01*
X183399444Y-68683732D01*
X183374499Y-68776827D01*
X183374499Y-68776829D01*
X183374499Y-68944930D01*
X183374500Y-68944943D01*
X183374500Y-72695234D01*
X183354815Y-72762273D01*
X183353602Y-72764125D01*
X183265609Y-72895814D01*
X183265602Y-72895827D01*
X183205264Y-73041498D01*
X183205261Y-73041510D01*
X183174500Y-73196153D01*
X183174500Y-73353846D01*
X183205261Y-73508489D01*
X183205264Y-73508501D01*
X183265602Y-73654172D01*
X183265609Y-73654185D01*
X183353210Y-73785288D01*
X183353213Y-73785292D01*
X183464707Y-73896786D01*
X183464711Y-73896789D01*
X183595814Y-73984390D01*
X183595827Y-73984397D01*
X183677497Y-74018225D01*
X183741503Y-74044737D01*
X183774691Y-74051338D01*
X183836600Y-74083721D01*
X183871176Y-74144436D01*
X183874500Y-74172955D01*
X183874500Y-74181353D01*
X183905261Y-74335996D01*
X183905264Y-74336008D01*
X183965602Y-74481679D01*
X183965609Y-74481692D01*
X184053210Y-74612795D01*
X184053213Y-74612799D01*
X184164707Y-74724293D01*
X184164711Y-74724296D01*
X184295814Y-74811897D01*
X184295821Y-74811901D01*
X184425189Y-74865486D01*
X184479590Y-74909325D01*
X184499352Y-74955854D01*
X184505261Y-74985562D01*
X184505264Y-74985572D01*
X184565602Y-75131243D01*
X184565609Y-75131256D01*
X184653210Y-75262359D01*
X184653213Y-75262363D01*
X184764705Y-75373855D01*
X184764708Y-75373857D01*
X184764711Y-75373860D01*
X184765827Y-75374606D01*
X184766282Y-75375149D01*
X184769419Y-75377724D01*
X184768930Y-75378318D01*
X184810635Y-75428213D01*
X184819348Y-75497538D01*
X184789198Y-75560567D01*
X184729758Y-75597291D01*
X184664850Y-75597487D01*
X184607742Y-75582185D01*
X184579057Y-75574499D01*
X184420943Y-75574499D01*
X184413347Y-75574499D01*
X184413331Y-75574500D01*
X181329766Y-75574500D01*
X181262727Y-75554815D01*
X181260875Y-75553602D01*
X181129185Y-75465609D01*
X181129172Y-75465602D01*
X180983501Y-75405264D01*
X180983489Y-75405261D01*
X180828845Y-75374500D01*
X180828842Y-75374500D01*
X180671158Y-75374500D01*
X180671155Y-75374500D01*
X180516510Y-75405261D01*
X180516498Y-75405264D01*
X180370827Y-75465602D01*
X180370814Y-75465609D01*
X180239711Y-75553210D01*
X180239707Y-75553213D01*
X180128213Y-75664707D01*
X180128210Y-75664711D01*
X180040609Y-75795814D01*
X180040602Y-75795827D01*
X179980264Y-75941498D01*
X179980261Y-75941510D01*
X179949500Y-76096153D01*
X179949500Y-76253846D01*
X179980261Y-76408489D01*
X179980264Y-76408501D01*
X180040602Y-76554172D01*
X180040609Y-76554185D01*
X180128210Y-76685288D01*
X180128213Y-76685292D01*
X180239707Y-76796786D01*
X180239711Y-76796789D01*
X180370814Y-76884390D01*
X180370827Y-76884397D01*
X180478138Y-76928846D01*
X180516503Y-76944737D01*
X180671153Y-76975499D01*
X180671156Y-76975500D01*
X180671158Y-76975500D01*
X180828844Y-76975500D01*
X180828845Y-76975499D01*
X180983497Y-76944737D01*
X181129179Y-76884394D01*
X181183663Y-76847989D01*
X181260875Y-76796398D01*
X181278921Y-76790747D01*
X181294831Y-76780523D01*
X181325792Y-76776071D01*
X181327553Y-76775520D01*
X181329766Y-76775500D01*
X181375500Y-76775500D01*
X181442539Y-76795185D01*
X181488294Y-76847989D01*
X181499500Y-76899500D01*
X181499500Y-76928846D01*
X181530261Y-77083489D01*
X181530264Y-77083501D01*
X181590602Y-77229172D01*
X181590609Y-77229185D01*
X181678210Y-77360288D01*
X181678213Y-77360292D01*
X181789707Y-77471786D01*
X181789711Y-77471789D01*
X181920814Y-77559390D01*
X181920827Y-77559397D01*
X181991560Y-77588695D01*
X182066503Y-77619737D01*
X182219449Y-77650160D01*
X182221153Y-77650499D01*
X182221156Y-77650500D01*
X182221158Y-77650500D01*
X182378844Y-77650500D01*
X182378845Y-77650499D01*
X182533497Y-77619737D01*
X182679179Y-77559394D01*
X182733663Y-77522989D01*
X182810875Y-77471398D01*
X182877553Y-77450520D01*
X182879766Y-77450500D01*
X183201638Y-77450500D01*
X183268677Y-77470185D01*
X183314432Y-77522989D01*
X183324376Y-77592147D01*
X183295351Y-77655703D01*
X183289319Y-77662181D01*
X183275538Y-77675961D01*
X183275535Y-77675965D01*
X183176990Y-77823446D01*
X183176983Y-77823459D01*
X183109106Y-77987332D01*
X183109103Y-77987341D01*
X183074500Y-78161304D01*
X183074500Y-78338695D01*
X183109103Y-78512658D01*
X183109106Y-78512667D01*
X183176983Y-78676540D01*
X183176990Y-78676553D01*
X183275535Y-78824034D01*
X183275538Y-78824038D01*
X183400961Y-78949461D01*
X183400965Y-78949464D01*
X183548446Y-79048009D01*
X183548459Y-79048016D01*
X183634506Y-79083657D01*
X183712334Y-79115894D01*
X183712336Y-79115894D01*
X183712341Y-79115896D01*
X183886304Y-79150499D01*
X183886307Y-79150500D01*
X183886309Y-79150500D01*
X183974903Y-79150500D01*
X184041942Y-79170185D01*
X184062583Y-79186818D01*
X185506284Y-80630520D01*
X185506286Y-80630521D01*
X185506290Y-80630524D01*
X185643209Y-80709573D01*
X185643216Y-80709577D01*
X185795943Y-80750501D01*
X185795945Y-80750501D01*
X185961654Y-80750501D01*
X185961670Y-80750500D01*
X187698910Y-80750500D01*
X187765949Y-80770185D01*
X187811704Y-80822989D01*
X187821648Y-80892147D01*
X187813471Y-80921952D01*
X187774106Y-81016987D01*
X187774103Y-81016996D01*
X187739500Y-81190959D01*
X187739500Y-81368350D01*
X187774103Y-81542313D01*
X187774106Y-81542322D01*
X187841983Y-81706195D01*
X187841990Y-81706208D01*
X187940535Y-81853689D01*
X187940538Y-81853693D01*
X188065962Y-81979117D01*
X188065965Y-81979119D01*
X188119391Y-82014817D01*
X188164196Y-82068428D01*
X188174500Y-82117919D01*
X188174500Y-83137803D01*
X188154815Y-83204842D01*
X188138181Y-83225484D01*
X185262984Y-86100681D01*
X185201661Y-86134166D01*
X185175303Y-86137000D01*
X173437597Y-86137000D01*
X173370558Y-86117315D01*
X173349916Y-86100681D01*
X169612590Y-82363355D01*
X169612588Y-82363352D01*
X169493717Y-82244481D01*
X169493709Y-82244475D01*
X169382302Y-82180155D01*
X169382301Y-82180154D01*
X169364365Y-82169799D01*
X169356785Y-82165423D01*
X169204057Y-82124499D01*
X169045943Y-82124499D01*
X169038347Y-82124499D01*
X169038331Y-82124500D01*
X162486670Y-82124500D01*
X162486654Y-82124499D01*
X162479058Y-82124499D01*
X162320943Y-82124499D01*
X162244579Y-82144961D01*
X162168214Y-82165423D01*
X162168209Y-82165426D01*
X162031290Y-82244475D01*
X162031282Y-82244481D01*
X158589505Y-85686258D01*
X158528182Y-85719743D01*
X158458490Y-85714759D01*
X158402557Y-85672887D01*
X158378140Y-85607423D01*
X158387262Y-85551126D01*
X158645694Y-84927219D01*
X158675334Y-84828214D01*
X158688085Y-84653188D01*
X158660129Y-84479941D01*
X158660128Y-84479937D01*
X158592971Y-84317809D01*
X158490237Y-84175540D01*
X158372316Y-84073633D01*
X158338834Y-84027266D01*
X157968685Y-83133649D01*
X157996761Y-83141172D01*
X158115249Y-83141172D01*
X158229699Y-83110505D01*
X158332311Y-83051262D01*
X158416095Y-82967478D01*
X158430625Y-82942309D01*
X158814985Y-83870233D01*
X158968044Y-83759031D01*
X159123862Y-83603213D01*
X159253391Y-83424932D01*
X159353437Y-83228582D01*
X159421531Y-83019007D01*
X159456005Y-82801353D01*
X159456005Y-82580990D01*
X159426409Y-82394130D01*
X158498482Y-82778488D01*
X158506005Y-82750416D01*
X158506005Y-82631928D01*
X158475338Y-82517478D01*
X158416095Y-82414866D01*
X158332311Y-82331082D01*
X158307140Y-82316549D01*
X159235066Y-81932190D01*
X159222057Y-81914284D01*
X159198578Y-81848477D01*
X159214404Y-81780424D01*
X159264510Y-81731729D01*
X159302971Y-81718927D01*
X159355972Y-81710533D01*
X159565627Y-81642413D01*
X159762043Y-81542333D01*
X159940386Y-81412760D01*
X160096263Y-81256883D01*
X160225836Y-81078540D01*
X160325916Y-80882124D01*
X160394036Y-80672469D01*
X160428521Y-80454740D01*
X160428521Y-80234296D01*
X160394036Y-80016567D01*
X160325916Y-79806912D01*
X160325916Y-79806911D01*
X160283391Y-79723453D01*
X160225836Y-79610496D01*
X160155133Y-79513181D01*
X160096268Y-79432159D01*
X160093106Y-79428457D01*
X160094586Y-79427192D01*
X160065052Y-79373104D01*
X160062218Y-79346746D01*
X160062218Y-76112229D01*
X160081903Y-76045190D01*
X160098537Y-76024548D01*
X160373085Y-75750000D01*
X160652192Y-75470892D01*
X160713513Y-75437409D01*
X160715597Y-75436974D01*
X160762666Y-75427612D01*
X160926547Y-75359731D01*
X161074035Y-75261182D01*
X161199464Y-75135753D01*
X161298013Y-74988265D01*
X161299129Y-74985572D01*
X161317308Y-74941682D01*
X161365894Y-74824384D01*
X161374484Y-74781203D01*
X161389577Y-74705320D01*
X161400500Y-74650409D01*
X161400500Y-74473027D01*
X161400500Y-74473024D01*
X161400499Y-74473022D01*
X161365896Y-74299059D01*
X161365893Y-74299050D01*
X161298016Y-74135177D01*
X161298009Y-74135164D01*
X161199464Y-73987683D01*
X161199461Y-73987679D01*
X161074038Y-73862256D01*
X161074034Y-73862253D01*
X160926553Y-73763708D01*
X160926543Y-73763703D01*
X160892218Y-73749485D01*
X160866667Y-73728894D01*
X160840403Y-73709233D01*
X160839601Y-73707083D01*
X160837814Y-73705643D01*
X160827449Y-73674502D01*
X160815987Y-73643768D01*
X160816474Y-73641526D01*
X160815750Y-73639349D01*
X160823864Y-73607557D01*
X160830840Y-73575495D01*
X160832673Y-73573045D01*
X160833030Y-73571650D01*
X160851981Y-73547252D01*
X160912418Y-73486815D01*
X160973741Y-73453333D01*
X161000097Y-73450500D01*
X172623331Y-73450500D01*
X172623347Y-73450501D01*
X172630943Y-73450501D01*
X172789054Y-73450501D01*
X172789057Y-73450501D01*
X172941785Y-73409577D01*
X172991904Y-73380639D01*
X173078716Y-73330520D01*
X173190520Y-73218716D01*
X173190520Y-73218714D01*
X173200728Y-73208507D01*
X173200729Y-73208504D01*
X175630519Y-70778716D01*
X177452416Y-68956819D01*
X177513739Y-68923334D01*
X177540097Y-68920500D01*
X178120234Y-68920500D01*
X178187273Y-68940185D01*
X178189125Y-68941398D01*
X178320814Y-69029390D01*
X178320827Y-69029397D01*
X178412180Y-69067236D01*
X178466503Y-69089737D01*
X178619574Y-69120185D01*
X178621153Y-69120499D01*
X178621156Y-69120500D01*
X178621158Y-69120500D01*
X178778844Y-69120500D01*
X178778845Y-69120499D01*
X178933497Y-69089737D01*
X179079179Y-69029394D01*
X179210289Y-68941789D01*
X179321789Y-68830289D01*
X179409394Y-68699179D01*
X179469737Y-68553497D01*
X179500500Y-68398842D01*
X179500500Y-68241158D01*
X179500500Y-68241155D01*
X179500499Y-68241153D01*
X179492926Y-68203082D01*
X179469737Y-68086503D01*
X179440824Y-68016700D01*
X179409397Y-67940827D01*
X179409390Y-67940814D01*
X179321789Y-67809711D01*
X179321786Y-67809707D01*
X179210292Y-67698213D01*
X179210288Y-67698210D01*
X179079185Y-67610609D01*
X179079172Y-67610602D01*
X178933501Y-67550264D01*
X178933489Y-67550261D01*
X178778845Y-67519500D01*
X178778842Y-67519500D01*
X178621158Y-67519500D01*
X178621155Y-67519500D01*
X178466510Y-67550261D01*
X178466498Y-67550264D01*
X178320827Y-67610602D01*
X178320814Y-67610609D01*
X178189125Y-67698602D01*
X178122447Y-67719480D01*
X178120234Y-67719500D01*
X177160940Y-67719500D01*
X177120019Y-67730464D01*
X177120019Y-67730465D01*
X177082751Y-67740451D01*
X177008214Y-67760423D01*
X177008209Y-67760426D01*
X176871290Y-67839475D01*
X176871282Y-67839481D01*
X176759478Y-67951286D01*
X174781284Y-69929481D01*
X172497584Y-72213181D01*
X172436261Y-72246666D01*
X172409903Y-72249500D01*
X161483997Y-72249500D01*
X161463051Y-72243349D01*
X161441267Y-72241905D01*
X161430186Y-72233699D01*
X161416958Y-72229815D01*
X161402662Y-72213316D01*
X161385117Y-72200324D01*
X161380231Y-72187430D01*
X161371203Y-72177011D01*
X161368096Y-72155404D01*
X161360360Y-72134988D01*
X161362434Y-72116027D01*
X161361259Y-72107853D01*
X161362696Y-72099771D01*
X161364601Y-72090785D01*
X161365894Y-72087666D01*
X161375394Y-72039905D01*
X161375556Y-72039142D01*
X161391773Y-72009072D01*
X161407624Y-71978770D01*
X161408714Y-71977659D01*
X161408722Y-71977646D01*
X161408735Y-71977638D01*
X161409113Y-71977254D01*
X168706474Y-64679893D01*
X168767797Y-64646408D01*
X168837489Y-64651392D01*
X168893422Y-64693264D01*
X168917839Y-64758728D01*
X168918155Y-64767574D01*
X168918155Y-64912380D01*
X168898470Y-64979419D01*
X168867042Y-65012696D01*
X168831147Y-65038776D01*
X168756287Y-65093165D01*
X168600411Y-65249041D01*
X168600407Y-65249046D01*
X168470842Y-65427379D01*
X168370759Y-65623798D01*
X168370758Y-65623801D01*
X168302640Y-65833452D01*
X168268155Y-66051183D01*
X168268155Y-66271627D01*
X168268154Y-66271627D01*
X168295234Y-66442602D01*
X168286279Y-66511895D01*
X168241283Y-66565347D01*
X168174531Y-66585986D01*
X168153364Y-66584472D01*
X168122604Y-66579600D01*
X168122604Y-67582178D01*
X168046298Y-67538123D01*
X167931848Y-67507456D01*
X167813360Y-67507456D01*
X167698910Y-67538123D01*
X167622604Y-67582178D01*
X167622604Y-66579600D01*
X167544768Y-66591929D01*
X167544765Y-66591929D01*
X167335193Y-66660023D01*
X167138843Y-66760069D01*
X166960562Y-66889598D01*
X166804746Y-67045414D01*
X166675217Y-67223695D01*
X166575171Y-67420045D01*
X166507077Y-67629617D01*
X166507077Y-67629620D01*
X166494749Y-67707456D01*
X167497326Y-67707456D01*
X167453271Y-67783762D01*
X167422604Y-67898212D01*
X167422604Y-68016700D01*
X167453271Y-68131150D01*
X167497326Y-68207456D01*
X166529974Y-68207456D01*
X166474323Y-68194266D01*
X166335054Y-68124322D01*
X166335053Y-68124321D01*
X166335052Y-68124321D01*
X166164297Y-68083851D01*
X166164296Y-68083851D01*
X165988808Y-68083851D01*
X165988807Y-68083851D01*
X165818051Y-68124321D01*
X165661226Y-68203082D01*
X165581095Y-68268357D01*
X164591401Y-69258051D01*
X164526126Y-69338182D01*
X164447365Y-69495007D01*
X164406895Y-69665762D01*
X164406895Y-69841253D01*
X164447365Y-70012008D01*
X164526126Y-70168833D01*
X164591401Y-70248964D01*
X165581095Y-71238658D01*
X165581100Y-71238662D01*
X165581101Y-71238663D01*
X165661227Y-71303934D01*
X165818050Y-71382694D01*
X165903429Y-71402929D01*
X165988807Y-71423165D01*
X165988808Y-71423165D01*
X166164297Y-71423165D01*
X166221215Y-71409674D01*
X166335054Y-71382694D01*
X166491877Y-71303934D01*
X166572003Y-71238663D01*
X167561707Y-70248959D01*
X167626978Y-70168833D01*
X167705738Y-70012010D01*
X167737635Y-69877430D01*
X167746209Y-69841253D01*
X167746209Y-69665762D01*
X167705738Y-69495005D01*
X167635794Y-69355735D01*
X167622604Y-69300084D01*
X167622604Y-68332733D01*
X167698910Y-68376789D01*
X167813360Y-68407456D01*
X167931848Y-68407456D01*
X168046298Y-68376789D01*
X168122604Y-68332733D01*
X168122604Y-69335310D01*
X168200438Y-69322982D01*
X168200441Y-69322982D01*
X168410014Y-69254888D01*
X168606364Y-69154842D01*
X168784645Y-69025313D01*
X168940461Y-68869497D01*
X169069990Y-68691216D01*
X169170036Y-68494866D01*
X169238130Y-68285294D01*
X169238130Y-68285291D01*
X169250459Y-68207456D01*
X168247882Y-68207456D01*
X168291937Y-68131150D01*
X168322604Y-68016700D01*
X168322604Y-67898212D01*
X168291937Y-67783762D01*
X168247882Y-67707456D01*
X169250459Y-67707456D01*
X169245587Y-67676697D01*
X169254541Y-67607403D01*
X169299537Y-67553951D01*
X169366289Y-67533311D01*
X169387456Y-67534824D01*
X169558433Y-67561905D01*
X169558434Y-67561905D01*
X169778876Y-67561905D01*
X169778877Y-67561905D01*
X169996606Y-67527420D01*
X170206261Y-67459300D01*
X170402677Y-67359220D01*
X170581020Y-67229647D01*
X170736897Y-67073770D01*
X170866470Y-66895427D01*
X170966550Y-66699011D01*
X171034670Y-66489356D01*
X171069155Y-66271627D01*
X171069155Y-66051183D01*
X171034670Y-65833454D01*
X170976521Y-65654486D01*
X170966551Y-65623801D01*
X170966550Y-65623798D01*
X170900481Y-65494133D01*
X170866470Y-65427383D01*
X170810247Y-65349998D01*
X170736902Y-65249046D01*
X170736898Y-65249041D01*
X170581022Y-65093165D01*
X170581020Y-65093163D01*
X170470268Y-65012696D01*
X170427604Y-64957368D01*
X170419155Y-64912380D01*
X170419155Y-63018575D01*
X170438840Y-62951536D01*
X170455474Y-62930894D01*
X173749549Y-59636819D01*
X173810872Y-59603334D01*
X173837230Y-59600500D01*
X176898920Y-59600500D01*
X177017002Y-59577011D01*
X177043913Y-59571658D01*
X177180495Y-59515084D01*
X177229729Y-59482186D01*
X177234549Y-59478966D01*
X177255584Y-59464911D01*
X177303416Y-59432952D01*
X180833478Y-55902888D01*
X180894801Y-55869404D01*
X180921159Y-55866570D01*
X183942804Y-55866570D01*
X184009843Y-55886255D01*
X184055598Y-55939059D01*
X184065542Y-56008217D01*
X184036517Y-56071773D01*
X184030485Y-56078251D01*
X183914149Y-56194586D01*
X183914145Y-56194591D01*
X183784580Y-56372924D01*
X183684497Y-56569343D01*
X183684496Y-56569346D01*
X183616378Y-56778997D01*
X183607984Y-56831993D01*
X183578054Y-56895128D01*
X183518742Y-56932058D01*
X183448880Y-56931060D01*
X183412625Y-56912912D01*
X183394720Y-56899903D01*
X183394719Y-56899903D01*
X183010359Y-57827827D01*
X182995829Y-57802660D01*
X182912045Y-57718876D01*
X182809433Y-57659633D01*
X182694983Y-57628966D01*
X182576495Y-57628966D01*
X182548419Y-57636488D01*
X182932779Y-56708560D01*
X182745926Y-56678966D01*
X182525558Y-56678966D01*
X182307903Y-56713439D01*
X182098328Y-56781533D01*
X181901978Y-56881579D01*
X181723697Y-57011108D01*
X181567881Y-57166924D01*
X181567881Y-57166925D01*
X181456676Y-57319984D01*
X182384602Y-57704344D01*
X182359433Y-57718876D01*
X182275649Y-57802660D01*
X182216406Y-57905272D01*
X182185739Y-58019722D01*
X182185739Y-58138210D01*
X182193261Y-58166284D01*
X181299642Y-57796134D01*
X181253275Y-57762652D01*
X181151372Y-57644735D01*
X181151371Y-57644734D01*
X181151370Y-57644733D01*
X181009101Y-57541999D01*
X180846973Y-57474842D01*
X180846965Y-57474840D01*
X180673726Y-57446886D01*
X180673721Y-57446885D01*
X180498698Y-57459636D01*
X180399690Y-57489277D01*
X179106579Y-58024902D01*
X179015614Y-58073949D01*
X178997412Y-58089679D01*
X178997398Y-58089692D01*
X178882838Y-58188695D01*
X178842412Y-58244677D01*
X178842401Y-58244689D01*
X178780103Y-58330963D01*
X178712945Y-58493093D01*
X178712943Y-58493101D01*
X178684989Y-58666340D01*
X178684988Y-58666345D01*
X178697739Y-58841368D01*
X178727380Y-58940376D01*
X179093263Y-59823695D01*
X179177895Y-60028015D01*
X179263005Y-60233487D01*
X179312052Y-60324452D01*
X179426799Y-60457230D01*
X179569068Y-60559964D01*
X179731196Y-60627121D01*
X179731204Y-60627123D01*
X179817823Y-60641100D01*
X179904447Y-60655078D01*
X179904447Y-60655077D01*
X179904448Y-60655078D01*
X179962789Y-60650827D01*
X180079473Y-60642327D01*
X180178478Y-60612687D01*
X181471588Y-60077063D01*
X181562554Y-60028015D01*
X181695332Y-59913269D01*
X181798068Y-59770997D01*
X181861292Y-59618363D01*
X181865224Y-59608870D01*
X181865226Y-59608862D01*
X181892841Y-59437729D01*
X181892841Y-59437727D01*
X181893181Y-59435620D01*
X181893181Y-59435618D01*
X181881857Y-59280182D01*
X181890968Y-59223719D01*
X182261116Y-58330101D01*
X182275649Y-58355272D01*
X182359433Y-58439056D01*
X182462045Y-58498299D01*
X182576495Y-58528966D01*
X182694983Y-58528966D01*
X182723055Y-58521443D01*
X182338697Y-59449370D01*
X182525558Y-59478966D01*
X182745920Y-59478966D01*
X182963574Y-59444492D01*
X183173149Y-59376398D01*
X183369499Y-59276352D01*
X183547780Y-59146823D01*
X183703598Y-58991005D01*
X183814800Y-58837946D01*
X182886876Y-58453586D01*
X182912045Y-58439056D01*
X182995829Y-58355272D01*
X183055072Y-58252660D01*
X183085739Y-58138210D01*
X183085739Y-58019722D01*
X183078216Y-57991647D01*
X184006142Y-58376006D01*
X184009604Y-58354149D01*
X184039533Y-58291014D01*
X184098845Y-58254082D01*
X184168707Y-58255080D01*
X184204963Y-58273228D01*
X184229444Y-58291014D01*
X184248371Y-58304765D01*
X184345292Y-58354149D01*
X184444786Y-58404845D01*
X184444789Y-58404846D01*
X184514762Y-58427581D01*
X184654442Y-58472965D01*
X184872171Y-58507450D01*
X184872172Y-58507450D01*
X185092614Y-58507450D01*
X185092615Y-58507450D01*
X185310344Y-58472965D01*
X185519999Y-58404845D01*
X185716415Y-58304765D01*
X185894758Y-58175192D01*
X186050635Y-58019315D01*
X186180208Y-57840972D01*
X186280288Y-57644556D01*
X186348408Y-57434901D01*
X186382893Y-57217172D01*
X186382893Y-56996728D01*
X186361477Y-56861515D01*
X186370431Y-56792225D01*
X186396266Y-56754442D01*
X187451686Y-55699023D01*
X187451688Y-55699022D01*
X188450377Y-54700330D01*
X188450382Y-54700327D01*
X188460585Y-54690123D01*
X188460587Y-54690123D01*
X190263891Y-52886819D01*
X190325214Y-52853334D01*
X190351572Y-52850500D01*
X204212770Y-52850500D01*
X204279809Y-52870185D01*
G37*
%TD.AperFunction*%
%TA.AperFunction,Conductor*%
G36*
X240030703Y-81632465D02*
G01*
X240043320Y-81645099D01*
X240086732Y-81695333D01*
X240229001Y-81798067D01*
X240391129Y-81865224D01*
X240391137Y-81865226D01*
X240477756Y-81879203D01*
X240564380Y-81893181D01*
X240564380Y-81893180D01*
X240564381Y-81893181D01*
X240610754Y-81889802D01*
X240719816Y-81881857D01*
X240776279Y-81890968D01*
X241669898Y-82261117D01*
X241644728Y-82275649D01*
X241560944Y-82359433D01*
X241501701Y-82462045D01*
X241471034Y-82576495D01*
X241471034Y-82694983D01*
X241478556Y-82723056D01*
X241217684Y-82615000D01*
X240550628Y-82338697D01*
X240521034Y-82525551D01*
X240521034Y-82745920D01*
X240555507Y-82963574D01*
X240623601Y-83173149D01*
X240723647Y-83369499D01*
X240853176Y-83547780D01*
X241009000Y-83703604D01*
X241162052Y-83814801D01*
X241546411Y-82886874D01*
X241560944Y-82912045D01*
X241644728Y-82995829D01*
X241747340Y-83055072D01*
X241861790Y-83085739D01*
X241980278Y-83085739D01*
X242008350Y-83078216D01*
X241623992Y-84006142D01*
X241645850Y-84009604D01*
X241708985Y-84039533D01*
X241745917Y-84098845D01*
X241744919Y-84168707D01*
X241726772Y-84204962D01*
X241695236Y-84248368D01*
X241595154Y-84444786D01*
X241595153Y-84444789D01*
X241527035Y-84654440D01*
X241496965Y-84844293D01*
X241467036Y-84907428D01*
X241407724Y-84944359D01*
X241337862Y-84943361D01*
X241286811Y-84912576D01*
X239861819Y-83487584D01*
X239828334Y-83426261D01*
X239825500Y-83399903D01*
X239825500Y-81726178D01*
X239845185Y-81659139D01*
X239897989Y-81613384D01*
X239967147Y-81603440D01*
X240030703Y-81632465D01*
G37*
%TD.AperFunction*%
%TA.AperFunction,Conductor*%
G36*
X156752532Y-81861348D02*
G01*
X156808465Y-81903220D01*
X156832882Y-81968684D01*
X156819683Y-82033825D01*
X156758572Y-82153761D01*
X156690478Y-82363336D01*
X156656005Y-82580990D01*
X156656005Y-82801359D01*
X156685599Y-82988212D01*
X157352655Y-82711910D01*
X157613527Y-82603852D01*
X157606005Y-82631928D01*
X157606005Y-82750416D01*
X157636672Y-82864866D01*
X157695915Y-82967478D01*
X157779699Y-83051262D01*
X157804867Y-83065792D01*
X156911247Y-83435942D01*
X156854785Y-83445053D01*
X156699353Y-83433729D01*
X156699347Y-83433730D01*
X156526108Y-83461684D01*
X156526100Y-83461686D01*
X156363972Y-83528843D01*
X156221703Y-83631577D01*
X156106956Y-83764355D01*
X156057909Y-83855320D01*
X155763031Y-84567217D01*
X155719190Y-84621620D01*
X155652896Y-84643685D01*
X155585196Y-84626406D01*
X155537586Y-84575268D01*
X155527992Y-84542023D01*
X155526689Y-84542283D01*
X155490896Y-84362341D01*
X155490893Y-84362332D01*
X155431119Y-84218024D01*
X155423013Y-84198453D01*
X155423011Y-84198451D01*
X155423011Y-84198449D01*
X155396398Y-84158620D01*
X155375520Y-84091942D01*
X155375500Y-84089729D01*
X155375500Y-83187229D01*
X155395185Y-83120190D01*
X155411819Y-83099548D01*
X156010929Y-82500438D01*
X156621519Y-81889847D01*
X156682840Y-81856364D01*
X156752532Y-81861348D01*
G37*
%TD.AperFunction*%
%TA.AperFunction,Conductor*%
G36*
X241754721Y-77991534D02*
G01*
X241761189Y-77997557D01*
X242390023Y-78626390D01*
X243988181Y-80224548D01*
X244021666Y-80285871D01*
X244024500Y-80312229D01*
X244024500Y-83833874D01*
X244004815Y-83900913D01*
X243952011Y-83946668D01*
X243882853Y-83956612D01*
X243819297Y-83927587D01*
X243812819Y-83921555D01*
X243805413Y-83914149D01*
X243805408Y-83914145D01*
X243627075Y-83784580D01*
X243627074Y-83784579D01*
X243627072Y-83784578D01*
X243564146Y-83752515D01*
X243430656Y-83684497D01*
X243430653Y-83684496D01*
X243221002Y-83616377D01*
X243168006Y-83607984D01*
X243104871Y-83578054D01*
X243067940Y-83518743D01*
X243068938Y-83448880D01*
X243087086Y-83412625D01*
X243100095Y-83394719D01*
X242172171Y-83010359D01*
X242197340Y-82995829D01*
X242281124Y-82912045D01*
X242340367Y-82809433D01*
X242371034Y-82694983D01*
X242371034Y-82576495D01*
X242363511Y-82548420D01*
X243291438Y-82932779D01*
X243321034Y-82745920D01*
X243321034Y-82525557D01*
X243286560Y-82307903D01*
X243218466Y-82098328D01*
X243118420Y-81901978D01*
X242988891Y-81723697D01*
X242833075Y-81567881D01*
X242680015Y-81456676D01*
X242680014Y-81456676D01*
X242295654Y-82384600D01*
X242281124Y-82359433D01*
X242197340Y-82275649D01*
X242094728Y-82216406D01*
X241980278Y-82185739D01*
X241861790Y-82185739D01*
X241833713Y-82193262D01*
X242203863Y-81299644D01*
X242237343Y-81253279D01*
X242355265Y-81151372D01*
X242458001Y-81009100D01*
X242525158Y-80846970D01*
X242553114Y-80673723D01*
X242549966Y-80630518D01*
X242540363Y-80498698D01*
X242516641Y-80419461D01*
X242510723Y-80399692D01*
X241975099Y-79106582D01*
X241926051Y-79015616D01*
X241926050Y-79015614D01*
X241811303Y-78882836D01*
X241669032Y-78780101D01*
X241626063Y-78762302D01*
X241571661Y-78718460D01*
X241549597Y-78652166D01*
X241549518Y-78647742D01*
X241549518Y-78085247D01*
X241569203Y-78018208D01*
X241622007Y-77972453D01*
X241691165Y-77962509D01*
X241754721Y-77991534D01*
G37*
%TD.AperFunction*%
%TA.AperFunction,Conductor*%
G36*
X157696029Y-80906731D02*
G01*
X157706406Y-80907474D01*
X157726520Y-80922531D01*
X157748829Y-80934092D01*
X157757442Y-80945680D01*
X157762339Y-80949346D01*
X157770589Y-80961881D01*
X157772140Y-80964581D01*
X157830206Y-81078540D01*
X157865635Y-81127305D01*
X157868940Y-81133056D01*
X157875618Y-81160839D01*
X157885221Y-81187753D01*
X157883680Y-81194377D01*
X157885270Y-81200990D01*
X157875867Y-81227974D01*
X157869395Y-81255807D01*
X157864517Y-81260546D01*
X157862280Y-81266969D01*
X157839781Y-81284585D01*
X157819289Y-81304501D01*
X157810695Y-81307361D01*
X157807268Y-81310045D01*
X157800823Y-81310646D01*
X157780822Y-81317304D01*
X157758963Y-81320766D01*
X158143322Y-82248694D01*
X158115249Y-82241172D01*
X157996761Y-82241172D01*
X157882311Y-82271839D01*
X157779699Y-82331082D01*
X157695915Y-82414866D01*
X157681383Y-82440035D01*
X157297022Y-81512108D01*
X157268383Y-81504031D01*
X157209203Y-81466889D01*
X157179499Y-81403648D01*
X157188701Y-81334387D01*
X157214357Y-81297009D01*
X157575393Y-80935973D01*
X157597442Y-80923934D01*
X157617227Y-80908442D01*
X157627585Y-80907474D01*
X157636714Y-80902490D01*
X157661774Y-80904282D01*
X157686794Y-80901946D01*
X157696029Y-80906731D01*
G37*
%TD.AperFunction*%
%TA.AperFunction,Conductor*%
G36*
X159560917Y-71706821D02*
G01*
X159595955Y-71767270D01*
X159599500Y-71796709D01*
X159599500Y-71913695D01*
X159634103Y-72087658D01*
X159634106Y-72087667D01*
X159701983Y-72251540D01*
X159701990Y-72251553D01*
X159800535Y-72399034D01*
X159800538Y-72399038D01*
X159925961Y-72524461D01*
X159950400Y-72540791D01*
X159995204Y-72594404D01*
X160003911Y-72663729D01*
X159973756Y-72726756D01*
X159969189Y-72731574D01*
X157584697Y-75116066D01*
X157584691Y-75116072D01*
X157581286Y-75119478D01*
X157581284Y-75119480D01*
X157469480Y-75231284D01*
X157440613Y-75281284D01*
X157434895Y-75291187D01*
X157434893Y-75291190D01*
X157390424Y-75368213D01*
X157390423Y-75368215D01*
X157349499Y-75520943D01*
X157349499Y-75520945D01*
X157349499Y-75689053D01*
X157349498Y-75689053D01*
X157349500Y-75689059D01*
X157349500Y-77924902D01*
X157329815Y-77991941D01*
X157313181Y-78012583D01*
X154718239Y-80607524D01*
X154656916Y-80641009D01*
X154587224Y-80636025D01*
X154531291Y-80594153D01*
X154506874Y-80528689D01*
X154515996Y-80472393D01*
X154537938Y-80419420D01*
X154539297Y-80416268D01*
X155104979Y-79152092D01*
X155106404Y-79149023D01*
X155707337Y-77901171D01*
X155708883Y-77898075D01*
X155712615Y-77890851D01*
X156344569Y-76667584D01*
X156346137Y-76664649D01*
X157016118Y-75452411D01*
X157017807Y-75449454D01*
X157721483Y-74256550D01*
X157723280Y-74253601D01*
X158460142Y-73080890D01*
X158461978Y-73078057D01*
X159231464Y-71926442D01*
X159233370Y-71923674D01*
X159374371Y-71724953D01*
X159429219Y-71681670D01*
X159498761Y-71674910D01*
X159560917Y-71706821D01*
G37*
%TD.AperFunction*%
%TA.AperFunction,Conductor*%
G36*
X242105703Y-73991551D02*
G01*
X242129494Y-74019292D01*
X242276719Y-74253601D01*
X242278528Y-74256572D01*
X242982173Y-75449423D01*
X242983898Y-75452443D01*
X243380581Y-76170185D01*
X243650957Y-76659394D01*
X243653826Y-76664584D01*
X243655459Y-76667640D01*
X243721977Y-76796398D01*
X244291116Y-77898075D01*
X244292669Y-77901187D01*
X244445226Y-78217974D01*
X244456578Y-78286916D01*
X244428856Y-78351050D01*
X244370861Y-78390016D01*
X244301006Y-78391441D01*
X244245825Y-78359457D01*
X241936819Y-76050451D01*
X241903334Y-75989128D01*
X241900500Y-75962770D01*
X241900500Y-74085264D01*
X241920185Y-74018225D01*
X241972989Y-73972470D01*
X242042147Y-73962526D01*
X242105703Y-73991551D01*
G37*
%TD.AperFunction*%
%TA.AperFunction,Conductor*%
G36*
X224186882Y-60870185D02*
G01*
X224207524Y-60886819D01*
X228787643Y-65466938D01*
X228821128Y-65528261D01*
X228816144Y-65597953D01*
X228796101Y-65632934D01*
X228738494Y-65703650D01*
X228659732Y-65860478D01*
X228619262Y-66031233D01*
X228619262Y-66206724D01*
X228659732Y-66377479D01*
X228738493Y-66534304D01*
X228803768Y-66614435D01*
X229793462Y-67604129D01*
X229793467Y-67604133D01*
X229793468Y-67604134D01*
X229873594Y-67669405D01*
X230030417Y-67748165D01*
X230115796Y-67768400D01*
X230201174Y-67788636D01*
X230201175Y-67788636D01*
X230376664Y-67788636D01*
X230433582Y-67775145D01*
X230547421Y-67748165D01*
X230686692Y-67678219D01*
X230742343Y-67665030D01*
X231709692Y-67665030D01*
X231665637Y-67741336D01*
X231634970Y-67855786D01*
X231634970Y-67974274D01*
X231665637Y-68088724D01*
X231709692Y-68165030D01*
X230707115Y-68165030D01*
X230719443Y-68242865D01*
X230719443Y-68242868D01*
X230787537Y-68452440D01*
X230887583Y-68648790D01*
X231017112Y-68827071D01*
X231172928Y-68982887D01*
X231351209Y-69112416D01*
X231547559Y-69212462D01*
X231757133Y-69280556D01*
X231834969Y-69292884D01*
X231834970Y-69292884D01*
X231834970Y-68290307D01*
X231911276Y-68334363D01*
X232025726Y-68365030D01*
X232144214Y-68365030D01*
X232258664Y-68334363D01*
X232334970Y-68290307D01*
X232334970Y-69292883D01*
X232365728Y-69288012D01*
X232435022Y-69296966D01*
X232488474Y-69341962D01*
X232509114Y-69408714D01*
X232507600Y-69429882D01*
X232480521Y-69600858D01*
X232480521Y-69821302D01*
X232515006Y-70039033D01*
X232583124Y-70248684D01*
X232583125Y-70248687D01*
X232634196Y-70348917D01*
X232677344Y-70433599D01*
X232683208Y-70445106D01*
X232812773Y-70623439D01*
X232812777Y-70623444D01*
X232968657Y-70779324D01*
X232968662Y-70779328D01*
X233087405Y-70865599D01*
X233146999Y-70908896D01*
X233245541Y-70959106D01*
X233343414Y-71008976D01*
X233343417Y-71008977D01*
X233448242Y-71043036D01*
X233553070Y-71077096D01*
X233770799Y-71111581D01*
X233770800Y-71111581D01*
X233991242Y-71111581D01*
X233991243Y-71111581D01*
X234208972Y-71077096D01*
X234418627Y-71008976D01*
X234615043Y-70908896D01*
X234793386Y-70779323D01*
X234949263Y-70623446D01*
X235078836Y-70445103D01*
X235178916Y-70248687D01*
X235247036Y-70039032D01*
X235281521Y-69821303D01*
X235281521Y-69600859D01*
X235264445Y-69493046D01*
X235273400Y-69423754D01*
X235318396Y-69370302D01*
X235385147Y-69349662D01*
X235452461Y-69368387D01*
X235474599Y-69385968D01*
X240363181Y-74274548D01*
X240396666Y-74335871D01*
X240399500Y-74362229D01*
X240399500Y-76400903D01*
X240379815Y-76467942D01*
X240327011Y-76513697D01*
X240257853Y-76523641D01*
X240194297Y-76494616D01*
X240187819Y-76488584D01*
X237387590Y-73688355D01*
X237387588Y-73688352D01*
X237268717Y-73569481D01*
X237268716Y-73569480D01*
X237181904Y-73519360D01*
X237181904Y-73519359D01*
X237181900Y-73519358D01*
X237131785Y-73490423D01*
X236979057Y-73449499D01*
X236820943Y-73449499D01*
X236813347Y-73449499D01*
X236813331Y-73449500D01*
X225390784Y-73449500D01*
X225323745Y-73429815D01*
X225303103Y-73413181D01*
X224361819Y-72471897D01*
X224347115Y-72444969D01*
X224330523Y-72419151D01*
X224329631Y-72412950D01*
X224328334Y-72410574D01*
X224325500Y-72384216D01*
X224325500Y-72211535D01*
X224345185Y-72144496D01*
X224397989Y-72098741D01*
X224467147Y-72088797D01*
X224530703Y-72117822D01*
X224537181Y-72123854D01*
X224538776Y-72125449D01*
X224726669Y-72261961D01*
X224824436Y-72311776D01*
X224933599Y-72367398D01*
X224933601Y-72367398D01*
X224933604Y-72367400D01*
X225154486Y-72439169D01*
X225272668Y-72457886D01*
X225383871Y-72475500D01*
X225383876Y-72475500D01*
X225616129Y-72475500D01*
X225717502Y-72459443D01*
X225845514Y-72439169D01*
X226066396Y-72367400D01*
X226273331Y-72261961D01*
X226461224Y-72125449D01*
X226625449Y-71961224D01*
X226761961Y-71773331D01*
X226867400Y-71566396D01*
X226939169Y-71345514D01*
X226959443Y-71217502D01*
X226975500Y-71116129D01*
X226975500Y-70883870D01*
X226954838Y-70753416D01*
X226939169Y-70654486D01*
X226867400Y-70433604D01*
X226867398Y-70433601D01*
X226867398Y-70433599D01*
X226773318Y-70248959D01*
X226761961Y-70226669D01*
X226625449Y-70038776D01*
X226461224Y-69874551D01*
X226273331Y-69738039D01*
X226248479Y-69725376D01*
X226066400Y-69632601D01*
X225845514Y-69560831D01*
X225616129Y-69524500D01*
X225616124Y-69524500D01*
X225383876Y-69524500D01*
X225383871Y-69524500D01*
X225154485Y-69560831D01*
X224933599Y-69632601D01*
X224726668Y-69738039D01*
X224538773Y-69874553D01*
X224537181Y-69876146D01*
X224536426Y-69876557D01*
X224535072Y-69877715D01*
X224534828Y-69877430D01*
X224475858Y-69909631D01*
X224406166Y-69904647D01*
X224350233Y-69862775D01*
X224325816Y-69797311D01*
X224325500Y-69788465D01*
X224325500Y-67211535D01*
X224345185Y-67144496D01*
X224397989Y-67098741D01*
X224467147Y-67088797D01*
X224530703Y-67117822D01*
X224537181Y-67123854D01*
X224538776Y-67125449D01*
X224726669Y-67261961D01*
X224778123Y-67288178D01*
X224933599Y-67367398D01*
X224933601Y-67367398D01*
X224933604Y-67367400D01*
X225154486Y-67439169D01*
X225272668Y-67457886D01*
X225383871Y-67475500D01*
X225383876Y-67475500D01*
X225616129Y-67475500D01*
X225718409Y-67459300D01*
X225845514Y-67439169D01*
X226066396Y-67367400D01*
X226273331Y-67261961D01*
X226461224Y-67125449D01*
X226625449Y-66961224D01*
X226761961Y-66773331D01*
X226867400Y-66566396D01*
X226939169Y-66345514D01*
X226961151Y-66206723D01*
X226975500Y-66116129D01*
X226975500Y-65883870D01*
X226946956Y-65703653D01*
X226939169Y-65654486D01*
X226867400Y-65433604D01*
X226867398Y-65433601D01*
X226867398Y-65433599D01*
X226811776Y-65324436D01*
X226761961Y-65226669D01*
X226625449Y-65038776D01*
X226461224Y-64874551D01*
X226273331Y-64738039D01*
X226206640Y-64704058D01*
X226066400Y-64632601D01*
X225845514Y-64560831D01*
X225616129Y-64524500D01*
X225616124Y-64524500D01*
X225383876Y-64524500D01*
X225383871Y-64524500D01*
X225154485Y-64560831D01*
X224933599Y-64632601D01*
X224726668Y-64738039D01*
X224538773Y-64874553D01*
X224537181Y-64876146D01*
X224536426Y-64876557D01*
X224535072Y-64877715D01*
X224534828Y-64877430D01*
X224475858Y-64909631D01*
X224406166Y-64904647D01*
X224350233Y-64862775D01*
X224325816Y-64797311D01*
X224325500Y-64788465D01*
X224325500Y-64248374D01*
X224325501Y-64248361D01*
X224325501Y-64080258D01*
X224284576Y-63927528D01*
X224284573Y-63927523D01*
X224205524Y-63790604D01*
X224205518Y-63790596D01*
X222881092Y-62466170D01*
X221477101Y-61062180D01*
X221443617Y-61000858D01*
X221448601Y-60931166D01*
X221490473Y-60875233D01*
X221555937Y-60850816D01*
X221564783Y-60850500D01*
X224119843Y-60850500D01*
X224186882Y-60870185D01*
G37*
%TD.AperFunction*%
%TA.AperFunction,Conductor*%
G36*
X232184956Y-62400672D02*
G01*
X232205530Y-62414763D01*
X232461613Y-62631006D01*
X232464239Y-62633287D01*
X233496909Y-63556136D01*
X233499465Y-63558485D01*
X233744985Y-63790604D01*
X234505866Y-64509954D01*
X234506268Y-64510643D01*
X234508359Y-64512379D01*
X235487620Y-65491640D01*
X235490045Y-65494133D01*
X236441509Y-66500529D01*
X236443863Y-66503090D01*
X237366712Y-67535760D01*
X237368993Y-67538386D01*
X238262508Y-68596521D01*
X238264714Y-68599209D01*
X239128218Y-69682008D01*
X239130348Y-69684758D01*
X239630180Y-70348917D01*
X239954093Y-70779323D01*
X239963108Y-70791301D01*
X239965148Y-70794092D01*
X240735489Y-71879786D01*
X240766601Y-71923634D01*
X240768568Y-71926491D01*
X240837800Y-72030104D01*
X241339153Y-72780431D01*
X241360031Y-72847109D01*
X241341546Y-72914489D01*
X241289568Y-72961179D01*
X241220598Y-72972355D01*
X241156534Y-72944469D01*
X241148370Y-72937003D01*
X239096026Y-70884659D01*
X236603921Y-68392553D01*
X236570436Y-68331230D01*
X236567602Y-68304872D01*
X236567602Y-67363886D01*
X236538761Y-67218899D01*
X236538760Y-67218898D01*
X236538760Y-67218894D01*
X236482186Y-67082312D01*
X236449205Y-67032952D01*
X236449205Y-67032951D01*
X236400052Y-66959388D01*
X236400049Y-66959385D01*
X234359437Y-64918774D01*
X232037848Y-62597185D01*
X232004363Y-62535862D01*
X232009347Y-62466170D01*
X232051219Y-62410237D01*
X232116683Y-62385820D01*
X232184956Y-62400672D01*
G37*
%TD.AperFunction*%
%TA.AperFunction,Conductor*%
G36*
X171225627Y-59817544D02*
G01*
X171273756Y-59868193D01*
X171286862Y-59936822D01*
X171260784Y-60001643D01*
X171251125Y-60012506D01*
X169085703Y-62177929D01*
X169085701Y-62177931D01*
X160347807Y-70915823D01*
X160335438Y-70923240D01*
X160328139Y-70931825D01*
X160306043Y-70940868D01*
X160296173Y-70946787D01*
X160290314Y-70948566D01*
X160237334Y-70959106D01*
X160186994Y-70979957D01*
X160186975Y-70979963D01*
X160182402Y-70981858D01*
X160179830Y-70982134D01*
X160172015Y-70984509D01*
X160156376Y-70984655D01*
X160112933Y-70989325D01*
X160104573Y-70985140D01*
X160102148Y-70985163D01*
X160092555Y-70979124D01*
X160050454Y-70958049D01*
X160045313Y-70949384D01*
X160043019Y-70947940D01*
X160037647Y-70936464D01*
X160014803Y-70897959D01*
X160015145Y-70888385D01*
X160013401Y-70884659D01*
X160015959Y-70865599D01*
X160017298Y-70828134D01*
X160022317Y-70818234D01*
X160022696Y-70815411D01*
X160025302Y-70812345D01*
X160033818Y-70795547D01*
X160034869Y-70794067D01*
X160036844Y-70791364D01*
X160869664Y-69684740D01*
X160871781Y-69682008D01*
X160884736Y-69665764D01*
X161735293Y-68599198D01*
X161737491Y-68596521D01*
X162631030Y-67538357D01*
X162633262Y-67535788D01*
X163556173Y-66503049D01*
X163558452Y-66500569D01*
X164509988Y-65494097D01*
X164512343Y-65491676D01*
X165491676Y-64512343D01*
X165494097Y-64509988D01*
X166500569Y-63558452D01*
X166503049Y-63556173D01*
X167535788Y-62633262D01*
X167538357Y-62631030D01*
X168596531Y-61737482D01*
X168599209Y-61735285D01*
X169682025Y-60871767D01*
X169684740Y-60869664D01*
X170791365Y-60036843D01*
X170794046Y-60034883D01*
X171091689Y-59823694D01*
X171157755Y-59800956D01*
X171225627Y-59817544D01*
G37*
%TD.AperFunction*%
%TA.AperFunction,Conductor*%
G36*
X227609104Y-60295185D02*
G01*
X227629746Y-60311819D01*
X233094202Y-65776275D01*
X233127687Y-65837598D01*
X233130521Y-65863956D01*
X233130521Y-66700808D01*
X233110836Y-66767847D01*
X233058032Y-66813602D01*
X232988874Y-66823546D01*
X232933636Y-66801126D01*
X232818733Y-66717645D01*
X232622380Y-66617597D01*
X232412806Y-66549503D01*
X232334970Y-66537174D01*
X232334970Y-67539752D01*
X232258664Y-67495697D01*
X232144214Y-67465030D01*
X232025726Y-67465030D01*
X231911276Y-67495697D01*
X231834970Y-67539752D01*
X231834970Y-66572403D01*
X231848159Y-66516752D01*
X231918105Y-66377481D01*
X231958576Y-66206723D01*
X231958576Y-66031235D01*
X231918105Y-65860477D01*
X231839345Y-65703654D01*
X231774074Y-65623528D01*
X231774073Y-65623527D01*
X231774069Y-65623522D01*
X230784375Y-64633828D01*
X230704244Y-64568553D01*
X230547419Y-64489792D01*
X230376664Y-64449322D01*
X230376663Y-64449322D01*
X230201175Y-64449322D01*
X230201174Y-64449322D01*
X230030418Y-64489792D01*
X229873590Y-64568554D01*
X229802874Y-64626161D01*
X229738465Y-64653240D01*
X229669641Y-64641198D01*
X229636878Y-64617703D01*
X225506356Y-60487181D01*
X225472871Y-60425858D01*
X225477855Y-60356166D01*
X225519727Y-60300233D01*
X225585191Y-60275816D01*
X225594037Y-60275500D01*
X227542065Y-60275500D01*
X227609104Y-60295185D01*
G37*
%TD.AperFunction*%
%TA.AperFunction,Conductor*%
G36*
X216914261Y-58019722D02*
G01*
X216914261Y-58138210D01*
X216944928Y-58252660D01*
X217004171Y-58355272D01*
X217087955Y-58439056D01*
X217113122Y-58453586D01*
X216185198Y-58837946D01*
X216185198Y-58837947D01*
X216296403Y-58991007D01*
X216452219Y-59146823D01*
X216630500Y-59276352D01*
X216826850Y-59376398D01*
X216922784Y-59407569D01*
X216980459Y-59447006D01*
X217007658Y-59511365D01*
X216995743Y-59580211D01*
X216948499Y-59631687D01*
X216884466Y-59649500D01*
X213623653Y-59649500D01*
X213556614Y-59629815D01*
X213510859Y-59577011D01*
X213500915Y-59507853D01*
X213529940Y-59444297D01*
X213535972Y-59437819D01*
X213826968Y-59146823D01*
X214487626Y-58486165D01*
X214548947Y-58452682D01*
X214618639Y-58457666D01*
X214622716Y-58459270D01*
X215128214Y-58668655D01*
X215227219Y-58698295D01*
X215285561Y-58702545D01*
X215402243Y-58711046D01*
X215402243Y-58711045D01*
X215402245Y-58711046D01*
X215528291Y-58690706D01*
X215575487Y-58683091D01*
X215575489Y-58683090D01*
X215575492Y-58683090D01*
X215575493Y-58683089D01*
X215575495Y-58683089D01*
X215622982Y-58663418D01*
X215737622Y-58615933D01*
X215879894Y-58513197D01*
X215981801Y-58395275D01*
X216028166Y-58361795D01*
X216921784Y-57991645D01*
X216914261Y-58019722D01*
G37*
%TD.AperFunction*%
%TA.AperFunction,Conductor*%
G36*
X218123241Y-59258027D02*
G01*
X218141147Y-59245018D01*
X218170638Y-59234495D01*
X218199419Y-59222200D01*
X218203272Y-59222851D01*
X218206953Y-59221538D01*
X218237449Y-59228629D01*
X218268311Y-59233847D01*
X218271199Y-59236477D01*
X218275007Y-59237363D01*
X218296824Y-59259812D01*
X218319970Y-59280890D01*
X218321585Y-59285291D01*
X218323702Y-59287469D01*
X218333836Y-59313347D01*
X218335497Y-59319571D01*
X218344900Y-59378933D01*
X218381089Y-59490314D01*
X218381943Y-59493511D01*
X218381159Y-59525273D01*
X218382066Y-59557024D01*
X218380303Y-59559947D01*
X218380219Y-59563359D01*
X218362395Y-59589644D01*
X218345985Y-59616857D01*
X218342920Y-59618363D01*
X218341006Y-59621187D01*
X218311800Y-59633663D01*
X218283284Y-59647684D01*
X218277900Y-59648146D01*
X218276754Y-59648636D01*
X218275219Y-59648376D01*
X218262140Y-59649500D01*
X217760788Y-59649500D01*
X217693749Y-59629815D01*
X217647994Y-59577011D01*
X217638050Y-59507853D01*
X217652598Y-59464911D01*
X217661301Y-59449369D01*
X217276942Y-58521443D01*
X217305017Y-58528966D01*
X217423505Y-58528966D01*
X217537955Y-58498299D01*
X217640567Y-58439056D01*
X217724351Y-58355272D01*
X217738881Y-58330103D01*
X218123241Y-59258027D01*
G37*
%TD.AperFunction*%
%TA.AperFunction,Conductor*%
G36*
X221492687Y-55415435D02*
G01*
X221871718Y-55597967D01*
X222098812Y-55707330D01*
X222101924Y-55708883D01*
X222343107Y-55833481D01*
X223332385Y-56344554D01*
X223335379Y-56346153D01*
X224511807Y-56996343D01*
X224547556Y-57016101D01*
X224550576Y-57017826D01*
X225743427Y-57721471D01*
X225746398Y-57723280D01*
X226226426Y-58024901D01*
X226885550Y-58439056D01*
X226919066Y-58460115D01*
X226921975Y-58462000D01*
X226989995Y-58507450D01*
X227049781Y-58547398D01*
X227094586Y-58601010D01*
X227103293Y-58670335D01*
X227073138Y-58733363D01*
X227013695Y-58770082D01*
X226980890Y-58774500D01*
X224562229Y-58774500D01*
X224495190Y-58754815D01*
X224474548Y-58738181D01*
X221351206Y-55614837D01*
X221317721Y-55553514D01*
X221322705Y-55483822D01*
X221364577Y-55427889D01*
X221430041Y-55403472D01*
X221492687Y-55415435D01*
G37*
%TD.AperFunction*%
%TA.AperFunction,Conductor*%
G36*
X179316087Y-55111010D02*
G01*
X179353411Y-55170075D01*
X179352877Y-55239942D01*
X179321851Y-55291780D01*
X176550451Y-58063181D01*
X176489128Y-58096666D01*
X176462770Y-58099500D01*
X174085264Y-58099500D01*
X174018225Y-58079815D01*
X173972470Y-58027011D01*
X173962526Y-57957853D01*
X173991551Y-57894297D01*
X174019292Y-57870506D01*
X174022518Y-57868479D01*
X174253621Y-57723267D01*
X174256550Y-57721483D01*
X175449454Y-57017807D01*
X175452411Y-57016118D01*
X176664649Y-56346137D01*
X176667584Y-56344569D01*
X177898090Y-55708875D01*
X177901171Y-55707337D01*
X179149024Y-55106403D01*
X179152065Y-55104991D01*
X179183526Y-55090913D01*
X179252755Y-55081500D01*
X179316087Y-55111010D01*
G37*
%TD.AperFunction*%
%TA.AperFunction,Conductor*%
G36*
X200695952Y-50505417D02*
G01*
X202080386Y-50544260D01*
X202083735Y-50544401D01*
X203466583Y-50622060D01*
X203470036Y-50622303D01*
X204850124Y-50738712D01*
X204853470Y-50739042D01*
X206193980Y-50890080D01*
X206229760Y-50894112D01*
X206233213Y-50894550D01*
X207604545Y-51088150D01*
X207607935Y-51088677D01*
X208973367Y-51320673D01*
X208976768Y-51321301D01*
X210335101Y-51591490D01*
X210338440Y-51592203D01*
X211688689Y-51900388D01*
X211692063Y-51901207D01*
X213033165Y-52247149D01*
X213036411Y-52248035D01*
X214367349Y-52631472D01*
X214370558Y-52632445D01*
X215690145Y-53053035D01*
X215693410Y-53054127D01*
X216134463Y-53208459D01*
X216191239Y-53249180D01*
X216216986Y-53314133D01*
X216203530Y-53382695D01*
X216155142Y-53433097D01*
X216093508Y-53449500D01*
X213201076Y-53449500D01*
X213172242Y-53455234D01*
X213172243Y-53455235D01*
X213056093Y-53478339D01*
X213056089Y-53478340D01*
X212988302Y-53506419D01*
X212919506Y-53534915D01*
X212886816Y-53556758D01*
X212886815Y-53556757D01*
X212796585Y-53617046D01*
X212796578Y-53617052D01*
X210062681Y-56350950D01*
X210001358Y-56384435D01*
X209931666Y-56379451D01*
X209887319Y-56350950D01*
X208024097Y-54487728D01*
X208024074Y-54487707D01*
X207860867Y-54324500D01*
X207578416Y-54042048D01*
X207578415Y-54042047D01*
X207574085Y-54037717D01*
X207574074Y-54037707D01*
X205053421Y-51517052D01*
X205053414Y-51517046D01*
X204979729Y-51467812D01*
X204979729Y-51467813D01*
X204930491Y-51434913D01*
X204793917Y-51378343D01*
X204793907Y-51378340D01*
X204648920Y-51349500D01*
X204648918Y-51349500D01*
X192327056Y-51349500D01*
X192303165Y-51342484D01*
X192278438Y-51339571D01*
X192270223Y-51332811D01*
X192260017Y-51329815D01*
X192243713Y-51311000D01*
X192224484Y-51295178D01*
X192221227Y-51285049D01*
X192214262Y-51277011D01*
X192210718Y-51252368D01*
X192203096Y-51228662D01*
X192205831Y-51218381D01*
X192204318Y-51207853D01*
X192214661Y-51185203D01*
X192221065Y-51161143D01*
X192228923Y-51153974D01*
X192233343Y-51144297D01*
X192254291Y-51130834D01*
X192272685Y-51114056D01*
X192288124Y-51109091D01*
X192292121Y-51106523D01*
X192306285Y-51103252D01*
X192392075Y-51088675D01*
X192395443Y-51088152D01*
X193766795Y-50894549D01*
X193770232Y-50894112D01*
X195146536Y-50739041D01*
X195149868Y-50738713D01*
X196529968Y-50622303D01*
X196533411Y-50622060D01*
X197916267Y-50544401D01*
X197919610Y-50544260D01*
X199304048Y-50505417D01*
X199307526Y-50505368D01*
X200692474Y-50505368D01*
X200695952Y-50505417D01*
G37*
%TD.AperFunction*%
%TA.AperFunction,Conductor*%
G36*
X189019112Y-51759027D02*
G01*
X189075470Y-51800326D01*
X189100553Y-51865538D01*
X189086399Y-51933959D01*
X189064647Y-51963326D01*
X187503756Y-53524219D01*
X186698723Y-54329251D01*
X186637400Y-54362736D01*
X186611042Y-54365570D01*
X181458945Y-54365570D01*
X181391906Y-54345885D01*
X181346151Y-54293081D01*
X181336207Y-54223923D01*
X181365232Y-54160367D01*
X181411492Y-54127009D01*
X181517377Y-54083150D01*
X181699006Y-54007916D01*
X181702181Y-54006653D01*
X182996094Y-53512740D01*
X182999310Y-53511563D01*
X184306643Y-53054107D01*
X184309832Y-53053042D01*
X185629461Y-52632439D01*
X185632630Y-52631477D01*
X186963606Y-52248029D01*
X186966816Y-52247153D01*
X188307952Y-51901203D01*
X188311289Y-51900392D01*
X188949375Y-51754754D01*
X189019112Y-51759027D01*
G37*
%TD.AperFunction*%
%TD*%
M02*
