%TF.GenerationSoftware,KiCad,Pcbnew,9.0.7*%
%TF.CreationDate,2026-02-18T21:19:54+09:00*%
%TF.ProjectId,Angel_Line_1.0,416e6765-6c5f-44c6-996e-655f312e302e,rev?*%
%TF.SameCoordinates,Original*%
%TF.FileFunction,Legend,Bot*%
%TF.FilePolarity,Positive*%
%FSLAX46Y46*%
G04 Gerber Fmt 4.6, Leading zero omitted, Abs format (unit mm)*
G04 Created by KiCad (PCBNEW 9.0.7) date 2026-02-18 21:19:54*
%MOMM*%
%LPD*%
G01*
G04 APERTURE LIST*
%ADD10C,0.120000*%
G04 APERTURE END LIST*
D10*
%TO.C,D40*%
X104924118Y-173756947D02*
X105560813Y-176133125D01*
X106344029Y-173376483D02*
X104924118Y-173756947D01*
X106980724Y-175752661D02*
X106344029Y-173376483D01*
%TO.C,D2*%
X198340000Y-209515000D02*
X198340000Y-210985000D01*
X198340000Y-210985000D02*
X200800000Y-210985000D01*
X200800000Y-209515000D02*
X198340000Y-209515000D01*
%TO.C,D29*%
X259515000Y-149200000D02*
X259515000Y-151660000D01*
X259515000Y-151660000D02*
X260985000Y-151660000D01*
X260985000Y-151660000D02*
X260985000Y-149200000D01*
%TO.C,D10*%
X139653243Y-158955154D02*
X140080418Y-161377781D01*
X141100911Y-158699891D02*
X139653243Y-158955154D01*
X141528085Y-161122518D02*
X141100911Y-158699891D01*
%TO.C,D25*%
X245076905Y-111131660D02*
X246658163Y-113016130D01*
X246658163Y-113016130D02*
X247784248Y-112071232D01*
X247784248Y-112071232D02*
X246202991Y-110186763D01*
%TO.C,D30*%
X258322577Y-161969452D02*
X259770245Y-162224715D01*
X258749752Y-159546825D02*
X258322577Y-161969452D01*
X259770245Y-162224715D02*
X260197419Y-159802088D01*
%TO.C,D34*%
X236983870Y-196658163D02*
X237928768Y-197784248D01*
X237928768Y-197784248D02*
X239813237Y-196202991D01*
X238868340Y-195076905D02*
X236983870Y-196658163D01*
%TO.C,D41*%
X102015000Y-148340000D02*
X102015000Y-150800000D01*
X103485000Y-148340000D02*
X102015000Y-148340000D01*
X103485000Y-150800000D02*
X103485000Y-148340000D01*
%TO.C,D36*%
X218795439Y-206493559D02*
X219298209Y-207874908D01*
X219298209Y-207874908D02*
X221609853Y-207033538D01*
X221107083Y-205652190D02*
X218795439Y-206493559D01*
%TO.C,D17*%
X169549680Y-98858498D02*
X171680102Y-97628498D01*
X170945102Y-96355440D02*
X168814680Y-97585440D01*
X171680102Y-97628498D02*
X170945102Y-96355440D01*
%TO.C,D33*%
X244524108Y-189527138D02*
X245650193Y-190472036D01*
X245650193Y-190472036D02*
X247231451Y-188587566D01*
X246105365Y-187642669D02*
X244524108Y-189527138D01*
%TO.C,D18*%
X178892917Y-94347810D02*
X181204561Y-93506441D01*
X180701791Y-92125092D02*
X178390147Y-92966462D01*
X181204561Y-93506441D02*
X180701791Y-92125092D01*
%TO.C,D24*%
X237642669Y-103894635D02*
X239527138Y-105475892D01*
X239527138Y-105475892D02*
X240472036Y-104349807D01*
X240472036Y-104349807D02*
X238587566Y-102768549D01*
%TO.C,D44*%
X199200000Y-82485000D02*
X201660000Y-82485000D01*
X201660000Y-81015000D02*
X199200000Y-81015000D01*
X201660000Y-82485000D02*
X201660000Y-81015000D01*
%TO.C,D21*%
X209546825Y-91250248D02*
X211969452Y-91677423D01*
X211969452Y-91677423D02*
X212224715Y-90229755D01*
X212224715Y-90229755D02*
X209802088Y-89802581D01*
%TO.C,D7*%
X152215752Y-187928768D02*
X153797009Y-189813237D01*
X153341837Y-186983870D02*
X152215752Y-187928768D01*
X154923095Y-188868340D02*
X153341837Y-186983870D01*
%TO.C,D46*%
X293019276Y-124247339D02*
X293655971Y-126623517D01*
X293655971Y-126623517D02*
X295075882Y-126243053D01*
X295075882Y-126243053D02*
X294439187Y-123866875D01*
%TO.C,D14*%
X148015440Y-118069898D02*
X146785440Y-120200320D01*
X148058498Y-120935320D02*
X149288498Y-118804898D01*
X149288498Y-118804898D02*
X148015440Y-118069898D01*
%TO.C,D45*%
X229200000Y-82485000D02*
X231660000Y-82485000D01*
X231660000Y-81015000D02*
X229200000Y-81015000D01*
X231660000Y-82485000D02*
X231660000Y-81015000D01*
%TO.C,D5*%
X168069898Y-201984560D02*
X170200320Y-203214560D01*
X168804898Y-200711502D02*
X168069898Y-201984560D01*
X170935320Y-201941502D02*
X168804898Y-200711502D01*
%TO.C,D28*%
X258471915Y-138877482D02*
X258899089Y-141300109D01*
X258899089Y-141300109D02*
X260346757Y-141044846D01*
X260346757Y-141044846D02*
X259919582Y-138622219D01*
%TO.C,D35*%
X228319898Y-202371502D02*
X229054898Y-203644560D01*
X229054898Y-203644560D02*
X231185320Y-202414560D01*
X230450320Y-201141502D02*
X228319898Y-202371502D01*
%TO.C,D31*%
X255358052Y-171915219D02*
X256739401Y-172417989D01*
X256199422Y-169603575D02*
X255358052Y-171915219D01*
X256739401Y-172417989D02*
X257580770Y-170106345D01*
%TO.C,D37*%
X223376483Y-243655971D02*
X223756947Y-245075882D01*
X223756947Y-245075882D02*
X226133125Y-244439187D01*
X225752661Y-243019276D02*
X223376483Y-243655971D01*
%TO.C,D9*%
X142125092Y-169298209D02*
X142966462Y-171609853D01*
X143506441Y-168795439D02*
X142125092Y-169298209D01*
X144347810Y-171107083D02*
X143506441Y-168795439D01*
%TO.C,D26*%
X251141502Y-119549680D02*
X252371502Y-121680102D01*
X252371502Y-121680102D02*
X253644560Y-120945102D01*
X253644560Y-120945102D02*
X252414560Y-118814680D01*
%TO.C,D43*%
X169200000Y-82485000D02*
X171660000Y-82485000D01*
X171660000Y-81015000D02*
X169200000Y-81015000D01*
X171660000Y-82485000D02*
X171660000Y-81015000D01*
%TO.C,D47*%
X296515000Y-149200000D02*
X296515000Y-151660000D01*
X296515000Y-151660000D02*
X297985000Y-151660000D01*
X297985000Y-151660000D02*
X297985000Y-149200000D01*
%TO.C,D6*%
X159527964Y-195650193D02*
X161412434Y-197231451D01*
X160472862Y-194524108D02*
X159527964Y-195650193D01*
X162357331Y-196105365D02*
X160472862Y-194524108D01*
%TO.C,D15*%
X153894635Y-112357331D02*
X155475892Y-110472862D01*
X154349807Y-109527964D02*
X152768549Y-111412434D01*
X155475892Y-110472862D02*
X154349807Y-109527964D01*
%TO.C,D48*%
X292796692Y-176583357D02*
X294216603Y-176963821D01*
X293433387Y-174207179D02*
X292796692Y-176583357D01*
X294216603Y-176963821D02*
X294853298Y-174587643D01*
%TO.C,D11*%
X139015000Y-148340000D02*
X139015000Y-150800000D01*
X140485000Y-148340000D02*
X139015000Y-148340000D01*
X140485000Y-150800000D02*
X140485000Y-148340000D01*
%TO.C,D16*%
X161131660Y-104923095D02*
X163016130Y-103341837D01*
X162071232Y-102215752D02*
X160186763Y-103797009D01*
X163016130Y-103341837D02*
X162071232Y-102215752D01*
%TO.C,D8*%
X146355440Y-179054898D02*
X147585440Y-181185320D01*
X147628498Y-178319898D02*
X146355440Y-179054898D01*
X148858498Y-180450320D02*
X147628498Y-178319898D01*
%TO.C,D23*%
X229064680Y-98058498D02*
X231195102Y-99288498D01*
X231195102Y-99288498D02*
X231930102Y-98015440D01*
X231930102Y-98015440D02*
X229799680Y-96785440D01*
%TO.C,D3*%
X187775285Y-209770245D02*
X190197912Y-210197419D01*
X188030548Y-208322577D02*
X187775285Y-209770245D01*
X190453175Y-208749752D02*
X188030548Y-208322577D01*
%TO.C,D32*%
X250711502Y-181195102D02*
X251984560Y-181930102D01*
X251941502Y-179064680D02*
X250711502Y-181195102D01*
X251984560Y-181930102D02*
X253214560Y-179799680D01*
%TO.C,D12*%
X140229755Y-137775285D02*
X139802581Y-140197912D01*
X141250248Y-140453175D02*
X141677423Y-138030548D01*
X141677423Y-138030548D02*
X140229755Y-137775285D01*
%TO.C,D39*%
X173036179Y-244216603D02*
X175412357Y-244853298D01*
X173416643Y-242796692D02*
X173036179Y-244216603D01*
X175792821Y-243433387D02*
X173416643Y-242796692D01*
%TO.C,D22*%
X219603575Y-93800578D02*
X221915219Y-94641948D01*
X221915219Y-94641948D02*
X222417989Y-93260599D01*
X222417989Y-93260599D02*
X220106345Y-92419230D01*
%TO.C,D4*%
X177582011Y-206739401D02*
X179893655Y-207580770D01*
X178084781Y-205358052D02*
X177582011Y-206739401D01*
X180396425Y-206199422D02*
X178084781Y-205358052D01*
%TO.C,D20*%
X199200000Y-90485000D02*
X201660000Y-90485000D01*
X201660000Y-89015000D02*
X199200000Y-89015000D01*
X201660000Y-90485000D02*
X201660000Y-89015000D01*
%TO.C,D1*%
X209802088Y-210197419D02*
X212224715Y-209770245D01*
X211969452Y-208322577D02*
X209546825Y-208749752D01*
X212224715Y-209770245D02*
X211969452Y-208322577D01*
%TO.C,D13*%
X143260599Y-127582011D02*
X142419230Y-129893655D01*
X143800578Y-130396425D02*
X144641948Y-128084781D01*
X144641948Y-128084781D02*
X143260599Y-127582011D01*
%TO.C,D27*%
X255652190Y-128892917D02*
X256493559Y-131204561D01*
X256493559Y-131204561D02*
X257874908Y-130701791D01*
X257874908Y-130701791D02*
X257033538Y-128390147D01*
%TO.C,D38*%
X198340000Y-246515000D02*
X198340000Y-247985000D01*
X198340000Y-247985000D02*
X200800000Y-247985000D01*
X200800000Y-246515000D02*
X198340000Y-246515000D01*
%TO.C,D19*%
X188877482Y-91528085D02*
X191300109Y-91100911D01*
X191044846Y-89653243D02*
X188622219Y-90080418D01*
X191300109Y-91100911D02*
X191044846Y-89653243D01*
%TO.C,D42*%
X105783397Y-123036179D02*
X105146702Y-125412357D01*
X106566613Y-125792821D02*
X107203308Y-123416643D01*
X107203308Y-123416643D02*
X105783397Y-123036179D01*
%TD*%
M02*
