M48
; DRILL file {KiCad 9.0.7} date 2026-02-18T21:19:49+0900
; FORMAT={-:-/ absolute / metric / decimal}
; #@! TF.CreationDate,2026-02-18T21:19:49+09:00
; #@! TF.GenerationSoftware,Kicad,Pcbnew,9.0.7
; #@! TF.FileFunction,Plated,1,2,PTH
FMAT,2
METRIC
; #@! TA.AperFunction,Plated,PTH,ViaDrill
T1C0.300
; #@! TA.AperFunction,Plated,PTH,ComponentDrill
T2C0.950
; #@! TA.AperFunction,Plated,PTH,ComponentDrill
T3C1.000
%
G90
G05
T1
X98.2Y-154.025
X98.375Y-145.95
X98.525Y-138.475
X98.625Y-158.6
X99.537Y-152.625
X100.05Y-169.325
X100.225Y-129.375
X100.475Y-144.85
X100.725Y-140.65
X100.825Y-132.675
X101.325Y-176.125
X101.425Y-149.525
X101.475Y-150.9
X101.65Y-123.025
X102.275Y-178.8
X102.9Y-147.475
X102.925Y-118.775
X103.575Y-136.95
X103.725Y-127.775
X103.775Y-116.15
X103.775Y-183.925
X103.95Y-131.325
X104.3Y-142.325
X105.475Y-160.0
X107.0Y-136.025
X107.3Y-166.875
X107.85Y-129.075
X107.95Y-170.375
X108.175Y-156.475
X108.75Y-174.225
X109.625Y-122.575
X109.875Y-177.625
X111.1Y-118.825
X111.325Y-181.15
X113.05Y-150.2
X117.65Y-156.4
X128.25Y-150.25
X131.625Y-156.25
X134.112Y-144.85
X136.05Y-161.6
X136.537Y-152.725
X137.425Y-132.275
X137.675Y-167.7
X138.35Y-150.925
X138.55Y-149.65
X138.8Y-146.3
X139.25Y-126.7
X139.85Y-174.55
X141.275Y-123.925
X142.2Y-121.8
X142.8Y-178.6
X144.45Y-120.225
X145.575Y-184.975
X146.325Y-119.9
X146.441Y-180.3
X146.75Y-178.2
X146.815Y-183.535
X147.15Y-118.725
X147.225Y-181.55
X147.5Y-111.675
X148.75Y-117.5
X149.125Y-190.475
X149.15Y-109.65
X151.4Y-193.025
X154.975Y-103.275
X155.4Y-197.075
X158.6Y-195.35
X160.675Y-201.325
X160.825Y-98.2
X165.565Y-95.026
X166.5Y-77.4
X166.625Y-84.15
X166.7Y-246.025
X166.725Y-80.775
X167.325Y-97.75
X167.45Y-201.25
X168.275Y-240.225
X168.3Y-203.0
X168.575Y-97.325
X168.95Y-238.625
X169.375Y-203.375
X169.725Y-187.575
X169.825Y-84.475
X169.825Y-96.45
X170.875Y-239.3
X171.025Y-205.2
X171.075Y-247.525
X172.1Y-97.45
X172.7Y-239.825
X173.1Y-91.075
X173.4Y-80.7
X173.775Y-77.1
X177.35Y-241.25
X177.525Y-84.875
X177.725Y-77.175
X177.875Y-88.9
X178.55Y-80.65
X178.8Y-195.45
X180.775Y-193.675
X180.8Y-249.95
X182.2Y-189.45
X182.375Y-77.125
X183.275Y-242.75
X184.55Y-190.3
X184.775Y-202.675
X185.4Y-248.475
X186.0Y-84.95
X186.25Y-77.05
X187.55Y-93.225
X188.0Y-80.825
X188.25Y-249.35
X189.1Y-251.475
X189.75Y-190.175
X191.95Y-248.85
X192.15Y-243.675
X192.65Y-209.55
X193.25Y-77.05
X193.525Y-84.95
X193.625Y-190.85
X193.65Y-232.175
X193.7Y-222.8
X193.775Y-216.775
X194.025Y-239.325
X194.65Y-80.875
X194.65Y-202.05
X195.5Y-214.55
X195.5Y-248.6
X195.775Y-191.25
X195.825Y-250.825
X196.075Y-211.05
X196.325Y-194.8
X197.025Y-78.537
X197.475Y-86.537
X197.55Y-191.025
X197.7Y-246.375
X197.975Y-209.225
X197.975Y-240.075
X198.775Y-188.525
X198.85Y-197.375
X199.175Y-80.475
X199.3Y-88.6
X199.35Y-205.425
X199.5Y-211.525
X199.55Y-248.475
X199.875Y-221.325
X200.525Y-88.425
X200.525Y-235.675
X200.55Y-80.287
X200.825Y-243.725
X200.85Y-211.6
X200.85Y-248.45
X201.65Y-203.12
X202.175Y-82.375
X202.475Y-211.075
X202.5Y-89.775
X202.52Y-200.24
X202.525Y-213.463
X202.85Y-192.375
X202.95Y-84.6
X203.25Y-250.463
X203.775Y-79.612
X203.875Y-77.025
X204.325Y-241.0
X204.625Y-205.0
X204.625Y-208.475
X204.625Y-212.275
X205.075Y-187.5
X205.65Y-200.1
X205.675Y-251.3
X205.875Y-83.225
X206.4Y-208.9
X206.525Y-189.6
X206.575Y-192.625
X206.675Y-202.375
X207.1Y-243.825
X207.675Y-207.95
X208.5Y-203.875
X209.0Y-199.9
X209.2Y-77.15
X209.3Y-205.725
X209.725Y-80.725
X210.15Y-93.225
X210.25Y-201.275
X210.775Y-193.825
X210.85Y-251.45
X210.975Y-84.3
X211.45Y-202.525
X211.7Y-195.225
X211.975Y-245.95
X213.925Y-208.35
X214.0Y-206.55
X214.075Y-198.8
X214.7Y-190.675
X214.75Y-193.5
X214.75Y-210.075
X215.375Y-195.3
X215.4Y-76.95
X215.625Y-80.675
X216.1Y-191.575
X216.4Y-90.95
X216.92Y-202.76
X216.925Y-187.625
X216.962Y-191.562
X217.075Y-243.05
X217.325Y-245.475
X217.7Y-83.15
X217.975Y-250.475
X218.125Y-197.4
X218.25Y-198.825
X218.575Y-194.35
X218.975Y-192.85
X219.125Y-191.4
X219.4Y-211.525
X219.675Y-95.4
X219.95Y-188.05
X220.4Y-189.675
X221.01Y-202.32
X221.6Y-203.92
X222.375Y-88.975
X222.525Y-241.275
X222.725Y-191.75
X222.8Y-76.925
X222.975Y-84.5
X224.225Y-187.975
X224.4Y-196.225
X225.15Y-191.55
X225.525Y-97.6
X225.75Y-240.8
X227.025Y-77.05
X227.75Y-80.65
X228.175Y-240.05
X228.25Y-203.55
X228.275Y-84.675
X228.375Y-93.325
X228.5Y-208.325
X228.8Y-247.4
X229.3Y-194.725
X229.4Y-91.975
X229.825Y-189.15
X230.275Y-203.575
X230.4Y-96.55
X231.15Y-238.875
X231.325Y-96.85
X231.475Y-202.625
X231.625Y-247.05
X231.75Y-80.15
X231.9Y-99.425
X233.1Y-193.05
X233.35Y-77.575
X233.625Y-246.275
X233.675Y-196.175
X233.7Y-81.725
X234.448Y-204.961
X236.675Y-100.5
X239.225Y-201.825
X239.825Y-109.275
X240.0Y-190.325
X240.4Y-99.45
X242.275Y-105.375
X242.95Y-198.525
X243.625Y-106.8
X244.55Y-186.6
X245.75Y-104.525
X247.975Y-193.55
X249.15Y-113.75
X251.2Y-182.65
X252.0Y-115.675
X252.35Y-111.375
X252.425Y-127.775
X252.725Y-118.75
X253.05Y-181.35
X253.675Y-122.2
X253.762Y-179.987
X253.775Y-114.425
X253.825Y-119.8
X255.7Y-132.425
X255.85Y-165.275
X256.425Y-138.175
X257.122Y-179.597
X257.725Y-126.575
X257.85Y-120.825
X259.15Y-123.275
X260.2Y-135.175
X260.3Y-152.35
X260.725Y-163.6
X260.95Y-143.55
X261.05Y-167.7
X261.375Y-128.65
X261.425Y-150.6
X261.425Y-170.75
X261.5Y-149.1
X263.463Y-146.825
X267.563Y-153.075
X267.575Y-144.925
X267.95Y-156.05
X271.85Y-150.4
X272.975Y-156.0
X274.125Y-144.5
X275.0Y-150.75
X277.225Y-155.45
X282.675Y-156.05
X283.475Y-149.175
X283.725Y-144.45
X288.575Y-150.4
X288.975Y-180.775
X289.325Y-155.825
X290.3Y-144.575
X290.425Y-177.625
X291.15Y-182.075
X292.05Y-170.975
X293.675Y-162.425
X294.0Y-156.7
X294.1Y-149.1
X294.2Y-183.15
X296.15Y-151.95
X296.2Y-183.95
X296.375Y-155.7
X296.75Y-168.25
X297.85Y-178.45
X298.275Y-144.075
X298.375Y-133.3
X298.525Y-149.275
X298.716Y-150.632
X298.725Y-137.25
X298.95Y-166.8
X298.963Y-153.075
X298.975Y-155.525
X300.463Y-147.45
X300.925Y-164.425
X301.525Y-141.15
X301.625Y-153.7
X301.675Y-158.55
X301.775Y-146.775
T2
X201.0Y-188.5
X201.0Y-191.0
X201.0Y-193.5
X201.0Y-196.0
T3
X177.0Y-187.75
X179.54Y-187.75
X182.08Y-187.75
X184.62Y-187.75
X187.16Y-187.75
X189.7Y-187.75
X192.24Y-187.75
M30
