%TF.GenerationSoftware,KiCad,Pcbnew,9.0.7*%
%TF.CreationDate,2026-02-18T21:19:54+09:00*%
%TF.ProjectId,Angel_Line_1.0,416e6765-6c5f-44c6-996e-655f312e302e,rev?*%
%TF.SameCoordinates,Original*%
%TF.FileFunction,Soldermask,Bot*%
%TF.FilePolarity,Negative*%
%FSLAX46Y46*%
G04 Gerber Fmt 4.6, Leading zero omitted, Abs format (unit mm)*
G04 Created by KiCad (PCBNEW 9.0.7) date 2026-02-18 21:19:54*
%MOMM*%
%LPD*%
G01*
G04 APERTURE LIST*
G04 Aperture macros list*
%AMRoundRect*
0 Rectangle with rounded corners*
0 $1 Rounding radius*
0 $2 $3 $4 $5 $6 $7 $8 $9 X,Y pos of 4 corners*
0 Add a 4 corners polygon primitive as box body*
4,1,4,$2,$3,$4,$5,$6,$7,$8,$9,$2,$3,0*
0 Add four circle primitives for the rounded corners*
1,1,$1+$1,$2,$3*
1,1,$1+$1,$4,$5*
1,1,$1+$1,$6,$7*
1,1,$1+$1,$8,$9*
0 Add four rect primitives between the rounded corners*
20,1,$1+$1,$2,$3,$4,$5,0*
20,1,$1+$1,$4,$5,$6,$7,0*
20,1,$1+$1,$6,$7,$8,$9,0*
20,1,$1+$1,$8,$9,$2,$3,0*%
%AMRotRect*
0 Rectangle, with rotation*
0 The origin of the aperture is its center*
0 $1 length*
0 $2 width*
0 $3 Rotation angle, in degrees counterclockwise*
0 Add horizontal line*
21,1,$1,$2,0,0,$3*%
G04 Aperture macros list end*
%ADD10R,1.700000X1.700000*%
%ADD11O,1.700000X1.700000*%
%ADD12RoundRect,0.250000X-0.725000X0.600000X-0.725000X-0.600000X0.725000X-0.600000X0.725000X0.600000X0*%
%ADD13O,1.950000X1.700000*%
%ADD14RotRect,0.600000X1.150000X330.000000*%
%ADD15RotRect,0.650000X1.150000X330.000000*%
%ADD16RotRect,0.600000X1.150000X210.000000*%
%ADD17RotRect,0.650000X1.150000X210.000000*%
%ADD18RotRect,0.600000X1.150000X160.000000*%
%ADD19RotRect,0.650000X1.150000X160.000000*%
%ADD20R,1.150000X0.600000*%
%ADD21R,1.150000X0.650000*%
%ADD22RoundRect,0.237500X-0.303818X0.216234X-0.154997X-0.339173X0.303818X-0.216234X0.154997X0.339173X0*%
%ADD23RoundRect,0.237500X-0.287500X-0.237500X0.287500X-0.237500X0.287500X0.237500X-0.287500X0.237500X0*%
%ADD24RoundRect,0.237500X0.237500X-0.287500X0.237500X0.287500X-0.237500X0.287500X-0.237500X-0.287500X0*%
%ADD25RotRect,0.600000X1.150000X165.000000*%
%ADD26RotRect,0.650000X1.150000X165.000000*%
%ADD27RoundRect,0.237500X-0.283816X0.241891X-0.183968X-0.324374X0.283816X-0.241891X0.183968X0.324374X0*%
%ADD28RotRect,0.600000X1.150000X290.000000*%
%ADD29RotRect,0.650000X1.150000X290.000000*%
%ADD30RotRect,0.600000X1.150000X320.000000*%
%ADD31RotRect,0.650000X1.150000X320.000000*%
%ADD32RotRect,0.600000X1.150000X100.000000*%
%ADD33RotRect,0.650000X1.150000X100.000000*%
%ADD34RoundRect,0.237500X0.366737X-0.067576X-0.002866X0.372900X-0.366737X0.067576X0.002866X-0.372900X0*%
%ADD35RotRect,0.600000X1.150000X340.000000*%
%ADD36RotRect,0.650000X1.150000X340.000000*%
%ADD37RotRect,0.600000X1.150000X110.000000*%
%ADD38RotRect,0.650000X1.150000X110.000000*%
%ADD39R,0.600000X1.150000*%
%ADD40R,0.650000X1.150000*%
%ADD41RotRect,0.600000X1.150000X240.000000*%
%ADD42RotRect,0.650000X1.150000X240.000000*%
%ADD43RoundRect,0.237500X0.183968X-0.324374X0.283816X0.241891X-0.183968X0.324374X-0.283816X-0.241891X0*%
%ADD44RotRect,0.600000X1.150000X130.000000*%
%ADD45RotRect,0.650000X1.150000X130.000000*%
%ADD46RoundRect,0.237500X-0.067576X-0.366737X0.372900X0.002866X0.067576X0.366737X-0.372900X-0.002866X0*%
%ADD47RotRect,0.600000X1.150000X345.000000*%
%ADD48RotRect,0.650000X1.150000X345.000000*%
%ADD49RotRect,0.600000X1.150000X200.000000*%
%ADD50RotRect,0.650000X1.150000X200.000000*%
%ADD51RotRect,0.600000X1.150000X195.000000*%
%ADD52RotRect,0.650000X1.150000X195.000000*%
%ADD53RotRect,0.600000X1.150000X255.000000*%
%ADD54RotRect,0.650000X1.150000X255.000000*%
%ADD55RoundRect,0.237500X-0.237500X0.287500X-0.237500X-0.287500X0.237500X-0.287500X0.237500X0.287500X0*%
%ADD56RoundRect,0.237500X-0.188932X-0.321508X0.351391X-0.124846X0.188932X0.321508X-0.351391X0.124846X0*%
%ADD57RoundRect,0.237500X0.130232X0.349431X-0.367732X0.061931X-0.130232X-0.349431X0.367732X-0.061931X0*%
%ADD58RoundRect,0.237500X-0.002866X-0.372900X0.366737X0.067576X0.002866X0.372900X-0.366737X-0.067576X0*%
%ADD59RoundRect,0.237500X0.188932X0.321508X-0.351391X0.124846X-0.188932X-0.321508X0.351391X-0.124846X0*%
%ADD60RoundRect,0.237500X0.372900X-0.002866X-0.067576X0.366737X-0.372900X0.002866X0.067576X-0.366737X0*%
%ADD61RoundRect,0.237500X0.287500X0.237500X-0.287500X0.237500X-0.287500X-0.237500X0.287500X-0.237500X0*%
%ADD62RoundRect,0.237500X0.324374X0.183968X-0.241891X0.283816X-0.324374X-0.183968X0.241891X-0.283816X0*%
%ADD63RotRect,0.600000X1.150000X50.000000*%
%ADD64RotRect,0.650000X1.150000X50.000000*%
%ADD65RotRect,0.600000X1.150000X285.000000*%
%ADD66RotRect,0.650000X1.150000X285.000000*%
%ADD67RotRect,0.600000X1.150000X30.000000*%
%ADD68RotRect,0.650000X1.150000X30.000000*%
%ADD69RoundRect,0.237500X-0.366737X0.067576X0.002866X-0.372900X0.366737X-0.067576X-0.002866X0.372900X0*%
%ADD70RotRect,0.600000X1.150000X15.000000*%
%ADD71RotRect,0.650000X1.150000X15.000000*%
%ADD72RoundRect,0.237500X0.303818X-0.216234X0.154997X0.339173X-0.303818X0.216234X-0.154997X-0.339173X0*%
%ADD73RoundRect,0.237500X-0.061931X0.367732X-0.349431X-0.130232X0.061931X-0.367732X0.349431X0.130232X0*%
%ADD74RotRect,0.600000X1.150000X250.000000*%
%ADD75RotRect,0.650000X1.150000X250.000000*%
%ADD76RotRect,0.600000X1.150000X40.000000*%
%ADD77RotRect,0.650000X1.150000X40.000000*%
%ADD78RoundRect,0.237500X-0.367732X-0.061931X0.130232X-0.349431X0.367732X0.061931X-0.130232X0.349431X0*%
%ADD79RoundRect,0.237500X0.283816X-0.241891X0.183968X0.324374X-0.283816X0.241891X-0.183968X-0.324374X0*%
%ADD80RoundRect,0.237500X-0.130232X-0.349431X0.367732X-0.061931X0.130232X0.349431X-0.367732X0.061931X0*%
%ADD81RoundRect,0.237500X0.124846X-0.351391X0.321508X0.188932X-0.124846X0.351391X-0.321508X-0.188932X0*%
%ADD82RoundRect,0.237500X-0.216234X-0.303818X0.339173X-0.154997X0.216234X0.303818X-0.339173X0.154997X0*%
%ADD83RoundRect,0.237500X-0.321508X0.188932X-0.124846X-0.351391X0.321508X-0.188932X0.124846X0.351391X0*%
%ADD84RotRect,0.600000X1.150000X10.000000*%
%ADD85RotRect,0.650000X1.150000X10.000000*%
%ADD86RoundRect,0.237500X0.349431X-0.130232X0.061931X0.367732X-0.349431X0.130232X-0.061931X-0.367732X0*%
%ADD87RotRect,0.600000X1.150000X70.000000*%
%ADD88RotRect,0.650000X1.150000X70.000000*%
%ADD89RotRect,0.600000X1.150000X170.000000*%
%ADD90RotRect,0.650000X1.150000X170.000000*%
%ADD91RotRect,0.600000X1.150000X80.000000*%
%ADD92RotRect,0.650000X1.150000X80.000000*%
%ADD93RotRect,0.600000X1.150000X220.000000*%
%ADD94RotRect,0.650000X1.150000X220.000000*%
%ADD95RoundRect,0.237500X-0.372900X0.002866X0.067576X-0.366737X0.372900X-0.002866X-0.067576X0.366737X0*%
%ADD96RoundRect,0.237500X0.002866X0.372900X-0.366737X-0.067576X-0.002866X-0.372900X0.366737X0.067576X0*%
%ADD97RoundRect,0.237500X0.154997X-0.339173X0.303818X0.216234X-0.154997X0.339173X-0.303818X-0.216234X0*%
%ADD98RoundRect,0.237500X0.067576X0.366737X-0.372900X-0.002866X-0.067576X-0.366737X0.372900X0.002866X0*%
%ADD99RoundRect,0.237500X-0.349431X0.130232X-0.061931X-0.367732X0.349431X-0.130232X0.061931X0.367732X0*%
%ADD100RoundRect,0.237500X0.367732X0.061931X-0.130232X0.349431X-0.367732X-0.061931X0.130232X-0.349431X0*%
%ADD101RoundRect,0.237500X-0.324374X-0.183968X0.241891X-0.283816X0.324374X0.183968X-0.241891X0.283816X0*%
%ADD102RoundRect,0.237500X0.061931X-0.367732X0.349431X0.130232X-0.061931X0.367732X-0.349431X-0.130232X0*%
%ADD103RoundRect,0.237500X-0.183968X0.324374X-0.283816X-0.241891X0.183968X-0.324374X0.283816X0.241891X0*%
%ADD104RotRect,0.600000X1.150000X260.000000*%
%ADD105RotRect,0.650000X1.150000X260.000000*%
%ADD106RoundRect,0.237500X-0.339173X-0.154997X0.216234X-0.303818X0.339173X0.154997X-0.216234X0.303818X0*%
%ADD107RotRect,0.600000X1.150000X60.000000*%
%ADD108RotRect,0.650000X1.150000X60.000000*%
%ADD109RotRect,0.600000X1.150000X300.000000*%
%ADD110RotRect,0.650000X1.150000X300.000000*%
%ADD111RoundRect,0.237500X0.351391X0.124846X-0.188932X0.321508X-0.351391X-0.124846X0.188932X-0.321508X0*%
%ADD112RotRect,0.600000X1.150000X230.000000*%
%ADD113RotRect,0.650000X1.150000X230.000000*%
%ADD114RoundRect,0.237500X-0.351391X-0.124846X0.188932X-0.321508X0.351391X0.124846X-0.188932X0.321508X0*%
%ADD115RotRect,0.600000X1.150000X350.000000*%
%ADD116RotRect,0.650000X1.150000X350.000000*%
%ADD117RoundRect,0.237500X0.241891X0.283816X-0.324374X0.183968X-0.241891X-0.283816X0.324374X-0.183968X0*%
%ADD118RotRect,0.600000X1.150000X20.000000*%
%ADD119RotRect,0.650000X1.150000X20.000000*%
%ADD120RotRect,0.600000X1.150000X310.000000*%
%ADD121RotRect,0.650000X1.150000X310.000000*%
%ADD122RoundRect,0.237500X-0.124846X0.351391X-0.321508X-0.188932X0.124846X-0.351391X0.321508X0.188932X0*%
%ADD123RoundRect,0.237500X0.321508X-0.188932X0.124846X0.351391X-0.321508X0.188932X-0.124846X-0.351391X0*%
%ADD124RotRect,0.600000X1.150000X120.000000*%
%ADD125RotRect,0.650000X1.150000X120.000000*%
%ADD126RotRect,0.600000X1.150000X140.000000*%
%ADD127RotRect,0.650000X1.150000X140.000000*%
%ADD128RotRect,0.600000X1.150000X280.000000*%
%ADD129RotRect,0.650000X1.150000X280.000000*%
%ADD130RotRect,0.600000X1.150000X150.000000*%
%ADD131RotRect,0.650000X1.150000X150.000000*%
%ADD132RotRect,0.600000X1.150000X190.000000*%
%ADD133RotRect,0.650000X1.150000X190.000000*%
%ADD134RoundRect,0.237500X-0.154997X0.339173X-0.303818X-0.216234X0.154997X-0.339173X0.303818X0.216234X0*%
G04 APERTURE END LIST*
D10*
%TO.C,J1*%
X177000000Y-187750000D03*
D11*
X179540000Y-187750000D03*
X182080000Y-187750000D03*
X184620000Y-187750000D03*
X187160000Y-187750000D03*
X189700000Y-187750000D03*
X192240000Y-187750000D03*
%TD*%
D12*
%TO.C,J2*%
X201000000Y-188500000D03*
D13*
X201000000Y-191000000D03*
X201000000Y-193500000D03*
X201000000Y-196000000D03*
%TD*%
D14*
%TO.C,IC32*%
X254960570Y-181731500D03*
D15*
X254159496Y-181269000D03*
%TD*%
D16*
%TO.C,IC8*%
X145039430Y-181731500D03*
D17*
X145840504Y-181269000D03*
%TD*%
D18*
%TO.C,IC13*%
X140364287Y-128294376D03*
D19*
X141233503Y-128610744D03*
%TD*%
D20*
%TO.C,IC45*%
X230000000Y-78537000D03*
D21*
X230000000Y-79462000D03*
%TD*%
D22*
%TO.C,D40*%
X105837246Y-174324967D03*
X106290180Y-176015337D03*
%TD*%
D23*
%TO.C,D2*%
X199125000Y-210250000D03*
X200875000Y-210250000D03*
%TD*%
D24*
%TO.C,D29*%
X260250000Y-150875000D03*
X260250000Y-149125000D03*
%TD*%
D25*
%TO.C,IC42*%
X102960193Y-123998262D03*
D26*
X103853675Y-124237669D03*
%TD*%
D27*
%TO.C,D10*%
X140513391Y-159600596D03*
X140817275Y-161324010D03*
%TD*%
D28*
%TO.C,IC36*%
X221705624Y-209635713D03*
D29*
X221389256Y-208766497D03*
%TD*%
D30*
%TO.C,IC33*%
X248615479Y-190793230D03*
D31*
X247906887Y-190198651D03*
%TD*%
D32*
%TO.C,IC19*%
X188979766Y-87501146D03*
D33*
X189140390Y-88412093D03*
%TD*%
D34*
%TO.C,D25*%
X246716617Y-111942336D03*
X245591739Y-110601758D03*
%TD*%
D35*
%TO.C,IC31*%
X259635713Y-171705624D03*
D36*
X258766497Y-171389256D03*
%TD*%
D37*
%TO.C,IC18*%
X178294376Y-90364287D03*
D38*
X178610744Y-91233503D03*
%TD*%
D39*
%TO.C,IC47*%
X300463000Y-150000000D03*
D40*
X299538000Y-150000000D03*
%TD*%
D41*
%TO.C,IC5*%
X168268500Y-204960570D03*
D42*
X168731000Y-204159496D03*
%TD*%
D43*
%TO.C,D30*%
X259182725Y-161324010D03*
X259486609Y-159600596D03*
%TD*%
D44*
%TO.C,IC16*%
X159206770Y-101384521D03*
D45*
X159801349Y-102093113D03*
%TD*%
D46*
%TO.C,D34*%
X238057664Y-196716617D03*
X239398242Y-195591739D03*
%TD*%
D20*
%TO.C,IC38*%
X200000000Y-250463000D03*
D21*
X200000000Y-249538000D03*
%TD*%
D47*
%TO.C,IC48*%
X297039807Y-176001738D03*
D48*
X296146325Y-175762331D03*
%TD*%
D49*
%TO.C,IC9*%
X140364287Y-171705624D03*
D50*
X141233503Y-171389256D03*
%TD*%
D51*
%TO.C,IC40*%
X102960193Y-176001738D03*
D52*
X103853675Y-175762331D03*
%TD*%
D53*
%TO.C,IC39*%
X173998262Y-247039807D03*
D54*
X174237669Y-246146325D03*
%TD*%
D55*
%TO.C,D41*%
X102750000Y-149125000D03*
X102750000Y-150875000D03*
%TD*%
D56*
%TO.C,D36*%
X219784483Y-206915748D03*
X221428945Y-206317212D03*
%TD*%
D57*
%TO.C,D17*%
X170632772Y-97384469D03*
X169117228Y-98259469D03*
%TD*%
D58*
%TO.C,D33*%
X245591739Y-189398242D03*
X246716617Y-188057664D03*
%TD*%
D59*
%TO.C,D18*%
X180215517Y-93084252D03*
X178571055Y-93682788D03*
%TD*%
D60*
%TO.C,D24*%
X239398242Y-104408261D03*
X238057664Y-103283383D03*
%TD*%
D61*
%TO.C,D44*%
X200875000Y-81750000D03*
X199125000Y-81750000D03*
%TD*%
D62*
%TO.C,D21*%
X211324010Y-90817275D03*
X209600596Y-90513391D03*
%TD*%
D63*
%TO.C,IC24*%
X240793230Y-101384521D03*
D64*
X240198651Y-102093113D03*
%TD*%
D65*
%TO.C,IC37*%
X226001738Y-247039807D03*
D66*
X225762331Y-246146325D03*
%TD*%
D67*
%TO.C,IC26*%
X254960570Y-118268500D03*
D68*
X254159496Y-118731000D03*
%TD*%
D69*
%TO.C,D7*%
X153283383Y-188057664D03*
X154408261Y-189398242D03*
%TD*%
D70*
%TO.C,IC46*%
X297039807Y-123998262D03*
D71*
X296146325Y-124237669D03*
%TD*%
D72*
%TO.C,D46*%
X294162754Y-125675033D03*
X293709820Y-123984663D03*
%TD*%
D73*
%TO.C,D14*%
X148259469Y-119117228D03*
X147384469Y-120632772D03*
%TD*%
D74*
%TO.C,IC4*%
X178294376Y-209635713D03*
D75*
X178610744Y-208766497D03*
%TD*%
D39*
%TO.C,IC11*%
X136537000Y-150000000D03*
D40*
X137462000Y-150000000D03*
%TD*%
D76*
%TO.C,IC25*%
X248615479Y-109206770D03*
D77*
X247906887Y-109801349D03*
%TD*%
D61*
%TO.C,D45*%
X230875000Y-81750000D03*
X229125000Y-81750000D03*
%TD*%
D78*
%TO.C,D5*%
X169117228Y-201740531D03*
X170632772Y-202615531D03*
%TD*%
D79*
%TO.C,D28*%
X259486609Y-140399404D03*
X259182725Y-138675990D03*
%TD*%
D80*
%TO.C,D35*%
X229367228Y-202615531D03*
X230882772Y-201740531D03*
%TD*%
D81*
%TO.C,D31*%
X256317212Y-171428945D03*
X256915748Y-169784483D03*
%TD*%
D82*
%TO.C,D37*%
X224324967Y-244162754D03*
X226015337Y-243709820D03*
%TD*%
D83*
%TO.C,D9*%
X143084252Y-169784483D03*
X143682788Y-171428945D03*
%TD*%
D84*
%TO.C,IC28*%
X262498854Y-138979766D03*
D85*
X261587907Y-139140390D03*
%TD*%
D86*
%TO.C,D26*%
X252615531Y-120632772D03*
X251740531Y-119117228D03*
%TD*%
D61*
%TO.C,D43*%
X170875000Y-81750000D03*
X169125000Y-81750000D03*
%TD*%
D87*
%TO.C,IC22*%
X221705624Y-90364287D03*
D88*
X221389256Y-91233503D03*
%TD*%
D89*
%TO.C,IC12*%
X137501146Y-138979766D03*
D90*
X138412093Y-139140390D03*
%TD*%
D91*
%TO.C,IC21*%
X211020234Y-87501146D03*
D92*
X210859610Y-88412093D03*
%TD*%
D20*
%TO.C,IC43*%
X170000000Y-78537000D03*
D21*
X170000000Y-79462000D03*
%TD*%
D93*
%TO.C,IC7*%
X151384521Y-190793230D03*
D94*
X152093113Y-190198651D03*
%TD*%
D24*
%TO.C,D47*%
X297250000Y-150875000D03*
X297250000Y-149125000D03*
%TD*%
D95*
%TO.C,D6*%
X160601758Y-195591739D03*
X161942336Y-196716617D03*
%TD*%
D96*
%TO.C,D15*%
X154408261Y-110601758D03*
X153283383Y-111942336D03*
%TD*%
D97*
%TO.C,D48*%
X293709820Y-176015337D03*
X294162754Y-174324967D03*
%TD*%
D55*
%TO.C,D11*%
X139750000Y-149125000D03*
X139750000Y-150875000D03*
%TD*%
D98*
%TO.C,D16*%
X161942336Y-103283383D03*
X160601758Y-104408261D03*
%TD*%
D99*
%TO.C,D8*%
X147384469Y-179367228D03*
X148259469Y-180882772D03*
%TD*%
D100*
%TO.C,D23*%
X230882772Y-98259469D03*
X229367228Y-97384469D03*
%TD*%
D101*
%TO.C,D3*%
X188675990Y-209182725D03*
X190399404Y-209486609D03*
%TD*%
D20*
%TO.C,IC20*%
X200000000Y-86537000D03*
D21*
X200000000Y-87462000D03*
%TD*%
D102*
%TO.C,D32*%
X251740531Y-180882772D03*
X252615531Y-179367228D03*
%TD*%
D103*
%TO.C,D12*%
X140817275Y-138675990D03*
X140513391Y-140399404D03*
%TD*%
D39*
%TO.C,IC29*%
X263463000Y-150000000D03*
D40*
X262538000Y-150000000D03*
%TD*%
D104*
%TO.C,IC3*%
X188979766Y-212498854D03*
D105*
X189140390Y-211587907D03*
%TD*%
D106*
%TO.C,D39*%
X173984663Y-243709820D03*
X175675033Y-244162754D03*
%TD*%
D107*
%TO.C,IC23*%
X231731500Y-95039430D03*
D108*
X231269000Y-95840504D03*
%TD*%
D109*
%TO.C,IC35*%
X231731500Y-204960570D03*
D110*
X231269000Y-204159496D03*
%TD*%
D111*
%TO.C,D22*%
X221428945Y-93682788D03*
X219784483Y-93084252D03*
%TD*%
D112*
%TO.C,IC6*%
X159206770Y-198615479D03*
D113*
X159801349Y-197906887D03*
%TD*%
D114*
%TO.C,D4*%
X178571055Y-206317212D03*
X180215517Y-206915748D03*
%TD*%
D115*
%TO.C,IC30*%
X262498854Y-161020234D03*
D116*
X261587907Y-160859610D03*
%TD*%
D61*
%TO.C,D20*%
X200875000Y-89750000D03*
X199125000Y-89750000D03*
%TD*%
D117*
%TO.C,D1*%
X211324010Y-209182725D03*
X209600596Y-209486609D03*
%TD*%
D118*
%TO.C,IC27*%
X259635713Y-128294376D03*
D119*
X258766497Y-128610744D03*
%TD*%
D120*
%TO.C,IC34*%
X240793230Y-198615479D03*
D121*
X240198651Y-197906887D03*
%TD*%
D20*
%TO.C,IC44*%
X200000000Y-78537000D03*
D21*
X200000000Y-79462000D03*
%TD*%
D122*
%TO.C,D13*%
X143682788Y-128571055D03*
X143084252Y-130215517D03*
%TD*%
D123*
%TO.C,D27*%
X256915748Y-130215517D03*
X256317212Y-128571055D03*
%TD*%
D124*
%TO.C,IC17*%
X168268500Y-95039430D03*
D125*
X168731000Y-95840504D03*
%TD*%
D23*
%TO.C,D38*%
X199125000Y-247250000D03*
X200875000Y-247250000D03*
%TD*%
D126*
%TO.C,IC15*%
X151384521Y-109206770D03*
D127*
X152093113Y-109801349D03*
%TD*%
D128*
%TO.C,IC1*%
X211020234Y-212498854D03*
D129*
X210859610Y-211587907D03*
%TD*%
D130*
%TO.C,IC14*%
X145039430Y-118268500D03*
D131*
X145840504Y-118731000D03*
%TD*%
D39*
%TO.C,IC41*%
X99537000Y-150000000D03*
D40*
X100462000Y-150000000D03*
%TD*%
D117*
%TO.C,D19*%
X190399404Y-90513391D03*
X188675990Y-90817275D03*
%TD*%
D132*
%TO.C,IC10*%
X137501146Y-161020234D03*
D133*
X138412093Y-160859610D03*
%TD*%
D20*
%TO.C,IC2*%
X200000000Y-213463000D03*
D21*
X200000000Y-212538000D03*
%TD*%
D134*
%TO.C,D42*%
X106290180Y-123984663D03*
X105837246Y-125675033D03*
%TD*%
M02*
