%TF.GenerationSoftware,KiCad,Pcbnew,9.0.7*%
%TF.CreationDate,2026-03-08T19:07:36+09:00*%
%TF.ProjectId,sentral board_1.0,73656e74-7261-46c2-9062-6f6172645f31,rev?*%
%TF.SameCoordinates,Original*%
%TF.FileFunction,Legend,Top*%
%TF.FilePolarity,Positive*%
%FSLAX46Y46*%
G04 Gerber Fmt 4.6, Leading zero omitted, Abs format (unit mm)*
G04 Created by KiCad (PCBNEW 9.0.7) date 2026-03-08 19:07:36*
%MOMM*%
%LPD*%
G01*
G04 APERTURE LIST*
%ADD10C,0.150000*%
%ADD11C,0.120000*%
G04 APERTURE END LIST*
D10*
X199666666Y-85704819D02*
X199666666Y-86419104D01*
X199666666Y-86419104D02*
X199619047Y-86561961D01*
X199619047Y-86561961D02*
X199523809Y-86657200D01*
X199523809Y-86657200D02*
X199380952Y-86704819D01*
X199380952Y-86704819D02*
X199285714Y-86704819D01*
X200571428Y-86038152D02*
X200571428Y-86704819D01*
X200333333Y-85657200D02*
X200095238Y-86371485D01*
X200095238Y-86371485D02*
X200714285Y-86371485D01*
X199526666Y-116514819D02*
X199526666Y-117229104D01*
X199526666Y-117229104D02*
X199479047Y-117371961D01*
X199479047Y-117371961D02*
X199383809Y-117467200D01*
X199383809Y-117467200D02*
X199240952Y-117514819D01*
X199240952Y-117514819D02*
X199145714Y-117514819D01*
X200050476Y-117514819D02*
X200240952Y-117514819D01*
X200240952Y-117514819D02*
X200336190Y-117467200D01*
X200336190Y-117467200D02*
X200383809Y-117419580D01*
X200383809Y-117419580D02*
X200479047Y-117276723D01*
X200479047Y-117276723D02*
X200526666Y-117086247D01*
X200526666Y-117086247D02*
X200526666Y-116705295D01*
X200526666Y-116705295D02*
X200479047Y-116610057D01*
X200479047Y-116610057D02*
X200431428Y-116562438D01*
X200431428Y-116562438D02*
X200336190Y-116514819D01*
X200336190Y-116514819D02*
X200145714Y-116514819D01*
X200145714Y-116514819D02*
X200050476Y-116562438D01*
X200050476Y-116562438D02*
X200002857Y-116610057D01*
X200002857Y-116610057D02*
X199955238Y-116705295D01*
X199955238Y-116705295D02*
X199955238Y-116943390D01*
X199955238Y-116943390D02*
X200002857Y-117038628D01*
X200002857Y-117038628D02*
X200050476Y-117086247D01*
X200050476Y-117086247D02*
X200145714Y-117133866D01*
X200145714Y-117133866D02*
X200336190Y-117133866D01*
X200336190Y-117133866D02*
X200431428Y-117086247D01*
X200431428Y-117086247D02*
X200479047Y-117038628D01*
X200479047Y-117038628D02*
X200526666Y-116943390D01*
X213416666Y-83014819D02*
X213416666Y-83729104D01*
X213416666Y-83729104D02*
X213369047Y-83871961D01*
X213369047Y-83871961D02*
X213273809Y-83967200D01*
X213273809Y-83967200D02*
X213130952Y-84014819D01*
X213130952Y-84014819D02*
X213035714Y-84014819D01*
X214416666Y-84014819D02*
X213845238Y-84014819D01*
X214130952Y-84014819D02*
X214130952Y-83014819D01*
X214130952Y-83014819D02*
X214035714Y-83157676D01*
X214035714Y-83157676D02*
X213940476Y-83252914D01*
X213940476Y-83252914D02*
X213845238Y-83300533D01*
X218416666Y-93204819D02*
X218416666Y-93919104D01*
X218416666Y-93919104D02*
X218369047Y-94061961D01*
X218369047Y-94061961D02*
X218273809Y-94157200D01*
X218273809Y-94157200D02*
X218130952Y-94204819D01*
X218130952Y-94204819D02*
X218035714Y-94204819D01*
X218797619Y-93204819D02*
X219416666Y-93204819D01*
X219416666Y-93204819D02*
X219083333Y-93585771D01*
X219083333Y-93585771D02*
X219226190Y-93585771D01*
X219226190Y-93585771D02*
X219321428Y-93633390D01*
X219321428Y-93633390D02*
X219369047Y-93681009D01*
X219369047Y-93681009D02*
X219416666Y-93776247D01*
X219416666Y-93776247D02*
X219416666Y-94014342D01*
X219416666Y-94014342D02*
X219369047Y-94109580D01*
X219369047Y-94109580D02*
X219321428Y-94157200D01*
X219321428Y-94157200D02*
X219226190Y-94204819D01*
X219226190Y-94204819D02*
X218940476Y-94204819D01*
X218940476Y-94204819D02*
X218845238Y-94157200D01*
X218845238Y-94157200D02*
X218797619Y-94109580D01*
X190646666Y-110634819D02*
X190646666Y-111349104D01*
X190646666Y-111349104D02*
X190599047Y-111491961D01*
X190599047Y-111491961D02*
X190503809Y-111587200D01*
X190503809Y-111587200D02*
X190360952Y-111634819D01*
X190360952Y-111634819D02*
X190265714Y-111634819D01*
X191075238Y-110730057D02*
X191122857Y-110682438D01*
X191122857Y-110682438D02*
X191218095Y-110634819D01*
X191218095Y-110634819D02*
X191456190Y-110634819D01*
X191456190Y-110634819D02*
X191551428Y-110682438D01*
X191551428Y-110682438D02*
X191599047Y-110730057D01*
X191599047Y-110730057D02*
X191646666Y-110825295D01*
X191646666Y-110825295D02*
X191646666Y-110920533D01*
X191646666Y-110920533D02*
X191599047Y-111063390D01*
X191599047Y-111063390D02*
X191027619Y-111634819D01*
X191027619Y-111634819D02*
X191646666Y-111634819D01*
D11*
%TO.C,J4*%
X196490000Y-87190000D02*
X196490000Y-102310000D01*
X196490000Y-102310000D02*
X202460000Y-102310000D01*
X197250000Y-87950000D02*
X197250000Y-94750000D01*
X197250000Y-101550000D02*
X197250000Y-94750000D01*
X200200000Y-87200000D02*
X200200000Y-87950000D01*
X200200000Y-87950000D02*
X197250000Y-87950000D01*
X200200000Y-101550000D02*
X197250000Y-101550000D01*
X200200000Y-102300000D02*
X200200000Y-101550000D01*
X201700000Y-87200000D02*
X201700000Y-89000000D01*
X201700000Y-89000000D02*
X202450000Y-89000000D01*
X201700000Y-90500000D02*
X201700000Y-99000000D01*
X201700000Y-99000000D02*
X202450000Y-99000000D01*
X201700000Y-100500000D02*
X201700000Y-102300000D01*
X201700000Y-102300000D02*
X202450000Y-102300000D01*
X202450000Y-87200000D02*
X201700000Y-87200000D01*
X202450000Y-89000000D02*
X202450000Y-87200000D01*
X202450000Y-90500000D02*
X201700000Y-90500000D01*
X202450000Y-99000000D02*
X202450000Y-90500000D01*
X202450000Y-100500000D02*
X201700000Y-100500000D01*
X202450000Y-102300000D02*
X202450000Y-100500000D01*
X202460000Y-87190000D02*
X196490000Y-87190000D01*
X202460000Y-102310000D02*
X202460000Y-87190000D01*
X202750000Y-86900000D02*
X201500000Y-86900000D01*
X202750000Y-88150000D02*
X202750000Y-86900000D01*
%TO.C,J9*%
X196350000Y-103500000D02*
X196350000Y-116120000D01*
X196350000Y-116120000D02*
X202320000Y-116120000D01*
X197110000Y-104260000D02*
X197110000Y-109810000D01*
X197110000Y-115360000D02*
X197110000Y-109810000D01*
X200060000Y-103510000D02*
X200060000Y-104260000D01*
X200060000Y-104260000D02*
X197110000Y-104260000D01*
X200060000Y-115360000D02*
X197110000Y-115360000D01*
X200060000Y-116110000D02*
X200060000Y-115360000D01*
X201560000Y-103510000D02*
X201560000Y-105310000D01*
X201560000Y-105310000D02*
X202310000Y-105310000D01*
X201560000Y-106810000D02*
X201560000Y-112810000D01*
X201560000Y-112810000D02*
X202310000Y-112810000D01*
X201560000Y-114310000D02*
X201560000Y-116110000D01*
X201560000Y-116110000D02*
X202310000Y-116110000D01*
X202310000Y-103510000D02*
X201560000Y-103510000D01*
X202310000Y-105310000D02*
X202310000Y-103510000D01*
X202310000Y-106810000D02*
X201560000Y-106810000D01*
X202310000Y-112810000D02*
X202310000Y-106810000D01*
X202310000Y-114310000D02*
X201560000Y-114310000D01*
X202310000Y-116110000D02*
X202310000Y-114310000D01*
X202320000Y-103500000D02*
X196350000Y-103500000D01*
X202320000Y-116120000D02*
X202320000Y-103500000D01*
X202610000Y-103210000D02*
X201360000Y-103210000D01*
X202610000Y-104460000D02*
X202610000Y-103210000D01*
%TO.C,J1*%
X203460000Y-83350000D02*
X212580000Y-83350000D01*
X203460000Y-97940000D02*
X204770000Y-97940000D01*
X203460000Y-116630000D02*
X203460000Y-83350000D01*
X204770000Y-84650000D02*
X211270000Y-84650000D01*
X204770000Y-97940000D02*
X204770000Y-84650000D01*
X204770000Y-102040000D02*
X203460000Y-102040000D01*
X204770000Y-102040000D02*
X204770000Y-102040000D01*
X204770000Y-115330000D02*
X204770000Y-102040000D01*
X211270000Y-84650000D02*
X211270000Y-115330000D01*
X211270000Y-115330000D02*
X204770000Y-115330000D01*
X212580000Y-83350000D02*
X212580000Y-116630000D01*
X212580000Y-116630000D02*
X203460000Y-116630000D01*
%TO.C,J3*%
X213490000Y-94940000D02*
X213490000Y-107560000D01*
X213490000Y-107560000D02*
X219460000Y-107560000D01*
X214250000Y-95700000D02*
X214250000Y-101250000D01*
X214250000Y-106800000D02*
X214250000Y-101250000D01*
X217200000Y-94950000D02*
X217200000Y-95700000D01*
X217200000Y-95700000D02*
X214250000Y-95700000D01*
X217200000Y-106800000D02*
X214250000Y-106800000D01*
X217200000Y-107550000D02*
X217200000Y-106800000D01*
X218700000Y-94950000D02*
X218700000Y-96750000D01*
X218700000Y-96750000D02*
X219450000Y-96750000D01*
X218700000Y-98250000D02*
X218700000Y-104250000D01*
X218700000Y-104250000D02*
X219450000Y-104250000D01*
X218700000Y-105750000D02*
X218700000Y-107550000D01*
X218700000Y-107550000D02*
X219450000Y-107550000D01*
X219450000Y-94950000D02*
X218700000Y-94950000D01*
X219450000Y-96750000D02*
X219450000Y-94950000D01*
X219450000Y-98250000D02*
X218700000Y-98250000D01*
X219450000Y-104250000D02*
X219450000Y-98250000D01*
X219450000Y-105750000D02*
X218700000Y-105750000D01*
X219450000Y-107550000D02*
X219450000Y-105750000D01*
X219460000Y-94940000D02*
X213490000Y-94940000D01*
X219460000Y-107560000D02*
X219460000Y-94940000D01*
X219750000Y-94650000D02*
X218500000Y-94650000D01*
X219750000Y-95900000D02*
X219750000Y-94650000D01*
%TO.C,J2*%
X186420000Y-89710000D02*
X195540000Y-89710000D01*
X186420000Y-110290000D02*
X186420000Y-89710000D01*
X187730000Y-91010000D02*
X194230000Y-91010000D01*
X187730000Y-108990000D02*
X187730000Y-91010000D01*
X194230000Y-91010000D02*
X194230000Y-97950000D01*
X194230000Y-97950000D02*
X194230000Y-97950000D01*
X194230000Y-97950000D02*
X195540000Y-97950000D01*
X194230000Y-102050000D02*
X194230000Y-108990000D01*
X194230000Y-108990000D02*
X187730000Y-108990000D01*
X195540000Y-89710000D02*
X195540000Y-110290000D01*
X195540000Y-102050000D02*
X194230000Y-102050000D01*
X195540000Y-110290000D02*
X186420000Y-110290000D01*
%TD*%
M02*
