M48
; DRILL file {KiCad 9.0.7} date 2026-03-08T19:07:38+0900
; FORMAT={-:-/ absolute / metric / decimal}
; #@! TF.CreationDate,2026-03-08T19:07:38+09:00
; #@! TF.GenerationSoftware,Kicad,Pcbnew,9.0.7
; #@! TF.FileFunction,Plated,1,2,PTH
FMAT,2
METRIC
; #@! TA.AperFunction,Plated,PTH,ViaDrill
T1C0.300
; #@! TA.AperFunction,Plated,PTH,ViaDrill
T2C0.500
; #@! TA.AperFunction,Plated,PTH,ComponentDrill
T3C0.950
; #@! TA.AperFunction,Plated,PTH,ComponentDrill
T4C1.000
%
G90
G05
T1
X181.46Y-108.38
X181.64Y-112.03
X181.8Y-99.23
X181.81Y-86.81
X183.32Y-89.2
X187.15Y-115.64
X187.2Y-112.225
X187.29Y-86.88
X187.77Y-98.18
X187.79Y-103.68
X188.87Y-116.94
X189.12Y-83.9
X189.76Y-91.19
X190.45Y-86.81
X192.59Y-107.75
X193.88Y-91.4
X194.24Y-84.15
X194.59Y-87.97
X194.74Y-95.92
X195.725Y-108.775
X196.12Y-103.73
X196.775Y-110.45
X197.14Y-91.47
X197.525Y-104.775
X197.925Y-95.325
X198.08Y-85.66
X199.61Y-103.9
X201.15Y-83.55
X201.6Y-93.5
X201.83Y-99.19
X202.76Y-86.4
X202.95Y-107.45
X203.175Y-110.0
X203.825Y-102.125
X204.0Y-92.025
X204.0Y-101.05
X204.825Y-94.6
X205.125Y-109.5
X205.225Y-107.325
X205.23Y-84.56
X206.775Y-114.725
X207.775Y-115.24
X210.8Y-92.05
X210.95Y-106.3
X211.85Y-83.86
X213.2Y-86.95
X214.7Y-88.25
X215.97Y-113.99
X216.925Y-95.425
X218.09Y-115.63
X218.82Y-86.37
X219.0Y-92.45
X219.22Y-88.53
X219.29Y-101.34
T2
X196.56Y-102.38
X202.44Y-114.09
X204.105Y-105.525
X208.61Y-115.99
X210.775Y-116.2
X217.6Y-106.9
T3
X199.86Y-106.06
X199.86Y-108.56
X199.86Y-111.06
X199.86Y-113.56
X200.0Y-89.75
X200.0Y-92.25
X200.0Y-94.75
X200.0Y-97.25
X200.0Y-99.75
X217.0Y-97.5
X217.0Y-100.0
X217.0Y-102.5
X217.0Y-105.0
T4
X183.0Y-92.0
X183.0Y-94.5
X183.0Y-100.5
X183.0Y-103.0
X189.71Y-94.92
X189.71Y-97.46
X189.71Y-100.0
X189.71Y-102.54
X189.71Y-105.08
X192.25Y-94.92
X192.25Y-97.46
X192.25Y-100.0
X192.25Y-102.54
X192.25Y-105.08
X206.75Y-88.56
X206.75Y-91.1
X206.75Y-93.64
X206.75Y-96.18
X206.75Y-98.72
X206.75Y-101.26
X206.75Y-103.8
X206.75Y-106.34
X206.75Y-108.88
X206.75Y-111.42
X209.29Y-88.56
X209.29Y-91.1
X209.29Y-93.64
X209.29Y-96.18
X209.29Y-98.72
X209.29Y-101.26
X209.29Y-103.8
X209.29Y-106.34
X209.29Y-108.88
X209.29Y-111.42
X216.0Y-90.8
X216.0Y-93.3
X216.0Y-109.0
X216.0Y-111.5
M30
