%TF.GenerationSoftware,KiCad,Pcbnew,9.0.7*%
%TF.CreationDate,2026-03-08T19:07:36+09:00*%
%TF.ProjectId,sentral board_1.0,73656e74-7261-46c2-9062-6f6172645f31,rev?*%
%TF.SameCoordinates,Original*%
%TF.FileFunction,Legend,Bot*%
%TF.FilePolarity,Positive*%
%FSLAX46Y46*%
G04 Gerber Fmt 4.6, Leading zero omitted, Abs format (unit mm)*
G04 Created by KiCad (PCBNEW 9.0.7) date 2026-03-08 19:07:36*
%MOMM*%
%LPD*%
G01*
G04 APERTURE LIST*
%ADD10C,0.150000*%
%ADD11C,0.120000*%
G04 APERTURE END LIST*
D10*
X185954819Y-101416666D02*
X186669104Y-101416666D01*
X186669104Y-101416666D02*
X186811961Y-101369047D01*
X186811961Y-101369047D02*
X186907200Y-101273809D01*
X186907200Y-101273809D02*
X186954819Y-101130952D01*
X186954819Y-101130952D02*
X186954819Y-101035714D01*
X185954819Y-102369047D02*
X185954819Y-101892857D01*
X185954819Y-101892857D02*
X186431009Y-101845238D01*
X186431009Y-101845238D02*
X186383390Y-101892857D01*
X186383390Y-101892857D02*
X186335771Y-101988095D01*
X186335771Y-101988095D02*
X186335771Y-102226190D01*
X186335771Y-102226190D02*
X186383390Y-102321428D01*
X186383390Y-102321428D02*
X186431009Y-102369047D01*
X186431009Y-102369047D02*
X186526247Y-102416666D01*
X186526247Y-102416666D02*
X186764342Y-102416666D01*
X186764342Y-102416666D02*
X186859580Y-102369047D01*
X186859580Y-102369047D02*
X186907200Y-102321428D01*
X186907200Y-102321428D02*
X186954819Y-102226190D01*
X186954819Y-102226190D02*
X186954819Y-101988095D01*
X186954819Y-101988095D02*
X186907200Y-101892857D01*
X186907200Y-101892857D02*
X186859580Y-101845238D01*
X211954819Y-109916666D02*
X212669104Y-109916666D01*
X212669104Y-109916666D02*
X212811961Y-109869047D01*
X212811961Y-109869047D02*
X212907200Y-109773809D01*
X212907200Y-109773809D02*
X212954819Y-109630952D01*
X212954819Y-109630952D02*
X212954819Y-109535714D01*
X212383390Y-110535714D02*
X212335771Y-110440476D01*
X212335771Y-110440476D02*
X212288152Y-110392857D01*
X212288152Y-110392857D02*
X212192914Y-110345238D01*
X212192914Y-110345238D02*
X212145295Y-110345238D01*
X212145295Y-110345238D02*
X212050057Y-110392857D01*
X212050057Y-110392857D02*
X212002438Y-110440476D01*
X212002438Y-110440476D02*
X211954819Y-110535714D01*
X211954819Y-110535714D02*
X211954819Y-110726190D01*
X211954819Y-110726190D02*
X212002438Y-110821428D01*
X212002438Y-110821428D02*
X212050057Y-110869047D01*
X212050057Y-110869047D02*
X212145295Y-110916666D01*
X212145295Y-110916666D02*
X212192914Y-110916666D01*
X212192914Y-110916666D02*
X212288152Y-110869047D01*
X212288152Y-110869047D02*
X212335771Y-110821428D01*
X212335771Y-110821428D02*
X212383390Y-110726190D01*
X212383390Y-110726190D02*
X212383390Y-110535714D01*
X212383390Y-110535714D02*
X212431009Y-110440476D01*
X212431009Y-110440476D02*
X212478628Y-110392857D01*
X212478628Y-110392857D02*
X212573866Y-110345238D01*
X212573866Y-110345238D02*
X212764342Y-110345238D01*
X212764342Y-110345238D02*
X212859580Y-110392857D01*
X212859580Y-110392857D02*
X212907200Y-110440476D01*
X212907200Y-110440476D02*
X212954819Y-110535714D01*
X212954819Y-110535714D02*
X212954819Y-110726190D01*
X212954819Y-110726190D02*
X212907200Y-110821428D01*
X212907200Y-110821428D02*
X212859580Y-110869047D01*
X212859580Y-110869047D02*
X212764342Y-110916666D01*
X212764342Y-110916666D02*
X212573866Y-110916666D01*
X212573866Y-110916666D02*
X212478628Y-110869047D01*
X212478628Y-110869047D02*
X212431009Y-110821428D01*
X212431009Y-110821428D02*
X212383390Y-110726190D01*
X211954819Y-91716666D02*
X212669104Y-91716666D01*
X212669104Y-91716666D02*
X212811961Y-91669047D01*
X212811961Y-91669047D02*
X212907200Y-91573809D01*
X212907200Y-91573809D02*
X212954819Y-91430952D01*
X212954819Y-91430952D02*
X212954819Y-91335714D01*
X211954819Y-92097619D02*
X211954819Y-92764285D01*
X211954819Y-92764285D02*
X212954819Y-92335714D01*
X185954819Y-92916666D02*
X186669104Y-92916666D01*
X186669104Y-92916666D02*
X186811961Y-92869047D01*
X186811961Y-92869047D02*
X186907200Y-92773809D01*
X186907200Y-92773809D02*
X186954819Y-92630952D01*
X186954819Y-92630952D02*
X186954819Y-92535714D01*
X185954819Y-93821428D02*
X185954819Y-93630952D01*
X185954819Y-93630952D02*
X186002438Y-93535714D01*
X186002438Y-93535714D02*
X186050057Y-93488095D01*
X186050057Y-93488095D02*
X186192914Y-93392857D01*
X186192914Y-93392857D02*
X186383390Y-93345238D01*
X186383390Y-93345238D02*
X186764342Y-93345238D01*
X186764342Y-93345238D02*
X186859580Y-93392857D01*
X186859580Y-93392857D02*
X186907200Y-93440476D01*
X186907200Y-93440476D02*
X186954819Y-93535714D01*
X186954819Y-93535714D02*
X186954819Y-93726190D01*
X186954819Y-93726190D02*
X186907200Y-93821428D01*
X186907200Y-93821428D02*
X186859580Y-93869047D01*
X186859580Y-93869047D02*
X186764342Y-93916666D01*
X186764342Y-93916666D02*
X186526247Y-93916666D01*
X186526247Y-93916666D02*
X186431009Y-93869047D01*
X186431009Y-93869047D02*
X186383390Y-93821428D01*
X186383390Y-93821428D02*
X186335771Y-93726190D01*
X186335771Y-93726190D02*
X186335771Y-93535714D01*
X186335771Y-93535714D02*
X186383390Y-93440476D01*
X186383390Y-93440476D02*
X186431009Y-93392857D01*
X186431009Y-93392857D02*
X186526247Y-93345238D01*
D11*
%TO.C,J5*%
X173690000Y-97940000D02*
X173690000Y-101750000D01*
X173690000Y-105560000D02*
X173690000Y-101750000D01*
X174300000Y-100250000D02*
X174300000Y-100750000D01*
X174300000Y-100750000D02*
X179800000Y-100750000D01*
X174300000Y-102750000D02*
X174300000Y-103250000D01*
X174300000Y-103250000D02*
X179800000Y-103250000D01*
X179800000Y-100250000D02*
X174300000Y-100250000D01*
X179800000Y-100750000D02*
X179800000Y-100250000D01*
X179800000Y-102750000D02*
X174300000Y-102750000D01*
X179800000Y-103250000D02*
X179800000Y-102750000D01*
X180910000Y-99360000D02*
X185410000Y-99360000D01*
X180910000Y-101750000D02*
X180910000Y-99360000D01*
X180910000Y-101750000D02*
X180910000Y-104140000D01*
X180910000Y-104140000D02*
X185410000Y-104140000D01*
X184500000Y-103000000D02*
X185100000Y-102700000D01*
X185100000Y-102700000D02*
X185100000Y-103300000D01*
X185100000Y-103300000D02*
X184500000Y-103000000D01*
X185410000Y-97940000D02*
X173690000Y-97940000D01*
X185410000Y-99360000D02*
X185410000Y-97940000D01*
X185410000Y-104140000D02*
X185410000Y-105560000D01*
X185410000Y-105560000D02*
X173690000Y-105560000D01*
%TO.C,J8*%
X213590000Y-106440000D02*
X225310000Y-106440000D01*
X213590000Y-107860000D02*
X213590000Y-106440000D01*
X213590000Y-112640000D02*
X213590000Y-114060000D01*
X213590000Y-114060000D02*
X225310000Y-114060000D01*
X213900000Y-108700000D02*
X214500000Y-109000000D01*
X213900000Y-109300000D02*
X213900000Y-108700000D01*
X214500000Y-109000000D02*
X213900000Y-109300000D01*
X218090000Y-107860000D02*
X213590000Y-107860000D01*
X218090000Y-110250000D02*
X218090000Y-107860000D01*
X218090000Y-110250000D02*
X218090000Y-112640000D01*
X218090000Y-112640000D02*
X213590000Y-112640000D01*
X219200000Y-108750000D02*
X219200000Y-109250000D01*
X219200000Y-109250000D02*
X224700000Y-109250000D01*
X219200000Y-111250000D02*
X219200000Y-111750000D01*
X219200000Y-111750000D02*
X224700000Y-111750000D01*
X224700000Y-108750000D02*
X219200000Y-108750000D01*
X224700000Y-109250000D02*
X224700000Y-108750000D01*
X224700000Y-111250000D02*
X219200000Y-111250000D01*
X224700000Y-111750000D02*
X224700000Y-111250000D01*
X225310000Y-106440000D02*
X225310000Y-110250000D01*
X225310000Y-114060000D02*
X225310000Y-110250000D01*
%TO.C,J7*%
X213590000Y-88240000D02*
X225310000Y-88240000D01*
X213590000Y-89660000D02*
X213590000Y-88240000D01*
X213590000Y-94440000D02*
X213590000Y-95860000D01*
X213590000Y-95860000D02*
X225310000Y-95860000D01*
X213900000Y-90500000D02*
X214500000Y-90800000D01*
X213900000Y-91100000D02*
X213900000Y-90500000D01*
X214500000Y-90800000D02*
X213900000Y-91100000D01*
X218090000Y-89660000D02*
X213590000Y-89660000D01*
X218090000Y-92050000D02*
X218090000Y-89660000D01*
X218090000Y-92050000D02*
X218090000Y-94440000D01*
X218090000Y-94440000D02*
X213590000Y-94440000D01*
X219200000Y-90550000D02*
X219200000Y-91050000D01*
X219200000Y-91050000D02*
X224700000Y-91050000D01*
X219200000Y-93050000D02*
X219200000Y-93550000D01*
X219200000Y-93550000D02*
X224700000Y-93550000D01*
X224700000Y-90550000D02*
X219200000Y-90550000D01*
X224700000Y-91050000D02*
X224700000Y-90550000D01*
X224700000Y-93050000D02*
X219200000Y-93050000D01*
X224700000Y-93550000D02*
X224700000Y-93050000D01*
X225310000Y-88240000D02*
X225310000Y-92050000D01*
X225310000Y-95860000D02*
X225310000Y-92050000D01*
%TO.C,J6*%
X173690000Y-89440000D02*
X173690000Y-93250000D01*
X173690000Y-97060000D02*
X173690000Y-93250000D01*
X174300000Y-91750000D02*
X174300000Y-92250000D01*
X174300000Y-92250000D02*
X179800000Y-92250000D01*
X174300000Y-94250000D02*
X174300000Y-94750000D01*
X174300000Y-94750000D02*
X179800000Y-94750000D01*
X179800000Y-91750000D02*
X174300000Y-91750000D01*
X179800000Y-92250000D02*
X179800000Y-91750000D01*
X179800000Y-94250000D02*
X174300000Y-94250000D01*
X179800000Y-94750000D02*
X179800000Y-94250000D01*
X180910000Y-90860000D02*
X185410000Y-90860000D01*
X180910000Y-93250000D02*
X180910000Y-90860000D01*
X180910000Y-93250000D02*
X180910000Y-95640000D01*
X180910000Y-95640000D02*
X185410000Y-95640000D01*
X184500000Y-94500000D02*
X185100000Y-94200000D01*
X185100000Y-94200000D02*
X185100000Y-94800000D01*
X185100000Y-94800000D02*
X184500000Y-94500000D01*
X185410000Y-89440000D02*
X173690000Y-89440000D01*
X185410000Y-90860000D02*
X185410000Y-89440000D01*
X185410000Y-95640000D02*
X185410000Y-97060000D01*
X185410000Y-97060000D02*
X173690000Y-97060000D01*
%TD*%
M02*
