%TF.GenerationSoftware,KiCad,Pcbnew,9.0.7*%
%TF.CreationDate,2026-03-08T19:07:36+09:00*%
%TF.ProjectId,sentral board_1.0,73656e74-7261-46c2-9062-6f6172645f31,rev?*%
%TF.SameCoordinates,Original*%
%TF.FileFunction,Copper,L1,Top*%
%TF.FilePolarity,Positive*%
%FSLAX46Y46*%
G04 Gerber Fmt 4.6, Leading zero omitted, Abs format (unit mm)*
G04 Created by KiCad (PCBNEW 9.0.7) date 2026-03-08 19:07:36*
%MOMM*%
%LPD*%
G01*
G04 APERTURE LIST*
G04 Aperture macros list*
%AMRoundRect*
0 Rectangle with rounded corners*
0 $1 Rounding radius*
0 $2 $3 $4 $5 $6 $7 $8 $9 X,Y pos of 4 corners*
0 Add a 4 corners polygon primitive as box body*
4,1,4,$2,$3,$4,$5,$6,$7,$8,$9,$2,$3,0*
0 Add four circle primitives for the rounded corners*
1,1,$1+$1,$2,$3*
1,1,$1+$1,$4,$5*
1,1,$1+$1,$6,$7*
1,1,$1+$1,$8,$9*
0 Add four rect primitives between the rounded corners*
20,1,$1+$1,$2,$3,$4,$5,0*
20,1,$1+$1,$4,$5,$6,$7,0*
20,1,$1+$1,$6,$7,$8,$9,0*
20,1,$1+$1,$8,$9,$2,$3,0*%
G04 Aperture macros list end*
%TA.AperFunction,ComponentPad*%
%ADD10RoundRect,0.250000X-0.725000X0.600000X-0.725000X-0.600000X0.725000X-0.600000X0.725000X0.600000X0*%
%TD*%
%TA.AperFunction,ComponentPad*%
%ADD11O,1.950000X1.700000*%
%TD*%
%TA.AperFunction,ComponentPad*%
%ADD12RoundRect,0.250000X-0.600000X-0.600000X0.600000X-0.600000X0.600000X0.600000X-0.600000X0.600000X0*%
%TD*%
%TA.AperFunction,ComponentPad*%
%ADD13C,1.700000*%
%TD*%
%TA.AperFunction,ComponentPad*%
%ADD14RoundRect,0.250000X0.600000X0.600000X-0.600000X0.600000X-0.600000X-0.600000X0.600000X-0.600000X0*%
%TD*%
%TA.AperFunction,ComponentPad*%
%ADD15RoundRect,0.250000X0.750000X-0.600000X0.750000X0.600000X-0.750000X0.600000X-0.750000X-0.600000X0*%
%TD*%
%TA.AperFunction,ComponentPad*%
%ADD16O,2.000000X1.700000*%
%TD*%
%TA.AperFunction,ComponentPad*%
%ADD17RoundRect,0.250000X-0.750000X0.600000X-0.750000X-0.600000X0.750000X-0.600000X0.750000X0.600000X0*%
%TD*%
%TA.AperFunction,ViaPad*%
%ADD18C,0.600000*%
%TD*%
%TA.AperFunction,ViaPad*%
%ADD19C,1.000000*%
%TD*%
%TA.AperFunction,Conductor*%
%ADD20C,0.200000*%
%TD*%
%TA.AperFunction,Conductor*%
%ADD21C,0.750000*%
%TD*%
%TA.AperFunction,Conductor*%
%ADD22C,0.500000*%
%TD*%
%TA.AperFunction,Conductor*%
%ADD23C,1.000000*%
%TD*%
G04 APERTURE END LIST*
D10*
%TO.P,J4,1,Pin_1*%
%TO.N,UART3_RX_IR*%
X200000000Y-89750000D03*
D11*
%TO.P,J4,2,Pin_2*%
%TO.N,UART3_TX_IR*%
X200000000Y-92250000D03*
%TO.P,J4,3,Pin_3*%
%TO.N,SW*%
X200000000Y-94750000D03*
%TO.P,J4,4,Pin_4*%
%TO.N,VDD*%
X200000000Y-97250000D03*
%TO.P,J4,5,Pin_5*%
%TO.N,GND*%
X200000000Y-99750000D03*
%TD*%
D10*
%TO.P,J9,1,Pin_1*%
%TO.N,GND*%
X199860000Y-106060000D03*
D11*
%TO.P,J9,2,Pin_2*%
%TO.N,+5V*%
X199860000Y-108560000D03*
%TO.P,J9,3,Pin_3*%
%TO.N,UART4_RX_Camera*%
X199860000Y-111060000D03*
%TO.P,J9,4,Pin_4*%
%TO.N,UART4_TX_Camera*%
X199860000Y-113560000D03*
%TD*%
D12*
%TO.P,J1,1,Pin_1*%
%TO.N,GND*%
X206750000Y-88560000D03*
D13*
%TO.P,J1,2,Pin_2*%
X209290000Y-88560000D03*
%TO.P,J1,3,Pin_3*%
%TO.N,VDD*%
X206750000Y-91100000D03*
%TO.P,J1,4,Pin_4*%
%TO.N,SW*%
X209290000Y-91100000D03*
%TO.P,J1,5,Pin_5*%
%TO.N,+12V*%
X206750000Y-93640000D03*
%TO.P,J1,6,Pin_6*%
%TO.N,Motor4_B*%
X209290000Y-93640000D03*
%TO.P,J1,7,Pin_7*%
%TO.N,+12V*%
X206750000Y-96180000D03*
%TO.P,J1,8,Pin_8*%
%TO.N,Motor4_A*%
X209290000Y-96180000D03*
%TO.P,J1,9,Pin_9*%
%TO.N,UART4_RX_Camera*%
X206750000Y-98720000D03*
%TO.P,J1,10,Pin_10*%
%TO.N,Motor3_B*%
X209290000Y-98720000D03*
%TO.P,J1,11,Pin_11*%
%TO.N,UART4_TX_Camera*%
X206750000Y-101260000D03*
%TO.P,J1,12,Pin_12*%
%TO.N,Motor3_A*%
X209290000Y-101260000D03*
%TO.P,J1,13,Pin_13*%
%TO.N,UART3_RX_IR*%
X206750000Y-103800000D03*
%TO.P,J1,14,Pin_14*%
%TO.N,Motor2_B*%
X209290000Y-103800000D03*
%TO.P,J1,15,Pin_15*%
%TO.N,UART3_TX_IR*%
X206750000Y-106340000D03*
%TO.P,J1,16,Pin_16*%
%TO.N,Motor2_A*%
X209290000Y-106340000D03*
%TO.P,J1,17,Pin_17*%
%TO.N,UART2_RX_Angel*%
X206750000Y-108880000D03*
%TO.P,J1,18,Pin_18*%
%TO.N,Motor1_B*%
X209290000Y-108880000D03*
%TO.P,J1,19,Pin_19*%
%TO.N,UART2_TX_Angel*%
X206750000Y-111420000D03*
%TO.P,J1,20,Pin_20*%
%TO.N,Motor1_A*%
X209290000Y-111420000D03*
%TD*%
D10*
%TO.P,J3,1,Pin_1*%
%TO.N,UART2_RX_Angel*%
X217000000Y-97500000D03*
D11*
%TO.P,J3,2,Pin_2*%
%TO.N,UART2_TX_Angel*%
X217000000Y-100000000D03*
%TO.P,J3,3,Pin_3*%
%TO.N,VDD*%
X217000000Y-102500000D03*
%TO.P,J3,4,Pin_4*%
%TO.N,GND*%
X217000000Y-105000000D03*
%TD*%
D14*
%TO.P,J2,1,Pin_1*%
%TO.N,GND*%
X192250000Y-105080000D03*
D13*
%TO.P,J2,2,Pin_2*%
X189710000Y-105080000D03*
%TO.P,J2,3,Pin_3*%
X192250000Y-102540000D03*
%TO.P,J2,4,Pin_4*%
X189710000Y-102540000D03*
%TO.P,J2,5,Pin_5*%
%TO.N,+12V*%
X192250000Y-100000000D03*
%TO.P,J2,6,Pin_6*%
X189710000Y-100000000D03*
%TO.P,J2,7,Pin_7*%
%TO.N,+5V*%
X192250000Y-97460000D03*
%TO.P,J2,8,Pin_8*%
X189710000Y-97460000D03*
%TO.P,J2,9,Pin_9*%
%TO.N,VDD*%
X192250000Y-94920000D03*
%TO.P,J2,10,Pin_10*%
X189710000Y-94920000D03*
%TD*%
D15*
%TO.P,J5,1,Pin_1*%
%TO.N,Motor1_B*%
X183000000Y-103000000D03*
D16*
%TO.P,J5,2,Pin_2*%
%TO.N,Motor1_A*%
X183000000Y-100500000D03*
%TD*%
D17*
%TO.P,J8,1,Pin_1*%
%TO.N,Motor4_B*%
X216000000Y-109000000D03*
D16*
%TO.P,J8,2,Pin_2*%
%TO.N,Motor4_A*%
X216000000Y-111500000D03*
%TD*%
D17*
%TO.P,J7,1,Pin_1*%
%TO.N,Motor3_B*%
X216000000Y-90800000D03*
D16*
%TO.P,J7,2,Pin_2*%
%TO.N,Motor3_A*%
X216000000Y-93300000D03*
%TD*%
D15*
%TO.P,J6,1,Pin_1*%
%TO.N,Motor2_B*%
X183000000Y-94500000D03*
D16*
%TO.P,J6,2,Pin_2*%
%TO.N,Motor2_A*%
X183000000Y-92000000D03*
%TD*%
D18*
%TO.N,GND*%
X205125000Y-109500000D03*
X197525000Y-104775000D03*
X201600000Y-93500000D03*
X197925000Y-95325000D03*
X210800000Y-92050000D03*
X216925000Y-95425000D03*
X219000000Y-92450000D03*
X214700000Y-88250000D03*
X213200000Y-86950000D03*
X210950000Y-106300000D03*
X205225000Y-107325000D03*
X202950000Y-107450000D03*
X203175000Y-110000000D03*
X196775000Y-110450000D03*
X195725000Y-108775000D03*
X187200000Y-112225000D03*
%TO.N,UART3_RX_IR*%
X204000000Y-92025000D03*
D19*
%TO.N,Motor1_A*%
X208610000Y-115990000D03*
%TO.N,VDD*%
X204105000Y-105525000D03*
X196560000Y-102380000D03*
D18*
%TO.N,GND*%
X196120000Y-103730000D03*
X190450000Y-86810000D03*
X181800000Y-99230000D03*
X219220000Y-88530000D03*
X187290000Y-86880000D03*
X205230000Y-84560000D03*
X218090000Y-115630000D03*
X181460000Y-108380000D03*
X188870000Y-116940000D03*
X187770000Y-98180000D03*
X192590000Y-107750000D03*
X215970000Y-113990000D03*
X194240000Y-84150000D03*
X189120000Y-83900000D03*
X211850000Y-83860000D03*
X197140000Y-91470000D03*
X219290000Y-101340000D03*
X181810000Y-86810000D03*
D19*
X217600000Y-106900000D03*
D18*
X194740000Y-95920000D03*
X198080000Y-85660000D03*
X183320000Y-89200000D03*
X201830000Y-99190000D03*
X193880000Y-91400000D03*
X199610000Y-103900000D03*
X201150000Y-83550000D03*
X194590000Y-87970000D03*
X187790000Y-103680000D03*
X202760000Y-86400000D03*
X218820000Y-86370000D03*
X189760000Y-91190000D03*
X181640000Y-112030000D03*
X187150000Y-115640000D03*
D19*
%TO.N,Motor2_A*%
X202440000Y-114090000D03*
%TO.N,Motor1_B*%
X210775000Y-116200000D03*
D18*
%TO.N,UART2_RX_Angel*%
X206775000Y-114725000D03*
%TO.N,UART3_TX_IR*%
X203825000Y-102125000D03*
X204825000Y-94600000D03*
%TO.N,UART2_TX_Angel*%
X207775000Y-115240000D03*
%TO.N,UART3_RX_IR*%
X204000000Y-101050000D03*
%TD*%
D20*
%TO.N,UART3_TX_IR*%
X204825000Y-94600000D02*
X204825000Y-101125000D01*
X204825000Y-101125000D02*
X203825000Y-102125000D01*
%TO.N,UART2_TX_Angel*%
X207775000Y-115240000D02*
X207775000Y-112445000D01*
X207775000Y-112445000D02*
X206750000Y-111420000D01*
%TO.N,UART2_RX_Angel*%
X205599000Y-113658338D02*
X205599000Y-110031000D01*
X206775000Y-114725000D02*
X206665662Y-114725000D01*
X205599000Y-110031000D02*
X206750000Y-108880000D01*
X206665662Y-114725000D02*
X205599000Y-113658338D01*
D21*
%TO.N,Motor1_A*%
X208610000Y-115990000D02*
X209290000Y-115310000D01*
X209290000Y-115310000D02*
X209290000Y-111430000D01*
D22*
%TO.N,VDD*%
X219070000Y-112980000D02*
X219070000Y-103970000D01*
X208030000Y-117150000D02*
X214900000Y-117150000D01*
X204105000Y-105525000D02*
X204105000Y-113225000D01*
X195445000Y-94920000D02*
X196560000Y-96035000D01*
X196625000Y-96100000D02*
X197775000Y-97250000D01*
X203490000Y-91110000D02*
X206750000Y-91110000D01*
X214900000Y-117150000D02*
X219070000Y-112980000D01*
X217600000Y-102500000D02*
X217000000Y-102500000D01*
X219070000Y-103970000D02*
X217600000Y-102500000D01*
X204105000Y-113225000D02*
X208030000Y-117150000D01*
X196560000Y-102380000D02*
X196560000Y-96035000D01*
X202700000Y-91900000D02*
X203490000Y-91110000D01*
X201475000Y-97250000D02*
X202700000Y-96025000D01*
X202700000Y-96025000D02*
X202700000Y-91900000D01*
X189710000Y-94920000D02*
X192250000Y-94920000D01*
X200000000Y-97250000D02*
X201475000Y-97250000D01*
X197775000Y-97250000D02*
X200000000Y-97250000D01*
X192250000Y-94920000D02*
X195445000Y-94920000D01*
D23*
%TO.N,GND*%
X217000000Y-106300000D02*
X217600000Y-106900000D01*
D21*
X201270000Y-99750000D02*
X201830000Y-99190000D01*
D23*
X217000000Y-105000000D02*
X217000000Y-106300000D01*
D21*
X200000000Y-99750000D02*
X201270000Y-99750000D01*
%TO.N,Motor2_A*%
X202440000Y-114090000D02*
X202270000Y-114090000D01*
X184350000Y-92000000D02*
X183000000Y-92000000D01*
X202270000Y-114090000D02*
X200130000Y-116230000D01*
X195280000Y-116230000D02*
X186100000Y-107050000D01*
X186100000Y-93750000D02*
X184350000Y-92000000D01*
X200130000Y-116230000D02*
X195280000Y-116230000D01*
X186100000Y-107050000D02*
X186100000Y-93750000D01*
%TO.N,Motor1_B*%
X211325000Y-110925000D02*
X209290000Y-108890000D01*
X210775000Y-116200000D02*
X211325000Y-115650000D01*
X211325000Y-115650000D02*
X211325000Y-110925000D01*
D20*
%TO.N,UART4_RX_Camera*%
X201900000Y-109020000D02*
X201900000Y-103570000D01*
X205225000Y-101700000D02*
X205225000Y-100245000D01*
X204200000Y-102725000D02*
X205225000Y-101700000D01*
X202745000Y-102725000D02*
X204200000Y-102725000D01*
X201900000Y-103570000D02*
X202745000Y-102725000D01*
X199860000Y-111060000D02*
X201900000Y-109020000D01*
X205225000Y-100245000D02*
X206750000Y-98720000D01*
D23*
%TO.N,+12V*%
X189710000Y-100000000D02*
X192250000Y-100000000D01*
%TO.N,Motor4_A*%
X213224001Y-109786501D02*
X214937500Y-111500000D01*
X210980000Y-96180000D02*
X213224001Y-98424001D01*
X209290000Y-96180000D02*
X210980000Y-96180000D01*
X214937500Y-111500000D02*
X216000000Y-111500000D01*
X213224001Y-98424001D02*
X213224001Y-109786501D01*
%TO.N,Motor4_B*%
X212015000Y-93640000D02*
X209290000Y-93640000D01*
X214425000Y-107425000D02*
X214425000Y-96050000D01*
X214425000Y-96050000D02*
X212015000Y-93640000D01*
X216000000Y-109000000D02*
X214425000Y-107425000D01*
D20*
%TO.N,UART4_TX_Camera*%
X202325000Y-111095000D02*
X202325000Y-105685000D01*
X199860000Y-113560000D02*
X202325000Y-111095000D01*
X202325000Y-105685000D02*
X206750000Y-101260000D01*
D21*
%TO.N,+5V*%
X198385000Y-108560000D02*
X199860000Y-108560000D01*
X195000000Y-105175000D02*
X198385000Y-108560000D01*
X192250000Y-97460000D02*
X195000000Y-100210000D01*
X195000000Y-100210000D02*
X195000000Y-105175000D01*
X189710000Y-97460000D02*
X192250000Y-97460000D01*
D20*
%TO.N,UART3_RX_IR*%
X204000000Y-101050000D02*
X204000000Y-92025000D01*
%TD*%
%TA.AperFunction,Conductor*%
%TO.N,GND*%
G36*
X217083363Y-82580185D02*
G01*
X217104005Y-82596819D01*
X219738181Y-85230995D01*
X219771666Y-85292318D01*
X219774500Y-85318676D01*
X219774500Y-103313770D01*
X219754815Y-103380809D01*
X219702011Y-103426564D01*
X219632853Y-103436508D01*
X219569297Y-103407483D01*
X219562819Y-103401451D01*
X218489012Y-102327644D01*
X218455527Y-102266321D01*
X218454226Y-102259399D01*
X218442246Y-102183757D01*
X218421912Y-102121177D01*
X218411186Y-102088165D01*
X218376557Y-101981588D01*
X218376555Y-101981585D01*
X218376555Y-101981583D01*
X218305458Y-101842048D01*
X218280051Y-101792184D01*
X218280049Y-101792181D01*
X218280048Y-101792179D01*
X218155109Y-101620213D01*
X218004792Y-101469896D01*
X217942623Y-101424728D01*
X217840204Y-101350316D01*
X217797540Y-101294989D01*
X217791561Y-101225376D01*
X217824166Y-101163580D01*
X217840199Y-101149686D01*
X218004792Y-101030104D01*
X218155104Y-100879792D01*
X218155106Y-100879788D01*
X218155109Y-100879786D01*
X218280048Y-100707820D01*
X218280047Y-100707820D01*
X218280051Y-100707816D01*
X218376557Y-100518412D01*
X218442246Y-100316243D01*
X218475500Y-100106287D01*
X218475500Y-99893713D01*
X218442246Y-99683757D01*
X218376557Y-99481588D01*
X218280051Y-99292184D01*
X218280049Y-99292181D01*
X218280048Y-99292179D01*
X218155109Y-99120213D01*
X218016294Y-98981398D01*
X217982809Y-98920075D01*
X217987793Y-98850383D01*
X218029665Y-98794450D01*
X218038879Y-98788178D01*
X218044331Y-98784814D01*
X218044334Y-98784814D01*
X218193656Y-98692712D01*
X218317712Y-98568656D01*
X218409814Y-98419334D01*
X218464999Y-98252797D01*
X218475500Y-98150009D01*
X218475499Y-96849992D01*
X218464999Y-96747203D01*
X218409814Y-96580666D01*
X218317712Y-96431344D01*
X218193656Y-96307288D01*
X218051967Y-96219894D01*
X218044336Y-96215187D01*
X218044331Y-96215185D01*
X217984358Y-96195312D01*
X217877797Y-96160001D01*
X217877795Y-96160000D01*
X217775010Y-96149500D01*
X216224998Y-96149500D01*
X216224981Y-96149501D01*
X216122203Y-96160000D01*
X216122200Y-96160001D01*
X215955668Y-96215185D01*
X215955663Y-96215187D01*
X215806342Y-96307289D01*
X215682288Y-96431343D01*
X215682285Y-96431347D01*
X215655038Y-96475522D01*
X215603090Y-96522247D01*
X215534128Y-96533468D01*
X215470046Y-96505625D01*
X215431190Y-96447556D01*
X215425500Y-96410425D01*
X215425500Y-95951456D01*
X215405418Y-95850499D01*
X215396692Y-95806632D01*
X215396692Y-95806629D01*
X215391415Y-95780103D01*
X215387052Y-95758165D01*
X215311632Y-95576086D01*
X215311631Y-95576085D01*
X215311628Y-95576079D01*
X215202140Y-95412219D01*
X215202137Y-95412215D01*
X212799209Y-93009289D01*
X212799206Y-93009285D01*
X212799206Y-93009286D01*
X212792139Y-93002219D01*
X212792139Y-93002218D01*
X212652782Y-92862861D01*
X212652781Y-92862860D01*
X212652780Y-92862859D01*
X212488920Y-92753371D01*
X212488911Y-92753366D01*
X212367898Y-92703241D01*
X212367897Y-92703240D01*
X212360165Y-92700038D01*
X212306836Y-92677949D01*
X212168841Y-92650500D01*
X212165104Y-92649756D01*
X212165094Y-92649754D01*
X212113543Y-92639500D01*
X212113541Y-92639500D01*
X210250200Y-92639500D01*
X210183161Y-92619815D01*
X210170634Y-92610506D01*
X209997820Y-92484951D01*
X209997115Y-92484591D01*
X209989054Y-92480485D01*
X209938259Y-92432512D01*
X209921463Y-92364692D01*
X209943999Y-92298556D01*
X209989054Y-92259515D01*
X209997816Y-92255051D01*
X210061079Y-92209088D01*
X210169786Y-92130109D01*
X210169788Y-92130106D01*
X210169792Y-92130104D01*
X210320104Y-91979792D01*
X210320106Y-91979788D01*
X210320109Y-91979786D01*
X210445048Y-91807820D01*
X210445047Y-91807820D01*
X210445051Y-91807816D01*
X210541557Y-91618412D01*
X210607246Y-91416243D01*
X210640500Y-91206287D01*
X210640500Y-90993713D01*
X210607246Y-90783757D01*
X210541557Y-90581588D01*
X210445051Y-90392184D01*
X210320104Y-90220208D01*
X210249879Y-90149983D01*
X214499500Y-90149983D01*
X214499500Y-91450001D01*
X214499501Y-91450018D01*
X214510000Y-91552796D01*
X214510001Y-91552799D01*
X214552512Y-91681087D01*
X214565186Y-91719334D01*
X214652257Y-91860500D01*
X214657289Y-91868657D01*
X214781344Y-91992712D01*
X214936120Y-92088178D01*
X214982845Y-92140126D01*
X214994068Y-92209088D01*
X214966224Y-92273171D01*
X214958706Y-92281398D01*
X214819889Y-92420215D01*
X214694951Y-92592179D01*
X214598444Y-92781585D01*
X214532753Y-92983760D01*
X214499500Y-93193713D01*
X214499500Y-93406286D01*
X214530617Y-93602754D01*
X214532754Y-93616243D01*
X214591880Y-93798214D01*
X214598444Y-93818414D01*
X214694951Y-94007820D01*
X214819890Y-94179786D01*
X214970213Y-94330109D01*
X215142179Y-94455048D01*
X215142181Y-94455049D01*
X215142184Y-94455051D01*
X215331588Y-94551557D01*
X215533757Y-94617246D01*
X215743713Y-94650500D01*
X215743714Y-94650500D01*
X216256286Y-94650500D01*
X216256287Y-94650500D01*
X216466243Y-94617246D01*
X216668412Y-94551557D01*
X216857816Y-94455051D01*
X216979693Y-94366503D01*
X217029786Y-94330109D01*
X217029788Y-94330106D01*
X217029792Y-94330104D01*
X217180104Y-94179792D01*
X217180106Y-94179788D01*
X217180109Y-94179786D01*
X217305048Y-94007820D01*
X217305047Y-94007820D01*
X217305051Y-94007816D01*
X217401557Y-93818412D01*
X217467246Y-93616243D01*
X217500500Y-93406287D01*
X217500500Y-93193713D01*
X217467246Y-92983757D01*
X217401557Y-92781588D01*
X217305051Y-92592184D01*
X217305049Y-92592181D01*
X217305048Y-92592179D01*
X217180109Y-92420213D01*
X217041294Y-92281398D01*
X217007809Y-92220075D01*
X217012793Y-92150383D01*
X217054665Y-92094450D01*
X217063879Y-92088178D01*
X217069331Y-92084814D01*
X217069334Y-92084814D01*
X217218656Y-91992712D01*
X217342712Y-91868656D01*
X217434814Y-91719334D01*
X217489999Y-91552797D01*
X217500500Y-91450009D01*
X217500499Y-90149992D01*
X217492316Y-90069890D01*
X217489999Y-90047203D01*
X217489998Y-90047200D01*
X217456115Y-89944949D01*
X217434814Y-89880666D01*
X217342712Y-89731344D01*
X217218656Y-89607288D01*
X217069334Y-89515186D01*
X216902797Y-89460001D01*
X216902795Y-89460000D01*
X216800010Y-89449500D01*
X215199998Y-89449500D01*
X215199981Y-89449501D01*
X215097203Y-89460000D01*
X215097200Y-89460001D01*
X214930668Y-89515185D01*
X214930663Y-89515187D01*
X214781342Y-89607289D01*
X214657289Y-89731342D01*
X214565187Y-89880663D01*
X214565185Y-89880668D01*
X214545458Y-89940202D01*
X214510001Y-90047203D01*
X214510001Y-90047204D01*
X214510000Y-90047204D01*
X214499500Y-90149983D01*
X210249879Y-90149983D01*
X210169792Y-90069896D01*
X210169786Y-90069890D01*
X209997817Y-89944949D01*
X209988504Y-89940204D01*
X209937707Y-89892230D01*
X209920912Y-89824409D01*
X209943449Y-89758274D01*
X209988507Y-89719232D01*
X209997555Y-89714622D01*
X210051716Y-89675270D01*
X210051717Y-89675270D01*
X209419408Y-89042962D01*
X209482993Y-89025925D01*
X209597007Y-88960099D01*
X209690099Y-88867007D01*
X209755925Y-88752993D01*
X209772962Y-88689408D01*
X210405270Y-89321717D01*
X210405270Y-89321716D01*
X210444622Y-89267554D01*
X210541095Y-89078217D01*
X210606757Y-88876130D01*
X210606757Y-88876127D01*
X210640000Y-88666246D01*
X210640000Y-88453753D01*
X210606757Y-88243872D01*
X210606757Y-88243869D01*
X210541095Y-88041782D01*
X210444624Y-87852449D01*
X210405270Y-87798282D01*
X210405269Y-87798282D01*
X209772962Y-88430590D01*
X209755925Y-88367007D01*
X209690099Y-88252993D01*
X209597007Y-88159901D01*
X209482993Y-88094075D01*
X209419409Y-88077037D01*
X210051716Y-87444728D01*
X209997550Y-87405375D01*
X209808217Y-87308904D01*
X209606129Y-87243242D01*
X209396246Y-87210000D01*
X209183754Y-87210000D01*
X208973872Y-87243242D01*
X208973869Y-87243242D01*
X208771782Y-87308904D01*
X208582439Y-87405380D01*
X208528282Y-87444727D01*
X208528282Y-87444728D01*
X209160591Y-88077037D01*
X209097007Y-88094075D01*
X208982993Y-88159901D01*
X208889901Y-88252993D01*
X208824075Y-88367007D01*
X208807037Y-88430590D01*
X208170743Y-87794297D01*
X208164769Y-87793042D01*
X208143467Y-87793489D01*
X208131262Y-87786002D01*
X208117250Y-87783059D01*
X208102075Y-87768099D01*
X208083909Y-87756956D01*
X208074652Y-87741064D01*
X208067494Y-87734008D01*
X208064210Y-87727671D01*
X207979311Y-87551634D01*
X207942315Y-87491654D01*
X207818345Y-87367684D01*
X207669124Y-87275643D01*
X207669119Y-87275641D01*
X207502697Y-87220494D01*
X207502690Y-87220493D01*
X207399986Y-87210000D01*
X207000000Y-87210000D01*
X207000000Y-88126988D01*
X206942993Y-88094075D01*
X206815826Y-88060000D01*
X206684174Y-88060000D01*
X206557007Y-88094075D01*
X206500000Y-88126988D01*
X206500000Y-87210000D01*
X206100028Y-87210000D01*
X206100012Y-87210001D01*
X205997302Y-87220494D01*
X205830880Y-87275641D01*
X205830875Y-87275643D01*
X205681654Y-87367684D01*
X205557684Y-87491654D01*
X205465643Y-87640875D01*
X205465641Y-87640880D01*
X205410494Y-87807302D01*
X205410493Y-87807309D01*
X205400000Y-87910013D01*
X205400000Y-88310000D01*
X206316988Y-88310000D01*
X206284075Y-88367007D01*
X206250000Y-88494174D01*
X206250000Y-88625826D01*
X206284075Y-88752993D01*
X206316988Y-88810000D01*
X205400001Y-88810000D01*
X205400001Y-89209986D01*
X205410494Y-89312697D01*
X205465641Y-89479119D01*
X205465643Y-89479124D01*
X205557684Y-89628345D01*
X205681654Y-89752315D01*
X205830875Y-89844356D01*
X205830878Y-89844357D01*
X205841723Y-89847951D01*
X205899167Y-89887724D01*
X205925990Y-89952240D01*
X205913675Y-90021016D01*
X205875605Y-90065974D01*
X205870211Y-90069892D01*
X205719892Y-90220211D01*
X205655833Y-90308384D01*
X205600503Y-90351051D01*
X205555514Y-90359500D01*
X203416076Y-90359500D01*
X203387242Y-90365234D01*
X203387243Y-90365235D01*
X203271093Y-90388339D01*
X203271083Y-90388342D01*
X203191081Y-90421479D01*
X203191082Y-90421480D01*
X203134506Y-90444915D01*
X203108611Y-90462218D01*
X203011579Y-90527051D01*
X203011578Y-90527052D01*
X202117047Y-91421584D01*
X202117045Y-91421586D01*
X202076958Y-91481585D01*
X202076956Y-91481588D01*
X202055936Y-91513046D01*
X202034916Y-91544504D01*
X202034912Y-91544511D01*
X201978343Y-91681082D01*
X201978340Y-91681092D01*
X201949500Y-91826079D01*
X201949500Y-95662769D01*
X201929815Y-95729808D01*
X201913181Y-95750450D01*
X201311944Y-96351686D01*
X201250621Y-96385171D01*
X201180929Y-96380187D01*
X201136582Y-96351686D01*
X201004792Y-96219896D01*
X200963643Y-96190000D01*
X200840204Y-96100316D01*
X200797540Y-96044989D01*
X200791561Y-95975376D01*
X200824166Y-95913580D01*
X200840199Y-95899686D01*
X201004792Y-95780104D01*
X201155104Y-95629792D01*
X201155106Y-95629788D01*
X201155109Y-95629786D01*
X201280048Y-95457820D01*
X201280047Y-95457820D01*
X201280051Y-95457816D01*
X201376557Y-95268412D01*
X201442246Y-95066243D01*
X201475500Y-94856287D01*
X201475500Y-94643713D01*
X201442246Y-94433757D01*
X201376557Y-94231588D01*
X201280051Y-94042184D01*
X201280049Y-94042181D01*
X201280048Y-94042179D01*
X201155109Y-93870213D01*
X201004792Y-93719896D01*
X200955374Y-93683992D01*
X200840204Y-93600316D01*
X200797540Y-93544989D01*
X200791561Y-93475376D01*
X200824166Y-93413580D01*
X200840199Y-93399686D01*
X201004792Y-93280104D01*
X201155104Y-93129792D01*
X201155106Y-93129788D01*
X201155109Y-93129786D01*
X201280048Y-92957820D01*
X201280047Y-92957820D01*
X201280051Y-92957816D01*
X201376557Y-92768412D01*
X201442246Y-92566243D01*
X201475500Y-92356287D01*
X201475500Y-92143713D01*
X201442246Y-91933757D01*
X201376557Y-91731588D01*
X201280051Y-91542184D01*
X201280049Y-91542181D01*
X201280048Y-91542179D01*
X201155109Y-91370213D01*
X201016294Y-91231398D01*
X200982809Y-91170075D01*
X200987793Y-91100383D01*
X201029665Y-91044450D01*
X201038879Y-91038178D01*
X201044331Y-91034814D01*
X201044334Y-91034814D01*
X201193656Y-90942712D01*
X201317712Y-90818656D01*
X201409814Y-90669334D01*
X201464999Y-90502797D01*
X201475500Y-90400009D01*
X201475499Y-89099992D01*
X201464999Y-88997203D01*
X201409814Y-88830666D01*
X201317712Y-88681344D01*
X201193656Y-88557288D01*
X201044334Y-88465186D01*
X200877797Y-88410001D01*
X200877795Y-88410000D01*
X200775010Y-88399500D01*
X199224998Y-88399500D01*
X199224981Y-88399501D01*
X199122203Y-88410000D01*
X199122200Y-88410001D01*
X198955668Y-88465185D01*
X198955663Y-88465187D01*
X198806342Y-88557289D01*
X198682289Y-88681342D01*
X198590187Y-88830663D01*
X198590186Y-88830666D01*
X198535001Y-88997203D01*
X198535001Y-88997204D01*
X198535000Y-88997204D01*
X198524500Y-89099983D01*
X198524500Y-90400001D01*
X198524501Y-90400018D01*
X198535000Y-90502796D01*
X198535001Y-90502799D01*
X198590185Y-90669331D01*
X198590187Y-90669336D01*
X198682289Y-90818657D01*
X198806344Y-90942712D01*
X198961120Y-91038178D01*
X199007845Y-91090126D01*
X199019068Y-91159088D01*
X198991224Y-91223171D01*
X198983706Y-91231398D01*
X198844889Y-91370215D01*
X198719951Y-91542179D01*
X198623444Y-91731585D01*
X198557753Y-91933760D01*
X198524500Y-92143713D01*
X198524500Y-92356286D01*
X198550178Y-92518414D01*
X198557754Y-92566243D01*
X198620777Y-92760208D01*
X198623444Y-92768414D01*
X198719951Y-92957820D01*
X198844890Y-93129786D01*
X198995209Y-93280105D01*
X198995214Y-93280109D01*
X199159793Y-93399682D01*
X199202459Y-93455011D01*
X199208438Y-93524625D01*
X199175833Y-93586420D01*
X199159793Y-93600318D01*
X198995214Y-93719890D01*
X198995209Y-93719894D01*
X198844890Y-93870213D01*
X198719951Y-94042179D01*
X198623444Y-94231585D01*
X198557753Y-94433760D01*
X198524500Y-94643713D01*
X198524500Y-94856286D01*
X198551425Y-95026287D01*
X198557754Y-95066243D01*
X198618369Y-95252797D01*
X198623444Y-95268414D01*
X198719951Y-95457820D01*
X198844890Y-95629786D01*
X198995209Y-95780105D01*
X198995214Y-95780109D01*
X199159793Y-95899682D01*
X199202459Y-95955011D01*
X199208438Y-96024625D01*
X199175833Y-96086420D01*
X199159793Y-96100318D01*
X198995214Y-96219890D01*
X198995209Y-96219894D01*
X198844892Y-96370211D01*
X198788097Y-96448385D01*
X198732767Y-96491051D01*
X198687779Y-96499500D01*
X198137229Y-96499500D01*
X198070190Y-96479815D01*
X198049548Y-96463181D01*
X197100320Y-95513951D01*
X197100289Y-95513922D01*
X197038416Y-95452049D01*
X195923421Y-94337052D01*
X195923420Y-94337051D01*
X195913030Y-94330109D01*
X195875271Y-94304879D01*
X195811241Y-94262096D01*
X195811218Y-94262081D01*
X195811173Y-94262051D01*
X195800495Y-94254916D01*
X195800493Y-94254915D01*
X195800490Y-94254913D01*
X195663917Y-94198343D01*
X195663907Y-94198340D01*
X195518920Y-94169500D01*
X195518918Y-94169500D01*
X193437221Y-94169500D01*
X193370182Y-94149815D01*
X193336903Y-94118385D01*
X193280107Y-94040211D01*
X193129786Y-93889890D01*
X192957820Y-93764951D01*
X192768414Y-93668444D01*
X192768413Y-93668443D01*
X192768412Y-93668443D01*
X192566243Y-93602754D01*
X192566241Y-93602753D01*
X192566240Y-93602753D01*
X192404957Y-93577208D01*
X192356287Y-93569500D01*
X192143713Y-93569500D01*
X192095042Y-93577208D01*
X191933760Y-93602753D01*
X191731585Y-93668444D01*
X191542179Y-93764951D01*
X191370213Y-93889890D01*
X191219892Y-94040211D01*
X191163097Y-94118385D01*
X191158765Y-94121725D01*
X191156492Y-94126703D01*
X191131389Y-94142835D01*
X191107767Y-94161051D01*
X191101095Y-94162303D01*
X191097714Y-94164477D01*
X191062779Y-94169500D01*
X190897221Y-94169500D01*
X190830182Y-94149815D01*
X190796903Y-94118385D01*
X190740107Y-94040211D01*
X190589786Y-93889890D01*
X190417820Y-93764951D01*
X190228414Y-93668444D01*
X190228413Y-93668443D01*
X190228412Y-93668443D01*
X190026243Y-93602754D01*
X190026241Y-93602753D01*
X190026240Y-93602753D01*
X189864957Y-93577208D01*
X189816287Y-93569500D01*
X189603713Y-93569500D01*
X189555042Y-93577208D01*
X189393760Y-93602753D01*
X189191585Y-93668444D01*
X189002179Y-93764951D01*
X188830213Y-93889890D01*
X188679890Y-94040213D01*
X188554951Y-94212179D01*
X188458444Y-94401585D01*
X188392753Y-94603760D01*
X188378306Y-94694975D01*
X188359500Y-94813713D01*
X188359500Y-95026287D01*
X188369534Y-95089644D01*
X188386811Y-95198724D01*
X188392754Y-95236243D01*
X188458013Y-95437090D01*
X188458444Y-95438414D01*
X188554951Y-95627820D01*
X188679890Y-95799786D01*
X188830213Y-95950109D01*
X189002182Y-96075050D01*
X189010946Y-96079516D01*
X189061742Y-96127491D01*
X189078536Y-96195312D01*
X189055998Y-96261447D01*
X189010946Y-96300484D01*
X189002182Y-96304949D01*
X188830213Y-96429890D01*
X188679890Y-96580213D01*
X188554951Y-96752179D01*
X188458444Y-96941585D01*
X188392753Y-97143760D01*
X188381182Y-97216819D01*
X188359500Y-97353713D01*
X188359500Y-97566287D01*
X188392754Y-97776243D01*
X188456248Y-97971658D01*
X188458444Y-97978414D01*
X188554951Y-98167820D01*
X188679890Y-98339786D01*
X188830213Y-98490109D01*
X189002182Y-98615050D01*
X189010946Y-98619516D01*
X189061742Y-98667491D01*
X189078536Y-98735312D01*
X189055998Y-98801447D01*
X189010946Y-98840484D01*
X189002182Y-98844949D01*
X188830213Y-98969890D01*
X188679890Y-99120213D01*
X188554951Y-99292179D01*
X188458444Y-99481585D01*
X188392753Y-99683760D01*
X188359500Y-99893713D01*
X188359500Y-100106286D01*
X188392753Y-100316239D01*
X188392753Y-100316241D01*
X188392754Y-100316243D01*
X188413539Y-100380213D01*
X188458444Y-100518414D01*
X188554951Y-100707820D01*
X188679890Y-100879786D01*
X188830213Y-101030109D01*
X189002179Y-101155048D01*
X189002181Y-101155049D01*
X189002184Y-101155051D01*
X189011493Y-101159794D01*
X189062290Y-101207766D01*
X189079087Y-101275587D01*
X189056552Y-101341722D01*
X189011505Y-101380760D01*
X189002446Y-101385376D01*
X189002440Y-101385380D01*
X188948282Y-101424727D01*
X188948282Y-101424728D01*
X189580591Y-102057037D01*
X189517007Y-102074075D01*
X189402993Y-102139901D01*
X189309901Y-102232993D01*
X189244075Y-102347007D01*
X189227037Y-102410591D01*
X188594728Y-101778282D01*
X188594727Y-101778282D01*
X188555380Y-101832439D01*
X188458904Y-102021782D01*
X188393242Y-102223869D01*
X188393242Y-102223872D01*
X188360000Y-102433753D01*
X188360000Y-102646246D01*
X188393242Y-102856127D01*
X188393242Y-102856130D01*
X188458904Y-103058217D01*
X188555375Y-103247550D01*
X188594728Y-103301716D01*
X189227037Y-102669408D01*
X189244075Y-102732993D01*
X189309901Y-102847007D01*
X189402993Y-102940099D01*
X189517007Y-103005925D01*
X189580591Y-103022962D01*
X188979971Y-103623581D01*
X189058711Y-103740895D01*
X189059920Y-103744729D01*
X189062844Y-103747491D01*
X189070343Y-103777778D01*
X189079727Y-103807529D01*
X189078671Y-103811408D01*
X189079638Y-103815312D01*
X189069573Y-103844844D01*
X189061383Y-103874947D01*
X189058397Y-103877640D01*
X189057100Y-103881447D01*
X189012051Y-103920483D01*
X189002440Y-103925380D01*
X188948282Y-103964727D01*
X188948282Y-103964728D01*
X189580591Y-104597037D01*
X189517007Y-104614075D01*
X189402993Y-104679901D01*
X189309901Y-104772993D01*
X189244075Y-104887007D01*
X189227037Y-104950591D01*
X188594728Y-104318282D01*
X188594727Y-104318282D01*
X188555380Y-104372439D01*
X188458904Y-104561782D01*
X188393242Y-104763869D01*
X188393242Y-104763872D01*
X188360000Y-104973753D01*
X188360000Y-105186246D01*
X188393242Y-105396127D01*
X188393242Y-105396130D01*
X188458904Y-105598217D01*
X188555375Y-105787550D01*
X188594728Y-105841716D01*
X189227037Y-105209408D01*
X189244075Y-105272993D01*
X189309901Y-105387007D01*
X189402993Y-105480099D01*
X189517007Y-105545925D01*
X189580590Y-105562962D01*
X188948282Y-106195269D01*
X188948282Y-106195270D01*
X189002449Y-106234624D01*
X189191782Y-106331095D01*
X189393870Y-106396757D01*
X189603754Y-106430000D01*
X189816246Y-106430000D01*
X190026127Y-106396757D01*
X190026130Y-106396757D01*
X190228217Y-106331095D01*
X190417554Y-106234622D01*
X190471716Y-106195270D01*
X190471717Y-106195270D01*
X189839408Y-105562962D01*
X189902993Y-105545925D01*
X190017007Y-105480099D01*
X190110099Y-105387007D01*
X190175925Y-105272993D01*
X190192962Y-105209408D01*
X190829253Y-105845700D01*
X190882745Y-105856937D01*
X190932503Y-105905988D01*
X190941805Y-105927187D01*
X190965642Y-105999121D01*
X190965643Y-105999124D01*
X191057684Y-106148345D01*
X191181654Y-106272315D01*
X191330875Y-106364356D01*
X191330880Y-106364358D01*
X191497302Y-106419505D01*
X191497309Y-106419506D01*
X191600019Y-106429999D01*
X191999999Y-106429999D01*
X192000000Y-106429998D01*
X192000000Y-105513012D01*
X192057007Y-105545925D01*
X192184174Y-105580000D01*
X192315826Y-105580000D01*
X192442993Y-105545925D01*
X192500000Y-105513012D01*
X192500000Y-106429999D01*
X192899972Y-106429999D01*
X192899986Y-106429998D01*
X193002697Y-106419505D01*
X193169119Y-106364358D01*
X193169124Y-106364356D01*
X193318345Y-106272315D01*
X193442315Y-106148345D01*
X193534356Y-105999124D01*
X193534358Y-105999119D01*
X193589505Y-105832697D01*
X193589506Y-105832690D01*
X193599999Y-105729986D01*
X193600000Y-105729973D01*
X193600000Y-105330000D01*
X192683012Y-105330000D01*
X192715925Y-105272993D01*
X192750000Y-105145826D01*
X192750000Y-105014174D01*
X192715925Y-104887007D01*
X192683012Y-104830000D01*
X193599999Y-104830000D01*
X193599999Y-104430028D01*
X193599998Y-104430013D01*
X193589505Y-104327302D01*
X193534358Y-104160880D01*
X193534356Y-104160875D01*
X193442315Y-104011654D01*
X193318345Y-103887684D01*
X193169124Y-103795643D01*
X193169119Y-103795641D01*
X193097188Y-103771806D01*
X193039743Y-103732034D01*
X193012920Y-103667518D01*
X193012752Y-103656305D01*
X192379408Y-103022962D01*
X192442993Y-103005925D01*
X192557007Y-102940099D01*
X192650099Y-102847007D01*
X192715925Y-102732993D01*
X192732962Y-102669408D01*
X193365270Y-103301717D01*
X193365270Y-103301716D01*
X193404622Y-103247554D01*
X193501095Y-103058217D01*
X193566757Y-102856130D01*
X193566757Y-102856127D01*
X193600000Y-102646246D01*
X193600000Y-102433753D01*
X193566757Y-102223872D01*
X193566757Y-102223869D01*
X193501095Y-102021782D01*
X193404624Y-101832449D01*
X193365270Y-101778282D01*
X193365269Y-101778282D01*
X192732962Y-102410590D01*
X192715925Y-102347007D01*
X192650099Y-102232993D01*
X192557007Y-102139901D01*
X192442993Y-102074075D01*
X192379409Y-102057037D01*
X193011716Y-101424728D01*
X192957547Y-101385373D01*
X192957547Y-101385372D01*
X192948500Y-101380763D01*
X192897706Y-101332788D01*
X192880912Y-101264966D01*
X192903451Y-101198832D01*
X192948508Y-101159793D01*
X192957816Y-101155051D01*
X193037678Y-101097028D01*
X193129786Y-101030109D01*
X193129788Y-101030106D01*
X193129792Y-101030104D01*
X193280104Y-100879792D01*
X193280106Y-100879788D01*
X193280109Y-100879786D01*
X193405048Y-100707820D01*
X193405047Y-100707820D01*
X193405051Y-100707816D01*
X193501557Y-100518412D01*
X193567246Y-100316243D01*
X193570311Y-100296892D01*
X193600240Y-100233758D01*
X193659551Y-100196826D01*
X193729414Y-100197824D01*
X193780465Y-100228609D01*
X194088181Y-100536325D01*
X194121666Y-100597648D01*
X194124500Y-100624006D01*
X194124500Y-105261233D01*
X194158143Y-105430366D01*
X194158146Y-105430378D01*
X194224138Y-105589698D01*
X194224145Y-105589711D01*
X194319954Y-105733098D01*
X194319957Y-105733102D01*
X197826897Y-109240042D01*
X197826901Y-109240045D01*
X197970288Y-109335854D01*
X197970301Y-109335861D01*
X198121314Y-109398412D01*
X198129626Y-109401855D01*
X198298258Y-109435398D01*
X198298766Y-109435499D01*
X198298769Y-109435500D01*
X198298771Y-109435500D01*
X198471229Y-109435500D01*
X198649242Y-109435500D01*
X198716281Y-109455185D01*
X198736923Y-109471819D01*
X198855209Y-109590105D01*
X198855214Y-109590109D01*
X199019793Y-109709682D01*
X199062459Y-109765011D01*
X199068438Y-109834625D01*
X199035833Y-109896420D01*
X199019793Y-109910318D01*
X198855214Y-110029890D01*
X198855209Y-110029894D01*
X198704890Y-110180213D01*
X198579951Y-110352179D01*
X198483444Y-110541585D01*
X198417753Y-110743760D01*
X198402705Y-110838771D01*
X198384500Y-110953713D01*
X198384500Y-111166287D01*
X198391133Y-111208165D01*
X198409920Y-111326785D01*
X198417754Y-111376243D01*
X198482503Y-111575520D01*
X198483444Y-111578414D01*
X198579951Y-111767820D01*
X198704890Y-111939786D01*
X198855209Y-112090105D01*
X198855214Y-112090109D01*
X199019793Y-112209682D01*
X199062459Y-112265011D01*
X199068438Y-112334625D01*
X199035833Y-112396420D01*
X199019793Y-112410318D01*
X198855214Y-112529890D01*
X198855209Y-112529894D01*
X198704890Y-112680213D01*
X198579951Y-112852179D01*
X198483444Y-113041585D01*
X198417753Y-113243760D01*
X198384500Y-113453713D01*
X198384500Y-113666286D01*
X198405387Y-113798165D01*
X198417754Y-113876243D01*
X198455189Y-113991457D01*
X198483444Y-114078414D01*
X198579951Y-114267820D01*
X198704890Y-114439786D01*
X198855213Y-114590109D01*
X199027179Y-114715048D01*
X199027181Y-114715049D01*
X199027184Y-114715051D01*
X199216588Y-114811557D01*
X199418757Y-114877246D01*
X199628713Y-114910500D01*
X199628714Y-114910500D01*
X199911994Y-114910500D01*
X199979033Y-114930185D01*
X200024788Y-114982989D01*
X200034732Y-115052147D01*
X200005707Y-115115703D01*
X199999675Y-115122181D01*
X199803675Y-115318181D01*
X199742352Y-115351666D01*
X199715994Y-115354500D01*
X195694006Y-115354500D01*
X195626967Y-115334815D01*
X195606325Y-115318181D01*
X187011819Y-106723675D01*
X186978334Y-106662352D01*
X186975500Y-106635994D01*
X186975500Y-93663768D01*
X186975499Y-93663766D01*
X186963363Y-93602753D01*
X186941855Y-93494626D01*
X186941853Y-93494621D01*
X186875861Y-93335301D01*
X186875854Y-93335288D01*
X186780046Y-93191902D01*
X186737760Y-93149616D01*
X186658099Y-93069955D01*
X185797232Y-92209088D01*
X184908102Y-91319957D01*
X184908098Y-91319954D01*
X184764711Y-91224145D01*
X184764698Y-91224138D01*
X184605378Y-91158146D01*
X184605366Y-91158143D01*
X184436232Y-91124500D01*
X184436229Y-91124500D01*
X184235758Y-91124500D01*
X184168719Y-91104815D01*
X184148077Y-91088181D01*
X184029786Y-90969890D01*
X183857820Y-90844951D01*
X183668414Y-90748444D01*
X183668413Y-90748443D01*
X183668412Y-90748443D01*
X183466243Y-90682754D01*
X183466241Y-90682753D01*
X183466240Y-90682753D01*
X183304957Y-90657208D01*
X183256287Y-90649500D01*
X182743713Y-90649500D01*
X182695042Y-90657208D01*
X182533760Y-90682753D01*
X182331585Y-90748444D01*
X182142179Y-90844951D01*
X181970213Y-90969890D01*
X181819890Y-91120213D01*
X181694951Y-91292179D01*
X181598444Y-91481585D01*
X181532753Y-91683760D01*
X181502986Y-91871706D01*
X181499500Y-91893713D01*
X181499500Y-92106287D01*
X181504860Y-92140126D01*
X181531367Y-92307491D01*
X181532754Y-92316243D01*
X181587570Y-92484949D01*
X181598444Y-92518414D01*
X181694951Y-92707820D01*
X181819890Y-92879786D01*
X181958705Y-93018601D01*
X181992190Y-93079924D01*
X181987206Y-93149616D01*
X181945334Y-93205549D01*
X181936121Y-93211821D01*
X181781342Y-93307289D01*
X181657289Y-93431342D01*
X181565187Y-93580663D01*
X181565185Y-93580668D01*
X181553398Y-93616239D01*
X181510001Y-93747203D01*
X181510001Y-93747204D01*
X181510000Y-93747204D01*
X181499500Y-93849983D01*
X181499500Y-95150001D01*
X181499501Y-95150018D01*
X181510000Y-95252796D01*
X181510001Y-95252799D01*
X181565185Y-95419331D01*
X181565187Y-95419336D01*
X181581951Y-95446514D01*
X181657288Y-95568656D01*
X181781344Y-95692712D01*
X181930666Y-95784814D01*
X182097203Y-95839999D01*
X182199991Y-95850500D01*
X183800008Y-95850499D01*
X183902797Y-95839999D01*
X184069334Y-95784814D01*
X184218656Y-95692712D01*
X184342712Y-95568656D01*
X184434814Y-95419334D01*
X184489999Y-95252797D01*
X184500500Y-95150009D01*
X184500499Y-93849992D01*
X184499778Y-93842938D01*
X184489999Y-93747203D01*
X184480950Y-93719896D01*
X184471667Y-93691883D01*
X184469266Y-93622056D01*
X184504997Y-93562014D01*
X184567518Y-93530821D01*
X184636977Y-93538381D01*
X184677055Y-93565199D01*
X185188181Y-94076325D01*
X185221666Y-94137648D01*
X185224500Y-94164006D01*
X185224500Y-107140895D01*
X185204815Y-107207934D01*
X185152011Y-107253689D01*
X185082853Y-107263633D01*
X185038500Y-107248282D01*
X184854341Y-107141958D01*
X184854331Y-107141953D01*
X184612069Y-107041605D01*
X184612062Y-107041603D01*
X184612060Y-107041602D01*
X184358757Y-106973730D01*
X184283113Y-106963771D01*
X184098768Y-106939500D01*
X184098761Y-106939500D01*
X183836521Y-106939500D01*
X183836513Y-106939500D01*
X183605413Y-106969926D01*
X183576525Y-106973730D01*
X183500880Y-106993999D01*
X183323222Y-107041602D01*
X183323212Y-107041605D01*
X183080950Y-107141953D01*
X183080940Y-107141958D01*
X182853837Y-107273075D01*
X182645789Y-107432718D01*
X182460359Y-107618148D01*
X182300716Y-107826196D01*
X182169599Y-108053299D01*
X182169594Y-108053309D01*
X182069246Y-108295571D01*
X182069243Y-108295581D01*
X182001371Y-108548884D01*
X181997567Y-108577772D01*
X181967141Y-108808872D01*
X181967141Y-109071127D01*
X181989381Y-109240045D01*
X182001371Y-109331116D01*
X182038193Y-109468538D01*
X182069243Y-109584418D01*
X182069246Y-109584428D01*
X182169594Y-109826690D01*
X182169599Y-109826700D01*
X182300716Y-110053803D01*
X182460359Y-110261851D01*
X182460367Y-110261860D01*
X182645781Y-110447274D01*
X182645789Y-110447281D01*
X182853837Y-110606924D01*
X183080940Y-110738041D01*
X183080950Y-110738046D01*
X183323212Y-110838394D01*
X183323222Y-110838398D01*
X183576525Y-110906270D01*
X183836521Y-110940500D01*
X183836528Y-110940500D01*
X184098754Y-110940500D01*
X184098761Y-110940500D01*
X184358757Y-110906270D01*
X184612060Y-110838398D01*
X184854338Y-110738043D01*
X185081444Y-110606924D01*
X185289492Y-110447282D01*
X185289496Y-110447277D01*
X185289501Y-110447274D01*
X185474915Y-110261860D01*
X185474918Y-110261855D01*
X185474923Y-110261851D01*
X185634565Y-110053803D01*
X185765684Y-109826697D01*
X185785672Y-109778443D01*
X185866035Y-109584428D01*
X185866039Y-109584419D01*
X185933911Y-109331116D01*
X185968141Y-109071120D01*
X185968141Y-108808880D01*
X185933911Y-108548884D01*
X185897454Y-108412824D01*
X185899117Y-108342979D01*
X185938279Y-108285116D01*
X186002507Y-108257612D01*
X186071410Y-108269198D01*
X186104910Y-108293054D01*
X194599955Y-116788099D01*
X194721898Y-116910042D01*
X194721902Y-116910046D01*
X194865288Y-117005854D01*
X194865295Y-117005858D01*
X194931291Y-117033194D01*
X194931292Y-117033195D01*
X194964290Y-117046863D01*
X195024627Y-117071856D01*
X195160127Y-117098807D01*
X195173479Y-117101463D01*
X195193768Y-117105500D01*
X195193771Y-117105500D01*
X200216231Y-117105500D01*
X200216232Y-117105499D01*
X200385374Y-117071855D01*
X200544705Y-117005858D01*
X200688099Y-116910045D01*
X202473375Y-115124768D01*
X202534696Y-115091285D01*
X202536863Y-115090834D01*
X202589955Y-115080272D01*
X202731835Y-115052051D01*
X202913914Y-114976632D01*
X203077782Y-114867139D01*
X203217139Y-114727782D01*
X203326632Y-114563914D01*
X203402051Y-114381835D01*
X203440500Y-114188541D01*
X203440500Y-113991459D01*
X203428477Y-113931016D01*
X203434704Y-113861426D01*
X203477566Y-113806248D01*
X203543455Y-113783003D01*
X203611453Y-113799070D01*
X203637775Y-113819144D01*
X207046452Y-117227819D01*
X207079937Y-117289142D01*
X207074953Y-117358834D01*
X207033081Y-117414767D01*
X206967617Y-117439184D01*
X206958771Y-117439500D01*
X182983676Y-117439500D01*
X182916637Y-117419815D01*
X182895995Y-117403181D01*
X180261819Y-114769005D01*
X180228334Y-114707682D01*
X180225500Y-114681324D01*
X180225500Y-100393713D01*
X181499500Y-100393713D01*
X181499500Y-100606287D01*
X181503024Y-100628536D01*
X181526969Y-100779723D01*
X181532754Y-100816243D01*
X181592816Y-101001095D01*
X181598444Y-101018414D01*
X181694951Y-101207820D01*
X181819890Y-101379786D01*
X181958705Y-101518601D01*
X181992190Y-101579924D01*
X181987206Y-101649616D01*
X181945334Y-101705549D01*
X181936121Y-101711821D01*
X181781342Y-101807289D01*
X181657289Y-101931342D01*
X181565187Y-102080663D01*
X181565185Y-102080668D01*
X181545557Y-102139901D01*
X181510001Y-102247203D01*
X181510001Y-102247204D01*
X181510000Y-102247204D01*
X181499500Y-102349983D01*
X181499500Y-103650001D01*
X181499501Y-103650018D01*
X181510000Y-103752796D01*
X181510001Y-103752799D01*
X181565185Y-103919331D01*
X181565187Y-103919336D01*
X181568912Y-103925375D01*
X181657288Y-104068656D01*
X181781344Y-104192712D01*
X181930666Y-104284814D01*
X182097203Y-104339999D01*
X182199991Y-104350500D01*
X183800008Y-104350499D01*
X183902797Y-104339999D01*
X184069334Y-104284814D01*
X184218656Y-104192712D01*
X184342712Y-104068656D01*
X184434814Y-103919334D01*
X184489999Y-103752797D01*
X184500500Y-103650009D01*
X184500499Y-102349992D01*
X184489999Y-102247203D01*
X184434814Y-102080666D01*
X184342712Y-101931344D01*
X184218656Y-101807288D01*
X184069334Y-101715186D01*
X184069333Y-101715185D01*
X184063878Y-101711821D01*
X184017154Y-101659873D01*
X184005931Y-101590910D01*
X184033775Y-101526828D01*
X184041272Y-101518623D01*
X184180104Y-101379792D01*
X184305051Y-101207816D01*
X184401557Y-101018412D01*
X184467246Y-100816243D01*
X184500500Y-100606287D01*
X184500500Y-100393713D01*
X184467246Y-100183757D01*
X184401557Y-99981588D01*
X184305051Y-99792184D01*
X184305049Y-99792181D01*
X184305048Y-99792179D01*
X184180109Y-99620213D01*
X184029786Y-99469890D01*
X183857820Y-99344951D01*
X183668414Y-99248444D01*
X183668413Y-99248443D01*
X183668412Y-99248443D01*
X183466243Y-99182754D01*
X183466241Y-99182753D01*
X183466240Y-99182753D01*
X183304957Y-99157208D01*
X183256287Y-99149500D01*
X182743713Y-99149500D01*
X182695042Y-99157208D01*
X182533760Y-99182753D01*
X182331585Y-99248444D01*
X182142179Y-99344951D01*
X181970213Y-99469890D01*
X181819890Y-99620213D01*
X181694951Y-99792179D01*
X181598444Y-99981585D01*
X181532753Y-100183760D01*
X181511770Y-100316243D01*
X181499500Y-100393713D01*
X180225500Y-100393713D01*
X180225500Y-85318676D01*
X180245185Y-85251637D01*
X180261819Y-85230995D01*
X180563942Y-84928872D01*
X181967141Y-84928872D01*
X181967141Y-85191127D01*
X181975108Y-85251637D01*
X182001371Y-85451116D01*
X182022819Y-85531161D01*
X182069243Y-85704418D01*
X182069246Y-85704428D01*
X182169594Y-85946690D01*
X182169599Y-85946700D01*
X182300716Y-86173803D01*
X182460359Y-86381851D01*
X182460367Y-86381860D01*
X182645781Y-86567274D01*
X182645789Y-86567281D01*
X182853837Y-86726924D01*
X183080940Y-86858041D01*
X183080950Y-86858046D01*
X183323212Y-86958394D01*
X183323222Y-86958398D01*
X183576525Y-87026270D01*
X183836521Y-87060500D01*
X183836528Y-87060500D01*
X184098754Y-87060500D01*
X184098761Y-87060500D01*
X184358757Y-87026270D01*
X184612060Y-86958398D01*
X184854338Y-86858043D01*
X185081444Y-86726924D01*
X185289492Y-86567282D01*
X185289496Y-86567277D01*
X185289501Y-86567274D01*
X185474915Y-86381860D01*
X185474918Y-86381855D01*
X185474923Y-86381851D01*
X185634565Y-86173803D01*
X185765684Y-85946697D01*
X185866039Y-85704419D01*
X185933911Y-85451116D01*
X185968141Y-85191120D01*
X185968141Y-84928880D01*
X185968140Y-84928872D01*
X214031859Y-84928872D01*
X214031859Y-85191127D01*
X214039826Y-85251637D01*
X214066089Y-85451116D01*
X214087537Y-85531161D01*
X214133961Y-85704418D01*
X214133964Y-85704428D01*
X214234312Y-85946690D01*
X214234317Y-85946700D01*
X214365434Y-86173803D01*
X214525077Y-86381851D01*
X214525085Y-86381860D01*
X214710499Y-86567274D01*
X214710507Y-86567281D01*
X214918555Y-86726924D01*
X215145658Y-86858041D01*
X215145668Y-86858046D01*
X215387930Y-86958394D01*
X215387940Y-86958398D01*
X215641243Y-87026270D01*
X215901239Y-87060500D01*
X215901246Y-87060500D01*
X216163472Y-87060500D01*
X216163479Y-87060500D01*
X216423475Y-87026270D01*
X216676778Y-86958398D01*
X216919056Y-86858043D01*
X217146162Y-86726924D01*
X217354210Y-86567282D01*
X217354214Y-86567277D01*
X217354219Y-86567274D01*
X217539633Y-86381860D01*
X217539636Y-86381855D01*
X217539641Y-86381851D01*
X217699283Y-86173803D01*
X217830402Y-85946697D01*
X217930757Y-85704419D01*
X217998629Y-85451116D01*
X218032859Y-85191120D01*
X218032859Y-84928880D01*
X217998629Y-84668884D01*
X217930757Y-84415581D01*
X217832563Y-84178520D01*
X217830405Y-84173309D01*
X217830400Y-84173299D01*
X217699283Y-83946196D01*
X217539640Y-83738148D01*
X217539633Y-83738140D01*
X217354219Y-83552726D01*
X217354210Y-83552718D01*
X217146162Y-83393075D01*
X216919059Y-83261958D01*
X216919049Y-83261953D01*
X216676787Y-83161605D01*
X216676780Y-83161603D01*
X216676778Y-83161602D01*
X216423475Y-83093730D01*
X216365698Y-83086123D01*
X216163486Y-83059500D01*
X216163479Y-83059500D01*
X215901239Y-83059500D01*
X215901231Y-83059500D01*
X215670131Y-83089926D01*
X215641243Y-83093730D01*
X215387940Y-83161602D01*
X215387930Y-83161605D01*
X215145668Y-83261953D01*
X215145658Y-83261958D01*
X214918555Y-83393075D01*
X214710507Y-83552718D01*
X214525077Y-83738148D01*
X214365434Y-83946196D01*
X214234317Y-84173299D01*
X214234312Y-84173309D01*
X214133964Y-84415571D01*
X214133961Y-84415581D01*
X214068604Y-84659500D01*
X214066089Y-84668885D01*
X214031859Y-84928872D01*
X185968140Y-84928872D01*
X185933911Y-84668884D01*
X185866039Y-84415581D01*
X185767845Y-84178520D01*
X185765687Y-84173309D01*
X185765682Y-84173299D01*
X185634565Y-83946196D01*
X185474922Y-83738148D01*
X185474915Y-83738140D01*
X185289501Y-83552726D01*
X185289492Y-83552718D01*
X185081444Y-83393075D01*
X184854341Y-83261958D01*
X184854331Y-83261953D01*
X184612069Y-83161605D01*
X184612062Y-83161603D01*
X184612060Y-83161602D01*
X184358757Y-83093730D01*
X184300980Y-83086123D01*
X184098768Y-83059500D01*
X184098761Y-83059500D01*
X183836521Y-83059500D01*
X183836513Y-83059500D01*
X183605413Y-83089926D01*
X183576525Y-83093730D01*
X183323222Y-83161602D01*
X183323212Y-83161605D01*
X183080950Y-83261953D01*
X183080940Y-83261958D01*
X182853837Y-83393075D01*
X182645789Y-83552718D01*
X182460359Y-83738148D01*
X182300716Y-83946196D01*
X182169599Y-84173299D01*
X182169594Y-84173309D01*
X182069246Y-84415571D01*
X182069243Y-84415581D01*
X182003886Y-84659500D01*
X182001371Y-84668885D01*
X181967141Y-84928872D01*
X180563942Y-84928872D01*
X182895995Y-82596819D01*
X182957318Y-82563334D01*
X182983676Y-82560500D01*
X217016324Y-82560500D01*
X217083363Y-82580185D01*
G37*
%TD.AperFunction*%
%TA.AperFunction,Conductor*%
G36*
X219693834Y-113520047D02*
G01*
X219749767Y-113561919D01*
X219774184Y-113627383D01*
X219774500Y-113636229D01*
X219774500Y-114681324D01*
X219754815Y-114748363D01*
X219738181Y-114769005D01*
X217104005Y-117403181D01*
X217042682Y-117436666D01*
X217016324Y-117439500D01*
X215971230Y-117439500D01*
X215904191Y-117419815D01*
X215858436Y-117367011D01*
X215848492Y-117297853D01*
X215877517Y-117234297D01*
X215883549Y-117227819D01*
X219562819Y-113548548D01*
X219624142Y-113515063D01*
X219693834Y-113520047D01*
G37*
%TD.AperFunction*%
%TA.AperFunction,Conductor*%
G36*
X210581257Y-97200185D02*
G01*
X210601899Y-97216819D01*
X212187182Y-98802102D01*
X212220667Y-98863425D01*
X212223501Y-98889783D01*
X212223501Y-109885045D01*
X212260023Y-110068654D01*
X212261948Y-110078334D01*
X212261949Y-110078336D01*
X212337365Y-110260408D01*
X212337372Y-110260421D01*
X212446860Y-110424281D01*
X212446861Y-110424282D01*
X212446862Y-110424283D01*
X212586219Y-110563640D01*
X212586220Y-110563640D01*
X212593287Y-110570707D01*
X212593286Y-110570707D01*
X212593290Y-110570710D01*
X214299715Y-112277137D01*
X214299719Y-112277140D01*
X214463579Y-112386628D01*
X214463588Y-112386633D01*
X214487216Y-112396420D01*
X214645665Y-112462052D01*
X214838955Y-112500500D01*
X214838958Y-112500501D01*
X214838960Y-112500501D01*
X214889801Y-112500501D01*
X214956840Y-112520186D01*
X214969379Y-112529502D01*
X215142179Y-112655048D01*
X215142181Y-112655049D01*
X215142184Y-112655051D01*
X215331588Y-112751557D01*
X215533757Y-112817246D01*
X215743713Y-112850500D01*
X215743714Y-112850500D01*
X216256286Y-112850500D01*
X216256287Y-112850500D01*
X216466243Y-112817246D01*
X216668412Y-112751557D01*
X216857816Y-112655051D01*
X216909129Y-112617770D01*
X217029786Y-112530109D01*
X217029788Y-112530106D01*
X217029792Y-112530104D01*
X217180104Y-112379792D01*
X217180106Y-112379788D01*
X217180109Y-112379786D01*
X217289086Y-112229789D01*
X217305051Y-112207816D01*
X217401557Y-112018412D01*
X217467246Y-111816243D01*
X217500500Y-111606287D01*
X217500500Y-111393713D01*
X217467246Y-111183757D01*
X217401557Y-110981588D01*
X217305051Y-110792184D01*
X217305049Y-110792181D01*
X217305048Y-110792179D01*
X217180109Y-110620213D01*
X217041294Y-110481398D01*
X217007809Y-110420075D01*
X217012793Y-110350383D01*
X217054665Y-110294450D01*
X217063879Y-110288178D01*
X217069331Y-110284814D01*
X217069334Y-110284814D01*
X217218656Y-110192712D01*
X217342712Y-110068656D01*
X217434814Y-109919334D01*
X217489999Y-109752797D01*
X217500500Y-109650009D01*
X217500499Y-108349992D01*
X217489999Y-108247203D01*
X217434814Y-108080666D01*
X217342712Y-107931344D01*
X217218656Y-107807288D01*
X217085166Y-107724951D01*
X217069336Y-107715187D01*
X217069331Y-107715185D01*
X217067862Y-107714698D01*
X216902797Y-107660001D01*
X216902795Y-107660000D01*
X216800016Y-107649500D01*
X216800009Y-107649500D01*
X216115783Y-107649500D01*
X216048744Y-107629815D01*
X216028102Y-107613181D01*
X215461819Y-107046898D01*
X215428334Y-106985575D01*
X215425500Y-106959217D01*
X215425500Y-105645323D01*
X215445185Y-105578284D01*
X215497989Y-105532529D01*
X215567147Y-105522585D01*
X215630703Y-105551610D01*
X215659985Y-105589028D01*
X215720379Y-105707557D01*
X215845272Y-105879459D01*
X215845276Y-105879464D01*
X215995535Y-106029723D01*
X215995540Y-106029727D01*
X216167442Y-106154620D01*
X216356782Y-106251095D01*
X216558872Y-106316757D01*
X216750000Y-106347029D01*
X216750000Y-105404145D01*
X216816657Y-105442630D01*
X216937465Y-105475000D01*
X217062535Y-105475000D01*
X217183343Y-105442630D01*
X217250000Y-105404145D01*
X217250000Y-106347028D01*
X217441127Y-106316757D01*
X217643217Y-106251095D01*
X217832557Y-106154620D01*
X218004459Y-106029727D01*
X218004464Y-106029723D01*
X218107819Y-105926369D01*
X218169142Y-105892884D01*
X218238834Y-105897868D01*
X218294767Y-105939740D01*
X218319184Y-106005204D01*
X218319500Y-106014050D01*
X218319500Y-112617770D01*
X218299815Y-112684809D01*
X218283181Y-112705451D01*
X214625451Y-116363181D01*
X214564128Y-116396666D01*
X214537770Y-116399500D01*
X212109143Y-116399500D01*
X212042104Y-116379815D01*
X211996349Y-116327011D01*
X211986405Y-116257853D01*
X212006041Y-116206609D01*
X212100854Y-116064711D01*
X212100854Y-116064710D01*
X212100858Y-116064705D01*
X212166855Y-115905374D01*
X212200500Y-115736229D01*
X212200500Y-115563771D01*
X212200500Y-110838771D01*
X212200500Y-110838768D01*
X212200499Y-110838766D01*
X212187167Y-110771742D01*
X212166855Y-110669626D01*
X212166853Y-110669621D01*
X212100861Y-110510301D01*
X212100854Y-110510288D01*
X212005046Y-110366902D01*
X211973394Y-110335250D01*
X211883099Y-110244955D01*
X210676819Y-109038675D01*
X210643334Y-108977352D01*
X210640500Y-108950994D01*
X210640500Y-108773713D01*
X210607246Y-108563760D01*
X210607246Y-108563757D01*
X210541557Y-108361588D01*
X210445051Y-108172184D01*
X210445049Y-108172181D01*
X210445048Y-108172179D01*
X210320109Y-108000213D01*
X210169786Y-107849890D01*
X209997820Y-107724951D01*
X209997115Y-107724591D01*
X209989054Y-107720485D01*
X209938259Y-107672512D01*
X209921463Y-107604692D01*
X209943999Y-107538556D01*
X209989054Y-107499515D01*
X209997816Y-107495051D01*
X210083611Y-107432718D01*
X210169786Y-107370109D01*
X210169788Y-107370106D01*
X210169792Y-107370104D01*
X210320104Y-107219792D01*
X210320106Y-107219788D01*
X210320109Y-107219786D01*
X210445048Y-107047820D01*
X210445047Y-107047820D01*
X210445051Y-107047816D01*
X210541557Y-106858412D01*
X210607246Y-106656243D01*
X210640500Y-106446287D01*
X210640500Y-106233713D01*
X210607246Y-106023757D01*
X210541557Y-105821588D01*
X210445051Y-105632184D01*
X210445049Y-105632181D01*
X210445048Y-105632179D01*
X210320109Y-105460213D01*
X210169786Y-105309890D01*
X209997820Y-105184951D01*
X209994664Y-105183343D01*
X209989054Y-105180485D01*
X209938259Y-105132512D01*
X209921463Y-105064692D01*
X209943999Y-104998556D01*
X209989054Y-104959515D01*
X209997816Y-104955051D01*
X210062315Y-104908190D01*
X210169786Y-104830109D01*
X210169788Y-104830106D01*
X210169792Y-104830104D01*
X210320104Y-104679792D01*
X210320106Y-104679788D01*
X210320109Y-104679786D01*
X210445048Y-104507820D01*
X210445047Y-104507820D01*
X210445051Y-104507816D01*
X210541557Y-104318412D01*
X210607246Y-104116243D01*
X210640500Y-103906287D01*
X210640500Y-103693713D01*
X210607246Y-103483757D01*
X210541557Y-103281588D01*
X210445051Y-103092184D01*
X210445049Y-103092181D01*
X210445048Y-103092179D01*
X210320109Y-102920213D01*
X210169786Y-102769890D01*
X209997820Y-102644951D01*
X209997115Y-102644591D01*
X209989054Y-102640485D01*
X209938259Y-102592512D01*
X209921463Y-102524692D01*
X209943999Y-102458556D01*
X209989054Y-102419515D01*
X209997816Y-102415051D01*
X210078700Y-102356286D01*
X210169786Y-102290109D01*
X210169788Y-102290106D01*
X210169792Y-102290104D01*
X210320104Y-102139792D01*
X210320106Y-102139788D01*
X210320109Y-102139786D01*
X210435049Y-101981583D01*
X210445051Y-101967816D01*
X210541557Y-101778412D01*
X210607246Y-101576243D01*
X210640500Y-101366287D01*
X210640500Y-101153713D01*
X210607246Y-100943757D01*
X210541557Y-100741588D01*
X210445051Y-100552184D01*
X210445049Y-100552181D01*
X210445048Y-100552179D01*
X210320109Y-100380213D01*
X210169786Y-100229890D01*
X209997820Y-100104951D01*
X209997115Y-100104591D01*
X209989054Y-100100485D01*
X209938259Y-100052512D01*
X209921463Y-99984692D01*
X209943999Y-99918556D01*
X209989054Y-99879515D01*
X209997816Y-99875051D01*
X210019789Y-99859086D01*
X210169786Y-99750109D01*
X210169788Y-99750106D01*
X210169792Y-99750104D01*
X210320104Y-99599792D01*
X210320106Y-99599788D01*
X210320109Y-99599786D01*
X210440650Y-99433873D01*
X210445051Y-99427816D01*
X210541557Y-99238412D01*
X210607246Y-99036243D01*
X210640500Y-98826287D01*
X210640500Y-98613713D01*
X210607246Y-98403757D01*
X210541557Y-98201588D01*
X210445051Y-98012184D01*
X210445049Y-98012181D01*
X210445048Y-98012179D01*
X210320109Y-97840213D01*
X210169786Y-97689890D01*
X209997820Y-97564951D01*
X209997115Y-97564591D01*
X209989054Y-97560485D01*
X209938259Y-97512512D01*
X209921463Y-97444692D01*
X209943999Y-97378556D01*
X209989054Y-97339515D01*
X209997816Y-97335051D01*
X210012769Y-97324186D01*
X210173734Y-97207241D01*
X210174364Y-97208108D01*
X210233419Y-97181641D01*
X210250200Y-97180500D01*
X210514218Y-97180500D01*
X210581257Y-97200185D01*
G37*
%TD.AperFunction*%
%TA.AperFunction,Conductor*%
G36*
X203113289Y-105848459D02*
G01*
X203169222Y-105890331D01*
X203184516Y-105917188D01*
X203218366Y-105998911D01*
X203218371Y-105998920D01*
X203331245Y-106167847D01*
X203329717Y-106168867D01*
X203353666Y-106225255D01*
X203354500Y-106239610D01*
X203354500Y-113290216D01*
X203334815Y-113357255D01*
X203282011Y-113403010D01*
X203212853Y-113412954D01*
X203149297Y-113383929D01*
X203142819Y-113377897D01*
X203077785Y-113312863D01*
X203077781Y-113312860D01*
X202913920Y-113203371D01*
X202913907Y-113203364D01*
X202731839Y-113127950D01*
X202731829Y-113127947D01*
X202538543Y-113089500D01*
X202538541Y-113089500D01*
X202341459Y-113089500D01*
X202341457Y-113089500D01*
X202148170Y-113127947D01*
X202148160Y-113127950D01*
X201966092Y-113203364D01*
X201966079Y-113203371D01*
X201802219Y-113312859D01*
X201662860Y-113452219D01*
X201662859Y-113452220D01*
X201655997Y-113462490D01*
X201640580Y-113481275D01*
X201547179Y-113574675D01*
X201485859Y-113608159D01*
X201416167Y-113603175D01*
X201360233Y-113561304D01*
X201335816Y-113495840D01*
X201335500Y-113486993D01*
X201335500Y-113453713D01*
X201329044Y-113412954D01*
X201302246Y-113243757D01*
X201257851Y-113107126D01*
X201255857Y-113037290D01*
X201288100Y-112981133D01*
X202683506Y-111585728D01*
X202683511Y-111585724D01*
X202693714Y-111575520D01*
X202693716Y-111575520D01*
X202805520Y-111463716D01*
X202884577Y-111326784D01*
X202916361Y-111208165D01*
X202925500Y-111174058D01*
X202925500Y-111015943D01*
X202925500Y-105985096D01*
X202933138Y-105959083D01*
X202937304Y-105932294D01*
X202942836Y-105926055D01*
X202945185Y-105918057D01*
X202961815Y-105897419D01*
X202982275Y-105876959D01*
X203043597Y-105843475D01*
X203113289Y-105848459D01*
G37*
%TD.AperFunction*%
%TA.AperFunction,Conductor*%
G36*
X205318834Y-103642914D02*
G01*
X205374767Y-103684786D01*
X205399184Y-103750250D01*
X205399500Y-103759096D01*
X205399500Y-103906287D01*
X205432754Y-104116243D01*
X205489294Y-104290255D01*
X205498444Y-104318414D01*
X205594951Y-104507820D01*
X205719890Y-104679786D01*
X205870213Y-104830109D01*
X206042182Y-104955050D01*
X206050946Y-104959516D01*
X206101742Y-105007491D01*
X206118536Y-105075312D01*
X206095998Y-105141447D01*
X206050946Y-105180484D01*
X206042182Y-105184949D01*
X205870213Y-105309890D01*
X205719890Y-105460213D01*
X205594951Y-105632179D01*
X205498444Y-105821585D01*
X205498443Y-105821587D01*
X205498443Y-105821588D01*
X205489712Y-105848459D01*
X205432753Y-106023760D01*
X205409932Y-106167847D01*
X205399500Y-106233713D01*
X205399500Y-106446287D01*
X205432754Y-106656243D01*
X205483589Y-106812697D01*
X205498444Y-106858414D01*
X205594951Y-107047820D01*
X205719890Y-107219786D01*
X205870213Y-107370109D01*
X206042182Y-107495050D01*
X206050946Y-107499516D01*
X206101742Y-107547491D01*
X206118536Y-107615312D01*
X206095998Y-107681447D01*
X206050946Y-107720484D01*
X206042182Y-107724949D01*
X205870213Y-107849890D01*
X205719890Y-108000213D01*
X205594951Y-108172179D01*
X205498444Y-108361585D01*
X205432753Y-108563760D01*
X205399500Y-108773713D01*
X205399500Y-108986286D01*
X205432754Y-109196244D01*
X205432754Y-109196247D01*
X205446491Y-109238523D01*
X205448486Y-109308364D01*
X205416241Y-109364522D01*
X205230286Y-109550478D01*
X205118481Y-109662282D01*
X205118477Y-109662287D01*
X205086887Y-109717004D01*
X205036320Y-109765220D01*
X204967713Y-109778443D01*
X204902848Y-109752475D01*
X204862320Y-109695560D01*
X204855500Y-109655004D01*
X204855500Y-106239610D01*
X204875185Y-106172571D01*
X204880228Y-106165641D01*
X204882136Y-106162784D01*
X204882139Y-106162782D01*
X204991632Y-105998914D01*
X205067051Y-105816835D01*
X205091934Y-105691742D01*
X205105500Y-105623543D01*
X205105500Y-105426456D01*
X205067052Y-105233170D01*
X205067051Y-105233169D01*
X205067051Y-105233165D01*
X205047080Y-105184951D01*
X204991635Y-105051092D01*
X204991628Y-105051079D01*
X204882139Y-104887218D01*
X204882136Y-104887214D01*
X204742785Y-104747863D01*
X204742781Y-104747860D01*
X204578920Y-104638371D01*
X204578907Y-104638364D01*
X204497188Y-104604516D01*
X204442784Y-104560676D01*
X204420719Y-104494382D01*
X204437998Y-104426682D01*
X204456955Y-104402278D01*
X205187819Y-103671415D01*
X205249142Y-103637930D01*
X205318834Y-103642914D01*
G37*
%TD.AperFunction*%
%TA.AperFunction,Conductor*%
G36*
X203318834Y-96570048D02*
G01*
X203374767Y-96611920D01*
X203399184Y-96677384D01*
X203399500Y-96686230D01*
X203399500Y-100470234D01*
X203379815Y-100537273D01*
X203378602Y-100539125D01*
X203290609Y-100670814D01*
X203290602Y-100670827D01*
X203230264Y-100816498D01*
X203230261Y-100816510D01*
X203199500Y-100971153D01*
X203199500Y-101128846D01*
X203230261Y-101283489D01*
X203230264Y-101283501D01*
X203287642Y-101422025D01*
X203295111Y-101491494D01*
X203263835Y-101553973D01*
X203260763Y-101557158D01*
X203203210Y-101614711D01*
X203115609Y-101745814D01*
X203115602Y-101745827D01*
X203055264Y-101891498D01*
X203055261Y-101891508D01*
X203028769Y-102024692D01*
X202996384Y-102086603D01*
X202935668Y-102121177D01*
X202907152Y-102124500D01*
X202665940Y-102124500D01*
X202625019Y-102135464D01*
X202625019Y-102135465D01*
X202608871Y-102139792D01*
X202513214Y-102165423D01*
X202513209Y-102165426D01*
X202376290Y-102244475D01*
X202376282Y-102244481D01*
X201419479Y-103201284D01*
X201415706Y-103207820D01*
X201386897Y-103257720D01*
X201340423Y-103338215D01*
X201299499Y-103490943D01*
X201299499Y-103490945D01*
X201299499Y-103659046D01*
X201299500Y-103659059D01*
X201299500Y-104814477D01*
X201279815Y-104881516D01*
X201227011Y-104927271D01*
X201157853Y-104937215D01*
X201094297Y-104908190D01*
X201087819Y-104902158D01*
X201053345Y-104867684D01*
X200904124Y-104775643D01*
X200904119Y-104775641D01*
X200737697Y-104720494D01*
X200737690Y-104720493D01*
X200634986Y-104710000D01*
X200110000Y-104710000D01*
X200110000Y-105655854D01*
X200043343Y-105617370D01*
X199922535Y-105585000D01*
X199797465Y-105585000D01*
X199676657Y-105617370D01*
X199610000Y-105655854D01*
X199610000Y-104710000D01*
X199085028Y-104710000D01*
X199085012Y-104710001D01*
X198982302Y-104720494D01*
X198815880Y-104775641D01*
X198815875Y-104775643D01*
X198666654Y-104867684D01*
X198542684Y-104991654D01*
X198450643Y-105140875D01*
X198450641Y-105140880D01*
X198395494Y-105307302D01*
X198395493Y-105307309D01*
X198385000Y-105410013D01*
X198385000Y-105810000D01*
X199455854Y-105810000D01*
X199417370Y-105876657D01*
X199385000Y-105997465D01*
X199385000Y-106122535D01*
X199417370Y-106243343D01*
X199455854Y-106310000D01*
X198385001Y-106310000D01*
X198385001Y-106709986D01*
X198395494Y-106812697D01*
X198450641Y-106979119D01*
X198450643Y-106979124D01*
X198542684Y-107128345D01*
X198666654Y-107252315D01*
X198821484Y-107347815D01*
X198868208Y-107399763D01*
X198879431Y-107468726D01*
X198851587Y-107532808D01*
X198844070Y-107541034D01*
X198811804Y-107573299D01*
X198750484Y-107606784D01*
X198680792Y-107601800D01*
X198636443Y-107573299D01*
X195911819Y-104848675D01*
X195878334Y-104787352D01*
X195875500Y-104760994D01*
X195875500Y-103357911D01*
X195895185Y-103290872D01*
X195947989Y-103245117D01*
X196017147Y-103235173D01*
X196068391Y-103254808D01*
X196086086Y-103266632D01*
X196086088Y-103266633D01*
X196086092Y-103266635D01*
X196268160Y-103342049D01*
X196268165Y-103342051D01*
X196268169Y-103342051D01*
X196268170Y-103342052D01*
X196461456Y-103380500D01*
X196461459Y-103380500D01*
X196658543Y-103380500D01*
X196836079Y-103345185D01*
X196851835Y-103342051D01*
X197033914Y-103266632D01*
X197197782Y-103157139D01*
X197337139Y-103017782D01*
X197446632Y-102853914D01*
X197522051Y-102671835D01*
X197537830Y-102592512D01*
X197560500Y-102478543D01*
X197560500Y-102281456D01*
X197522052Y-102088170D01*
X197522051Y-102088169D01*
X197522051Y-102088165D01*
X197495760Y-102024692D01*
X197446635Y-101906092D01*
X197446628Y-101906079D01*
X197333755Y-101737153D01*
X197335278Y-101736135D01*
X197311331Y-101679723D01*
X197310500Y-101665389D01*
X197310500Y-98055511D01*
X197317811Y-98030610D01*
X197321301Y-98004896D01*
X197327495Y-97997631D01*
X197330185Y-97988472D01*
X197349795Y-97971479D01*
X197366635Y-97951731D01*
X197375774Y-97948968D01*
X197382989Y-97942717D01*
X197408674Y-97939023D01*
X197433516Y-97931515D01*
X197445143Y-97933779D01*
X197452147Y-97932773D01*
X197468490Y-97936261D01*
X197475354Y-97938217D01*
X197556088Y-97971659D01*
X197672241Y-97994763D01*
X197686659Y-97997631D01*
X197701081Y-98000500D01*
X197701082Y-98000500D01*
X197701083Y-98000500D01*
X197848918Y-98000500D01*
X198687779Y-98000500D01*
X198754818Y-98020185D01*
X198788097Y-98051615D01*
X198844892Y-98129788D01*
X198995209Y-98280105D01*
X198995214Y-98280109D01*
X199160218Y-98399991D01*
X199202884Y-98455320D01*
X199208863Y-98524934D01*
X199176258Y-98586729D01*
X199160218Y-98600627D01*
X198995540Y-98720272D01*
X198995535Y-98720276D01*
X198845276Y-98870535D01*
X198845272Y-98870540D01*
X198720379Y-99042442D01*
X198623904Y-99231782D01*
X198558242Y-99433870D01*
X198558242Y-99433873D01*
X198547769Y-99500000D01*
X199595854Y-99500000D01*
X199557370Y-99566657D01*
X199525000Y-99687465D01*
X199525000Y-99812535D01*
X199557370Y-99933343D01*
X199595854Y-100000000D01*
X198547769Y-100000000D01*
X198558242Y-100066126D01*
X198558242Y-100066129D01*
X198623904Y-100268217D01*
X198720379Y-100457557D01*
X198845272Y-100629459D01*
X198845276Y-100629464D01*
X198995535Y-100779723D01*
X198995540Y-100779727D01*
X199167442Y-100904620D01*
X199356782Y-101001095D01*
X199558872Y-101066757D01*
X199750000Y-101097029D01*
X199750000Y-100154145D01*
X199816657Y-100192630D01*
X199937465Y-100225000D01*
X200062535Y-100225000D01*
X200183343Y-100192630D01*
X200250000Y-100154145D01*
X200250000Y-101097028D01*
X200441127Y-101066757D01*
X200643217Y-101001095D01*
X200832557Y-100904620D01*
X201004459Y-100779727D01*
X201004464Y-100779723D01*
X201154723Y-100629464D01*
X201154727Y-100629459D01*
X201279620Y-100457557D01*
X201376095Y-100268217D01*
X201441757Y-100066129D01*
X201441757Y-100066126D01*
X201452231Y-100000000D01*
X200404146Y-100000000D01*
X200442630Y-99933343D01*
X200475000Y-99812535D01*
X200475000Y-99687465D01*
X200442630Y-99566657D01*
X200404146Y-99500000D01*
X201452231Y-99500000D01*
X201441757Y-99433873D01*
X201441757Y-99433870D01*
X201376095Y-99231782D01*
X201279620Y-99042442D01*
X201154727Y-98870540D01*
X201154723Y-98870535D01*
X201004464Y-98720276D01*
X201004459Y-98720272D01*
X200839781Y-98600627D01*
X200797115Y-98545297D01*
X200791136Y-98475684D01*
X200823741Y-98413889D01*
X200839776Y-98399994D01*
X201004792Y-98280104D01*
X201155104Y-98129792D01*
X201185078Y-98088536D01*
X201211903Y-98051615D01*
X201267233Y-98008949D01*
X201312221Y-98000500D01*
X201548920Y-98000500D01*
X201659959Y-97978412D01*
X201693913Y-97971658D01*
X201830495Y-97915084D01*
X201895207Y-97871845D01*
X201953416Y-97832952D01*
X202605868Y-97180500D01*
X203187819Y-96598549D01*
X203249142Y-96565064D01*
X203318834Y-96570048D01*
G37*
%TD.AperFunction*%
%TA.AperFunction,Conductor*%
G36*
X191784075Y-102732993D02*
G01*
X191849901Y-102847007D01*
X191942993Y-102940099D01*
X192057007Y-103005925D01*
X192120590Y-103022962D01*
X191484297Y-103659254D01*
X191473059Y-103712749D01*
X191424008Y-103762505D01*
X191402811Y-103771806D01*
X191330878Y-103795642D01*
X191330875Y-103795643D01*
X191181654Y-103887684D01*
X191057684Y-104011654D01*
X190965643Y-104160875D01*
X190965642Y-104160878D01*
X190941806Y-104232811D01*
X190902033Y-104290255D01*
X190837517Y-104317078D01*
X190826306Y-104317245D01*
X190192962Y-104950590D01*
X190175925Y-104887007D01*
X190110099Y-104772993D01*
X190017007Y-104679901D01*
X189902993Y-104614075D01*
X189839409Y-104597037D01*
X190471716Y-103964728D01*
X190417550Y-103925375D01*
X190407954Y-103920486D01*
X190357157Y-103872512D01*
X190340361Y-103804692D01*
X190362897Y-103738556D01*
X190407954Y-103699514D01*
X190417554Y-103694622D01*
X190471716Y-103655270D01*
X190471717Y-103655270D01*
X189839408Y-103022962D01*
X189902993Y-103005925D01*
X190017007Y-102940099D01*
X190110099Y-102847007D01*
X190175925Y-102732993D01*
X190192962Y-102669408D01*
X190825270Y-103301717D01*
X190825270Y-103301716D01*
X190864622Y-103247554D01*
X190869514Y-103237954D01*
X190917488Y-103187157D01*
X190985308Y-103170361D01*
X191051444Y-103192897D01*
X191090486Y-103237954D01*
X191095375Y-103247550D01*
X191134728Y-103301716D01*
X191767037Y-102669408D01*
X191784075Y-102732993D01*
G37*
%TD.AperFunction*%
%TA.AperFunction,Conductor*%
G36*
X191356839Y-101020185D02*
G01*
X191369365Y-101029493D01*
X191542179Y-101155048D01*
X191542181Y-101155049D01*
X191542184Y-101155051D01*
X191551493Y-101159794D01*
X191602290Y-101207766D01*
X191619087Y-101275587D01*
X191596552Y-101341722D01*
X191551505Y-101380760D01*
X191542446Y-101385376D01*
X191542440Y-101385380D01*
X191488282Y-101424727D01*
X191488282Y-101424728D01*
X192120591Y-102057037D01*
X192057007Y-102074075D01*
X191942993Y-102139901D01*
X191849901Y-102232993D01*
X191784075Y-102347007D01*
X191767037Y-102410591D01*
X191134728Y-101778282D01*
X191134727Y-101778282D01*
X191095380Y-101832440D01*
X191090483Y-101842051D01*
X191042506Y-101892845D01*
X190974684Y-101909638D01*
X190908550Y-101887098D01*
X190869516Y-101842048D01*
X190864626Y-101832452D01*
X190825270Y-101778282D01*
X190825269Y-101778282D01*
X190192962Y-102410590D01*
X190175925Y-102347007D01*
X190110099Y-102232993D01*
X190017007Y-102139901D01*
X189902993Y-102074075D01*
X189839409Y-102057037D01*
X190471716Y-101424728D01*
X190417547Y-101385373D01*
X190417547Y-101385372D01*
X190408500Y-101380763D01*
X190357706Y-101332788D01*
X190340912Y-101264966D01*
X190363451Y-101198832D01*
X190408508Y-101159793D01*
X190417816Y-101155051D01*
X190497677Y-101097029D01*
X190593734Y-101027241D01*
X190594364Y-101028108D01*
X190653419Y-101001641D01*
X190670200Y-101000500D01*
X191289800Y-101000500D01*
X191356839Y-101020185D01*
G37*
%TD.AperFunction*%
%TA.AperFunction,Conductor*%
G36*
X195149809Y-95690185D02*
G01*
X195170451Y-95706819D01*
X195773181Y-96309548D01*
X195806666Y-96370871D01*
X195809500Y-96397229D01*
X195809500Y-99481993D01*
X195803261Y-99503238D01*
X195801682Y-99525325D01*
X195793609Y-99536108D01*
X195789815Y-99549032D01*
X195773082Y-99563530D01*
X195759812Y-99581259D01*
X195747189Y-99585967D01*
X195737011Y-99594787D01*
X195715095Y-99597938D01*
X195694348Y-99605677D01*
X195681185Y-99602813D01*
X195667853Y-99604731D01*
X195647711Y-99595532D01*
X195626074Y-99590826D01*
X195608347Y-99577555D01*
X195604297Y-99575706D01*
X195597820Y-99569675D01*
X195558100Y-99529956D01*
X193636819Y-97608675D01*
X193603334Y-97547352D01*
X193600500Y-97520994D01*
X193600500Y-97353713D01*
X193573246Y-97181641D01*
X193567246Y-97143757D01*
X193501557Y-96941588D01*
X193405051Y-96752184D01*
X193405049Y-96752181D01*
X193405048Y-96752179D01*
X193280109Y-96580213D01*
X193129786Y-96429890D01*
X192957820Y-96304951D01*
X192957115Y-96304591D01*
X192949054Y-96300485D01*
X192898259Y-96252512D01*
X192881463Y-96184692D01*
X192903999Y-96118556D01*
X192949054Y-96079515D01*
X192957816Y-96075051D01*
X193061116Y-96000000D01*
X193129786Y-95950109D01*
X193129788Y-95950106D01*
X193129792Y-95950104D01*
X193280104Y-95799792D01*
X193290986Y-95784814D01*
X193336903Y-95721615D01*
X193392233Y-95678949D01*
X193437221Y-95670500D01*
X195082770Y-95670500D01*
X195149809Y-95690185D01*
G37*
%TD.AperFunction*%
%TA.AperFunction,Conductor*%
G36*
X208824075Y-88752993D02*
G01*
X208889901Y-88867007D01*
X208982993Y-88960099D01*
X209097007Y-89025925D01*
X209160590Y-89042962D01*
X208528282Y-89675269D01*
X208528282Y-89675270D01*
X208582452Y-89714626D01*
X208582451Y-89714626D01*
X208591495Y-89719234D01*
X208642292Y-89767208D01*
X208659087Y-89835029D01*
X208636550Y-89901164D01*
X208591499Y-89940202D01*
X208582182Y-89944949D01*
X208410213Y-90069890D01*
X208259890Y-90220213D01*
X208134949Y-90392182D01*
X208130484Y-90400946D01*
X208082509Y-90451742D01*
X208014688Y-90468536D01*
X207948553Y-90445998D01*
X207909516Y-90400946D01*
X207905050Y-90392182D01*
X207780109Y-90220213D01*
X207629790Y-90069894D01*
X207629785Y-90069890D01*
X207624399Y-90065977D01*
X207581731Y-90010649D01*
X207575750Y-89941036D01*
X207608354Y-89879240D01*
X207658278Y-89847951D01*
X207669117Y-89844359D01*
X207669124Y-89844356D01*
X207818345Y-89752315D01*
X207942315Y-89628345D01*
X208034356Y-89479124D01*
X208034360Y-89479115D01*
X208058193Y-89407190D01*
X208097964Y-89349744D01*
X208162480Y-89322920D01*
X208173692Y-89322752D01*
X208807037Y-88689408D01*
X208824075Y-88752993D01*
G37*
%TD.AperFunction*%
%TD*%
M02*
