M48
; DRILL file {KiCad 9.0.7} date 2026-02-07T15:59:14+0900
; FORMAT={-:-/ absolute / inch / decimal}
; #@! TF.CreationDate,2026-02-07T15:59:14+09:00
; #@! TF.GenerationSoftware,Kicad,Pcbnew,9.0.7
; #@! TF.FileFunction,Plated,1,2,PTH
FMAT,2
INCH
; #@! TA.AperFunction,Plated,PTH,ViaDrill
T1C0.0118
; #@! TA.AperFunction,Plated,PTH,ViaDrill
T2C0.0157
; #@! TA.AperFunction,Plated,PTH,ComponentDrill
T3C0.0354
; #@! TA.AperFunction,Plated,PTH,ComponentDrill
T4C0.0374
; #@! TA.AperFunction,Plated,PTH,ComponentDrill
T5C0.0394
; #@! TA.AperFunction,Plated,PTH,ComponentDrill
T6C0.0512
%
G90
G05
T1
X6.062Y-4.1181
X6.1152Y-4.2156
X6.1152Y-4.2854
X6.1181Y-3.1447
X6.1624Y-3.0591
X6.19Y-3.5689
X6.2136Y-3.5325
X6.2352Y-4.3406
X6.2638Y-2.878
X6.2776Y-4.4252
X6.2795Y-4.8051
X6.3455Y-4.9459
X6.3907Y-2.6998
X6.4232Y-4.8504
X6.439Y-5.0541
X6.4813Y-4.9262
X6.4872Y-3.5925
X6.5049Y-2.5817
X6.5502Y-3.122
X6.6555Y-2.439
X6.7077Y-4.2667
X6.751Y-5.3681
X6.7598Y-3.561
X6.7638Y-3.062
X6.8465Y-5.4537
X6.8937Y-5.3396
X6.9469Y-2.2736
X6.9951Y-5.4173
X7.0354Y-2.6898
X7.0571Y-2.5984
X7.063Y-4.064
X7.064Y-5.4498
X7.0803Y-2.8374
X7.0876Y-3.6634
X7.1161Y-2.999
X7.1171Y-3.0699
X7.1575Y-2.9163
X7.1772Y-3.0256
X7.2205Y-4.4252
X7.2431Y-2.8848
X7.2707Y-2.9174
X7.274Y-3.3311
X7.2943Y-2.943
X7.31Y-2.1073
X7.3179Y-2.9665
X7.3415Y-2.9902
X7.3634Y-3.1197
X7.3652Y-3.0138
X7.3691Y-5.8022
X7.3888Y-3.0374
X7.4144Y-5.5935
X7.4902Y-2.7717
X7.4921Y-2.6388
X7.562Y-5.8219
X7.6118Y-2.9925
X7.688Y-5.8553
X7.6906Y-3.0768
X7.7106Y-2.8632
X7.7382Y-2.9744
X7.7598Y-2.2549
X7.7972Y-4.7116
X7.876Y-2.0069
X7.939Y-5.8681
X7.9469Y-2.5039
X8.0265Y-5.608
X8.0266Y-2.8652
X8.06Y-2.2451
X8.25Y-2.0827
X8.3632Y-5.5778
X8.4114Y-4.5738
X8.4193Y-2.9291
X8.436Y-5.7776
X8.4537Y-3.0482
X8.4695Y-3.3425
X8.6152Y-4.2402
X8.6211Y-2.8671
X8.6467Y-3.0177
X8.7116Y-3.5217
X8.7156Y-3.7392
X8.7313Y-5.6644
X8.7608Y-5.4252
X8.8238Y-3.3091
X8.8583Y-2.2894
X8.8652Y-5.563
X8.9449Y-3.6516
X8.9606Y-2.7254
X8.9646Y-5.5256
X8.9695Y-2.628
X8.9783Y-4.2018
X9.0059Y-2.4518
X9.0128Y-2.8071
X9.0285Y-3.06
X9.0581Y-3.5059
X9.1486Y-2.8366
X9.1565Y-3.0679
X9.1624Y-4.2776
X9.2697Y-3.2274
X9.2707Y-3.0591
X9.3041Y-2.8425
X9.3445Y-4.8406
X9.374Y-2.7234
X9.4301Y-2.9469
X9.4813Y-4.811
X9.5Y-3.5581
X9.5541Y-3.0079
X9.7165Y-3.7195
X9.7234Y-3.4114
T2
X6.0266Y-3.5295
X6.0276Y-3.6309
X6.0413Y-3.8907
X6.0453Y-3.7224
X6.0502Y-3.378
X6.0541Y-3.4439
X6.0876Y-3.3317
X6.0876Y-3.6329
X6.1437Y-3.2559
X6.1841Y-4.7018
X6.3189Y-2.8278
X6.3189Y-2.9355
X7.2392Y-5.6959
X7.2431Y-3.0807
X7.4268Y-3.2
X7.4636Y-3.186
X7.876Y-3.1555
X7.9183Y-5.7825
X8.0305Y-3.0512
X8.0443Y-5.7185
X8.2652Y-5.8258
X8.2667Y-2.2638
X8.2667Y-2.7175
T3
X6.0876Y-3.8394
X6.0876Y-3.9394
X6.0876Y-4.0394
X6.1844Y-3.3479
X6.1862Y-4.5304
X6.2227Y-3.2556
X6.2245Y-4.6228
X6.2609Y-3.1632
X6.2628Y-4.7152
X6.5384Y-2.7462
X6.5401Y-5.1295
X6.6092Y-2.6755
X6.6108Y-5.2002
X6.6799Y-2.6048
X6.6815Y-5.2709
X7.098Y-2.3248
X7.1002Y-5.5501
X7.1904Y-2.2866
X7.1926Y-5.5883
X7.2828Y-2.2483
X7.285Y-5.6266
X7.774Y-2.1506
X7.774Y-5.7234
X7.874Y-2.1506
X7.874Y-5.7234
X7.974Y-2.1506
X7.974Y-5.7234
X8.4653Y-2.2483
X8.4653Y-5.6257
X8.5576Y-2.2866
X8.5576Y-5.5874
X8.65Y-2.3248
X8.65Y-5.5492
X9.0665Y-2.6031
X9.0665Y-5.2709
X9.1372Y-2.6738
X9.1372Y-5.2002
X9.2079Y-2.7445
X9.2079Y-5.1295
X9.4862Y-3.161
X9.4862Y-4.713
X9.5245Y-3.2534
X9.5245Y-4.6206
X9.5627Y-3.3458
X9.5627Y-4.5283
X9.6604Y-3.837
X9.6604Y-3.937
X9.6604Y-4.037
T4
X8.1398Y-2.5984
X8.1398Y-2.6969
X8.1398Y-2.7953
X8.1398Y-2.8937
X8.1398Y-2.9921
T5
X7.5724Y-5.561
X7.6724Y-5.561
X7.7724Y-5.561
X7.8724Y-5.561
X7.9724Y-5.561
X8.0724Y-5.561
X8.1724Y-5.561
T6
X8.3858Y-2.5984
X8.3858Y-2.7953
X8.878Y-2.5984
X8.878Y-2.7953
M30
