%TF.GenerationSoftware,KiCad,Pcbnew,9.0.7*%
%TF.CreationDate,2026-02-07T15:59:14+09:00*%
%TF.ProjectId,IR board_1.0,49522062-6f61-4726-945f-312e302e6b69,rev?*%
%TF.SameCoordinates,Original*%
%TF.FileFunction,Legend,Top*%
%TF.FilePolarity,Positive*%
%FSLAX46Y46*%
G04 Gerber Fmt 4.6, Leading zero omitted, Abs format (unit mm)*
G04 Created by KiCad (PCBNEW 9.0.7) date 2026-02-07 15:59:14*
%MOMM*%
%LPD*%
G01*
G04 APERTURE LIST*
G04 Aperture macros list*
%AMRoundRect*
0 Rectangle with rounded corners*
0 $1 Rounding radius*
0 $2 $3 $4 $5 $6 $7 $8 $9 X,Y pos of 4 corners*
0 Add a 4 corners polygon primitive as box body*
4,1,4,$2,$3,$4,$5,$6,$7,$8,$9,$2,$3,0*
0 Add four circle primitives for the rounded corners*
1,1,$1+$1,$2,$3*
1,1,$1+$1,$4,$5*
1,1,$1+$1,$6,$7*
1,1,$1+$1,$8,$9*
0 Add four rect primitives between the rounded corners*
20,1,$1+$1,$2,$3,$4,$5,0*
20,1,$1+$1,$4,$5,$6,$7,0*
20,1,$1+$1,$6,$7,$8,$9,0*
20,1,$1+$1,$8,$9,$2,$3,0*%
G04 Aperture macros list end*
%ADD10C,0.150000*%
%ADD11C,0.158750*%
%ADD12C,0.120000*%
%ADD13C,0.100000*%
%ADD14C,0.200000*%
%ADD15R,1.700000X1.700000*%
%ADD16O,1.700000X1.700000*%
%ADD17R,1.050000X0.650000*%
%ADD18C,1.950000*%
%ADD19RoundRect,0.250200X-0.649800X0.649800X-0.649800X-0.649800X0.649800X-0.649800X0.649800X0.649800X0*%
%ADD20C,1.800000*%
%ADD21RoundRect,0.250200X-0.351669X0.849005X-0.849005X-0.351669X0.351669X-0.849005X0.849005X0.351669X0*%
%ADD22RoundRect,0.250000X-0.725000X0.600000X-0.725000X-0.600000X0.725000X-0.600000X0.725000X0.600000X0*%
%ADD23O,1.950000X1.700000*%
%ADD24RoundRect,0.250200X0.849005X-0.351669X0.351669X0.849005X-0.849005X0.351669X-0.351669X-0.849005X0*%
%ADD25RoundRect,0.250200X-0.351669X-0.849005X0.849005X-0.351669X0.351669X0.849005X-0.849005X0.351669X0*%
%ADD26RoundRect,0.250200X-0.649800X-0.649800X0.649800X-0.649800X0.649800X0.649800X-0.649800X0.649800X0*%
%ADD27RoundRect,0.250200X0.000000X-0.918956X0.918956X0.000000X0.000000X0.918956X-0.918956X0.000000X0*%
%ADD28RoundRect,0.250200X-0.918956X0.000000X0.000000X-0.918956X0.918956X0.000000X0.000000X0.918956X0*%
%ADD29RoundRect,0.250200X0.849005X0.351669X-0.351669X0.849005X-0.849005X-0.351669X0.351669X-0.849005X0*%
%ADD30RoundRect,0.250200X0.649800X-0.649800X0.649800X0.649800X-0.649800X0.649800X-0.649800X-0.649800X0*%
%ADD31RoundRect,0.250200X0.351669X0.849005X-0.849005X0.351669X-0.351669X-0.849005X0.849005X-0.351669X0*%
%ADD32RoundRect,0.250200X0.918956X0.000000X0.000000X0.918956X-0.918956X0.000000X0.000000X-0.918956X0*%
%ADD33RoundRect,0.250200X-0.849005X-0.351669X0.351669X-0.849005X0.849005X0.351669X-0.351669X0.849005X0*%
%ADD34RoundRect,0.250200X0.351669X-0.849005X0.849005X0.351669X-0.351669X0.849005X-0.849005X-0.351669X0*%
%ADD35RoundRect,0.250200X-0.849005X0.351669X-0.351669X-0.849005X0.849005X-0.351669X0.351669X0.849005X0*%
%ADD36RoundRect,0.250200X0.000000X0.918956X-0.918956X0.000000X0.000000X-0.918956X0.918956X0.000000X0*%
%ADD37RoundRect,0.250200X0.649800X0.649800X-0.649800X0.649800X-0.649800X-0.649800X0.649800X-0.649800X0*%
G04 APERTURE END LIST*
D10*
X209304819Y-145968333D02*
X210019104Y-145968333D01*
X210019104Y-145968333D02*
X210161961Y-146015952D01*
X210161961Y-146015952D02*
X210257200Y-146111190D01*
X210257200Y-146111190D02*
X210304819Y-146254047D01*
X210304819Y-146254047D02*
X210304819Y-146349285D01*
X210304819Y-144968333D02*
X210304819Y-145539761D01*
X210304819Y-145254047D02*
X209304819Y-145254047D01*
X209304819Y-145254047D02*
X209447676Y-145349285D01*
X209447676Y-145349285D02*
X209542914Y-145444523D01*
X209542914Y-145444523D02*
X209590533Y-145539761D01*
D11*
X197913571Y-78304271D02*
X197913571Y-77034271D01*
X197913571Y-77034271D02*
X198639286Y-78304271D01*
X198639286Y-78304271D02*
X198639286Y-77034271D01*
X199969762Y-78304271D02*
X199546428Y-77699509D01*
X199244047Y-78304271D02*
X199244047Y-77034271D01*
X199244047Y-77034271D02*
X199727857Y-77034271D01*
X199727857Y-77034271D02*
X199848809Y-77094747D01*
X199848809Y-77094747D02*
X199909286Y-77155223D01*
X199909286Y-77155223D02*
X199969762Y-77276175D01*
X199969762Y-77276175D02*
X199969762Y-77457604D01*
X199969762Y-77457604D02*
X199909286Y-77578556D01*
X199909286Y-77578556D02*
X199848809Y-77639033D01*
X199848809Y-77639033D02*
X199727857Y-77699509D01*
X199727857Y-77699509D02*
X199244047Y-77699509D01*
X200453571Y-78243795D02*
X200635000Y-78304271D01*
X200635000Y-78304271D02*
X200937381Y-78304271D01*
X200937381Y-78304271D02*
X201058333Y-78243795D01*
X201058333Y-78243795D02*
X201118809Y-78183318D01*
X201118809Y-78183318D02*
X201179286Y-78062366D01*
X201179286Y-78062366D02*
X201179286Y-77941414D01*
X201179286Y-77941414D02*
X201118809Y-77820461D01*
X201118809Y-77820461D02*
X201058333Y-77759985D01*
X201058333Y-77759985D02*
X200937381Y-77699509D01*
X200937381Y-77699509D02*
X200695476Y-77639033D01*
X200695476Y-77639033D02*
X200574524Y-77578556D01*
X200574524Y-77578556D02*
X200514047Y-77518080D01*
X200514047Y-77518080D02*
X200453571Y-77397128D01*
X200453571Y-77397128D02*
X200453571Y-77276175D01*
X200453571Y-77276175D02*
X200514047Y-77155223D01*
X200514047Y-77155223D02*
X200574524Y-77094747D01*
X200574524Y-77094747D02*
X200695476Y-77034271D01*
X200695476Y-77034271D02*
X200997857Y-77034271D01*
X200997857Y-77034271D02*
X201179286Y-77094747D01*
X201542143Y-77034271D02*
X202267857Y-77034271D01*
X201905000Y-78304271D02*
X201905000Y-77034271D01*
D12*
%TO.C,J1*%
X207580000Y-139980000D02*
X208850000Y-139980000D01*
X208850000Y-139980000D02*
X208850000Y-141250000D01*
D13*
%TO.C,NRST*%
X196900000Y-73400000D02*
X196900000Y-73400000D01*
X197000000Y-73400000D02*
X197000000Y-73400000D01*
D14*
X197900000Y-74075000D02*
X197900000Y-74875000D01*
X198800000Y-72875000D02*
X201200000Y-72875000D01*
X198800000Y-76075000D02*
X201200000Y-76075000D01*
X202100000Y-74075000D02*
X202100000Y-74875000D01*
D13*
X196900000Y-73400000D02*
G75*
G02*
X197000000Y-73400000I50000J0D01*
G01*
X197000000Y-73400000D02*
G75*
G02*
X196900000Y-73400000I-50000J0D01*
G01*
D14*
%TO.C,SW2*%
X211500000Y-65900000D02*
X211500000Y-65900000D01*
X211500000Y-66100000D02*
X211500000Y-66100000D01*
D13*
X213250000Y-62500000D02*
X225250000Y-62500000D01*
X213250000Y-64500000D02*
X213250000Y-62500000D01*
X213250000Y-72500000D02*
X213250000Y-74500000D01*
X213250000Y-74500000D02*
X225250000Y-74500000D01*
X225250000Y-62500000D02*
X225250000Y-64500000D01*
X225250000Y-74500000D02*
X225250000Y-72500000D01*
D14*
X211500000Y-65900000D02*
G75*
G02*
X211500000Y-66100000I0J-100000D01*
G01*
X211500000Y-66100000D02*
G75*
G02*
X211500000Y-65900000I0J100000D01*
G01*
%TD*%
%LPC*%
D15*
%TO.C,J1*%
X207580000Y-141250000D03*
D16*
X205040000Y-141250000D03*
X202500000Y-141250000D03*
X199960000Y-141250000D03*
X197420000Y-141250000D03*
X194880000Y-141250000D03*
X192340000Y-141250000D03*
%TD*%
D17*
%TO.C,NRST*%
X197925000Y-73400000D03*
X202075000Y-73400000D03*
X197925000Y-75550000D03*
X202075000Y-75550000D03*
%TD*%
D18*
%TO.C,SW2*%
X213000000Y-66000000D03*
X225500000Y-66000000D03*
X213000000Y-71000000D03*
X225500000Y-71000000D03*
%TD*%
D19*
%TO.C,U13*%
X245375000Y-97460000D03*
D20*
X245375000Y-100000000D03*
X245375000Y-102540000D03*
%TD*%
D21*
%TO.C,U12*%
X242893050Y-115017607D03*
D20*
X241921034Y-117364261D03*
X240949018Y-119710915D03*
%TD*%
D22*
%TO.C,J2*%
X206750000Y-66000000D03*
D23*
X206750000Y-68500000D03*
X206750000Y-71000000D03*
X206750000Y-73500000D03*
X206750000Y-76000000D03*
%TD*%
D24*
%TO.C,U6*%
X159073943Y-119766348D03*
D20*
X158101927Y-117419694D03*
X157129911Y-115073040D03*
%TD*%
D25*
%TO.C,U2*%
X180289085Y-59050982D03*
D20*
X182635739Y-58078966D03*
X184982393Y-57106950D03*
%TD*%
D26*
%TO.C,U1*%
X197460000Y-54625000D03*
D20*
X200000000Y-54625000D03*
X202540000Y-54625000D03*
%TD*%
D27*
%TO.C,U3*%
X166076552Y-69753508D03*
D20*
X167872604Y-67957456D03*
X169668655Y-66161405D03*
%TD*%
D28*
%TO.C,U15*%
X230288919Y-66118979D03*
D20*
X232084970Y-67915030D03*
X233881021Y-69711081D03*
%TD*%
D29*
%TO.C,U8*%
X185037826Y-142916011D03*
D20*
X182691172Y-141943995D03*
X180344518Y-140971979D03*
%TD*%
D30*
%TO.C,U5*%
X154625000Y-102600000D03*
D20*
X154625000Y-100060000D03*
X154625000Y-97520000D03*
%TD*%
D31*
%TO.C,U10*%
X219710915Y-140949018D03*
D20*
X217364261Y-141921034D03*
X215017607Y-142893050D03*
%TD*%
D32*
%TO.C,U7*%
X169711081Y-133881021D03*
D20*
X167915030Y-132084970D03*
X166118979Y-130288919D03*
%TD*%
D33*
%TO.C,U16*%
X215017607Y-57106950D03*
D20*
X217364261Y-58078966D03*
X219710915Y-59050982D03*
%TD*%
D34*
%TO.C,U4*%
X157083989Y-85037826D03*
D20*
X158056005Y-82691172D03*
X159028021Y-80344518D03*
%TD*%
D35*
%TO.C,U14*%
X240949018Y-80289085D03*
D20*
X241921034Y-82635739D03*
X242893050Y-84982393D03*
%TD*%
D36*
%TO.C,U11*%
X233881021Y-130288919D03*
D20*
X232084970Y-132084970D03*
X230288919Y-133881021D03*
%TD*%
D37*
%TO.C,U9*%
X202540000Y-145375000D03*
D20*
X200000000Y-145375000D03*
X197460000Y-145375000D03*
%TD*%
%LPD*%
M02*
