%TF.GenerationSoftware,KiCad,Pcbnew,9.0.7*%
%TF.CreationDate,2026-03-08T19:22:13+09:00*%
%TF.ProjectId,Angel_Line_1.0,416e6765-6c5f-44c6-996e-655f312e302e,rev?*%
%TF.SameCoordinates,Original*%
%TF.FileFunction,Paste,Top*%
%TF.FilePolarity,Positive*%
%FSLAX46Y46*%
G04 Gerber Fmt 4.6, Leading zero omitted, Abs format (unit mm)*
G04 Created by KiCad (PCBNEW 9.0.7) date 2026-03-08 19:22:13*
%MOMM*%
%LPD*%
G01*
G04 APERTURE LIST*
G04 Aperture macros list*
%AMRoundRect*
0 Rectangle with rounded corners*
0 $1 Rounding radius*
0 $2 $3 $4 $5 $6 $7 $8 $9 X,Y pos of 4 corners*
0 Add a 4 corners polygon primitive as box body*
4,1,4,$2,$3,$4,$5,$6,$7,$8,$9,$2,$3,0*
0 Add four circle primitives for the rounded corners*
1,1,$1+$1,$2,$3*
1,1,$1+$1,$4,$5*
1,1,$1+$1,$6,$7*
1,1,$1+$1,$8,$9*
0 Add four rect primitives between the rounded corners*
20,1,$1+$1,$2,$3,$4,$5,0*
20,1,$1+$1,$4,$5,$6,$7,0*
20,1,$1+$1,$6,$7,$8,$9,0*
20,1,$1+$1,$8,$9,$2,$3,0*%
G04 Aperture macros list end*
%ADD10RoundRect,0.237500X0.080681X-0.335256X0.330681X0.097756X-0.080681X0.335256X-0.330681X-0.097756X0*%
%ADD11RoundRect,0.200000X0.200000X0.275000X-0.200000X0.275000X-0.200000X-0.275000X0.200000X-0.275000X0*%
%ADD12RoundRect,0.225000X-0.225000X-0.250000X0.225000X-0.250000X0.225000X0.250000X-0.225000X0.250000X0*%
%ADD13RoundRect,0.237500X0.097756X0.330681X-0.335256X0.080681X-0.097756X-0.330681X0.335256X-0.080681X0*%
%ADD14RoundRect,0.237500X-0.080681X0.335256X-0.330681X-0.097756X0.080681X-0.335256X0.330681X0.097756X0*%
%ADD15RoundRect,0.237500X0.330681X-0.097756X0.080681X0.335256X-0.330681X0.097756X-0.080681X-0.335256X0*%
%ADD16RoundRect,0.237500X0.335256X0.080681X-0.097756X0.330681X-0.335256X-0.080681X0.097756X-0.330681X0*%
%ADD17RoundRect,0.237500X0.250000X0.237500X-0.250000X0.237500X-0.250000X-0.237500X0.250000X-0.237500X0*%
%ADD18RoundRect,0.225000X0.225000X0.250000X-0.225000X0.250000X-0.225000X-0.250000X0.225000X-0.250000X0*%
%ADD19RoundRect,0.237500X-0.237500X0.250000X-0.237500X-0.250000X0.237500X-0.250000X0.237500X0.250000X0*%
%ADD20RoundRect,0.075000X-0.700000X-0.075000X0.700000X-0.075000X0.700000X0.075000X-0.700000X0.075000X0*%
%ADD21RoundRect,0.075000X-0.075000X-0.700000X0.075000X-0.700000X0.075000X0.700000X-0.075000X0.700000X0*%
%ADD22RoundRect,0.237500X0.237500X-0.250000X0.237500X0.250000X-0.237500X0.250000X-0.237500X-0.250000X0*%
%ADD23RoundRect,0.237500X-0.250000X-0.237500X0.250000X-0.237500X0.250000X0.237500X-0.250000X0.237500X0*%
%ADD24RoundRect,0.237500X-0.097756X-0.330681X0.335256X-0.080681X0.097756X0.330681X-0.335256X0.080681X0*%
%ADD25RoundRect,0.237500X-0.335256X-0.080681X0.097756X-0.330681X0.335256X0.080681X-0.097756X0.330681X0*%
%ADD26RoundRect,0.225000X-0.250000X0.225000X-0.250000X-0.225000X0.250000X-0.225000X0.250000X0.225000X0*%
%ADD27RoundRect,0.237500X-0.330681X0.097756X-0.080681X-0.335256X0.330681X-0.097756X0.080681X0.335256X0*%
%ADD28RoundRect,0.225000X0.250000X-0.225000X0.250000X0.225000X-0.250000X0.225000X-0.250000X-0.225000X0*%
%ADD29R,1.050000X0.650000*%
G04 APERTURE END LIST*
D10*
%TO.C,R9*%
X143685111Y-118540248D03*
X144597611Y-116959752D03*
%TD*%
D11*
%TO.C,R33*%
X215825000Y-187500000D03*
X214175000Y-187500000D03*
%TD*%
D12*
%TO.C,C7*%
X218225000Y-203000000D03*
X219775000Y-203000000D03*
%TD*%
D13*
%TO.C,R28*%
X230915248Y-201721781D03*
X229334752Y-202634281D03*
%TD*%
D14*
%TO.C,R15*%
X256314889Y-181459752D03*
X255402389Y-183040248D03*
%TD*%
D15*
%TO.C,R7*%
X148278219Y-180915248D03*
X147365719Y-179334752D03*
%TD*%
D16*
%TO.C,R6*%
X170665248Y-202634281D03*
X169084752Y-201721781D03*
%TD*%
D17*
%TO.C,R29*%
X200912500Y-247250000D03*
X199087500Y-247250000D03*
%TD*%
D12*
%TO.C,C8*%
X220975000Y-201000000D03*
X222525000Y-201000000D03*
%TD*%
%TO.C,C9*%
X221975000Y-189250000D03*
X223525000Y-189250000D03*
%TD*%
D18*
%TO.C,C3*%
X209775000Y-188750000D03*
X208225000Y-188750000D03*
%TD*%
D19*
%TO.C,R26*%
X260250000Y-149087500D03*
X260250000Y-150912500D03*
%TD*%
D20*
%TO.C,IC49*%
X209325000Y-191250000D03*
X209325000Y-191750000D03*
X209325000Y-192250000D03*
X209325000Y-192750000D03*
X209325000Y-193250000D03*
X209325000Y-193750000D03*
X209325000Y-194250000D03*
X209325000Y-194750000D03*
X209325000Y-195250000D03*
X209325000Y-195750000D03*
X209325000Y-196250000D03*
X209325000Y-196750000D03*
X209325000Y-197250000D03*
X209325000Y-197750000D03*
X209325000Y-198250000D03*
X209325000Y-198750000D03*
D21*
X211250000Y-200675000D03*
X211750000Y-200675000D03*
X212250000Y-200675000D03*
X212750000Y-200675000D03*
X213250000Y-200675000D03*
X213750000Y-200675000D03*
X214250000Y-200675000D03*
X214750000Y-200675000D03*
X215250000Y-200675000D03*
X215750000Y-200675000D03*
X216250000Y-200675000D03*
X216750000Y-200675000D03*
X217250000Y-200675000D03*
X217750000Y-200675000D03*
X218250000Y-200675000D03*
X218750000Y-200675000D03*
D20*
X220675000Y-198750000D03*
X220675000Y-198250000D03*
X220675000Y-197750000D03*
X220675000Y-197250000D03*
X220675000Y-196750000D03*
X220675000Y-196250000D03*
X220675000Y-195750000D03*
X220675000Y-195250000D03*
X220675000Y-194750000D03*
X220675000Y-194250000D03*
X220675000Y-193750000D03*
X220675000Y-193250000D03*
X220675000Y-192750000D03*
X220675000Y-192250000D03*
X220675000Y-191750000D03*
X220675000Y-191250000D03*
D21*
X218750000Y-189325000D03*
X218250000Y-189325000D03*
X217750000Y-189325000D03*
X217250000Y-189325000D03*
X216750000Y-189325000D03*
X216250000Y-189325000D03*
X215750000Y-189325000D03*
X215250000Y-189325000D03*
X214750000Y-189325000D03*
X214250000Y-189325000D03*
X213750000Y-189325000D03*
X213250000Y-189325000D03*
X212750000Y-189325000D03*
X212250000Y-189325000D03*
X211750000Y-189325000D03*
X211250000Y-189325000D03*
%TD*%
D19*
%TO.C,R32*%
X297250000Y-149087500D03*
X297250000Y-150912500D03*
%TD*%
D22*
%TO.C,R4*%
X135500000Y-150912500D03*
X135500000Y-149087500D03*
%TD*%
D23*
%TO.C,R11*%
X199087500Y-85500000D03*
X200912500Y-85500000D03*
%TD*%
D24*
%TO.C,R10*%
X166959752Y-94597611D03*
X168540248Y-93685111D03*
%TD*%
D10*
%TO.C,R17*%
X147365719Y-120665248D03*
X148278219Y-119084752D03*
%TD*%
D25*
%TO.C,R12*%
X231459752Y-93685111D03*
X233040248Y-94597611D03*
%TD*%
D26*
%TO.C,C1*%
X206500000Y-197725000D03*
X206500000Y-199275000D03*
%TD*%
D19*
%TO.C,R24*%
X301500000Y-149087500D03*
X301500000Y-150912500D03*
%TD*%
D26*
%TO.C,C2*%
X204750000Y-197725000D03*
X204750000Y-199275000D03*
%TD*%
D23*
%TO.C,R23*%
X199087500Y-77500000D03*
X200912500Y-77500000D03*
%TD*%
D22*
%TO.C,R22*%
X98500000Y-150912500D03*
X98500000Y-149087500D03*
%TD*%
D27*
%TO.C,R25*%
X251721781Y-119084752D03*
X252634281Y-120665248D03*
%TD*%
D17*
%TO.C,R5*%
X200912500Y-210250000D03*
X199087500Y-210250000D03*
%TD*%
D22*
%TO.C,R30*%
X102750000Y-150912500D03*
X102750000Y-149087500D03*
%TD*%
D28*
%TO.C,C6*%
X184000000Y-193775000D03*
X184000000Y-192225000D03*
%TD*%
D17*
%TO.C,R1*%
X200912500Y-214500000D03*
X199087500Y-214500000D03*
%TD*%
D27*
%TO.C,R13*%
X255402389Y-116959752D03*
X256314889Y-118540248D03*
%TD*%
D24*
%TO.C,R18*%
X169084752Y-98278219D03*
X170665248Y-97365719D03*
%TD*%
D17*
%TO.C,R21*%
X200912500Y-251500000D03*
X199087500Y-251500000D03*
%TD*%
D14*
%TO.C,R27*%
X252634281Y-179334752D03*
X251721781Y-180915248D03*
%TD*%
D23*
%TO.C,R19*%
X199087500Y-89750000D03*
X200912500Y-89750000D03*
%TD*%
%TO.C,R31*%
X199087500Y-81750000D03*
X200912500Y-81750000D03*
%TD*%
D16*
%TO.C,R2*%
X168540248Y-206314889D03*
X166959752Y-205402389D03*
%TD*%
D18*
%TO.C,C4*%
X209775000Y-186750000D03*
X208225000Y-186750000D03*
%TD*%
%TO.C,C5*%
X211525000Y-203750000D03*
X209975000Y-203750000D03*
%TD*%
D25*
%TO.C,R20*%
X229334752Y-97365719D03*
X230915248Y-98278219D03*
%TD*%
D15*
%TO.C,R3*%
X144597611Y-183040248D03*
X143685111Y-181459752D03*
%TD*%
D22*
%TO.C,R8*%
X139750000Y-150912500D03*
X139750000Y-149087500D03*
%TD*%
D13*
%TO.C,R16*%
X233040248Y-205402389D03*
X231459752Y-206314889D03*
%TD*%
D19*
%TO.C,R14*%
X264500000Y-149087500D03*
X264500000Y-150912500D03*
%TD*%
D29*
%TO.C,SW1*%
X192075000Y-194075000D03*
X187925000Y-194075000D03*
X192075000Y-191925000D03*
X187925000Y-191925000D03*
%TD*%
M02*
