%TF.GenerationSoftware,KiCad,Pcbnew,9.0.7*%
%TF.CreationDate,2026-03-08T19:22:13+09:00*%
%TF.ProjectId,Angel_Line_1.0,416e6765-6c5f-44c6-996e-655f312e302e,rev?*%
%TF.SameCoordinates,Original*%
%TF.FileFunction,Legend,Top*%
%TF.FilePolarity,Positive*%
%FSLAX46Y46*%
G04 Gerber Fmt 4.6, Leading zero omitted, Abs format (unit mm)*
G04 Created by KiCad (PCBNEW 9.0.7) date 2026-03-08 19:22:13*
%MOMM*%
%LPD*%
G01*
G04 APERTURE LIST*
%ADD10C,0.150000*%
%ADD11C,0.120000*%
%ADD12C,0.200000*%
%ADD13C,0.100000*%
G04 APERTURE END LIST*
D10*
X174124819Y-188083333D02*
X174839104Y-188083333D01*
X174839104Y-188083333D02*
X174981961Y-188130952D01*
X174981961Y-188130952D02*
X175077200Y-188226190D01*
X175077200Y-188226190D02*
X175124819Y-188369047D01*
X175124819Y-188369047D02*
X175124819Y-188464285D01*
X175124819Y-187083333D02*
X175124819Y-187654761D01*
X175124819Y-187369047D02*
X174124819Y-187369047D01*
X174124819Y-187369047D02*
X174267676Y-187464285D01*
X174267676Y-187464285D02*
X174362914Y-187559523D01*
X174362914Y-187559523D02*
X174410533Y-187654761D01*
X204004819Y-192583333D02*
X204719104Y-192583333D01*
X204719104Y-192583333D02*
X204861961Y-192630952D01*
X204861961Y-192630952D02*
X204957200Y-192726190D01*
X204957200Y-192726190D02*
X205004819Y-192869047D01*
X205004819Y-192869047D02*
X205004819Y-192964285D01*
X204100057Y-192154761D02*
X204052438Y-192107142D01*
X204052438Y-192107142D02*
X204004819Y-192011904D01*
X204004819Y-192011904D02*
X204004819Y-191773809D01*
X204004819Y-191773809D02*
X204052438Y-191678571D01*
X204052438Y-191678571D02*
X204100057Y-191630952D01*
X204100057Y-191630952D02*
X204195295Y-191583333D01*
X204195295Y-191583333D02*
X204290533Y-191583333D01*
X204290533Y-191583333D02*
X204433390Y-191630952D01*
X204433390Y-191630952D02*
X205004819Y-192202380D01*
X205004819Y-192202380D02*
X205004819Y-191583333D01*
D11*
%TO.C,R9*%
X143561501Y-117709347D02*
X143816225Y-117268153D01*
X144466497Y-118231847D02*
X144721221Y-117790653D01*
%TO.C,R33*%
X215237258Y-186977500D02*
X214762742Y-186977500D01*
X215237258Y-188022500D02*
X214762742Y-188022500D01*
%TO.C,C7*%
X218859420Y-202490000D02*
X219140580Y-202490000D01*
X218859420Y-203510000D02*
X219140580Y-203510000D01*
%TO.C,R28*%
X230084347Y-201598171D02*
X229643153Y-201852895D01*
X230606847Y-202503167D02*
X230165653Y-202757891D01*
%TO.C,R15*%
X255533503Y-181768153D02*
X255278779Y-182209347D01*
X256438499Y-182290653D02*
X256183775Y-182731847D01*
%TO.C,R7*%
X147496833Y-180606847D02*
X147242109Y-180165653D01*
X148401829Y-180084347D02*
X148147105Y-179643153D01*
%TO.C,R6*%
X169834347Y-202757891D02*
X169393153Y-202503167D01*
X170356847Y-201852895D02*
X169915653Y-201598171D01*
%TO.C,R29*%
X200254724Y-246727500D02*
X199745276Y-246727500D01*
X200254724Y-247772500D02*
X199745276Y-247772500D01*
%TO.C,C8*%
X221609420Y-200490000D02*
X221890580Y-200490000D01*
X221609420Y-201510000D02*
X221890580Y-201510000D01*
%TO.C,C9*%
X222609420Y-188740000D02*
X222890580Y-188740000D01*
X222609420Y-189760000D02*
X222890580Y-189760000D01*
%TO.C,J1*%
X175670000Y-189080000D02*
X175670000Y-187750000D01*
X177000000Y-189080000D02*
X175670000Y-189080000D01*
X178270000Y-186420000D02*
X193570000Y-186420000D01*
X178270000Y-189080000D02*
X178270000Y-186420000D01*
X178270000Y-189080000D02*
X193570000Y-189080000D01*
X193570000Y-189080000D02*
X193570000Y-186420000D01*
%TO.C,C3*%
X209140580Y-188240000D02*
X208859420Y-188240000D01*
X209140580Y-189260000D02*
X208859420Y-189260000D01*
%TO.C,R26*%
X259727500Y-149745276D02*
X259727500Y-150254724D01*
X260772500Y-149745276D02*
X260772500Y-150254724D01*
%TO.C,IC49*%
X209890000Y-189890000D02*
X210840000Y-189890000D01*
X209890000Y-190840000D02*
X209890000Y-189890000D01*
X209890000Y-200110000D02*
X209890000Y-199160000D01*
X210840000Y-200110000D02*
X209890000Y-200110000D01*
X219160000Y-189890000D02*
X220110000Y-189890000D01*
X220110000Y-189890000D02*
X220110000Y-190840000D01*
X220110000Y-199160000D02*
X220110000Y-200110000D01*
X220110000Y-200110000D02*
X219160000Y-200110000D01*
X209250000Y-190840000D02*
X208910000Y-190370000D01*
X209590000Y-190370000D01*
X209250000Y-190840000D01*
G36*
X209250000Y-190840000D02*
G01*
X208910000Y-190370000D01*
X209590000Y-190370000D01*
X209250000Y-190840000D01*
G37*
%TO.C,R32*%
X296727500Y-149745276D02*
X296727500Y-150254724D01*
X297772500Y-149745276D02*
X297772500Y-150254724D01*
%TO.C,R4*%
X134977500Y-150254724D02*
X134977500Y-149745276D01*
X136022500Y-150254724D02*
X136022500Y-149745276D01*
%TO.C,R11*%
X199745276Y-84977500D02*
X200254724Y-84977500D01*
X199745276Y-86022500D02*
X200254724Y-86022500D01*
%TO.C,R10*%
X167268153Y-93816225D02*
X167709347Y-93561501D01*
X167790653Y-94721221D02*
X168231847Y-94466497D01*
%TO.C,R17*%
X147242109Y-119834347D02*
X147496833Y-119393153D01*
X148147105Y-120356847D02*
X148401829Y-119915653D01*
%TO.C,R12*%
X231768153Y-94466497D02*
X232209347Y-94721221D01*
X232290653Y-93561501D02*
X232731847Y-93816225D01*
%TO.C,C1*%
X205990000Y-198359420D02*
X205990000Y-198640580D01*
X207010000Y-198359420D02*
X207010000Y-198640580D01*
%TO.C,R24*%
X300977500Y-149745276D02*
X300977500Y-150254724D01*
X302022500Y-149745276D02*
X302022500Y-150254724D01*
%TO.C,C2*%
X204240000Y-198359420D02*
X204240000Y-198640580D01*
X205260000Y-198359420D02*
X205260000Y-198640580D01*
%TO.C,R23*%
X199745276Y-76977500D02*
X200254724Y-76977500D01*
X199745276Y-78022500D02*
X200254724Y-78022500D01*
%TO.C,R22*%
X97977500Y-150254724D02*
X97977500Y-149745276D01*
X99022500Y-150254724D02*
X99022500Y-149745276D01*
%TO.C,R25*%
X251598171Y-119915653D02*
X251852895Y-120356847D01*
X252503167Y-119393153D02*
X252757891Y-119834347D01*
%TO.C,R5*%
X200254724Y-209727500D02*
X199745276Y-209727500D01*
X200254724Y-210772500D02*
X199745276Y-210772500D01*
%TO.C,R30*%
X102227500Y-150254724D02*
X102227500Y-149745276D01*
X103272500Y-150254724D02*
X103272500Y-149745276D01*
%TO.C,C6*%
X183490000Y-193140580D02*
X183490000Y-192859420D01*
X184510000Y-193140580D02*
X184510000Y-192859420D01*
%TO.C,R1*%
X200254724Y-213977500D02*
X199745276Y-213977500D01*
X200254724Y-215022500D02*
X199745276Y-215022500D01*
%TO.C,R13*%
X255278779Y-117790653D02*
X255533503Y-118231847D01*
X256183775Y-117268153D02*
X256438499Y-117709347D01*
%TO.C,R18*%
X169393153Y-97496833D02*
X169834347Y-97242109D01*
X169915653Y-98401829D02*
X170356847Y-98147105D01*
%TO.C,R21*%
X200254724Y-250977500D02*
X199745276Y-250977500D01*
X200254724Y-252022500D02*
X199745276Y-252022500D01*
%TO.C,J2*%
X197490000Y-185940000D02*
X197490000Y-198560000D01*
X197490000Y-198560000D02*
X203460000Y-198560000D01*
X198250000Y-186700000D02*
X198250000Y-192250000D01*
X198250000Y-197800000D02*
X198250000Y-192250000D01*
X201200000Y-185950000D02*
X201200000Y-186700000D01*
X201200000Y-186700000D02*
X198250000Y-186700000D01*
X201200000Y-197800000D02*
X198250000Y-197800000D01*
X201200000Y-198550000D02*
X201200000Y-197800000D01*
X202700000Y-185950000D02*
X202700000Y-187750000D01*
X202700000Y-187750000D02*
X203450000Y-187750000D01*
X202700000Y-189250000D02*
X202700000Y-195250000D01*
X202700000Y-195250000D02*
X203450000Y-195250000D01*
X202700000Y-196750000D02*
X202700000Y-198550000D01*
X202700000Y-198550000D02*
X203450000Y-198550000D01*
X203450000Y-185950000D02*
X202700000Y-185950000D01*
X203450000Y-187750000D02*
X203450000Y-185950000D01*
X203450000Y-189250000D02*
X202700000Y-189250000D01*
X203450000Y-195250000D02*
X203450000Y-189250000D01*
X203450000Y-196750000D02*
X202700000Y-196750000D01*
X203450000Y-198550000D02*
X203450000Y-196750000D01*
X203460000Y-185940000D02*
X197490000Y-185940000D01*
X203460000Y-198560000D02*
X203460000Y-185940000D01*
X203750000Y-185650000D02*
X202500000Y-185650000D01*
X203750000Y-186900000D02*
X203750000Y-185650000D01*
%TO.C,R27*%
X251852895Y-179643153D02*
X251598171Y-180084347D01*
X252757891Y-180165653D02*
X252503167Y-180606847D01*
%TO.C,R19*%
X199745276Y-89227500D02*
X200254724Y-89227500D01*
X199745276Y-90272500D02*
X200254724Y-90272500D01*
%TO.C,R31*%
X199745276Y-81227500D02*
X200254724Y-81227500D01*
X199745276Y-82272500D02*
X200254724Y-82272500D01*
%TO.C,R2*%
X167709347Y-206438499D02*
X167268153Y-206183775D01*
X168231847Y-205533503D02*
X167790653Y-205278779D01*
%TO.C,C4*%
X209140580Y-186240000D02*
X208859420Y-186240000D01*
X209140580Y-187260000D02*
X208859420Y-187260000D01*
%TO.C,C5*%
X210890580Y-203240000D02*
X210609420Y-203240000D01*
X210890580Y-204260000D02*
X210609420Y-204260000D01*
%TO.C,R20*%
X229643153Y-98147105D02*
X230084347Y-98401829D01*
X230165653Y-97242109D02*
X230606847Y-97496833D01*
%TO.C,R3*%
X143816225Y-182731847D02*
X143561501Y-182290653D01*
X144721221Y-182209347D02*
X144466497Y-181768153D01*
%TO.C,R8*%
X139227500Y-150254724D02*
X139227500Y-149745276D01*
X140272500Y-150254724D02*
X140272500Y-149745276D01*
%TO.C,R16*%
X232209347Y-205278779D02*
X231768153Y-205533503D01*
X232731847Y-206183775D02*
X232290653Y-206438499D01*
%TO.C,R14*%
X263977500Y-149745276D02*
X263977500Y-150254724D01*
X265022500Y-149745276D02*
X265022500Y-150254724D01*
D12*
%TO.C,SW1*%
X187900000Y-193400000D02*
X187900000Y-192600000D01*
X191200000Y-191400000D02*
X188800000Y-191400000D01*
X191200000Y-194600000D02*
X188800000Y-194600000D01*
X192100000Y-193400000D02*
X192100000Y-192600000D01*
D13*
X193000000Y-194075000D02*
X193000000Y-194075000D01*
X193100000Y-194075000D02*
X193100000Y-194075000D01*
X193000000Y-194075000D02*
G75*
G02*
X193100000Y-194075000I50000J0D01*
G01*
X193100000Y-194075000D02*
G75*
G02*
X193000000Y-194075000I-50000J0D01*
G01*
%TD*%
M02*
