M48
; DRILL file {KiCad 9.0.7} date 2026-04-08T20:14:57+0900
; FORMAT={-:-/ absolute / inch / decimal}
; #@! TF.CreationDate,2026-04-08T20:14:57+09:00
; #@! TF.GenerationSoftware,Kicad,Pcbnew,9.0.7
; #@! TF.FileFunction,Plated,1,2,PTH
FMAT,2
INCH
; #@! TA.AperFunction,Plated,PTH,ViaDrill
T1C0.0118
; #@! TA.AperFunction,Plated,PTH,ComponentDrill
T2C0.0394
%
G90
G05
T1
X1.3504Y-1.5972
X1.3524Y-1.7307
X1.3547Y-1.9185
X1.3614Y-2.3008
X1.3654Y-2.1654
X1.387Y-2.4811
X1.4075Y-2.6551
X1.413Y-1.4425
X1.4232Y-1.2909
X1.4276Y-1.9823
X1.472Y-1.8461
X1.4811Y-2.5846
X1.4913Y-2.3646
X1.5028Y-2.235
X1.513Y-1.2551
X1.5189Y-2.1169
X1.5421Y-2.448
X1.5583Y-2.6756
X1.5815Y-1.8992
X1.6232Y-2.5012
X1.626Y-1.2346
X1.6323Y-1.9685
X1.6323Y-2.1563
X1.6394Y-2.2602
X1.6602Y-1.765
X1.6835Y-1.474
X1.6925Y-2.3854
X1.7067Y-2.5681
X1.7161Y-1.548
X1.748Y-2.1909
X1.7713Y-1.9894
X1.7783Y-1.8272
X1.7799Y-1.2701
X1.7831Y-1.6327
X1.7945Y-2.4665
X1.8154Y-1.4795
X1.8291Y-2.6425
X1.8453Y-1.7465
X1.8575Y-2.2079
X1.8827Y-2.0913
X1.887Y-2.3461
X1.9067Y-1.2421
X1.9197Y-2.5591
X1.9555Y-1.8504
X1.9591Y-2.6354
X2.0028Y-2.1886
X2.0087Y-1.6811
X2.0118Y-1.6209
X2.0272Y-1.3307
X2.0354Y-2.3551
X2.0654Y-2.6307
X2.0953Y-2.6921
X2.1063Y-1.5933
X2.1414Y-2.0355
X2.198Y-1.2307
X2.2114Y-2.1823
X2.2114Y-2.2657
X2.2244Y-2.1193
X2.2528Y-2.024
X2.2634Y-2.4035
X2.2685Y-1.4654
X2.289Y-1.9622
X2.313Y-1.7406
X2.3157Y-2.1555
X2.3189Y-1.6598
X2.339Y-1.5189
X2.3591Y-1.752
X2.3602Y-2.2043
X2.3858Y-2.3969
X2.3882Y-2.5071
X2.3917Y-1.5516
X2.3945Y-1.7598
X2.4417Y-1.5217
X2.4429Y-1.352
X2.4579Y-1.9591
X2.4581Y-1.3796
X2.4929Y-2.1886
X2.4937Y-2.3882
X2.4949Y-1.8311
X2.5063Y-2.0461
X2.5134Y-1.9764
X2.5205Y-1.3914
X2.5642Y-1.3993
X2.5681Y-1.6094
X2.5815Y-1.7236
X2.589Y-1.8244
X2.6291Y-1.5362
X2.6331Y-2.5142
X2.7035Y-1.4583
X2.7154Y-1.8945
X2.724Y-2.5142
X2.7362Y-2.5972
X2.7394Y-1.4728
X2.7543Y-2.2256
X2.7602Y-2.3524
X2.7933Y-1.95
X2.822Y-1.4567
X2.8366Y-2.5157
X2.8461Y-2.5972
X2.8705Y-1.8051
X2.8874Y-1.9902
X2.9059Y-2.3571
X2.9181Y-1.8535
X2.9386Y-2.5929
X2.9469Y-2.3199
X2.9754Y-2.4961
X2.9831Y-1.4685
X3.0177Y-1.5165
X3.0457Y-1.3913
X3.1047Y-1.3055
X3.1441Y-2.5882
X3.1965Y-1.2862
X3.2244Y-2.5929
X3.2591Y-1.4157
X3.2898Y-2.1748
X3.2906Y-2.0724
X3.2913Y-1.9634
X3.2929Y-1.8681
X3.2957Y-1.574
X3.3Y-1.7657
X3.3087Y-1.6705
X3.315Y-2.2811
X3.3406Y-1.4579
X3.3445Y-2.1728
X3.3587Y-2.6067
X3.3642Y-1.2469
X3.3689Y-1.565
X3.3713Y-1.9642
X3.3724Y-1.6665
X3.3724Y-2.2772
X3.374Y-2.0693
X3.3744Y-1.7642
X3.3795Y-1.8677
X3.3835Y-2.4579
X3.4008Y-2.3748
X3.5177Y-1.4594
X3.5213Y-2.4819
X3.5287Y-1.2437
X3.5894Y-2.678
X3.6531Y-2.6146
X3.6547Y-1.3398
X3.6685Y-2.198
X3.7504Y-2.5177
X3.774Y-1.461
X3.7953Y-1.8409
X3.8197Y-2.0846
X3.8205Y-2.4287
X3.8339Y-1.8646
X3.8528Y-2.3173
X3.8543Y-2.0319
X3.8559Y-2.174
X3.8689Y-1.5811
X3.887Y-1.6929
X3.8902Y-1.8154
T2
X2.3031Y-2.2984
X2.3031Y-2.5984
X2.3654Y-1.2795
X2.4031Y-2.2984
X2.4031Y-2.5984
X2.4654Y-1.2795
X2.5031Y-2.2984
X2.5031Y-2.5984
X2.5654Y-1.2795
X2.6031Y-2.2984
X2.6031Y-2.5984
X2.6654Y-1.2795
X2.7654Y-1.2795
X2.8654Y-1.2795
X2.9654Y-1.2795
X3.1047Y-1.5185
X3.1047Y-1.6185
X3.1047Y-1.7185
X3.1047Y-1.8185
X3.1047Y-1.9185
X3.1047Y-2.0185
X3.1047Y-2.1185
X3.1047Y-2.2185
X3.1047Y-2.3185
X3.1047Y-2.4185
X3.2047Y-1.5185
X3.2047Y-1.6185
X3.2047Y-1.7185
X3.2047Y-1.8185
X3.2047Y-1.9185
X3.2047Y-2.0185
X3.2047Y-2.1185
X3.2047Y-2.2185
X3.2047Y-2.3185
X3.2047Y-2.4185
X3.4646Y-1.5185
X3.4646Y-1.6185
X3.4646Y-1.7185
X3.4646Y-1.8185
X3.4646Y-1.9185
X3.4646Y-2.0185
X3.4646Y-2.1185
X3.4646Y-2.2185
X3.4646Y-2.3185
X3.4646Y-2.4185
X3.5646Y-1.5185
X3.5646Y-1.6185
X3.5646Y-1.7185
X3.5646Y-1.8185
X3.5646Y-1.9185
X3.5646Y-2.0185
X3.5646Y-2.1185
X3.5646Y-2.2185
X3.5646Y-2.3185
X3.5646Y-2.4185
M30
