%TF.GenerationSoftware,KiCad,Pcbnew,9.0.7*%
%TF.CreationDate,2026-04-08T20:14:57+09:00*%
%TF.ProjectId,Main board,4d61696e-2062-46f6-9172-642e6b696361,rev?*%
%TF.SameCoordinates,Original*%
%TF.FileFunction,Soldermask,Bot*%
%TF.FilePolarity,Negative*%
%FSLAX46Y46*%
G04 Gerber Fmt 4.6, Leading zero omitted, Abs format (unit mm)*
G04 Created by KiCad (PCBNEW 9.0.7) date 2026-04-08 20:14:57*
%MOMM*%
%LPD*%
G01*
G04 APERTURE LIST*
G04 Aperture macros list*
%AMRoundRect*
0 Rectangle with rounded corners*
0 $1 Rounding radius*
0 $2 $3 $4 $5 $6 $7 $8 $9 X,Y pos of 4 corners*
0 Add a 4 corners polygon primitive as box body*
4,1,4,$2,$3,$4,$5,$6,$7,$8,$9,$2,$3,0*
0 Add four circle primitives for the rounded corners*
1,1,$1+$1,$2,$3*
1,1,$1+$1,$4,$5*
1,1,$1+$1,$6,$7*
1,1,$1+$1,$8,$9*
0 Add four rect primitives between the rounded corners*
20,1,$1+$1,$2,$3,$4,$5,0*
20,1,$1+$1,$4,$5,$6,$7,0*
20,1,$1+$1,$6,$7,$8,$9,0*
20,1,$1+$1,$8,$9,$2,$3,0*%
G04 Aperture macros list end*
%ADD10RoundRect,0.250000X-0.600000X-0.600000X0.600000X-0.600000X0.600000X0.600000X-0.600000X0.600000X0*%
%ADD11C,1.700000*%
%ADD12R,1.700000X1.700000*%
%ADD13O,1.700000X1.700000*%
G04 APERTURE END LIST*
D10*
%TO.C,J3*%
X88000000Y-38570000D03*
D11*
X90540000Y-38570000D03*
X88000000Y-41110000D03*
X90540000Y-41110000D03*
X88000000Y-43650000D03*
X90540000Y-43650000D03*
X88000000Y-46190000D03*
X90540000Y-46190000D03*
X88000000Y-48730000D03*
X90540000Y-48730000D03*
X88000000Y-51270000D03*
X90540000Y-51270000D03*
X88000000Y-53810000D03*
X90540000Y-53810000D03*
X88000000Y-56350000D03*
X90540000Y-56350000D03*
X88000000Y-58890000D03*
X90540000Y-58890000D03*
X88000000Y-61430000D03*
X90540000Y-61430000D03*
%TD*%
D12*
%TO.C,J1*%
X60080000Y-32500000D03*
D13*
X62620000Y-32500000D03*
X65160000Y-32500000D03*
X67700000Y-32500000D03*
X70240000Y-32500000D03*
X72780000Y-32500000D03*
X75320000Y-32500000D03*
%TD*%
D12*
%TO.C,J6*%
X58500000Y-58380000D03*
D13*
X61040000Y-58380000D03*
X63580000Y-58380000D03*
X66120000Y-58380000D03*
%TD*%
D12*
%TO.C,J5*%
X58500000Y-66000000D03*
D13*
X61040000Y-66000000D03*
X63580000Y-66000000D03*
X66120000Y-66000000D03*
%TD*%
D12*
%TO.C,J2*%
X81400000Y-38570000D03*
D13*
X78860000Y-38570000D03*
X81400000Y-41110000D03*
X78860000Y-41110000D03*
X81400000Y-43650000D03*
X78860000Y-43650000D03*
X81400000Y-46190000D03*
X78860000Y-46190000D03*
X81400000Y-48730000D03*
X78860000Y-48730000D03*
X81400000Y-51270000D03*
X78860000Y-51270000D03*
X81400000Y-53810000D03*
X78860000Y-53810000D03*
X81400000Y-56350000D03*
X78860000Y-56350000D03*
X81400000Y-58890000D03*
X78860000Y-58890000D03*
X81400000Y-61430000D03*
X78860000Y-61430000D03*
%TD*%
M02*
